<?xml version="1.0" encoding="utf-8"?><svg xmlns="http://www.w3.org/2000/svg" xmlns:xlink="http://www.w3.org/1999/xlink"><symbol viewBox="-1 -1 18 18" id="price" xmlns="http://www.w3.org/2000/svg"><path d="M3 16c-.75-.018-1.41-.094-1.937-.385a1.88 1.88 0 01-.838-.998C.06 14.18 0 13.657 0 13v-3c0-.658.06-1.179.225-1.617a1.88 1.88 0 01.838-.998c.282-.156.599-.234.937-.287v1.025c-.187.036-.347.08-.455.139-.183.1-.287.212-.385.472C1.063 8.994 1 9.408 1 10v3c0 .592.063 1.006.16 1.266.098.26.202.371.385.472.366.202 1.197.247 2.455.262h8c1.259-.015 2.087-.06 2.453-.262.184-.1.29-.212.387-.472.097-.26.16-.674.16-1.266v-3c0-.592-.063-1.006-.16-1.266-.098-.26-.203-.371-.387-.472A1.622 1.622 0 0014 8.123V7.098c.338.053.655.131.938.287.376.207.673.56.837.998.165.438.225.96.225 1.617v3c0 .658-.06 1.179-.225 1.617a1.88 1.88 0 01-.837.998c-.527.29-1.188.367-1.938.385z"/><path d="M3 10V4h10v6h-1V5H4v5z"/><path d="M5 9V8h6v1zm0-2V6h6v1zM3 3V2h10v1zm0-2V0h10v1z"/></symbol><symbol viewBox="-1 -1 18 18" id="responsibility" xmlns="http://www.w3.org/2000/svg"><path d="M7 0C5.901 0 5 .902 5 2H4v.025c-.75.019-1.41.071-1.938.362a1.878 1.878 0 00-.84.996C1.058 3.821 1 4.343 1 5v7c0 .658.058 1.179.223 1.617.164.439.463.79.84.998.527.291 1.182.342 1.937.36V16h10V5h-1c0-.658-.06-1.179-.225-1.617a1.875 1.875 0 00-.837-.996c-.527-.291-1.189-.343-1.938-.362V2H9c0-1.098-.901-2-2-2zm0 1c.558 0 1 .442 1 1a.99.99 0 01-1 1 .982.982 0 01-.922-.61A1.007 1.007 0 016 2c0-.558.442-1 1-1zM4 3.04V4h6v-.96c.666.031 1.204.084 1.453.222.184.1.29.212.387.472.097.26.16.674.16 1.266H4v8.96c-.672-.03-1.204-.084-1.453-.222-.184-.1-.29-.212-.387-.472C2.063 13.006 2 12.592 2 12V5c0-.592.063-1.006.16-1.266.098-.26.202-.371.385-.472.249-.138.788-.191 1.455-.223zM5 6h8v9H5zm1.008 1v1h6.012V7zm0 2v1h6.012V9zM6 11v1h3v-1z"/></symbol><symbol viewBox="-1 -1 18 18" id="sketch" xmlns="http://www.w3.org/2000/svg"><path d="M12.238 1l-.353.36-8.969 9.095-.03.045c-.061.099-.27.45-.583 1.088-.314.638-.7 1.51-1.012 2.492L1 15l.92-.291a18.163 18.163 0 002.492-1.012c.638-.314.987-.52 1.088-.584l.045-.029L15 3.762zM12 9v1h3V9zm-8.11 1.89l1.22 1.22-.178.175c.007-.005-.379.227-.961.514-.214.105-.536.222-.834.338l-.274-.274c.116-.298.233-.62.338-.834.287-.582.518-.966.514-.96zM10 11v1h5v-1zm-2 2v1h7v-1z"/></symbol><symbol viewBox="-1 -1 18 18" id="speed" xmlns="http://www.w3.org/2000/svg"><path d="M7.5 1c-1.978 0-3.77.769-5.11 2.018L1.365 1.992a34.471 34.471 0 00-.646 1.983A41.553 41.553 0 00.188 6c.669-.15 1.345-.325 2.03-.523.69-.203 1.349-.421 1.975-.655L3.1 3.727A6.466 6.466 0 017.5 2C11.094 2 14 4.906 14 8.5S11.094 15 7.5 15a6.49 6.49 0 01-6.475-6h-1A7.488 7.488 0 007.5 16c4.147 0 7.5-3.353 7.5-7.5S11.647 1 7.5 1zM7 4v5.207l2.396 2.397.708-.708L8 8.793V4zm6.1 10.97l.027.036-.014-.022-.013-.013zm-12.21.005c-.003.005-.01.009-.013.013l-.014.022z"/></symbol></svg>