<?xml version="1.0" standalone="no"?>
<!DOCTYPE svg PUBLIC "-//W3C//DTD SVG 1.1//EN" "http://www.w3.org/Graphics/SVG/1.1/DTD/svg11.dtd" >
<svg xmlns="http://www.w3.org/2000/svg" xmlns:xlink="http://www.w3.org/1999/xlink" version="1.1">
<metadata></metadata>
<defs>
<font id="webnarregular" horiz-adv-x="1075" >
<font-face units-per-em="2048" ascent="1651" descent="-397" />
<missing-glyph horiz-adv-x="409" />
<glyph unicode="&#xd;" horiz-adv-x="681" />
<glyph unicode=" "  horiz-adv-x="409" />
<glyph unicode="&#x09;" horiz-adv-x="409" />
<glyph unicode="&#xa0;" horiz-adv-x="409" />
<glyph unicode="!" horiz-adv-x="321" d="M72 18v150q0 18 18 18h143q18 0 19 -18v-150q0 -18 -19 -18h-143q-18 0 -18 18zM80 1417q-4 17 16 17h129q18 0 19 -17l-23 -979q-4 -16 -18 -16h-84q-16 0 -17 16z" />
<glyph unicode="&#x22;" horiz-adv-x="614" d="M68 1417q0 17 18 17h129q20 0 16 -17l-22 -422q0 -16 -16 -16h-84q-14 0 -19 16zM383 1417q-4 17 16 17h129q20 0 17 -17l-21 -422q-4 -16 -18 -16h-84q-16 0 -16 16z" />
<glyph unicode="#" horiz-adv-x="1173" d="M70 512l14 63q10 23 33 23h186l64 238h-189q-25 0 -18 22l16 64q6 25 33 24h186l123 465q4 23 29 23h74q25 0 18 -27l-123 -461h260l123 465q4 23 29 23h73q27 0 19 -27l-121 -461h186q25 0 19 -24l-17 -64q-6 -23 -30 -22h-187l-63 -238h188q25 0 19 -23l-17 -63 q-6 -25 -30 -25h-189l-123 -464q-4 -23 -28 -23h-74q-27 0 -18 27l120 460h-258l-123 -464q-6 -23 -28 -23h-74q-27 0 -18 27l120 460h-186q-25 0 -18 25zM426 598h258l64 238h-261z" />
<glyph unicode="$" horiz-adv-x="1136" d="M109 1061v22q0 160 111.5 259.5t277.5 115.5v246q0 16 16 16h86q16 0 16 -16v-246q199 -14 304 -78q18 -8 18 -28v-107q-8 2 -193 53q-80 23 -172 23h-12q-119 0 -205 -64.5t-86 -177.5v-8q0 -53 23.5 -94t69 -69.5t83.5 -45.5t95 -35l94 -30q98 -35 157.5 -63.5t119 -76 t87 -115t27.5 -159.5v-18q0 -170 -119 -273.5t-291 -116.5v-245q0 -16 -16 -17h-86q-16 0 -16 17v245q-199 12 -342 93q-18 10 -19 28v107q10 12 21 12q92 -41 129 -53q117 -49 248 -49h14q131 0 223 64.5t92 191.5v6q0 133 -114 198q-78 39 -177 72l-92 31 q-80 27 -139 56.5t-116.5 74.5t-87 109.5t-29.5 144.5z" />
<glyph unicode="%" horiz-adv-x="1974" d="M68 1010v75q0 166 91 270.5t251 104.5h28q160 0 251 -105.5t91 -269.5v-75q0 -164 -91 -269.5t-251 -105.5h-28q-160 0 -251 105.5t-91 269.5zM197 1010q0 -113 55 -187.5t164 -74.5h16q109 0 164 75.5t55 186.5v75q0 113 -55 188t-164 75h-16q-109 0 -164 -75t-55 -188 v-75zM596 8q-4 6 0 17l659 1386q10 23 33 23h76q12 0 14 -7q2 -10 0 -18l-657 -1386q-12 -23 -35 -23h-74q-14 0 -16 8zM1196 348v76q0 164 90 269.5t250 105.5h29q160 0 251 -105.5t91 -269.5v-76q0 -164 -91.5 -269.5t-250.5 -105.5h-29q-162 0 -251 106.5t-89 268.5z M1323 348q0 -113 55.5 -187.5t163.5 -74.5h17q109 0 164 75t55 187v76q0 113 -55 187.5t-164 74.5h-17q-109 0 -164 -74.5t-55 -187.5v-76z" />
<glyph unicode="&#x26;" horiz-adv-x="1423" d="M86 371v35q0 129 70.5 218t195.5 126q-96 41 -157.5 123.5t-61.5 183.5v35q0 178 126 273t312 95h13q61 0 147 -16.5t86 -52.5v-109q0 -12 -10 -12q-4 0 -8 2q-119 47 -209 47h-10q-125 0 -206 -64.5t-81 -187.5v-18q0 -121 94 -186.5t221 -65.5h316v426q0 23 18 26 l109 27q2 0 6 2h2q16 0 16 -21v-460h283q18 0 18 -19v-88q0 -16 -18 -16h-283v-424q0 -80 33 -113q31 -37 98 -37h8q51 0 142 33q2 2 6 2h6l2 -2q6 -6 6 -14v-80q0 -16 -16 -23q-92 -43 -172 -43h-14q-180 0 -224 150q-186 -150 -399 -150h-16q-188 0 -318.5 106.5 t-130.5 291.5zM248 393q0 -127 88 -202.5t219 -75.5h14q162 0 355 141v418l-351 2q-250 0 -307 -172q-18 -45 -18 -96v-15z" />
<glyph unicode="'" horiz-adv-x="301" d="M68 1417q0 17 18 17h129q20 0 16 -17l-22 -422q0 -16 -16 -16h-84q-14 0 -19 16z" />
<glyph unicode="(" horiz-adv-x="577" d="M141 190v793q0 418 351 477l16 -106q0 -12 -16 -17q-113 -43 -153 -132t-40 -226v-784q0 -248 137 -334q25 -12 56 -25q16 -4 16 -16v-90q-188 2 -277.5 133t-89.5 327z" />
<glyph unicode=")" horiz-adv-x="577" d="M68 -180q0 12 18 16q31 12 55 25q59 37 97 104q41 97 41 230v784q0 137 -40 226t-153 132q-18 2 -18 17v90q0 16 18 16q350 -59 350 -477v-793q0 -418 -350 -477h-4q-14 0 -14 17v90z" />
<glyph unicode="*" horiz-adv-x="894" d="M70 1130l41 119q6 12 14 13q6 0 10 -2l246 -107l-14 264q0 16 16 17h127q18 0 18 -17l-16 -264l248 107q4 2 8 2q10 -1 14 -13l43 -119q6 -18 -10 -22l-262 -80l186 -201q10 -12 0 -24l-100 -78q-6 -6 -12 -6t-13 8l-168 229l-167 -229q-2 -8 -11 -8q-6 0 -12 6l-100 78 q-12 12 -2 22l188 203l-262 80q-16 4 -10 22z" />
<glyph unicode="+" horiz-adv-x="1089" d="M68 604v90q0 16 18 17h395v358q0 16 17 16h94q16 0 16 -16v-358h396q16 0 16 -17v-90q0 -16 -16 -16h-396l-2 -357q0 -16 -16 -16h-92q-16 0 -17 16v357h-395q-18 0 -18 16z" />
<glyph unicode="," horiz-adv-x="335" d="M70 -322l82 322h-52q-16 0 -16 18v150q0 18 16 18h150q18 0 18 -18v-131q0 -20 -6 -35l-84 -330q-2 -14 -22 -14h-74q-14 0 -12 20z" />
<glyph unicode="-" horiz-adv-x="776" d="M68 604v90q0 17 18 17h604q16 0 17 -17v-90q0 -16 -17 -16h-604q-18 0 -18 16z" />
<glyph unicode="." horiz-adv-x="317" d="M68 18v150q0 18 18 18h143q18 0 19 -18v-150q0 -18 -19 -18h-143q-18 0 -18 18z" />
<glyph unicode="/" horiz-adv-x="624" d="M70 27l364 1384q4 23 29 23h74q27 0 18 -27l-362 -1384q-6 -23 -31 -23h-74q-25 0 -18 27z" />
<glyph unicode="0" horiz-adv-x="1343" d="M141 582v270q0 266 130 437t386 171h31q258 0 387 -173t129 -435v-270q0 -295 -143 -451q-145 -158 -373 -158h-31q-227 0 -372 158q-143 156 -144 451zM303 578q0 -201 85 -332t274 -131h22q190 0 274 130t84 333v278q0 203 -84 333t-274 130h-22q-188 0 -273.5 -131 t-85.5 -332v-278z" />
<glyph unicode="1" horiz-adv-x="821" d="M68 16v107q0 18 18 18h256v1119l-256 -99l-4 -2h-4q-10 0 -10 15v116q0 18 18 25l291 112q16 6 35 7h71q17 -1 17 -17v-1276h235q18 0 19 -18v-107q0 -16 -19 -16h-649q-18 0 -18 16z" />
<glyph unicode="2" horiz-adv-x="1122" d="M109 16v99q0 16 8 24l381 404q20 23 62 66.5t56 60.5q217 231 218 374v11q0 123 -83 194.5t-208 71.5h-15q-147 0 -344 -88q-16 -4 -18 12v107q0 20 18 28q141 80 351 80h18q188 0 314 -101.5t126 -285.5v-20q1 -215 -368 -594l-303 -318h673q16 0 17 -18v-107 q0 -16 -17 -16h-868q-18 0 -18 16z" />
<glyph unicode="3" horiz-adv-x="1077" d="M109 1352q0 20 18 28q141 80 350 80h17q190 0 320 -93t130 -275v-35q0 -102 -61.5 -184t-157.5 -123q125 -37 195.5 -126t70.5 -218v-35q0 -190 -144.5 -294t-342.5 -104h-17q-205 0 -356 80q-16 10 -16 29v108q10 -2 192 -53q80 -23 174 -22h15q137 0 235 73.5t98 204.5 v15q0 133 -94 200.5t-231 67.5h-189q-18 0 -18 16v88q0 16 18 17h154q129 0 222 65.5t93 186.5v18q0 121 -87 186.5t-212 65.5h-14q-147 0 -342 -86q-2 -2 -8 -2q-4 0 -6 2z" />
<glyph unicode="4" horiz-adv-x="1239" d="M68 393v88q0 29 14 49l610 885q12 19 35 19h174q18 0 19 -17v-901h235q16 0 16 -16v-107q0 -16 -16 -16h-235v-361q0 -16 -19 -16h-125q-16 0 -16 16v361h-674q-18 0 -18 16zM238 516h522v750z" />
<glyph unicode="5" horiz-adv-x="1083" d="M109 82v108q8 12 12 13q6 0 8 -2q186 -86 350 -86h15q147 0 245.5 79.5t98.5 225.5v10q0 152 -89.5 229.5t-242.5 77.5q-66 0 -158 -18q-45 -12 -139 -33q-20 0 -29 8l-14 15q-12 8 -12 26v682q0 16 18 17h715q16 0 16 -17v-106q0 -18 -16 -19h-576v-473q182 41 256 41 q201 0 316.5 -111.5t115.5 -312.5v-33q0 -199 -145 -314.5t-350 -115.5h-19q-215 0 -358 80q-18 8 -18 29z" />
<glyph unicode="6" horiz-adv-x="1193" d="M141 580v34q0 147 23.5 281.5t78 268.5t166 215t267.5 81h16q168 0 316 -80q18 -8 18 -28v-109q-72 14 -123 37q-84 39 -201 39h-12q-106 0 -182 -52.5t-116 -141.5t-59.5 -176t-25.5 -189q195 110 379 110q195 0 308.5 -109.5t113.5 -301.5v-31q0 -203 -131 -329 t-336 -126h-16q-127 0 -222.5 50.5t-151.5 137.5t-83 192.5t-27 226.5zM303 543q0 -152 39 -232q74 -197 281 -196h12q143 0 227 93t84 238v11q0 139 -77.5 215t-219.5 76q-158 0 -346 -109v-96z" />
<glyph unicode="7" horiz-adv-x="1073" d="M68 1311v106q0 17 18 17h903q16 0 17 -17v-96q0 -14 -9 -25l-460 -634q-8 -14 -9 -29v-617q0 -16 -18 -16h-125q-16 0 -16 16v648q0 31 16 53l428 575h-727q-18 0 -18 19z" />
<glyph unicode="8" horiz-adv-x="1202" d="M86 371v32q0 127 73.5 217.5t196.5 127.5q-98 41 -159.5 123.5t-61.5 183.5v35q0 178 134.5 274t320.5 96h22q188 0 321.5 -95t133.5 -275v-35q0 -102 -61.5 -183t-159.5 -122q123 -37 197.5 -128.5t74.5 -218.5v-32q0 -131 -76.5 -224.5t-186.5 -133.5t-239 -40h-30 q-203 0 -351.5 102.5t-148.5 295.5zM248 391q0 -135 98 -205.5t240 -70.5h32q139 0 237.5 70.5t98.5 205.5v15q0 135 -92 202.5t-229 67.5h-64q-137 0 -229 -69.5t-92 -200.5v-15zM293 1051q0 -117 84 -183.5t205 -66.5h32q209 0 279 162q16 45 16 88v18q0 123 -85 187.5 t-212 64.5h-20q-127 0 -213 -65.5t-86 -186.5v-18z" />
<glyph unicode="9" horiz-adv-x="1193" d="M86 975v31q0 201 133 327.5t334 126.5h16q127 0 222.5 -50t151.5 -137t83 -192.5t27 -226.5v-35q0 -147 -23.5 -281.5t-78 -268.5t-166 -215t-267.5 -81h-16q-168 0 -316 80q-18 8 -18 29v108q63 -12 123 -36q88 -39 201 -39h12q106 0 182 52t116 141t59.5 176t25.5 190 q-195 -111 -379 -111q-195 0 -308.5 110.5t-113.5 301.5zM248 977q0 -139 79 -215t218 -76q158 0 346 109v96q0 180 -76 304t-244 124h-12q-145 0 -228 -92t-83 -240v-10z" />
<glyph unicode=":" horiz-adv-x="317" d="M68 18v150q0 18 18 18h143q18 0 19 -18v-150q0 -18 -19 -18h-143q-18 0 -18 18zM68 756v149q0 19 18 19h143q18 0 19 -19v-149q0 -18 -19 -19h-143q-18 0 -18 19z" />
<glyph unicode=";" horiz-adv-x="335" d="M70 -322l84 322h-54q-16 0 -16 18v150q0 18 16 18h150q18 0 18 -18v-131q0 -20 -6 -35l-84 -330q-2 -14 -22 -14h-74q-14 0 -12 20zM88 756v149q0 19 18 19h144q18 0 18 -19v-149q0 -18 -18 -19h-144q-18 0 -18 19z" />
<glyph unicode="&#x3c;" horiz-adv-x="1087" d="M68 539v84q0 20 18 26l905 326q4 2 8.5 2t12.5 -4q6 -6 6 -17v-88q0 -27 -21 -28l-735 -260l735 -258q20 -6 21 -29v-88q0 -20 -17 -21q-6 0 -10 2l-905 326q-18 6 -18 27z" />
<glyph unicode="=" horiz-adv-x="1087" d="M68 442v68q0 16 18 16h915q16 0 17 -16v-68q0 -16 -17 -16h-915q-18 0 -18 16zM68 733v68q0 16 18 16h915q16 0 17 -16v-68q0 -16 -17 -16h-915q-18 0 -18 16z" />
<glyph unicode="&#x3e;" horiz-adv-x="1087" d="M68 205v88q0 23 22 29l733 258l-733 260q-23 4 -22 28v88q0 10 8 17q8 4 12 4t8 -2l905 -326q16 -6 17 -26v-84q0 -20 -17 -27l-905 -326q-4 -2 -10 -2t-10 4q-8 2 -8 17z" />
<glyph unicode="?" horiz-adv-x="1026" d="M68 1352q0 20 18 28q143 80 358 80h19q203 0 349 -102.5t146 -296.5v-31q0 -178 -119.5 -282.5t-299.5 -104.5q-53 0 -119 10l-4 -215q-4 -16 -17 -16h-86q-12 0 -16 16l-6 277q-4 16 12 28l14 13q10 8 29 8h12q98 -10 111 -10q137 0 232.5 70.5t95.5 203.5v12 q0 137 -100.5 208t-243.5 71h-15q-162 0 -350 -86q-2 -2 -8 -2q-4 0 -6 2zM266 18v150q1 18 19 18h143q18 0 18 -18v-150q0 -18 -18 -18h-143q-18 0 -19 18z" />
<glyph unicode="@" horiz-adv-x="1892" d="M172 260v510q0 287 156.5 447.5t441.5 160.5h477q287 0 442.5 -159.5t155.5 -448.5v-532q0 -125 -57 -189q-76 -76 -201 -76h-86q-31 0 -61 7q-37 10 -68 26q-33 14 -59 51q-27 33 -33 82q-145 -166 -334 -166h-8q-195 0 -286 126t-91 329v160q0 209 105.5 336t310.5 127 h16q215 0 412 -117q14 -8 14 -27v-667q0 -139 107 -140h51q106 0 106 140v534q0 223 -110.5 344t-329.5 121h-469q-219 0 -329.5 -121t-110.5 -344v-516q0 -225 109.5 -345t330.5 -120h615q16 0 16 -16v-107q0 -18 -16 -18h-619q-285 0 -441.5 161.5t-156.5 446.5zM717 430 q0 -330 260 -330h6q150 0 285 146v596q-146 84 -275 84h-8q-127 0 -199 -84q-72 -88 -69 -246v-166z" />
<glyph unicode="A" horiz-adv-x="1286" d="M70 16l452 1397q7 21 25 21h192q18 0 25 -21l453 -1397q4 -16 -15 -16h-125q-18 0 -24 20l-135 410h-549l-136 -410q-6 -20 -24 -20h-125q-18 0 -14 16zM408 569h471l-64 195l-168 532h-10l-166 -532z" />
<glyph unicode="B" horiz-adv-x="1234" d="M172 16v1401q0 16 16 17h471q442 0 443 -353v-28q0 -102 -56.5 -182t-152.5 -121q258 -80 258 -353v-30q0 -195 -122 -281t-324 -86h-517q-16 0 -16 16zM330 141h364q295 0 295 250v12q0 37 -6 72q-55 201 -311 201h-342v-535zM330 797h307q131 0 219 61.5t88 188.5v6 q0 133 -78 186t-217 53h-319v-495z" />
<glyph unicode="C" horiz-adv-x="1193" d="M141 608v217q0 274 161 454.5t427 180.5h25q195 0 336 -82q18 -10 18 -30v-103q-217 74 -342 74h-14q-215 0 -332 -142.5t-117 -359.5v-201q0 -217 118 -359t331 -142h14q156 0 324 86h8l10 -117q0 -18 -18 -29q-63 -39 -158.5 -60.5t-177.5 -21.5h-25q-270 0 -429 182.5 t-159 452.5z" />
<glyph unicode="D" horiz-adv-x="1349" d="M172 16v1401q0 17 16 17h471q270 0 410.5 -171t140.5 -444v-205q0 -274 -141 -444t-410 -170h-471q-16 0 -16 16zM330 139h313q209 0 308.5 132.5t99.5 349.5v192q0 217 -99.5 348t-308.5 131h-313v-1153z" />
<glyph unicode="E" horiz-adv-x="1134" d="M172 16v1401q0 16 16 17h844q16 0 17 -17v-106q0 -18 -17 -19h-702v-485h655q16 0 16 -16v-107q0 -18 -16 -18h-655v-525h702q16 0 17 -18v-107q0 -16 -17 -16h-844q-16 0 -16 16z" />
<glyph unicode="F" horiz-adv-x="1134" d="M172 16v1401q0 17 16 17h844q16 0 17 -17v-106q0 -18 -17 -19h-702v-493h655q16 0 16 -17v-106q0 -16 -16 -17h-655v-643q0 -16 -17 -16h-125q-16 0 -16 16z" />
<glyph unicode="G" horiz-adv-x="1320" d="M141 608v217q0 279 171.5 457t443.5 178h22q193 0 338 -84q16 -10 17 -28v-103q-23 4 -181 53q-68 20 -161 21h-13q-219 0 -347 -140.5t-128 -361.5v-201q0 -221 120 -361t337 -140h14q115 0 227 53v526q0 16 17 17h123q16 0 16 -17v-585q0 -23 -16 -33 q-70 -45 -175.5 -74t-191.5 -29h-24q-188 0 -340 95.5t-220 265.5q-49 114 -49 253v21z" />
<glyph unicode="H" horiz-adv-x="1392" d="M172 16v1401q0 16 16 17h125q16 0 17 -17v-610h733v610q0 17 16 17h125q16 0 17 -17v-1401q0 -16 -17 -16h-125q-16 0 -16 16v650h-733v-650q0 -16 -17 -16h-125q-16 0 -16 16z" />
<glyph unicode="I" horiz-adv-x="501" d="M172 16v1401q0 17 16 17h125q16 0 17 -17v-1401q0 -16 -17 -16h-125q-16 0 -16 16z" />
<glyph unicode="J" horiz-adv-x="800" d="M68 49v109q0 10 6 12q2 2 6 2q6 0 8 -2q88 -55 176 -55h8q195 0 195 252v1050q0 17 16 17h129q16 0 17 -17v-1052q0 -176 -81 -284t-249 -108h-10q-113 0 -207 56q-14 6 -14 20z" />
<glyph unicode="K" horiz-adv-x="1263" d="M172 16v1401q0 16 16 17h125q16 0 17 -17v-624h223l432 628q8 12 23 13h137q12 0 14 -9q2 -6 -2 -14l-463 -684l498 -704q4 -4 2 -15q-2 -8 -12 -8h-144q-14 0 -22 12l-461 639h-225v-635q0 -16 -17 -16h-125q-16 0 -16 16z" />
<glyph unicode="L" horiz-adv-x="1071" d="M172 16v1401q0 16 16 17h125q17 -1 17 -17v-1276h655q16 0 16 -18v-107q0 -16 -16 -16h-797q-16 0 -16 16z" />
<glyph unicode="M" horiz-adv-x="1685" d="M164 16v1401q0 16 16 17h158q20 0 27 -17l471 -815h6l471 815q10 17 26 17h160q16 0 17 -17v-1401q0 -16 -17 -16h-129q-16 0 -16 16l2 781l14 405h-12l-230 -405l-229 -385q-10 -16 -27 -17h-67q-16 0 -27 17l-227 385l-232 405h-12l15 -405l4 -781q0 -16 -19 -16h-127 q-16 0 -16 16z" />
<glyph unicode="N" horiz-adv-x="1392" d="M164 16v1401q0 16 16 17h146q16 0 24 -15l723 -1175h10l-12 561v612q0 17 16 17h125q16 0 17 -17v-1401q0 -16 -17 -16h-145q-16 0 -25 14l-436 705l-287 471h-10l13 -471v-703q0 -16 -17 -16h-125q-16 0 -16 16z" />
<glyph unicode="O" horiz-adv-x="1409" d="M141 582v270q0 270 143.5 439t403.5 169h31q264 0 406.5 -171t142.5 -437v-270q0 -270 -144.5 -439.5t-404.5 -169.5h-31q-264 0 -405.5 172t-141.5 437zM303 578q0 -205 96.5 -334t292.5 -129h23q199 0 295 130t96 333v278q0 205 -96 334t-295 129h-23q-197 0 -293 -129 t-96 -334v-278z" />
<glyph unicode="P" horiz-adv-x="1280" d="M172 16v1401q0 17 16 17h445q229 0 368.5 -100.5t139.5 -319.5v-37q0 -227 -142.5 -338t-373.5 -111h-295v-512q0 -16 -17 -16h-125q-16 0 -16 16zM330 664h280q369 0 369 315v22q0 162 -98.5 226.5t-270.5 64.5h-280v-628z" />
<glyph unicode="Q" horiz-adv-x="1409" d="M141 582v270q0 270 143.5 439t403.5 169h31q264 0 406.5 -171t142.5 -437v-270q0 -348 -224 -512l218 -217q12 -8 0 -25l-76 -74q-6 -6 -12.5 -6t-12.5 6l-250 250q-88 -31 -192 -31h-31q-264 0 -405.5 172t-141.5 437zM303 578q0 -205 96 -335t293 -130h23 q199 0 295 131t96 334v278q0 205 -96.5 334t-294.5 129h-23q-197 0 -293 -129t-96 -334v-278z" />
<glyph unicode="R" horiz-adv-x="1275" d="M172 16v1401q0 17 16 17h459q498 0 498 -398v-30q0 -160 -88 -266.5t-246 -141.5l145 -207l248 -371q6 -8 2 -14q-2 -6 -14 -6h-139q-18 0 -27 14l-373 559h-323v-557q0 -16 -17 -16h-125q-16 0 -16 16zM330 705h291q160 0 261 73.5t101 225.5v12q0 158 -93 217t-263 59 h-297v-587z" />
<glyph unicode="S" horiz-adv-x="1122" d="M102 1061v22q0 174 132.5 275.5t310.5 101.5h16q211 0 352 -80q18 -8 19 -28v-107q-14 2 -195 53q-80 23 -170 23h-12q-119 0 -205 -63.5t-86 -178.5v-8q0 -53 22.5 -94t67.5 -69.5t83 -45t95 -35.5l97 -30q98 -35 157.5 -63.5t119 -76t87 -115t27.5 -159.5v-18 q0 -186 -137.5 -289t-329.5 -103h-18q-207 0 -385 95q-18 10 -19 28v107q51 -8 150 -41q117 -49 247 -49h15q131 0 223 65.5t92 190.5v6q0 127 -115 198q-78 39 -176 72l-94 31q-170 57 -270.5 145t-100.5 240z" />
<glyph unicode="T" horiz-adv-x="1220" d="M68 1311v106q0 17 18 17h1051q16 0 16 -17v-106q0 -18 -16 -19h-447v-1276q0 -16 -16 -16h-125q-16 0 -17 16v1276h-446q-18 0 -18 19z" />
<glyph unicode="U" horiz-adv-x="1388" d="M172 518v899q0 16 16 17h127q16 0 17 -17v-895q0 -186 86 -296.5t268 -110.5h23q184 0 270 109.5t86 297.5v895q0 17 16 17h127q16 0 17 -17v-899q0 -252 -134.5 -398.5t-377.5 -146.5h-31q-248 0 -379 147.5t-131 397.5z" />
<glyph unicode="V" horiz-adv-x="1247" d="M70 1413q-6 20 14 21h125q16 0 24 -19l254 -811l134 -467h6l133 467l254 811q6 19 24 19h125q20 0 15 -21l-433 -1395q-6 -18 -24 -18h-195q-18 0 -24 18z" />
<glyph unicode="W" horiz-adv-x="2015" d="M70 1413q-6 20 14 21h125q16 0 24 -19l164 -600l172 -665h9l174 665l163 600q6 18 25 19h137q18 0 25 -19l164 -600l172 -665h10l172 665l164 600q6 19 24 19h123q18 0 17 -21l-387 -1395q-8 -18 -27 -18h-172q-20 0 -27 18l-145 527l-176 680h-10l-177 -680l-147 -527 q-6 -18 -25 -18h-172q-20 0 -26 18z" />
<glyph unicode="X" horiz-adv-x="1245" d="M70 20l438 711l-422 682q-2 8 0 14q4 6 12 7h138q16 0 24 -15l264 -415l94 -177h11l92 177l262 415q9 15 27 15h137q8 0 12 -7q2 -6 0 -14l-422 -682l437 -711q6 -8 2 -14q-6 -6 -15 -6h-139q-16 0 -25 14l-276 443l-92 176l-11 -2l-94 -174l-276 -443q-8 -14 -25 -14 h-139q-10 0 -12 6q-6 4 -2 14z" />
<glyph unicode="Y" horiz-adv-x="1267" d="M70 1409q-4 10 2 18q2 6 14 7h127q18 0 29 -17l280 -526l109 -248h6l108 248l283 526q11 17 27 17h129q8 0 14 -7q2 -10 0 -18l-485 -924v-469q0 -16 -17 -16h-125q-16 0 -16 16v469z" />
<glyph unicode="Z" horiz-adv-x="1144" d="M96 16v99q0 10 6 22l744 1155h-707q-16 0 -16 19v106q0 16 16 17h883q16 0 16 -17v-98q0 -11 -6 -23l-741 -1155h741q18 0 19 -18v-107q0 -16 -19 -16h-919q-16 0 -17 16z" />
<glyph unicode="[" horiz-adv-x="663" d="M172 -244v1661q0 16 16 17h392q16 0 16 -17v-90q0 -16 -16 -16h-250v-1448h250q16 0 16 -17v-90q0 -16 -16 -16h-392q-16 0 -16 16z" />
<glyph unicode="\" horiz-adv-x="624" d="M70 1407q-7 27 18 27h74q25 0 28 -23l365 -1384q8 -27 -18 -27h-74q-23 0 -29 23z" />
<glyph unicode="]" horiz-adv-x="663" d="M68 -154q0 16 18 17h248v1448h-248q-18 0 -18 16v90q0 17 18 17h391q16 0 17 -17v-1661q0 -16 -17 -16h-391q-18 0 -18 16v90z" />
<glyph unicode="^" horiz-adv-x="763" d="M70 758l243 676q6 18 27 18h84q21 0 27 -18l243 -676q4 -10 -2 -18.5t-16 -8.5h-88q-25 0 -29 23l-174 532h-6l-174 -532q-4 -23 -29 -23h-88q-10 0 -16 8.5t-2 18.5z" />
<glyph unicode="_" horiz-adv-x="1087" d="M68 -94q0 16 18 16h915q16 0 17 -16v-90q0 -16 -17 -17h-915q-18 0 -18 17v90z" />
<glyph unicode="`" horiz-adv-x="432" d="M70 1925q-2 6 2 14l110 7q19 -1 29 -19l149 -319l-88 -17q-14 0 -24 17z" />
<glyph unicode="a" horiz-adv-x="1003" d="M68 266v13q0 96 38.5 163.5t110.5 101.5t145.5 48t167.5 18l195 8v44q0 139 -52 201.5t-184 62.5h-8q-129 0 -315 -78q-2 0 -4 -1t-4 -1q-10 0 -11 14v88q0 20 17 27q166 76 344 76h10q190 0 274.5 -96.5t84.5 -288.5v-650q0 -16 -17 -16h-106q-14 0 -17 14l-6 121 q-94 -100 -215 -143q-61 -18 -119 -19h-10q-139 0 -229 78t-90 215zM221 285q0 -92 62.5 -140.5t156.5 -48.5h9q143 1 276 146v276l-197 -6q-307 -8 -307 -217v-10z" />
<glyph unicode="b" horiz-adv-x="1112" d="M131 117v1376q0 16 16 16h119q16 0 17 -16v-590q133 148 317 148h12q195 0 290 -126t95 -329v-160q0 -209 -109.5 -336t-314.5 -127h-16q-92 0 -215 34t-197 83q-14 8 -14 27zM283 182q145 -84 274 -84h8q141 0 210 92.5t69 237.5v166q0 150 -63.5 240t-207.5 90h-6 q-152 0 -284 -146v-596z" />
<glyph unicode="c" horiz-adv-x="995" d="M113 444v136q0 211 122.5 341t331.5 130h23q143 0 280 -78q16 -6 17 -27v-90q-197 68 -279 68h-16q-152 0 -238 -97.5t-86 -248.5v-132q0 -152 87 -249t237 -97h16q109 0 262 80l17 -102q0 -20 -17 -27q-137 -78 -280 -78h-23q-207 0 -330.5 131.5t-123.5 339.5z" />
<glyph unicode="d" horiz-adv-x="1112" d="M113 428v160q0 205 100 334t299 129h12q178 0 305 -140v582q1 16 17 16h119q16 0 16 -16v-1477q0 -16 -16 -16h-107q-14 0 -16 14l-6 115q-131 -156 -324 -156h-12q-195 0 -291 126t-96 329zM268 430q0 -150 63.5 -240t207.5 -90h6q150 0 284 146v532q-134 146 -284 146 h-6q-270 0 -271 -330v-164z" />
<glyph unicode="e" horiz-adv-x="1077" d="M113 418v145q0 209 114.5 348.5t319.5 139.5h22q201 0 300.5 -125t99.5 -332v-78q0 -23 -25 -22h-676v-91q0 -141 91.5 -223t232.5 -82h10q135 0 311 82l17 -102q0 -20 -17 -27q-150 -78 -329 -78h-15q-205 0 -330.5 120t-125.5 325zM268 592h555v5q0 335 -260 335h-14 q-137 0 -207 -98.5t-74 -241.5z" />
<glyph unicode="f" horiz-adv-x="745" d="M47 918v90q0 16 19 16h131v213q0 137 77.5 218t214.5 81h17q96 0 176 -39q14 -6 14 -22v-82q0 -8 -6 -13q-100 31 -162 31h-8q-84 0 -128 -55.5t-44 -141.5v-190h273q16 0 16 -16v-90q0 -16 -16 -17h-273v-885q0 -16 -16 -16h-119q-16 0 -16 16v885h-131q-18 0 -19 17z " />
<glyph unicode="g" horiz-adv-x="1101" d="M113 451v137q0 209 105.5 336t309.5 127h17q96 0 214.5 -34t196.5 -83q14 -8 15 -27v-870q0 -195 -109.5 -300.5t-302.5 -105.5h-12q-166 0 -332 74q-16 6 -16 27v92q209 -70 321 -70h8q291 0 291 283v108q-138 -149 -315 -149h-2h-13q-195 0 -285.5 126t-90.5 329z M268 453q0 -330 260 -330h7q152 0 284 145v574q-145 84 -274 84h-8q-139 0 -204 -91.5t-65 -236.5v-145z" />
<glyph unicode="h" horiz-adv-x="1105" d="M135 16v1477q0 16 17 16h118q16 0 17 -16v-590q170 148 340 148h14q170 0 255 -95.5t85 -269.5v-670q0 -16 -18 -16h-117q-18 0 -19 16v646q0 131 -56 196.5t-181 65.5h-6q-139 0 -297 -133v-775q0 -16 -17 -16h-118q-16 0 -17 16z" />
<glyph unicode="i" horiz-adv-x="436" d="M135 1221v139q1 18 19 18h135q16 0 16 -18v-139q0 -18 -16 -19h-135q-18 0 -19 19zM143 16v992q1 16 19 16h117q18 0 18 -16v-992q0 -16 -18 -16h-117q-18 0 -19 16z" />
<glyph unicode="j" horiz-adv-x="575" d="M47 -238q0 14 12 15q4 0 9 -2q49 -20 100 -21h8q53 0 80 33t27 86v1135q0 16 18 16h117q18 0 18 -16v-1135q0 -111 -57 -176.5t-166 -65.5h-14q-78 0 -133 27q-16 10 -19 27v77zM274 1221v139q1 18 19 18h133q18 0 18 -18v-139q0 -18 -18 -19h-133q-18 0 -19 19z" />
<glyph unicode="k" horiz-adv-x="999" d="M135 16v1477q0 16 17 16h118q16 0 17 -16v-905h176l280 424q10 12 23 12h125q12 0 14 -8.5t-2 -16.5l-305 -469l350 -503q6 -8 2 -19q-2 -8 -16 -8h-131q-16 0 -23 12l-317 453h-176v-449q0 -16 -17 -16h-118q-16 0 -17 16z" />
<glyph unicode="l" horiz-adv-x="413" d="M135 16v1477q1 16 17 16h118q16 0 17 -16v-1477q0 -16 -17 -16h-118q-16 0 -17 16z" />
<glyph unicode="m" horiz-adv-x="1759" d="M131 16v992q0 16 16 16h107q14 0 16 -14l6 -111q174 152 345 152h14q223 0 293 -174q186 174 366 174h15q326 0 325 -365v-670q0 -16 -18 -16h-119q-16 0 -16 16v646q0 131 -48.5 196.5t-172.5 65.5h-7q-145 0 -305 -142q10 -55 10 -120v-646q0 -16 -16 -16h-119 q-18 0 -18 16v646q0 131 -48 196.5t-173 65.5h-6q-143 0 -295 -131v-777q0 -16 -17 -16h-119q-16 0 -16 16z" />
<glyph unicode="n" horiz-adv-x="1095" d="M131 16v992q0 16 16 16h107q14 0 16 -14l6 -111q175 152 345 152h14q170 0 252 -96.5t82 -268.5v-670q0 -16 -17 -16h-118q-16 0 -17 16v646q0 129 -53 195.5t-180 66.5h-6q-143 0 -295 -131v-777q0 -16 -17 -16h-119q-16 0 -16 16z" />
<glyph unicode="o" horiz-adv-x="1136" d="M113 436v152q0 207 119.5 335t324.5 128h23q207 0 325.5 -127t118.5 -336v-152q0 -207 -119 -335t-325 -128h-23q-205 0 -324.5 128t-119.5 335zM268 430q0 -147 76 -238.5t217 -91.5h14q143 0 218 91.5t75 238.5v164q0 147 -75 238.5t-218 91.5h-14q-141 0 -217 -92.5 t-76 -237.5v-164z" />
<glyph unicode="p" horiz-adv-x="1116" d="M135 -326v1334q0 16 17 16h106q14 0 16 -14l5 -115q61 72 147 114t178 42h12q195 0 290 -126t95 -329v-160q0 -205 -99 -334t-298 -129h-12q-176 0 -305 140v-439q0 -16 -17 -16h-118q-16 0 -17 16zM287 246q135 -145 284 -146h7q143 0 206.5 90.5t63.5 239.5v164 q0 150 -63.5 240t-206.5 90h-7q-152 0 -284 -146v-532z" />
<glyph unicode="q" horiz-adv-x="1101" d="M113 428v160q0 207 106 335t309 128h17q98 0 216 -33t195 -84q16 -10 17 -27v-1233q0 -16 -19 -16h-116q-18 0 -19 16v447q-137 -147 -315 -148h-15q-195 0 -285.5 128t-90.5 327zM268 430q0 -330 262 -330h7q150 0 282 146v596q-145 84 -274 84h-8q-139 0 -204 -92.5 t-65 -237.5v-166z" />
<glyph unicode="r" horiz-adv-x="729" d="M131 16v992q0 16 16 16h107q14 0 16 -14l9 -142q143 183 323 183h8q23 0 56 -4q16 -4 16 -21v-106q0 -16 -20 -17h-5q-37 4 -67 4h-8q-156 0 -299 -159v-732q0 -16 -17 -16h-119q-16 0 -16 16z" />
<glyph unicode="s" horiz-adv-x="876" d="M78 754v12q0 137 103.5 211t246.5 74h23q61 0 180 -29t119 -68v-88q-193 70 -289 70h-15q-82 0 -148.5 -41t-66.5 -119v-10q0 -37 15 -59q23 -49 168 -99q14 -2 20 -6l58 -18q152 -53 219 -105q86 -61 86 -200v-11q0 -143 -106.5 -219t-256.5 -76h-20q-72 0 -161 19.5 t-142 52.5q-16 6 -17 27v88q195 -72 312 -72h16q92 0 157.5 43t65.5 129v10q0 100 -121 148q-66 25 -71 26l-58 19q-57 20 -65 22q-23 6 -62 25q-39 14 -61 31q-92 53 -117 141q-12 35 -12 72z" />
<glyph unicode="t" horiz-adv-x="690" d="M47 918v77q0 16 19 19l124 10v199q1 22 19 26l110 25q4 2 11 2q14 0 14 -19v-233h283q16 0 16 -16v-90q0 -16 -16 -17h-283v-651q0 -150 129 -150h10q53 0 140 33q2 2 6 2h6l2 -2q6 -6 6 -14v-80q0 -29 -73.5 -47.5t-114.5 -18.5h-15q-82 0 -137 31q-113 53 -113 225v672 h-124q-18 0 -19 17z" />
<glyph unicode="u" d="M127 338v670q0 16 16 16h119q16 0 17 -16v-646q0 -127 48 -194.5t169 -67.5h6q143 0 295 131v777q0 16 18 16h117q18 0 18 -16v-992q0 -16 -18 -16h-105q-14 0 -16 14l-8 111q-174 -152 -342 -152h-15q-319 0 -319 365z" />
<glyph unicode="v" horiz-adv-x="1024" d="M49 1001q-6 23 17 23h116q18 0 25 -18l166 -451l137 -424h4l137 424l166 451q7 18 23 18h118q12 0 15 -6q4 -8 2 -17l-361 -983q-6 -18 -22 -18h-158q-20 0 -24 18z" />
<glyph unicode="w" horiz-adv-x="1566" d="M49 1001q-6 23 17 23h116q18 0 25 -18l125 -428l114 -437h9l114 437l123 428q4 18 25 18h133q18 0 24 -18l125 -428l115 -437h8l113 437l125 428q6 18 24 18h117q27 0 17 -23l-297 -983q-6 -18 -25 -18h-143q-16 0 -23 18l-90 295l-152 551h-10l-151 -551l-88 -295 q-10 -18 -25 -18h-143q-23 0 -25 18z" />
<glyph unicode="x" horiz-adv-x="958" d="M49 8q-4 10 2 19l324 497l-309 475q-2 8 0 16.5t12 8.5h125q16 0 22 -12l197 -295l53 -107h8l54 107l194 295q11 12 25 12h123q12 0 14 -8t-2 -17l-307 -475l323 -497q6 -8 2 -19q-2 -8 -14 -8h-127q-14 0 -23 12l-208 318l-54 104h-8l-53 -104l-209 -318q-8 -12 -23 -12 h-127q-12 0 -14 8z" />
<glyph unicode="y" horiz-adv-x="1028" d="M49 1001q-6 23 17 23h116q18 0 25 -18l192 -514l113 -361h4l115 361l190 514q11 18 25 18h119q8 0 14 -6q4 -6 0 -17l-399 -1085q-49 -137 -116 -211t-190 -74h-14q-45 0 -105.5 12.5t-60.5 41.5v86q0 8 6 12q0 4 6 4q4 0 7 -2q80 -29 133 -29h6q68 0 104.5 42t65.5 118 l33 84h-21q-16 0 -22 18z" />
<glyph unicode="z" horiz-adv-x="894" d="M68 16v82q0 12 10 29l553 770h-518q-16 0 -17 16v95q0 16 17 16h688q16 0 16 -16v-82q0 -13 -10 -29l-553 -770h557q16 0 16 -16v-95q0 -16 -16 -16h-725q-18 0 -18 16z" />
<glyph unicode="{" horiz-adv-x="747" d="M68 541v90q0 16 18 16h109q27 0 43 19q16 16 16 45v583q0 61 38 100.5t99 39.5h271q16 0 16 -17v-90q0 -16 -16 -16h-191q-27 0 -43 -17q-16 -20 -16 -47v-540q0 -88 -76 -121q76 -31 76 -121v-539q0 -27 16 -47q16 -16 43 -16h191q16 0 16 -17v-90q0 -16 -16 -16h-271 q-61 0 -99 39t-38 100v584q0 25 -16 45q-16 16 -43 16h-109q-18 0 -18 17z" />
<glyph unicode="|" horiz-adv-x="501" d="M172 -135v1552q0 17 16 17h125q16 0 17 -17v-1552q0 -16 -17 -17h-125q-16 0 -16 17z" />
<glyph unicode="}" horiz-adv-x="747" d="M68 -154q0 16 18 17h188q29 0 45 16q14 16 15 47v539q0 90 76 121q-76 33 -76 121v540q0 31 -15 47q-16 16 -45 17h-188q-18 0 -18 16v90q0 16 18 17h268q61 0 100.5 -39t39.5 -101v-583q0 -29 16 -45q14 -19 43 -19h109q16 0 16 -16v-90q0 -16 -16 -17h-109 q-27 0 -43 -16q-16 -20 -16 -45v-584q0 -61 -39 -100t-101 -39h-268q-18 0 -18 16v90z" />
<glyph unicode="~" horiz-adv-x="919" d="M68 553v76q0 20 12 26l6 2q4 2 10 5.5t13 7.5q6 2 12 6t10 7t6 3t11.5 5t17.5 9q16 8 63 23l37 6q10 2 35 2q72 0 166 -49q90 -51 151 -51q72 0 209 71q4 2 9 3q6 0 8 -3q6 -2 6 -14v-78q0 -16 -16 -26q-45 -27 -60 -35q-98 -41 -158 -41q-72 0 -161 51q-96 49 -156 49 q-74 0 -207 -69q-8 -4 -10 -4t-6 4q-8 2 -8 14z" />
<glyph unicode="&#xa1;" horiz-adv-x="321" d="M72 924v149q0 19 18 19h143q18 0 19 -19v-149q0 -18 -19 -19h-143q-18 0 -18 19zM80 -326l22 979q1 17 17 17h84q14 0 18 -17l23 -979q0 -16 -19 -16h-129q-20 0 -16 16z" />
<glyph unicode="&#xa2;" horiz-adv-x="995" d="M113 444v136q0 195 107.5 323.5t299.5 145.5v245q0 16 17 17h86q16 0 16 -17v-245q125 -14 231 -76q16 -6 17 -27v-90q-197 68 -279 68h-16q-152 0 -238 -97.5t-86 -248.5v-132q0 -154 87 -250t237 -96h16q109 0 262 80l17 -102q0 -20 -17 -27q-106 -61 -231 -76v-245 q0 -16 -16 -17h-86q-16 0 -17 17v245q-193 20 -300 148.5t-107 320.5z" />
<glyph unicode="&#xa3;" horiz-adv-x="1091" d="M68 649v68q0 18 18 18h127q-37 178 -37 279v20q0 195 125 310.5t322 115.5h18q166 0 313 -80q16 -10 17 -28v-107q-4 -16 -19 -12q-180 88 -305 88h-14q-133 0 -215 -86t-82 -221v-10q0 -104 33 -269h415q16 0 17 -18v-68q0 -16 -17 -16h-399q10 -72 10 -121 q0 -195 -121 -371h705q18 0 18 -18v-107q0 -16 -18 -16h-844q-16 0 -16 16v95q0 16 6 24q8 25 55 107q0 2 8.5 19.5t14.5 33.5q39 96 39 215q0 51 -11 123h-145q-18 0 -18 16z" />
<glyph unicode="&#xa4;" horiz-adv-x="1253" d="M74 80q-12 12 0 24l170 170q-98 131 -97 297q0 168 99 297l-172 172q-12 12 0 23l61 61q6 6 12.5 6t12.5 -6l172 -172q125 100 297 101q166 0 295 -99l170 170q6 6 12 6t12 -6l62 -61q12 -10 0 -23l-170 -170q100 -131 100 -299t-100 -299l170 -168q12 -12 0 -24l-62 -60 q-6 -6 -12 -6t-12 6l-168 168q-127 -100 -297 -100q-168 0 -299 102l-170 -170q-6 -6 -12.5 -6t-12.5 6zM272 571q-2 -150 103 -254q100 -104 254 -104q152 0 254 103.5t102 255t-104.5 253t-257.5 101.5q-150 0 -248.5 -102.5t-102.5 -252.5z" />
<glyph unicode="&#xa5;" horiz-adv-x="1267" d="M70 1409q-4 10 2 18q2 6 14 7h127q18 0 29 -17l280 -526l109 -248h6l108 248l283 526q11 17 27 17h129q8 0 14 -7q2 -10 0 -18l-430 -819h279q18 0 18 -19v-67q0 -16 -18 -17h-332l-2 -2v-186h334q18 0 18 -18v-68q0 -16 -18 -16h-334v-181q0 -16 -17 -16h-125 q-16 0 -16 16v181h-334q-16 0 -16 16v68q0 18 16 18h334v188h-334q-16 0 -16 17v67q0 18 16 19h281z" />
<glyph unicode="&#xa6;" horiz-adv-x="501" d="M172 -135v631q0 18 16 18h125q16 0 17 -18v-631q0 -16 -17 -17h-125q-16 0 -16 17zM172 786v631q0 17 16 17h125q16 0 17 -17v-631q0 -18 -17 -18h-125q-16 0 -16 18z" />
<glyph unicode="&#xa7;" horiz-adv-x="892" d="M68 580v10q0 164 153 241q-117 74 -117 201v12q0 135 100.5 210t239.5 75h23q61 0 180 -28.5t119 -67.5v-88q-197 70 -291 69h-12q-84 0 -144.5 -39.5t-60.5 -119.5v-11q0 -37 14 -59q23 -49 168 -98q10 -2 23 -6l55 -19q152 -53 219 -104q86 -61 86 -201v-10 q0 -164 -151 -242q115 -74 114 -201v-12q0 -137 -99 -211t-238 -74h-23q-61 0 -180 29t-119 68v88q193 -70 289 -70h14q84 0 144.5 40t60.5 120v10q0 51 -30 80t-85 53q-14 6 -69 25q-14 2 -21 6l-57 18q-150 55 -217 105q-88 66 -88 201zM197 596q0 -51 33.5 -88 t69.5 -52.5t91 -33.5l158 -53q145 35 145 161v11q0 74 -52 110.5t-140 63.5l-160 53q-92 -23 -125 -84q-20 -33 -20 -78v-10z" />
<glyph unicode="&#xa8;" horiz-adv-x="614" d="M68 1630v150q0 18 18 18h127q18 0 18 -18v-150q0 -18 -18 -18h-127q-18 0 -18 18zM383 1630v150q0 18 18 18h127q18 0 19 -18v-150q0 -18 -19 -18h-127q-18 0 -18 18z" />
<glyph unicode="&#xa9;" horiz-adv-x="1257" d="M68 983.5q0 235.5 162.5 394t398 158.5t397.5 -158.5t162 -394t-162 -394.5t-397.5 -159t-398 159t-162.5 394.5zM145 983q0 -205 139.5 -342t344.5 -137t344 137t139 342t-139 341t-344 136t-344.5 -136t-139.5 -341zM389 942v72q0 111 65.5 178.5t176.5 67.5h10 q23 0 64 -9q6 -2 17 -5t15 -3q25 -10 27 -10l20 -10q10 -6 11 -17v-57q0 -8 -7 -8h-6q-76 37 -133 37h-8q-72 0 -115 -46.5t-43 -119.5v-70q0 -53 24.5 -95t72.5 -59q27 -12 61 -12h8q55 0 133 37q2 2 6 2q6 0 7 -10v-55q0 -12 -11 -19q-63 -37 -143 -37h-10 q-111 0 -176.5 68.5t-65.5 179.5z" />
<glyph unicode="&#xab;" horiz-adv-x="833" d="M68 514v33q0 12 10 26l225 269q8 8 21 8h96l-221 -320l227 -303l-102 -16q-10 0 -21 10l-225 268q-10 10 -10 25zM403 514v33q0 12 11 26l225 269q8 8 20 8h95l-219 -320l227 -303l-103 -16q-10 0 -20 10l-225 268q-10 10 -11 25z" />
<glyph unicode="&#xac;" horiz-adv-x="1087" d="M68 604v90q0 17 18 17h915q16 0 17 -17v-325q0 -16 -17 -17h-94q-16 0 -16 17v219h-805q-18 0 -18 16z" />
<glyph unicode="&#xad;" horiz-adv-x="776" d="M68 604v90q0 17 18 17h604q16 0 17 -17v-90q0 -16 -17 -16h-604q-18 0 -18 16z" />
<glyph unicode="&#xae;" horiz-adv-x="1257" d="M68 983.5q0 235.5 162.5 394t398 158.5t397.5 -158.5t162 -394t-162 -394.5t-397.5 -159t-398 159t-162.5 394.5zM145 983q0 -205 139.5 -342t344.5 -137t344 137t139 342t-139 341t-344 136t-344.5 -136t-139.5 -341zM418 696v553l8 8h229q197 0 197 -170v-10 q0 -129 -133 -155l37 -48l118 -174l-88 -14q-10 0 -16 10l-145 213h-113v-213q0 -10 -10 -10h-76q-8 0 -8 10zM512 983h129q49 0 82 23.5t33 70.5v10q0 92 -115 93h-129v-197z" />
<glyph unicode="&#xaf;" horiz-adv-x="667" d="M68 1628v82q0 16 18 16h496q16 0 16 -16v-82q0 -16 -16 -16h-496q-18 0 -18 16z" />
<glyph unicode="&#xb0;" horiz-adv-x="643" d="M68 1288.5q0 104.5 74.5 176t179 71.5t179 -71.5t74.5 -176t-74.5 -177.5t-179 -73t-179 73t-74.5 177.5zM164 1288q0 -68 45 -111.5t112.5 -43.5t112.5 44t45 111q0 88 -76 135q-35 18 -73 19q-29 0 -60 -6q-29 -10 -43 -23q-18 -12 -34 -33q-14 -18 -21 -43 q-8 -23 -8 -49z" />
<glyph unicode="&#xb1;" horiz-adv-x="1089" d="M68 129v68q0 16 18 16h918q16 0 16 -16v-68q0 -16 -16 -16h-918q-18 0 -18 16zM68 623v90q0 16 18 16h395v279q0 16 17 16h94q16 0 16 -16v-279h396q16 0 16 -16v-90q0 -16 -16 -17h-396l-2 -278q0 -16 -16 -17h-92q-16 0 -17 17v278h-395q-18 0 -18 17z" />
<glyph unicode="&#xb4;" horiz-adv-x="432" d="M70 1608l149 319q10 18 29 19h102l-166 -338q-10 -16 -26 -17h-78z" />
<glyph unicode="&#xb6;" horiz-adv-x="1093" d="M68 1024q0 195 90 302.5t274 107.5h473q16 0 17 -17v-1743q0 -16 -17 -16h-86q-16 0 -16 16v1665h-250v-1665q0 -16 -16 -16h-86q-18 0 -19 16v957q-365 0 -364 393z" />
<glyph unicode="&#xb7;" horiz-adv-x="317" d="M68 524v150q0 18 18 18h143q18 0 19 -18v-150q0 -18 -19 -18h-143q-18 0 -18 18z" />
<glyph unicode="&#xb8;" horiz-adv-x="495" d="M68 -356q0 12 16 12q82 -20 121 -21q123 0 123 89q0 27 -13 45q-23 37 -84 36q-27 0 -81 -14q-14 0 -23 4l-8 6q-16 10 -13 21l33 178h86l-20 -121q25 8 59 8q72 0 118 -42t46 -113q0 -86 -59.5 -129t-147.5 -43q-154 0 -153 53v31z" />
<glyph unicode="&#xbb;" horiz-adv-x="833" d="M72 836l102 14q12 0 21 -8l225 -269q10 -14 10 -26v-33q0 -14 -10 -25l-225 -268q-10 -10 -21 -10h-96l221 319zM406 836l102 14q14 0 22 -8l226 -269q8 -10 8 -26v-33q0 -16 -8 -25l-226 -268q-10 -10 -22 -10h-94l219 319z" />
<glyph unicode="&#xbc;" horiz-adv-x="1812" d="M68 678v80q0 16 18 16h172v526l-172 -65h-6q-12 0 -12 12v76q0 20 18 25l205 79q14 6 35 7h39q16 -1 16 -17v-643h154q16 0 16 -16v-80q0 -16 -16 -16h-449q-18 0 -18 16zM416 25l659 1386q10 23 33 23h76q10 0 16 -7q4 -10 -2 -18l-657 -1386q-12 -23 -33 -23h-76 q-12 0 -14 8q-6 6 -2 17zM1065 211v59q0 16 8 27l322 455q14 20 39 20h122q17 0 17 -16v-457h153q18 0 19 -16v-72q0 -18 -19 -18h-153v-177q0 -16 -17 -16h-88q-18 0 -18 16v177h-369q-16 0 -16 18zM1188 299h262v369z" />
<glyph unicode="&#xbd;" horiz-adv-x="1687" d="M68 678v80q0 16 18 16h172v526l-172 -65h-6q-12 0 -12 12v76q0 20 18 25l205 79q14 6 35 7h39q16 -1 16 -17v-643h154q16 0 16 -16v-80q0 -16 -16 -16h-449q-18 0 -18 16zM416 25l659 1386q10 23 33 23h76q10 0 16 -7q4 -10 -2 -18l-657 -1386q-12 -23 -33 -23h-76 q-12 0 -14 8q-6 6 -2 17zM1065 16v70q0 14 8 23l135 112q6 4 21 19q98 88 129 118q109 102 108 183v8q0 63 -43 102t-106 39h-14q-74 0 -197 -55l-16 88q0 20 16 27q105 49 209 49h16q104 0 185 -60q78 -70 77 -172v-16q0 -16 -4 -45q-6 -20 -16 -45q-4 -8 -11.5 -20.5 t-9.5 -18.5q-8 -18 -30 -43q-6 -6 -18.5 -19.5t-16.5 -19.5l-43 -43q-23 -23 -43 -39q-6 -6 -23.5 -20.5t-28 -24.5t-27.5 -24.5t-24 -20.5l-59 -55h365q16 0 16 -17v-80q0 -16 -16 -16h-523q-16 0 -16 16z" />
<glyph unicode="&#xbe;" horiz-adv-x="1867" d="M68 711v71q180 -43 223 -43h10q72 0 125 36t53 104v8q0 61 -44 92t-105 31h-119q-16 0 -16 16v59q0 16 16 17h102q39 0 70 12q51 16 72 68q8 16 8 39v6q0 61 -46 95t-112 34h-6q-72 0 -203 -53q-12 -4 -16 10v71q0 20 16 27q111 49 211 49h8q109 0 191 -56t82 -161v-14 q0 -111 -111 -170q129 -47 129 -182v-17q0 -109 -89 -167t-204 -58h-14q-102 0 -213 49q-18 6 -18 27zM471 8q-4 6 0 17l659 1386q10 23 33 23h74q12 0 16 -7q4 -10 0 -18l-659 -1386q-10 -23 -33 -23h-74q-14 0 -16 8zM1120 211v59q0 16 8 27l322 455q14 20 39 20h123 q16 0 16 -16v-457h154q16 0 16 -16v-72q0 -18 -16 -18h-154v-177q0 -16 -16 -16h-90q-16 0 -17 16v177h-368q-16 0 -17 18zM1241 299h264v369z" />
<glyph unicode="&#xbf;" horiz-adv-x="1026" d="M68 31v30q0 176 120.5 282t298.5 106q53 0 119 -11l4 215q5 17 17 17h86q12 0 16 -17l6 -276q4 -16 -12 -29l-14 -12q-10 -8 -29 -8h-12q-98 10 -111 10q-139 0 -233.5 -69.5t-94.5 -205.5v-12q0 -137 100.5 -207.5t243.5 -70.5h15q160 0 350 86h6q12 0 14 -11v-108 q0 -18 -18 -29q-147 -80 -358 -80h-19q-203 0 -349 102.5t-146 297.5zM580 924v149q0 19 18 19h143q18 0 19 -19v-149q0 -18 -19 -19h-143q-18 0 -18 19z" />
<glyph unicode="&#xc0;" horiz-adv-x="1286" d="M70 16l452 1397q7 21 25 21h192q18 0 25 -21l453 -1397q4 -16 -15 -16h-125q-18 0 -24 20l-135 410h-549l-136 -410q-6 -20 -24 -20h-125q-18 0 -14 16zM408 569h471l-64 195l-168 532h-10l-166 -532zM408 1927l112 19q21 -1 29 -19l149 -319l-88 -17q-16 0 -26 17z" />
<glyph unicode="&#xc1;" horiz-adv-x="1286" d="M70 16l452 1397q7 21 25 21h192q18 0 25 -21l453 -1397q4 -16 -15 -16h-125q-18 0 -24 20l-135 410h-549l-136 -410q-6 -20 -24 -20h-125q-18 0 -14 16zM408 569h471l-64 195l-168 532h-10l-166 -532zM586 1608l149 319q10 18 27 19h102l-166 -338q-10 -16 -26 -17h-78z " />
<glyph unicode="&#xc2;" horiz-adv-x="1286" d="M70 16l452 1397q7 21 25 21h192q18 0 25 -21l453 -1397q4 -16 -15 -16h-125q-18 0 -24 20l-135 410h-549l-136 -410q-6 -20 -24 -20h-125q-18 0 -14 16zM403 1591l181 338q10 16 24 17h68q16 -1 26 -17l191 -319l-100 -19q-18 0 -29 17l-121 235l-121 -235 q-10 -16 -28 -17h-91zM408 569h471l-64 195l-168 532h-8l-168 -532z" />
<glyph unicode="&#xc3;" horiz-adv-x="1286" d="M70 16l452 1397q7 21 25 21h192q18 0 25 -21l453 -1397q4 -16 -15 -16h-125q-18 0 -24 20l-135 410h-549l-136 -410q-6 -20 -24 -20h-125q-18 0 -14 16zM352 1593q63 184 195 185h8q39 0 74 -23q14 -10 59 -45q29 -23 57 -22q55 0 103 71q8 15 22 15h52q18 0 12 -19 q-25 -76 -75 -130t-120 -54h-8q-51 0 -102 45t-90 45q-53 0 -101 -72q-8 -14 -24 -14h-49q-18 0 -13 18zM408 569h471l-64 195l-168 532h-8l-168 -532z" />
<glyph unicode="&#xc4;" horiz-adv-x="1286" d="M70 16l452 1397q7 21 25 21h192q18 0 25 -21l453 -1397q4 -16 -15 -16h-125q-18 0 -24 20l-135 410h-549l-136 -410q-6 -20 -24 -20h-125q-18 0 -14 16zM403 1630v150q1 18 19 18h127q18 0 18 -18v-150q0 -18 -18 -18h-127q-18 0 -19 18zM408 569h471l-64 195l-168 532 h-8l-168 -532zM719 1630v150q0 18 18 18h127q16 0 17 -18v-150q0 -18 -17 -18h-127q-18 0 -18 18z" />
<glyph unicode="&#xc5;" horiz-adv-x="1286" d="M70 16l452 1397q7 21 25 21h192q18 0 25 -21l453 -1397q4 -16 -15 -16h-125q-18 0 -24 20l-135 410h-549l-136 -410q-6 -20 -24 -20h-125q-18 0 -14 16zM408 569h471l-64 195l-168 532h-10l-166 -532zM473 1732.5q0 69.5 50 117.5t120 48t119 -48t49 -117 q0 -51 -27.5 -93.5t-74.5 -60.5q-29 -14 -66 -14q-72 0 -121 49t-49 118.5zM559 1733q0 -20 10 -41q8 -20 31 -33q18 -12 43 -12t45 12q20 14 29 33q8 16 8 40.5t-8 43t-29 30.5q-25 11 -45 11q-37 0 -59 -25q-25 -25 -25 -59z" />
<glyph unicode="&#xc6;" horiz-adv-x="1609" d="M70 16l452 1397q6 20 25 21h960q16 0 17 -17v-106q0 -18 -17 -19h-702v-485h653q18 0 19 -16v-107q0 -18 -19 -18h-653v-525h702q16 0 17 -18v-107q0 -16 -17 -16h-843q-18 0 -19 16v414h-276l-136 -410q-6 -20 -24 -20h-125q-18 0 -14 16zM408 569h237v727h-6l-168 -532 z" />
<glyph unicode="&#xc7;" horiz-adv-x="1193" d="M141 608v217q0 274 161 454.5t427 180.5h25q195 0 336 -82q18 -10 18 -30v-103q-217 74 -342 74h-14q-213 0 -331 -142.5t-118 -359.5v-201q0 -217 118 -359t331 -142h14q156 0 324 86l18 -117q0 -18 -18 -29q-63 -39 -158.5 -60.5t-177.5 -21.5h-11l-18 -94q27 8 61 8 q72 0 118 -42t46 -113q0 -86 -59.5 -129t-147.5 -43q-154 0 -153 53v31q0 12 16 12q82 -20 121 -21q121 0 121 89q0 39 -25 61q-27 20 -69 20q-27 0 -82 -14h-8q-10 0 -15 4l-8 6q-16 10 -12 21l28 155q-244 27 -380 204t-136 427z" />
<glyph unicode="&#xc8;" horiz-adv-x="1134" d="M172 16v1401q0 16 16 17h844q16 0 17 -17v-106q0 -18 -17 -19h-702v-485h655q16 0 16 -16v-107q0 -18 -16 -18h-655v-525h702q16 0 17 -18v-107q0 -16 -17 -16h-844q-16 0 -16 16zM377 1927q2 18 12 19h100q19 -1 29 -19l150 -319l-88 -17q-14 0 -25 17z" />
<glyph unicode="&#xc9;" horiz-adv-x="1134" d="M172 16v1401q0 16 16 17h844q16 0 17 -17v-106q0 -18 -17 -19h-702v-485h655q16 0 16 -16v-107q0 -18 -16 -18h-655v-525h702q16 0 17 -18v-107q0 -16 -17 -16h-844q-16 0 -16 16zM532 1608l150 319q10 18 29 19h100q8 0 12 -7l-178 -331q-10 -16 -24 -17h-80z" />
<glyph unicode="&#xca;" horiz-adv-x="1134" d="M172 16v1401q0 16 16 17h844q16 0 17 -17v-106q0 -18 -17 -19h-702v-485h655q16 0 16 -16v-107q0 -18 -16 -18h-655v-525h702q16 0 17 -18v-107q0 -16 -17 -16h-844q-16 0 -16 16zM367 1591l178 338q10 16 26 17h68q15 -1 25 -17l192 -319l-102 -19q-18 0 -29 17 l-121 235l-119 -235q-10 -16 -28 -17h-90z" />
<glyph unicode="&#xcb;" horiz-adv-x="1134" d="M172 16v1401q0 16 16 17h844q16 0 17 -17v-106q0 -18 -17 -19h-702v-485h655q16 0 16 -16v-107q0 -18 -16 -18h-655v-525h702q16 0 17 -18v-107q0 -16 -17 -16h-844q-16 0 -16 16zM358 1630v150q1 18 19 18h127q16 0 16 -18v-150q0 -18 -16 -18h-127q-18 0 -19 18z M674 1630v150q0 18 18 18h127q16 0 17 -18v-150q0 -18 -17 -18h-127q-18 0 -18 18z" />
<glyph unicode="&#xcc;" horiz-adv-x="501" d="M12 1925q-2 8 0 14q4 6 13 7h100q19 -1 29 -19l149 -319l-88 -17q-14 0 -25 17zM172 16v1401q0 17 16 17h125q16 0 17 -17v-1401q0 -16 -17 -16h-125q-16 0 -16 16z" />
<glyph unicode="&#xcd;" horiz-adv-x="501" d="M172 16v1401q0 17 16 17h125q16 0 17 -17v-1401q0 -16 -17 -16h-125q-16 0 -16 16zM197 1608l149 319q10 18 29 19h100l-166 -338q-10 -16 -26 -17h-78z" />
<glyph unicode="&#xce;" horiz-adv-x="501" d="M12 1591l181 338q10 16 24 17h68q16 -1 26 -17l191 -319l-101 -19q-18 0 -28 17l-121 235l-121 -235q-10 -16 -29 -17h-90zM172 16v1401q0 17 16 17h125q16 0 17 -17v-1401q0 -16 -17 -16h-125q-16 0 -16 16z" />
<glyph unicode="&#xcf;" horiz-adv-x="501" d="M12 1630v150q1 18 19 18h127q18 0 18 -18v-150q0 -18 -18 -18h-127q-18 0 -19 18zM172 16v1401q0 17 16 17h125q16 0 17 -17v-1401q0 -16 -17 -16h-125q-16 0 -16 16zM328 1630v150q0 18 18 18h127q16 0 16 -18v-150q0 -18 -16 -18h-127q-18 0 -18 18z" />
<glyph unicode="&#xd0;" horiz-adv-x="1349" d="M68 618v91q0 16 18 16h86v692q0 17 16 17h471q270 0 410.5 -171t140.5 -444v-205q0 -274 -141 -444t-410 -170h-471q-16 0 -16 16v586h-86q-18 0 -18 16zM330 139h313q209 0 308.5 132.5t99.5 349.5v192q0 217 -99.5 348t-308.5 131h-313v-567h360q16 0 17 -16v-91 q0 -16 -17 -16h-360v-463z" />
<glyph unicode="&#xd1;" horiz-adv-x="1392" d="M164 16v1401q0 16 16 17h146q16 0 24 -15l723 -1175h10l-12 561v612q0 17 16 17h125q16 0 17 -17v-1401q0 -16 -17 -16h-145q-16 0 -25 14l-436 705l-287 471h-10l13 -471v-703q0 -16 -17 -16h-125q-16 0 -16 16zM406 1593q63 184 194 185h8q41 0 74 -23q14 -10 59 -45 q29 -23 58 -22q55 0 102 71q9 15 25 15h49q18 0 12 -19q-25 -76 -75 -130t-119 -54h-9q-53 0 -100 45q-51 45 -90 45q-55 0 -102 -72q-8 -14 -23 -14h-51q-18 0 -12 18z" />
<glyph unicode="&#xd2;" horiz-adv-x="1409" d="M141 582v270q0 270 143.5 439t403.5 169h31q264 0 406.5 -171t142.5 -437v-270q0 -270 -144.5 -439.5t-404.5 -169.5h-31q-264 0 -405.5 172t-141.5 437zM303 578q0 -205 96.5 -334t292.5 -129h23q199 0 295 129t96 334v278q0 209 -96 336t-295 127h-23q-197 0 -293 -129 t-96 -334v-278zM465 1925q-2 8 0 14t12 7h101q20 -1 28 -19l150 -319l-88 -17q-16 0 -27 17z" />
<glyph unicode="&#xd3;" horiz-adv-x="1409" d="M141 582v270q0 270 143.5 439t403.5 169h31q264 0 406.5 -171t142.5 -437v-270q0 -270 -144.5 -439.5t-404.5 -169.5h-31q-264 0 -405.5 172t-141.5 437zM303 578q0 -207 97.5 -335t291.5 -128h23q199 0 295 129t96 334v278q0 209 -96 336t-295 127h-23q-197 0 -293 -129 t-96 -334v-278zM659 1608l150 319q10 18 29 19h100q8 0 12 -7l-176 -331q-10 -16 -26 -17h-80z" />
<glyph unicode="&#xd4;" horiz-adv-x="1409" d="M141 582v270q0 270 143.5 439t403.5 169h31q264 0 406.5 -171t142.5 -437v-270q0 -270 -144.5 -439.5t-404.5 -169.5h-31q-264 0 -405.5 172t-141.5 437zM303 578q0 -205 96.5 -334t292.5 -129h23q201 0 296 129t95 334v278q0 205 -96 334t-295 129h-23q-197 0 -293 -129 t-96 -334v-278zM467 1591l178 338q10 16 27 17h67q17 -1 27 -17l190 -319l-102 -19q-18 0 -29 17l-120 235l-119 -235q-10 -16 -29 -17h-90z" />
<glyph unicode="&#xd5;" horiz-adv-x="1409" d="M141 582v270q0 270 143.5 439t403.5 169h31q264 0 406.5 -171t142.5 -437v-270q0 -270 -144.5 -439.5t-404.5 -169.5h-31q-264 0 -405.5 172t-141.5 437zM303 578q0 -205 96.5 -334t292.5 -129h23q199 0 295 130t96 333v278q0 205 -96 334t-295 129h-23q-197 0 -293 -129 t-96 -334v-278zM414 1593q25 76 75 130.5t121 54.5h8q39 0 72 -23q14 -10 60 -45q29 -23 59 -22q55 0 102 71q9 15 23 15h51q16 0 10 -19q-25 -76 -75 -130t-119 -54h-8q-53 0 -101 45q-51 45 -90 45q-55 0 -102 -72q-8 -14 -23 -14h-51q-16 0 -12 18z" />
<glyph unicode="&#xd6;" horiz-adv-x="1409" d="M141 582v270q0 270 143.5 439t403.5 169h31q264 0 406.5 -171t142.5 -437v-270q0 -270 -144.5 -439.5t-404.5 -169.5h-31q-264 0 -405.5 172t-141.5 437zM303 578q0 -205 96.5 -334t292.5 -129h23q199 0 295 129t96 334v278q0 209 -96 336t-295 127h-23q-197 0 -293 -129 t-96 -334v-278zM467 1630v150q0 18 18 18h125q18 0 19 -18v-150q0 -18 -19 -18h-125q-18 0 -18 18zM782 1630v150q1 18 19 18h125q18 0 18 -18v-150q0 -18 -18 -18h-125q-18 0 -19 18z" />
<glyph unicode="&#xd7;" horiz-adv-x="882" d="M74 352q-12 12 0 25l280 280l-278 279q-14 12 0 25l61 63q6 6 12.5 6t12.5 -6l280 -281l281 281q6 6 10 6q6 0 12 -6l64 -63q12 -13 0 -25l-281 -281l281 -278q12 -12 0 -25l-64 -63q-6 -6 -12 -6q-4 0 -10 6l-281 280l-280 -280q-6 -6 -12.5 -6t-12.5 6z" />
<glyph unicode="&#xd8;" horiz-adv-x="1409" d="M137 8q-4 10 4 19l111 155q-111 158 -111 400v270q0 270 143.5 439t403.5 169h31q211 0 356 -123l53 74q17 23 35 23h94q12 0 15 -9q4 -10 -4 -18l-111 -156q111 -158 111 -399v-270q0 -272 -143.5 -440.5t-405.5 -168.5h-31q-209 0 -354 121l-53 -71q-16 -23 -35 -23 h-92q-14 0 -17 8zM303 578q0 -145 47 -256l637 892q-102 104 -272 105h-23q-197 0 -293 -129t-96 -334v-278zM422 217q102 -102 270 -102h23q199 0 295 129t96 334v278q0 147 -49 256z" />
<glyph unicode="&#xd9;" horiz-adv-x="1388" d="M172 518v899q0 16 16 17h127q16 0 17 -17v-895q0 -186 86 -296.5t268 -110.5h23q184 0 270 109.5t86 297.5v895q0 17 16 17h127q16 0 17 -17v-899q0 -252 -134.5 -398.5t-377.5 -146.5h-31q-248 0 -379 147.5t-131 397.5zM455 1925q-2 8 0 14l112 7q19 -1 29 -19 l149 -319l-88 -17q-16 0 -26 17z" />
<glyph unicode="&#xda;" horiz-adv-x="1388" d="M172 518v899q0 16 16 17h127q16 0 17 -17v-895q0 -186 86 -296.5t268 -110.5h23q184 0 270 109.5t86 297.5v895q0 17 16 17h127q16 0 17 -17v-899q0 -252 -134.5 -398.5t-377.5 -146.5h-31q-248 0 -379 147.5t-131 397.5zM655 1608l148 319q8 18 28 19h103l-166 -338 q-10 -16 -27 -17h-77z" />
<glyph unicode="&#xdb;" horiz-adv-x="1388" d="M172 518v899q0 16 16 17h127q16 0 17 -17v-895q0 -186 86 -296.5t268 -110.5h23q184 0 270 109.5t86 297.5v895q0 17 16 17h127q16 0 17 -17v-899q0 -254 -134.5 -399.5t-377.5 -145.5h-31q-248 0 -379 147.5t-131 397.5zM455 1591l180 338q10 16 24 17h70q15 -1 25 -17 l192 -319l-102 -19q-18 0 -29 17l-121 235l-121 -235q-10 -16 -28 -17h-90z" />
<glyph unicode="&#xdc;" horiz-adv-x="1388" d="M172 518v899q0 16 16 17h127q16 0 17 -17v-895q0 -186 86 -296.5t268 -110.5h23q184 0 270 109.5t86 297.5v895q0 17 16 17h127q16 0 17 -17v-899q0 -252 -134.5 -398.5t-377.5 -146.5h-31q-248 0 -379 147.5t-131 397.5zM455 1630v150q0 18 18 18h127q18 0 18 -18v-150 q0 -18 -18 -18h-127q-18 0 -18 18zM770 1630v150q0 18 18 18h127q18 0 19 -18v-150q0 -18 -19 -18h-127q-18 0 -18 18z" />
<glyph unicode="&#xdd;" horiz-adv-x="1267" d="M70 1409q-4 10 2 18q2 6 14 7h127q18 0 29 -17l280 -526l109 -248h6l108 248l283 526q11 17 27 17h129q8 0 14 -7q2 -10 0 -18l-485 -924v-469q0 -16 -17 -16h-125q-16 0 -16 16v469zM592 1608l149 319q8 18 29 19h102l-165 -338q-10 -16 -27 -17h-78z" />
<glyph unicode="&#xde;" horiz-adv-x="1280" d="M172 16v1401q0 16 16 17h125q17 -1 17 -17v-174h303q231 0 369.5 -100.5t138.5 -317.5v-39q0 -223 -143.5 -335.5t-372.5 -112.5h-295v-322q0 -16 -17 -16h-125q-16 0 -16 16zM330 473h280q170 0 269.5 77.5t99.5 237.5v23q0 164 -97.5 228.5t-271.5 64.5h-280v-631z" />
<glyph unicode="&#xdf;" horiz-adv-x="1159" d="M133 16v1221q0 135 80 217t215 82h14q137 0 219 -76t82 -211v-10q0 -74 -31.5 -125t-95.5 -110q-25 -25 -61 -58q-66 -66 -66 -131v-12q0 -104 111 -154q37 -20 57 -26q4 -2 12.5 -4.5t23 -7.5t26.5 -9l57 -18q109 -39 127 -47q92 -43 135 -102.5t43 -155.5v-13 q0 -143 -107.5 -218t-256.5 -75h-19q-166 0 -303 72q-16 6 -18 27v86q2 14 10 14q6 0 8 -2q158 -82 295 -82h15q92 0 157.5 43t65.5 129v10q0 74 -52.5 111t-140.5 63l-57 19q-35 12 -49 18q-53 12 -99 39q-14 8 -43 25q-33 18 -43 28q-55 43 -73 123q-8 25 -9 58v12 q0 70 36 123t102 112q12 12 33.5 33t31.5 31q70 78 70 158v10q0 80 -45 129t-125 49h-8q-86 0 -129 -54t-43 -143v-1198q0 -16 -17 -16h-118q-16 0 -17 16z" />
<glyph unicode="&#xe0;" horiz-adv-x="1003" d="M68 266v13q0 96 38.5 163.5t110.5 101.5t145.5 48t167.5 18l195 8v44q0 135 -52 199.5t-184 64.5h-8q-129 0 -315 -78q-2 0 -4 -1t-4 -1q-10 0 -11 14v88q0 20 17 27q166 76 344 76h10q188 0 271 -96.5t88 -288.5v-650q0 -16 -17 -16h-106q-14 0 -17 14l-6 121 q-147 -162 -334 -162h-10q-139 0 -229 78t-90 215zM221 285q0 -92 62.5 -140.5t156.5 -48.5h9q143 1 276 146v276l-197 -6q-307 -8 -307 -217v-10zM274 1516l113 20q19 0 29 -18l149 -320l-88 -16q-14 0 -24 16z" />
<glyph unicode="&#xe1;" horiz-adv-x="1003" d="M68 266v13q0 96 38.5 163.5t110.5 101.5t145.5 48t167.5 18l195 8v44q0 139 -52 201.5t-184 62.5h-8q-129 0 -315 -78q-2 0 -4 -1t-4 -1q-10 0 -11 14v88q0 20 17 27q166 76 344 76h10q188 0 271 -96.5t88 -288.5v-650q0 -16 -17 -16h-106q-14 0 -17 14l-6 121 q-147 -162 -334 -162h-10q-139 0 -229 78t-90 215zM221 285q0 -92 62.5 -140.5t156.5 -48.5h9q143 1 276 146v276l-197 -6q-307 -8 -307 -217v-10zM471 1198l150 320q10 18 28 18h101l-166 -338q-10 -16 -25 -16h-80z" />
<glyph unicode="&#xe2;" horiz-adv-x="1003" d="M68 266v13q0 96 38.5 163.5t110.5 101.5t145.5 48t167.5 18l195 8v44q0 135 -52 199.5t-184 64.5h-8q-129 0 -315 -78q-2 0 -4 -1t-4 -1q-10 0 -11 14v88q0 20 17 27q166 76 344 76h10q190 0 274.5 -96.5t84.5 -288.5v-650q0 -16 -17 -16h-106q-14 0 -17 14l-6 121 q-104 -115 -246 -151q-51 -10 -88 -11h-10q-139 0 -229 78t-90 215zM221 285q0 -92 62.5 -140.5t156.5 -48.5h9q143 1 276 146v276l-197 -6q-307 -8 -307 -217v-10zM252 1200l190 320q10 16 25 16h70q14 0 24 -16l191 -320l-101 -18q-18 0 -28 16l-121 236l-121 -236 q-10 -16 -29 -16h-90q-16 10 -10 18z" />
<glyph unicode="&#xe3;" horiz-adv-x="1003" d="M68 266v13q0 96 38.5 163.5t110.5 101.5t145.5 48t167.5 18l195 8v44q0 135 -52 199.5t-184 64.5h-8q-129 0 -315 -78q-2 0 -4 -1t-4 -1q-10 0 -11 14v88q0 20 17 27q166 76 344 76h10q190 0 274.5 -96.5t84.5 -288.5v-650q0 -16 -17 -16h-106q-14 0 -17 14l-6 121 q-147 -162 -334 -162h-10q-139 0 -229 78t-90 215zM211 1184q63 184 195 184h8q41 0 73 -22q14 -10 60 -46q29 -23 57 -22q55 0 103 72q8 14 22 14h51q18 0 13 -18q-25 -76 -75 -130.5t-120 -54.5h-8q-51 0 -102.5 45t-88.5 45q-55 0 -102 -71q-8 -14 -25 -15h-49 q-18 0 -12 19zM221 285q0 -92 62.5 -140.5t156.5 -48.5h9q143 1 276 146v276l-197 -6q-307 -8 -307 -217v-10z" />
<glyph unicode="&#xe4;" horiz-adv-x="1003" d="M68 266v13q0 96 38.5 163.5t110.5 101.5t145.5 48t167.5 18l195 8v44q0 135 -52 199.5t-184 64.5h-8q-129 0 -315 -78q-2 0 -4 -1t-4 -1q-10 0 -11 14v88q0 20 17 27q166 76 344 76h10q190 0 274.5 -96.5t84.5 -288.5v-650q0 -16 -17 -16h-106q-14 0 -17 14l-6 121 q-147 -162 -334 -162h-10q-139 0 -229 78t-90 215zM221 285q0 -92 62.5 -140.5t156.5 -48.5h9q143 1 276 146v276l-197 -6q-307 -8 -307 -217v-10zM262 1221v149q1 19 19 19h127q18 0 18 -19v-149q0 -18 -18 -19h-127q-18 0 -19 19zM578 1221v149q0 19 18 19h127 q18 0 18 -19v-149q0 -18 -18 -19h-127q-18 0 -18 19z" />
<glyph unicode="&#xe5;" horiz-adv-x="1003" d="M68 266v13q0 96 38.5 163.5t110.5 101.5t145.5 48t167.5 18l195 8v44q0 139 -52 201.5t-184 62.5h-8q-129 0 -315 -78q-2 0 -4 -1t-4 -1q-10 0 -11 14v88q0 20 17 27q166 76 344 76h10q190 0 274.5 -96.5t84.5 -288.5v-650q0 -16 -17 -16h-106q-14 0 -17 14l-6 121 q-147 -162 -334 -162h-10q-139 0 -229 78t-90 215zM221 285q0 -92 62.5 -140.5t156.5 -48.5h9q143 1 276 146v276l-197 -6q-307 -8 -307 -217v-10zM332 1323q0 70 50 118t119.5 48t120 -48t50.5 -118t-49.5 -119t-121 -49t-120.5 49t-49 119zM418 1323q0 -20 10 -41 q8 -20 31 -33q18 -12 43 -12q37 0 60.5 24.5t23.5 61.5q0 18 -11 43q-8 18 -28 31q-25 10 -45 10q-39 0 -60 -25q-25 -25 -24 -59z" />
<glyph unicode="&#xe6;" horiz-adv-x="1687" d="M68 266v13q0 96 38.5 163.5t110.5 101.5t145.5 48t167.5 18l195 8v44q0 135 -52 199.5t-184 64.5h-8q-129 0 -315 -78q-2 0 -4 -1t-4 -1q-10 0 -11 14v88q0 20 17 27q166 76 344 76h10q242 0 305 -193q111 193 334 193h23q201 0 300 -125t99 -332v-78q0 -23 -25 -22h-673 v-91q0 -143 89 -224t234 -81h8q135 0 312 82l16 -102q0 -20 -16 -27q-145 -78 -328 -78h-16q-246 0 -359 166v-123q0 -16 -16 -16h-51q-14 0 -17 14l-6 121q-147 -162 -334 -162h-10q-139 0 -229 78t-90 215zM221 285q0 -92 62.5 -140.5t156.5 -48.5h9q143 1 276 146v276 l-197 -6q-307 -8 -307 -217v-10zM879 592h555q2 340 -260 340h-15q-135 0 -205.5 -99.5t-74.5 -240.5z" />
<glyph unicode="&#xe7;" horiz-adv-x="995" d="M113 444v136q0 211 122.5 341t331.5 130h23q143 0 280 -78q16 -6 17 -27v-90q-197 68 -279 68h-16q-152 0 -238 -96.5t-86 -249.5v-132q0 -154 87 -250t237 -96h16q109 0 262 80q12 4 17 -12v-90q0 -20 -17 -27q-137 -78 -280 -78h-41l-17 -94q25 8 62 8q72 0 118 -42 t46 -113q0 -86 -59.5 -129t-147.5 -43q-154 0 -154 53v31q0 12 15 12q84 -20 123 -21q121 0 120 89q0 39 -24 61q-27 20 -70 20q-27 0 -82 -14q-16 0 -24 4l-6 6q-16 10 -13 21l31 162q-170 33 -262 157.5t-92 302.5z" />
<glyph unicode="&#xe8;" horiz-adv-x="1077" d="M113 418v145q0 209 114.5 348.5t319.5 139.5h22q203 0 301.5 -126t98.5 -331v-78q0 -23 -25 -22h-676v-91q0 -141 91.5 -223t232.5 -82h10q135 0 311 82q12 4 17 -12v-90q0 -20 -17 -27q-150 -78 -329 -78h-15q-205 0 -330.5 121t-125.5 324zM268 592h555q2 340 -260 340 h-14q-137 0 -207 -98.5t-74 -241.5zM319 1518l113 18q19 0 29 -18l149 -320l-88 -16q-14 0 -24 16z" />
<glyph unicode="&#xe9;" horiz-adv-x="1077" d="M113 418v145q0 209 114.5 348.5t319.5 139.5h22q201 0 300.5 -125t99.5 -332v-78q0 -23 -25 -22h-676v-91q0 -141 90.5 -223t233.5 -82h10q135 0 311 82l17 -102q0 -20 -17 -27q-150 -78 -329 -78h-15q-205 0 -330.5 120t-125.5 325zM268 592h555q2 340 -260 340h-14 q-139 0 -207 -97.5t-74 -242.5zM492 1198l147 320q8 18 29 18h102l-166 -338q-10 -16 -26 -16h-78z" />
<glyph unicode="&#xea;" horiz-adv-x="1077" d="M113 418v145q0 209 114.5 348.5t319.5 139.5h22q201 0 300.5 -125t99.5 -332v-78q0 -23 -25 -22h-676v-91q0 -141 90.5 -223t233.5 -82h10q135 0 311 82l17 -102q0 -20 -17 -27q-150 -78 -329 -78h-15q-205 0 -330.5 121t-125.5 324zM268 592h555q2 340 -260 340h-14 q-137 0 -207 -98.5t-74 -241.5zM299 1182l180 338q10 16 25 16h69q15 0 25 -16l193 -320l-103 -18q-18 0 -29 16l-120 236l-121 -236q-10 -16 -29 -16h-90z" />
<glyph unicode="&#xeb;" horiz-adv-x="1077" d="M113 418v145q0 209 114.5 348.5t319.5 139.5h22q201 0 300.5 -125t99.5 -332v-78q0 -23 -25 -22h-676v-91q0 -141 91.5 -223t232.5 -82h10q135 0 311 82l17 -102q0 -20 -17 -27q-150 -78 -329 -78h-15q-205 0 -330.5 120t-125.5 325zM268 592h555q2 340 -260 340h-14 q-137 0 -207 -98.5t-74 -241.5zM299 1221v149q0 19 18 19h127q18 0 19 -19v-149q0 -18 -19 -19h-127q-18 0 -18 19zM614 1221v149q1 19 19 19h127q18 0 18 -19v-149q0 -18 -18 -19h-127q-18 0 -19 19z" />
<glyph unicode="&#xec;" horiz-adv-x="417" d="M-39 1516q-2 8 0 14l113 6q20 0 28 -18l150 -320l-88 -16q-14 0 -25 16zM135 16v992q1 16 17 16h118q16 0 17 -16v-992q0 -16 -17 -16h-118q-16 0 -17 16z" />
<glyph unicode="&#xed;" horiz-adv-x="417" d="M135 16v992q1 16 17 16h118q16 0 17 -16v-992q0 -16 -17 -16h-118q-16 0 -17 16zM166 1198l149 320q8 18 29 18h100q10 0 13 -6l-178 -332q-10 -16 -25 -16h-80z" />
<glyph unicode="&#xee;" horiz-adv-x="417" d="M-27 1182l179 338q10 16 26 16h68q16 0 26 -16l191 -320l-103 -18q-18 0 -28 16l-119 236l-121 -236q-10 -16 -29 -16h-90zM135 16v992q1 16 17 16h118q16 0 17 -16v-992q0 -16 -17 -16h-118q-16 0 -17 16z" />
<glyph unicode="&#xef;" horiz-adv-x="417" d="M-29 1221v149q1 19 19 19h125q18 0 18 -19v-149q0 -18 -18 -19h-125q-18 0 -19 19zM135 16v992q1 16 17 16h118q16 0 17 -16v-992q0 -16 -17 -16h-118q-16 0 -17 16zM287 1221v149q0 19 18 19h125q18 0 19 -19v-149q0 -18 -19 -19h-125q-18 0 -18 19z" />
<glyph unicode="&#xf0;" horiz-adv-x="1097" d="M113 436v131q0 199 97 326t290 127h12q180 0 317 -148v258q0 92 -30 154l-164 -115q-8 -4 -10 -4q-6 0 -15 9l-41 59q-10 12 4 24l156 109q-70 47 -186 47h-11q-135 0 -305 -80l-16 103q0 20 16 26q166 74 334 74h10q170 0 279 -86l125 86q8 4 10 4q4 0 12 -8l41 -59 q12 -12 -4 -23l-112 -80q63 -94 63 -240l-2 -694q0 -207 -108.5 -335t-313.5 -128h-22q-201 0 -313.5 130t-112.5 333zM268 430q0 -143 69 -236.5t204 -93.5h16q139 0 205.5 92.5t66.5 237.5v320q-135 143 -284 143h-6q-141 0 -206 -90t-65 -238v-135z" />
<glyph unicode="&#xf1;" horiz-adv-x="1095" d="M131 16v992q0 16 16 16h107q14 0 16 -14l6 -111q175 152 345 152h14q170 0 252 -96.5t82 -268.5v-670q0 -16 -17 -16h-118q-16 0 -17 16v646q0 129 -53 195.5t-180 66.5h-6q-143 0 -295 -131v-777q0 -16 -17 -16h-119q-16 0 -16 16zM258 1184q25 76 75 130t120 54h8 q41 0 74 -22q14 -10 59 -46q29 -23 57 -22q55 0 103 72q8 14 24 14h49q18 0 13 -18q-25 -76 -75 -130.5t-120 -54.5h-8q-53 0 -100 45q-51 45 -91 45q-55 0 -102 -71q-8 -14 -22 -15h-52q-18 0 -12 19z" />
<glyph unicode="&#xf2;" horiz-adv-x="1136" d="M113 436v152q0 207 119.5 335t324.5 128h23q207 0 325.5 -127t118.5 -336v-152q0 -207 -119 -335t-325 -128h-23q-205 0 -324.5 128t-119.5 335zM268 430q0 -145 76 -237.5t217 -92.5h14q143 0 218 91.5t75 238.5v164q0 150 -75 240t-218 90h-14q-141 0 -217 -92.5 t-76 -237.5v-164zM328 1516q-2 6 2 14l110 6q19 0 29 -18l149 -320l-88 -16q-14 0 -24 16z" />
<glyph unicode="&#xf3;" horiz-adv-x="1136" d="M113 436v152q0 207 119.5 335t324.5 128h23q207 0 325.5 -127t118.5 -336v-152q0 -207 -119 -335t-325 -128h-23q-205 0 -324.5 128t-119.5 335zM268 430q0 -147 76 -238.5t217 -91.5h14q143 0 218 91.5t75 238.5v164q0 147 -75 238.5t-218 91.5h-14q-141 0 -217 -92.5 t-76 -237.5v-164zM524 1198l150 320q10 18 28 18h101l-166 -338q-10 -16 -27 -16h-78z" />
<glyph unicode="&#xf4;" horiz-adv-x="1136" d="M113 436v152q0 207 119.5 335t324.5 128h23q207 0 325.5 -127t118.5 -336v-152q0 -207 -119 -335t-325 -128h-23q-205 0 -324.5 128t-119.5 335zM268 430q0 -145 76 -237.5t217 -92.5h14q143 0 218 91.5t75 238.5v164q0 150 -75 240t-218 90h-14q-141 0 -217 -92.5 t-76 -237.5v-164zM330 1182l180 338q10 16 25 16h69q15 0 25 -16l192 -320l-102 -18q-18 0 -29 16l-121 236l-120 -236q-10 -16 -29 -16h-90z" />
<glyph unicode="&#xf5;" horiz-adv-x="1136" d="M113 436v152q0 207 119.5 335t324.5 128h23q207 0 325.5 -127t118.5 -336v-152q0 -207 -119 -335t-325 -128h-23q-205 0 -324.5 128t-119.5 335zM268 430q0 -145 76 -237.5t217 -92.5h14q143 0 218 91.5t75 238.5v164q0 147 -75 238.5t-218 91.5h-14q-141 0 -217 -92.5 t-76 -237.5v-164zM279 1184q25 76 74.5 130t119.5 54h8q41 0 74 -22q14 -10 59 -46q29 -23 58 -22q55 0 102 72q9 14 25 14h49q18 0 12 -18q-25 -76 -75 -130.5t-119 -54.5h-9q-53 0 -100 45q-51 45 -90 45q-55 0 -102 -71q-8 -14 -23 -15h-51q-18 0 -12 19z" />
<glyph unicode="&#xf6;" horiz-adv-x="1136" d="M113 436v152q0 207 119.5 335t324.5 128h23q207 0 325.5 -127t118.5 -336v-152q0 -207 -119 -335t-325 -128h-23q-205 0 -324.5 128t-119.5 335zM268 430q0 -147 76 -238.5t217 -91.5h14q143 0 218 91.5t75 238.5v164q0 147 -75 238.5t-218 91.5h-14q-141 0 -217 -92.5 t-76 -237.5v-164zM330 1221v149q0 19 18 19h127q18 0 19 -19v-149q0 -18 -19 -19h-127q-18 0 -18 19zM645 1221v149q1 19 19 19h127q18 0 18 -19v-149q0 -18 -18 -19h-127q-18 0 -19 19z" />
<glyph unicode="&#xf7;" horiz-adv-x="1087" d="M68 604v90q0 17 18 17h915q16 0 17 -17v-90q0 -16 -17 -16h-915q-18 0 -18 16zM455 170v149q0 19 18 19h143q18 0 19 -19v-149q0 -18 -19 -18h-143q-18 0 -18 18zM455 981v149q0 19 18 19h143q18 0 19 -19v-149q0 -18 -19 -18h-143q-18 0 -18 18z" />
<glyph unicode="&#xf8;" horiz-adv-x="1136" d="M109 8q-4 10 4 19l88 112q-88 119 -88 297v152q0 207 119.5 335t324.5 128h23q160 0 274 -84l29 34q16 23 35 23h94q14 0 16 -8q4 -11 -4 -19l-88 -112q88 -119 88 -297v-152q0 -207 -119 -335t-325 -128h-23q-160 0 -272 82l-25 -32q-18 -23 -37 -23h-98q-14 0 -16 8z M268 430q0 -98 31 -168l469 596q-78 66 -193 66h-14q-141 0 -217 -92.5t-76 -237.5v-164zM371 164q76 -63 190 -64h14q143 0 218 91.5t75 238.5v164q0 94 -30 166z" />
<glyph unicode="&#xf9;" d="M127 338v670q0 16 16 16h119q16 0 17 -16v-646q0 -127 48 -194.5t169 -67.5h6q143 0 295 131v777q0 16 18 16h117q18 0 18 -16v-992q0 -16 -18 -16h-105q-14 0 -16 14l-8 111q-174 -152 -342 -152h-15q-319 0 -319 365zM295 1516l113 20q18 0 28 -18l150 -320l-88 -16 q-14 0 -25 16z" />
<glyph unicode="&#xfa;" d="M127 338v670q0 16 16 16h119q16 0 17 -16v-646q0 -127 48 -194.5t169 -67.5h6q143 0 295 131v777q0 16 18 16h117q18 0 18 -16v-992q0 -16 -18 -16h-105q-14 0 -16 14l-8 111q-174 -152 -342 -152h-15q-319 0 -319 365zM492 1198l149 320q10 18 29 18h102l-166 -338 q-10 -16 -26 -16h-78z" />
<glyph unicode="&#xfb;" d="M127 338v670q0 16 16 16h119q16 0 17 -16v-646q0 -127 48 -194.5t169 -67.5h6q143 0 295 131v777q0 16 18 16h117q18 0 18 -16v-992q0 -16 -18 -16h-105q-14 0 -16 14l-8 111q-174 -152 -342 -152h-15q-319 0 -319 365zM299 1182l180 338q10 16 25 16h69q15 0 25 -16 l190 -320q6 -8 3 -12l-103 -6q-18 0 -29 16l-120 236l-121 -236q-10 -16 -29 -16h-90z" />
<glyph unicode="&#xfc;" d="M127 338v670q0 16 16 16h119q16 0 17 -16v-646q0 -127 48 -194.5t169 -67.5h6q143 0 295 131v777q0 16 18 16h117q18 0 18 -16v-992q0 -16 -18 -16h-105q-14 0 -16 14l-8 111q-174 -152 -342 -152h-15q-319 0 -319 365zM299 1221v149q0 19 18 19h127q18 0 19 -19v-149 q0 -18 -19 -19h-127q-18 0 -18 19zM614 1221v149q1 19 19 19h127q18 0 18 -19v-149q0 -18 -18 -19h-127q-18 0 -19 19z" />
<glyph unicode="&#xfd;" horiz-adv-x="1028" d="M49 1001q-6 23 17 23h116q18 0 25 -18l192 -514l113 -361h4l115 361l190 514q11 18 25 18h119q8 0 14 -6q4 -6 0 -17l-399 -1085q-49 -137 -116 -211t-190 -74h-14q-45 0 -105.5 12.5t-60.5 41.5v86q0 8 6 12q0 4 6 4q4 0 7 -2q80 -29 133 -29h6q68 0 104.5 42t65.5 118 l33 84h-21q-16 0 -22 18zM475 1198l150 320q10 18 28 18h103l-166 -338q-10 -16 -27 -16h-78z" />
<glyph unicode="&#xfe;" horiz-adv-x="1116" d="M135 -326v1819q0 16 17 16h118q16 0 17 -16v-590q133 148 317 148h12q199 0 292 -127t93 -328v-160q0 -205 -99 -334t-298 -129h-12q-176 0 -305 140v-439q0 -16 -17 -16h-118q-16 0 -17 16zM287 246q135 -145 284 -146h7q270 0 270 330v164q0 152 -64.5 241t-205.5 89 h-7q-152 0 -284 -146v-532z" />
<glyph unicode="&#xff;" horiz-adv-x="1028" d="M49 1001q-6 23 17 23h116q18 0 25 -18l192 -514l113 -361h4l115 361l190 514q11 18 25 18h119q8 0 14 -6q4 -6 0 -17l-399 -1085q-49 -137 -116 -211t-190 -74h-14q-45 0 -105.5 12.5t-60.5 41.5v86q35 -2 84 -8.5t68 -6.5h6q68 0 104.5 42t65.5 118l33 84h-21 q-16 0 -22 18zM274 1221v149q1 19 19 19h127q18 0 18 -19v-149q0 -18 -18 -19h-127q-18 0 -19 19zM590 1221v149q0 19 18 19h127q18 0 19 -19v-149q0 -18 -19 -19h-127q-18 0 -18 19z" />
<glyph unicode="&#x100;" horiz-adv-x="1286" d="M70 16l452 1397q7 21 25 21h192q18 0 25 -21l453 -1397q4 -16 -15 -16h-125q-18 0 -24 20l-135 410h-549l-136 -410q-6 -20 -24 -20h-125q-18 0 -14 16zM377 1628v82q0 16 18 16h496q16 0 16 -16v-82q0 -16 -16 -16h-496q-18 0 -18 16zM408 569h471l-64 195l-168 532h-8 l-168 -532z" />
<glyph unicode="&#x101;" horiz-adv-x="1003" d="M68 266v13q0 96 38.5 163.5t110.5 101.5t145.5 48t167.5 18l195 8v44q0 135 -52 199.5t-184 64.5h-8q-129 0 -315 -78q-2 0 -4 -1t-4 -1q-10 0 -11 14v88q0 20 17 27q166 76 344 76h10q190 0 274.5 -96.5t84.5 -288.5v-650q0 -16 -17 -16h-106q-14 0 -17 14l-6 121 q-147 -162 -334 -162h-10q-139 0 -229 78t-90 215zM221 285q0 -92 62.5 -140.5t156.5 -48.5h9q143 1 276 146v276l-197 -6q-307 -8 -307 -217v-10zM236 1221v79q0 17 18 17h496q16 0 16 -17v-81q0 -16 -16 -17h-496q-18 0 -18 19z" />
<glyph unicode="&#x102;" horiz-adv-x="1286" d="M70 16l452 1397q7 21 25 21h192q18 0 25 -21l453 -1397q4 -16 -15 -16h-125q-18 0 -24 20l-135 410h-549l-136 -410q-6 -20 -24 -20h-125q-18 0 -14 16zM369 1698v74q0 10 6 14q2 2 6 2q2 0 10 -4q135 -78 252 -78q105 0 252 78q8 4 10 4q4 0 6 -2q6 -4 7 -14v-74 q0 -18 -13 -27q-109 -80 -262.5 -80t-261.5 80q-12 8 -12 27zM408 569h471l-64 195l-168 532h-10l-166 -532z" />
<glyph unicode="&#x103;" horiz-adv-x="1003" d="M68 266v13q0 96 38.5 163.5t110.5 101.5t145.5 48t167.5 18l195 8v44q0 139 -52 201.5t-184 62.5h-8q-129 0 -315 -78q-2 0 -4 -1t-4 -1q-10 0 -11 14v88q0 20 17 27q166 76 344 76h10q190 0 274.5 -98.5t84.5 -286.5v-650q0 -16 -17 -16h-106q-14 0 -17 14l-6 121 q-104 -115 -246 -151q-51 -10 -88 -11h-10q-139 0 -229 78t-90 215zM221 285q0 -92 62.5 -140.5t156.5 -48.5h9q143 1 276 146v276l-197 -6q-307 -8 -307 -217v-10zM227 1288v74q0 12 9 14q0 2 4 2q2 0 10 -4q147 -78 252 -78t252 78q8 4 10 4q4 0 6 -2q6 -4 6 -14v-74 q0 -18 -12 -26q-109 -80 -262.5 -80t-261.5 80q-12 8 -13 26z" />
<glyph unicode="&#x104;" horiz-adv-x="1286" d="M70 16l452 1397q6 20 25 21h192q19 -1 25 -21l453 -1397q4 -16 -15 -16q-143 -115 -170 -184q-14 -29 -14 -64q0 -98 110 -98q29 0 60 8q14 2 14 -12v-47q0 -23 -20 -29q-31 -14 -86 -14q-82 0 -131.5 44t-49.5 126q0 63 43 125q37 59 142 145h-23q-18 0 -24 20l-135 410 h-549l-136 -410q-6 -20 -24 -20h-125q-18 0 -14 16zM408 569h471l-64 195l-168 532h-10l-166 -532z" />
<glyph unicode="&#x105;" horiz-adv-x="1003" d="M68 266v13q0 96 38.5 163.5t110.5 101.5t145.5 48t167.5 18l195 8v44q0 139 -52 201.5t-184 62.5h-8q-129 0 -315 -78q-2 0 -4 -1t-4 -1q-10 0 -11 14v88q0 20 17 27q166 76 344 76h10q190 0 274.5 -96.5t84.5 -288.5v-650q0 -16 -17 -16q-150 -125 -172 -184 q-14 -29 -14 -64q0 -98 110 -98q29 0 60 8q16 4 16 -12v-47q0 -23 -20 -29q-35 -14 -86 -14q-82 0 -131.5 44t-49.5 126q0 53 32 107t66 87t85 76h-2q-14 0 -17 14l-6 121q-94 -100 -215 -143q-61 -18 -119 -19h-10q-139 0 -229 78t-90 215zM221 285q0 -92 62.5 -140.5 t156.5 -48.5h9q143 1 276 146v276l-197 -6q-307 -8 -307 -217v-10z" />
<glyph unicode="&#x106;" horiz-adv-x="1193" d="M141 608v217q0 274 161 454.5t427 180.5h25q195 0 336 -82q18 -10 18 -30v-103q-217 74 -342 74h-14q-215 0 -332 -142.5t-117 -359.5v-201q0 -217 118 -359t331 -142h14q156 0 324 86l18 -117q0 -18 -18 -29q-63 -39 -158.5 -60.5t-177.5 -21.5h-25q-270 0 -429 182.5 t-159 452.5zM662 1608l149 319q8 18 29 19h102l-166 -338q-10 -16 -26 -17h-78z" />
<glyph unicode="&#x107;" horiz-adv-x="995" d="M113 444v136q0 211 122.5 341t331.5 130h23q143 0 280 -78q16 -6 17 -27v-90q-197 68 -279 68h-16q-152 0 -238 -97.5t-86 -248.5v-132q0 -152 87 -249t237 -97h16q109 0 262 80l17 -102q0 -20 -17 -27q-137 -78 -280 -78h-23q-207 0 -330.5 131.5t-123.5 339.5z M473 1198l150 320q8 18 28 18h101q10 0 12 -6l-178 -332q-10 -16 -25 -16h-80z" />
<glyph unicode="&#x10a;" horiz-adv-x="1193" d="M141 608v217q0 274 161 454.5t427 180.5h25q195 0 336 -82q18 -10 18 -30v-103q-217 74 -342 74h-14q-215 0 -332 -142.5t-117 -359.5v-201q0 -217 118 -359t331 -142h14q156 0 324 86h8l10 -117q0 -18 -18 -29q-63 -39 -158.5 -60.5t-177.5 -21.5h-25q-270 0 -429 182.5 t-159 452.5zM651 1630v150q1 18 19 18h143q18 0 18 -18v-150q0 -18 -18 -18h-143q-18 0 -19 18z" />
<glyph unicode="&#x10b;" horiz-adv-x="995" d="M113 444v136q0 211 122.5 341t331.5 130h23q143 0 280 -78q16 -6 17 -27v-90q-197 68 -279 68h-16q-152 0 -238 -96.5t-86 -249.5v-132q0 -152 87 -249t237 -97h16q109 0 262 80l17 -102q0 -20 -17 -27q-137 -78 -280 -78h-23q-207 0 -330.5 131.5t-123.5 339.5z M475 1221v149q1 19 19 19h143q18 0 18 -19v-149q0 -18 -18 -19h-143q-18 0 -19 19z" />
<glyph unicode="&#x10c;" horiz-adv-x="1193" d="M141 608v217q0 274 161 454.5t427 180.5h25q195 0 336 -82q18 -10 18 -30v-103q-217 74 -342 74h-14q-213 0 -331 -142.5t-118 -359.5v-201q0 -217 118 -359t331 -142h14q156 0 324 86l18 -117q0 -18 -18 -29q-63 -39 -158.5 -60.5t-177.5 -21.5h-25q-270 0 -429 182.5 t-159 452.5zM492 1927l100 19q18 0 29 -19l120 -235l121 235q11 19 29 19h90q10 0 12 -7l-192 -331q-10 -16 -25 -17h-67q-16 0 -27 17z" />
<glyph unicode="&#x10d;" horiz-adv-x="995" d="M113 444v136q0 211 122.5 341t331.5 130h23q143 0 280 -78q16 -6 17 -27v-90q-197 68 -279 68h-16q-152 0 -238 -96.5t-86 -249.5v-132q0 -152 87 -249t237 -97h16q109 0 262 80l17 -102q0 -20 -17 -27q-137 -78 -280 -78h-23q-207 0 -330.5 131.5t-123.5 339.5z M291 1518l100 18q18 0 29 -18l121 -236l121 236q10 18 28 18h90q10 0 13 -6l-193 -332q-10 -16 -25 -16h-67q-16 0 -27 16z" />
<glyph unicode="&#x10e;" horiz-adv-x="1349" d="M172 16v1401q0 17 16 17h471q270 0 410.5 -171t140.5 -444v-205q0 -274 -141 -444t-410 -170h-471q-16 0 -16 16zM322 1927q2 18 12 19h90q18 0 29 -19l120 -235l119 235q9 19 29 19h90q8 0 12 -7l-190 -331q-10 -16 -27 -17h-67q-16 0 -27 17zM330 139h313 q209 0 308.5 132.5t99.5 349.5v192q0 217 -99.5 348t-308.5 131h-313v-1153z" />
<glyph unicode="&#x10f;" horiz-adv-x="1333" d="M113 428v160q0 205 100 334t299 129h12q178 0 305 -140v582q1 16 17 16h119q16 0 16 -16v-1477q0 -16 -16 -16h-107q-14 0 -16 14l-6 115q-131 -156 -324 -156h-12q-195 0 -291 126t-96 329zM268 430q0 -330 271 -330h6q150 0 284 146v532q-134 146 -284 146h-6 q-143 0 -207 -90.5t-64 -239.5v-164zM1098 1110l71 236h-51q-18 0 -18 18v127q0 18 18 18h148q18 0 18 -18v-109q0 -18 -4 -34l-86 -224q-6 -14 -20 -14h-76z" />
<glyph unicode="&#x110;" horiz-adv-x="1349" d="M68 618v91q0 16 18 16h86v692q0 17 16 17h471q270 0 410.5 -171t140.5 -444v-205q0 -274 -141 -444t-410 -170h-471q-16 0 -16 16v586h-86q-18 0 -18 16zM330 139h313q209 0 308.5 132.5t99.5 349.5v192q0 217 -99.5 348t-308.5 131h-313v-567h360q16 0 17 -16v-91 q0 -16 -17 -16h-360v-463z" />
<glyph unicode="&#x111;" horiz-adv-x="1112" d="M113 428v160q0 205 100 334t299 129h12q178 0 305 -140v326h-241q-18 0 -19 18v82q0 16 19 17h241v139q0 16 17 16h119q16 0 16 -16v-139h111q16 0 16 -17v-82q0 -18 -16 -18h-111v-1221q0 -16 -16 -16h-107q-14 0 -16 14l-6 115q-61 -72 -147.5 -114t-176.5 -42h-12 q-195 0 -291 126t-96 329zM268 430q0 -150 63.5 -240t207.5 -90h6q149 1 284 146v532q-135 145 -284 146h-6q-270 0 -271 -330v-164z" />
<glyph unicode="&#x112;" horiz-adv-x="1134" d="M172 16v1401q0 16 16 17h844q16 0 17 -17v-106q0 -18 -17 -19h-702v-485h655q16 0 16 -16v-107q0 -18 -16 -18h-655v-525h702q16 0 17 -18v-107q0 -16 -17 -16h-844q-16 0 -16 16zM338 1628v82q0 16 16 16h496q18 0 18 -16v-82q0 -16 -18 -16h-496q-16 0 -16 16z" />
<glyph unicode="&#x113;" horiz-adv-x="1077" d="M113 418v145q0 209 114.5 348.5t319.5 139.5h22q201 0 300.5 -125t99.5 -332v-78q0 -23 -25 -22h-676v-91q0 -141 91.5 -223t232.5 -82h10q135 0 311 82l17 -102q0 -20 -17 -27q-150 -78 -329 -78h-15q-205 0 -330.5 120t-125.5 325zM268 592h555q2 340 -260 340h-14 q-137 0 -207 -98.5t-74 -241.5zM274 1219v81q1 17 17 17h495q18 0 19 -17v-81q0 -16 -19 -17h-495q-16 0 -17 17z" />
<glyph unicode="&#x116;" horiz-adv-x="1134" d="M172 16v1401q0 16 16 17h844q16 0 17 -17v-106q0 -18 -17 -19h-702v-485h655q16 0 16 -16v-107q0 -18 -16 -18h-655v-525h702q16 0 17 -18v-107q0 -16 -17 -16h-844q-16 0 -16 16zM516 1630v150q1 18 19 18h143q18 0 18 -18v-150q0 -18 -18 -18h-143q-18 0 -19 18z" />
<glyph unicode="&#x117;" horiz-adv-x="1077" d="M113 418v145q0 209 114.5 348.5t319.5 139.5h22q201 0 300.5 -125t99.5 -332v-78q0 -23 -25 -22h-676v-91q0 -141 91.5 -223t232.5 -82h10q135 0 311 82l17 -102q0 -20 -17 -27q-150 -78 -329 -78h-15q-205 0 -330.5 120t-125.5 325zM268 592h555q2 340 -260 340h-14 q-137 0 -207 -98.5t-74 -241.5zM449 1221v149q0 19 18 19h143q18 0 19 -19v-149q0 -18 -19 -19h-143q-18 0 -18 19z" />
<glyph unicode="&#x118;" horiz-adv-x="1134" d="M172 16v1401q0 16 16 17h844q16 0 17 -17v-106q-1 -19 -17 -19h-702v-485h655q16 0 16 -16v-107q0 -18 -16 -18h-655v-525h702q16 0 17 -18v-107q0 -16 -17 -16h-2q-43 -35 -69 -61l-56 -56q-33 -33 -45 -67q-14 -29 -14 -64q0 -98 110 -98q29 0 60 8q14 2 14 -12v-47 q0 -23 -20 -29q-31 -14 -84 -14q-109 0 -156 75q-27 39 -27 95q0 119 185 270h-740q-16 0 -16 16z" />
<glyph unicode="&#x119;" horiz-adv-x="1077" d="M113 418v145q0 209 114.5 348.5t319.5 139.5h22q203 0 301.5 -126t98.5 -331v-78q0 -23 -25 -22h-676v-91q0 -141 90.5 -223t233.5 -82h10q135 0 311 82l17 -102q0 -20 -17 -27q-70 -37 -168 -57q-20 -18 -49.5 -45t-40.5 -35q-33 -29 -59.5 -77t-26.5 -85 q0 -47 30 -72.5t79 -25.5q29 0 59 8q16 4 17 -12v-47q0 -23 -21 -29q-35 -14 -86 -14q-82 0 -131 44t-49 126q0 113 151 245q-12 -2 -34 -2h-15q-205 0 -330.5 120t-125.5 325zM268 592h555q2 340 -260 340h-14q-137 0 -207 -98.5t-74 -241.5z" />
<glyph unicode="&#x11a;" horiz-adv-x="1134" d="M172 16v1401q0 16 16 17h844q16 0 17 -17v-106q0 -18 -17 -19h-702v-485h655q16 0 16 -16v-107q0 -18 -16 -18h-655v-525h702q16 0 17 -18v-107q0 -16 -17 -16h-844q-16 0 -16 16zM346 1927q2 18 12 19h91q18 0 28 -19l119 -235l121 235q8 19 28 19h91q8 0 12 -7 l-191 -331q-10 -16 -26 -17h-68q-16 0 -26 17z" />
<glyph unicode="&#x11b;" horiz-adv-x="1077" d="M113 418v145q0 209 114.5 348.5t319.5 139.5h22q201 0 300.5 -125t99.5 -332v-78q0 -23 -25 -22h-676v-91q0 -141 91.5 -223t232.5 -82h10q135 0 311 82l17 -102q0 -20 -17 -27q-150 -78 -329 -78h-15q-205 0 -330.5 120t-125.5 325zM268 592h555q2 340 -260 340h-14 q-137 0 -207 -98.5t-74 -241.5zM289 1518l100 18q20 0 29 -18l121 -236l120 236q9 18 29 18h90q8 0 13 -6l-193 -332q-10 -16 -25 -16h-69q-14 0 -25 16z" />
<glyph unicode="&#x11e;" horiz-adv-x="1320" d="M141 608v217q0 279 171.5 457t443.5 178h22q193 0 338 -84q16 -10 17 -28v-103q-23 4 -181 53q-68 20 -161 21h-13q-219 0 -347 -140.5t-128 -361.5v-201q0 -221 120 -361t337 -140h14q115 0 227 53v526q0 16 17 17h123q16 0 16 -17v-585q0 -23 -16 -33 q-168 -102 -367 -103h-24q-188 0 -340 95.5t-220 265.5q-53 123 -49 274zM483 1698v74q0 12 9 14q0 2 6 2q2 0 10 -4q135 -78 252 -78q107 0 252 78q8 4 10 4q4 0 6 -2q6 -4 6 -14v-74q0 -18 -14 -27q-16 -14 -39 -24q-86 -55 -221 -56q-121 0 -205 47q-31 14 -57 33 q-14 8 -15 27z" />
<glyph unicode="&#x11f;" horiz-adv-x="1101" d="M113 451v137q0 209 105.5 336t309.5 127h17q96 0 214.5 -34t196.5 -83q14 -8 15 -27v-870q0 -195 -108.5 -300.5t-303.5 -105.5h-12q-166 0 -332 74q-16 6 -16 27v92q209 -70 321 -70h8q291 0 291 283v108q-139 -150 -317 -149h-13q-195 0 -285.5 126t-90.5 329zM268 453 q0 -330 260 -330h7q152 0 284 145v574q-145 84 -274 84h-8q-139 0 -204 -91.5t-65 -236.5v-145zM276 1288v74q0 12 9 14q0 2 4 2q2 0 10 -4q147 -78 252 -78t252 78q8 4 10 4q4 0 6 -2q6 -4 6 -14v-74q0 -18 -12 -26q-109 -80 -262.5 -80t-261.5 80q-12 8 -13 26z" />
<glyph unicode="&#x120;" horiz-adv-x="1320" d="M141 608v217q0 279 171.5 457t443.5 178h22q193 0 338 -84q16 -10 17 -28v-103q-23 4 -181 53q-68 20 -161 21h-13q-219 0 -347 -140.5t-128 -361.5v-201q0 -221 120 -361t337 -140h14q115 0 227 53v526q0 16 17 17h123q16 0 16 -17v-585q0 -23 -16 -33 q-168 -102 -367 -103h-24q-188 0 -340 95.5t-220 265.5q-53 123 -49 274zM645 1630v150q1 18 19 18h143q18 0 18 -18v-150q0 -18 -18 -18h-143q-18 0 -19 18z" />
<glyph unicode="&#x121;" horiz-adv-x="1101" d="M113 451v137q0 209 105.5 336t309.5 127h17q96 0 214.5 -34t196.5 -83q14 -8 15 -27v-870q0 -195 -108.5 -300.5t-303.5 -105.5h-12q-166 0 -332 74q-16 6 -16 27v92q209 -70 321 -70h8q291 0 291 283v108q-139 -150 -317 -149h-13q-195 0 -285.5 128t-90.5 327zM268 453 q0 -330 260 -330h7q152 0 284 145v574q-145 84 -274 84h-8q-139 0 -204 -91.5t-65 -236.5v-145zM461 1200v150q0 18 18 18h144q18 0 18 -18v-150q0 -18 -18 -18h-144q-18 0 -18 18z" />
<glyph unicode="&#x122;" horiz-adv-x="1320" d="M141 608v217q0 279 171.5 457t443.5 178h22q193 0 338 -84q16 -10 17 -28v-103q-23 4 -181 53q-68 20 -161 21h-13q-219 0 -347 -140.5t-128 -361.5v-201q0 -221 120 -361t337 -140h14q115 0 227 53v526q0 16 17 17h123q16 0 16 -17v-585q0 -23 -16 -33 q-70 -45 -175.5 -74t-191.5 -29h-24q-188 0 -340 95.5t-220 265.5q-53 123 -49 274zM645 -496l84 230h-51q-18 0 -19 18v127q1 19 19 19h147q18 0 19 -19v-108q0 -25 -6 -33l-84 -225q-8 -14 -21 -15h-76q-10 0 -12 6z" />
<glyph unicode="&#x123;" horiz-adv-x="1101" d="M113 451v137q0 209 105.5 336t309.5 127h17q96 0 214.5 -34t196.5 -83q14 -8 15 -27v-870q0 -195 -108.5 -300.5t-303.5 -105.5h-12q-166 0 -332 74q-16 6 -16 27v92q209 -70 321 -70h8q291 0 291 283v108q-139 -150 -317 -149h-13q-195 0 -285.5 126t-90.5 329zM268 453 q0 -330 260 -330h7q152 0 284 145v574q-145 84 -274 84h-8q-139 0 -204 -92.5t-65 -235.5v-145zM451 1200v109q0 20 6 32l84 226q6 14 20 14h76q10 0 12 -6l-84 -232h51q18 0 19 -18v-125q-1 -18 -19 -18h-147q-18 0 -18 18z" />
<glyph unicode="&#x126;" horiz-adv-x="1433" d="M68 1034v90q0 16 18 17h107v276q0 16 16 17h125q16 0 16 -17v-276h733v276q0 16 19 17h123q18 -1 18 -17v-276h107q16 0 16 -17v-90q0 -16 -16 -16h-107v-1002q0 -16 -18 -16h-123q-18 0 -19 16v650h-733v-650q0 -16 -16 -16h-125q-16 0 -16 16v1002h-107q-18 0 -18 16z M350 807h733v211h-733v-211z" />
<glyph unicode="&#x127;" horiz-adv-x="1105" d="M6 1255v82q0 16 19 17h110v139q0 16 17 16h118q16 0 17 -16v-139h239q18 0 19 -17v-82q0 -18 -19 -18l-239 2v-336q170 148 340 148h14q170 0 255 -95.5t85 -269.5v-670q0 -16 -18 -16h-117q-18 0 -19 16v646q0 131 -56 196.5t-181 65.5h-6q-139 0 -297 -133v-775 q0 -16 -17 -16h-118q-16 0 -17 16v1223h-110q-18 0 -19 16z" />
<glyph unicode="&#x12a;" horiz-adv-x="501" d="M-14 1628v82q0 16 18 16h496q16 0 16 -16v-82q0 -16 -16 -16h-496q-18 0 -18 16zM172 16v1401q0 17 16 17h125q16 0 17 -17v-1401q0 -16 -17 -16h-125q-16 0 -16 16z" />
<glyph unicode="&#x12b;" horiz-adv-x="417" d="M-61 1219v81q0 17 16 17h496q18 0 18 -17v-81q0 -16 -18 -17h-496q-16 0 -16 17zM135 16v992q1 16 17 16h118q16 0 17 -16v-992q0 -16 -17 -16h-118q-16 0 -17 16z" />
<glyph unicode="&#x12e;" horiz-adv-x="501" d="M27 -270q0 53 31.5 107t65.5 87t85 76h-21q-16 0 -16 16v1401q0 17 16 17h125q16 0 17 -17v-1401q0 -16 -17 -16q-150 -125 -172 -184q-14 -29 -14 -64q0 -98 111 -98q29 0 59 8q16 4 16 -12v-47q0 -23 -20 -29q-35 -14 -86 -14q-82 0 -131 44t-49 126z" />
<glyph unicode="&#x12f;" horiz-adv-x="417" d="M-16 -270q0 53 31.5 107t65.5 87t85 76h-14q-16 0 -17 16v992q1 16 17 16h118q16 0 17 -16v-992q0 -16 -17 -16q-150 -125 -172 -184q-12 -31 -12 -64q0 -47 29.5 -72.5t79.5 -25.5q29 0 59 8q16 4 16 -12v-47q0 -23 -20 -29q-35 -14 -86 -14q-82 0 -131 44t-49 126z M121 1221v149q0 19 18 19h144q18 0 18 -19v-149q0 -18 -18 -19h-144q-18 0 -18 19z" />
<glyph unicode="&#x130;" horiz-adv-x="501" d="M162 1630v150q0 18 18 18h144q18 0 18 -18v-150q0 -18 -18 -18h-144q-18 0 -18 18zM172 16v1401q0 17 16 17h125q16 0 17 -17v-1401q0 -16 -17 -16h-125q-16 0 -16 16z" />
<glyph unicode="&#x131;" horiz-adv-x="417" d="M135 16v992q1 16 17 16h118q16 0 17 -16v-992q0 -16 -17 -16h-118q-16 0 -17 16z" />
<glyph unicode="&#x132;" horiz-adv-x="1300" d="M172 16v1401q0 17 16 17h125q16 0 17 -17v-1401q0 -16 -17 -16h-125q-16 0 -16 16zM569 49v109q0 10 6 12q2 2 7 2q6 0 8 -2q90 -55 176 -55h6q197 0 197 252v1050q0 17 16 17h127q18 0 18 -17v-1052q0 -176 -80.5 -284t-250.5 -108h-11q-113 0 -206 56q-12 6 -13 20z " />
<glyph unicode="&#x133;" horiz-adv-x="878" d="M135 1221v139q1 18 19 18h135q16 0 16 -18v-139q0 -18 -16 -19h-135q-18 0 -19 19zM143 16v992q1 16 19 16h117q18 0 18 -16v-992q0 -16 -18 -16h-117q-18 0 -19 16zM352 -238q0 14 10 15q4 0 9 -2q49 -20 100 -21h10q47 0 76 27q29 29 29 92v1135q0 16 18 16h119 q16 0 16 -16v-1135q0 -57 -16 -106q-18 -47 -49 -78q-63 -57 -156 -58h-16q-78 0 -133 27q-16 10 -17 27v77zM578 1221v139q0 18 18 18h135q18 0 19 -18v-139q0 -18 -19 -19h-135q-18 0 -18 19z" />
<glyph unicode="&#x136;" horiz-adv-x="1263" d="M172 16v1401q0 16 16 17h125q16 0 17 -17v-624h223l432 628q8 12 23 13h137q12 0 14 -9q2 -6 -2 -14l-463 -684l498 -704q4 -4 2 -15q-2 -8 -12 -8h-144q-14 0 -22 12l-461 639h-225v-635q0 -16 -17 -16h-125q-16 0 -16 16zM545 -502l71 238h-51q-18 0 -18 16v127 q0 19 18 19h148q18 0 18 -19v-108q0 -20 -4 -33l-86 -225q-6 -14 -20 -15h-76z" />
<glyph unicode="&#x137;" horiz-adv-x="999" d="M135 16v1477q0 16 17 16h118q16 0 17 -16v-905h176l280 424q10 12 23 12h125q12 0 14 -8.5t-2 -16.5l-305 -469l350 -503q6 -8 2 -19q-2 -8 -16 -8h-131q-16 0 -23 12l-317 453h-176v-449q0 -16 -17 -16h-118q-16 0 -17 16zM401 -496l84 230h-51q-18 0 -18 18v127 q0 19 18 19h148q18 0 18 -19v-108q0 -23 -6 -35l-84 -223q-8 -14 -21 -15h-75q-8 0 -13 6z" />
<glyph unicode="&#x139;" horiz-adv-x="1071" d="M172 16v1401q0 16 16 17h125q17 -1 17 -17v-1276h655q16 0 16 -18v-107q0 -16 -16 -16h-797q-16 0 -16 16zM201 1608l149 319q10 18 29 19h100q8 0 13 -7l-179 -331q-10 -16 -24 -17h-80z" />
<glyph unicode="&#x13a;" horiz-adv-x="413" d="M135 16v1477q1 16 17 16h118q16 0 17 -16v-1477q0 -16 -17 -16h-118q-16 0 -17 16zM162 1683l149 320q8 18 29 18h102l-166 -338q-10 -16 -26 -16h-78z" />
<glyph unicode="&#x13b;" horiz-adv-x="1071" d="M172 16v1401q0 16 16 17h125q17 -1 17 -17v-1276h655q16 0 16 -18v-107q0 -16 -16 -16h-797q-16 0 -16 16zM449 -502l71 236h-51q-18 0 -18 18v127q0 19 18 19h147q18 0 19 -19v-108q0 -20 -4 -33l-86 -225q-6 -14 -21 -15h-75z" />
<glyph unicode="&#x13c;" horiz-adv-x="413" d="M109 -496l84 232h-52q-18 0 -18 16v127q0 19 18 19h148q18 0 18 -19v-108q0 -25 -6 -33l-84 -225q-6 -14 -20 -15h-76q-10 0 -12 6zM135 16v1477q1 16 17 16h118q16 0 17 -16v-1477q0 -16 -17 -16h-118q-16 0 -17 16z" />
<glyph unicode="&#x13d;" horiz-adv-x="1071" d="M172 16v1401q0 16 16 17h125q17 -1 17 -17v-1276h655q16 0 16 -18v-107q0 -16 -16 -16h-797q-16 0 -16 16zM717 1042l84 228h-51q-18 0 -19 18v127q1 19 19 19h147q18 0 18 -19v-108q0 -23 -6 -35l-84 -223q-8 -14 -20 -15h-76q-10 0 -12 8z" />
<glyph unicode="&#x13e;" horiz-adv-x="638" d="M135 16v1477q1 16 17 16h118q16 0 17 -16v-1477q0 -16 -17 -16h-118q-16 0 -17 16zM393 1118l84 228h-53q-16 0 -16 18v127q0 18 16 18h149q18 0 19 -18v-109q0 -23 -6 -34l-84 -224q-8 -14 -23 -14h-73q-10 0 -13 8z" />
<glyph unicode="&#x13f;" horiz-adv-x="1071" d="M172 16v1401q0 16 16 17h125q17 -1 17 -17v-1276h655q16 0 16 -18v-107q0 -16 -16 -16h-797q-16 0 -16 16zM735 524v150q1 18 19 18h143q18 0 18 -18v-150q0 -18 -18 -18h-143q-18 0 -19 18z" />
<glyph unicode="&#x140;" horiz-adv-x="632" d="M135 16v1477q1 16 17 16h118q16 0 17 -16v-1477q0 -16 -17 -16h-118q-16 0 -17 16zM406 524v150q0 18 18 18h143q18 0 19 -18v-150q0 -18 -19 -18h-143q-18 0 -18 18z" />
<glyph unicode="&#x141;" horiz-adv-x="1122" d="M53 559q-12 12 4 23l166 116v719q0 16 17 17h125q16 0 16 -17v-608l229 160q8 4 11 4q8 0 14 -8l49 -72q12 -12 -4 -25l-299 -209v-518h655q16 0 17 -18v-107q0 -16 -17 -16h-796q-16 0 -17 16v533l-96 -66q-4 -4 -12 -4q-6 0 -13 6z" />
<glyph unicode="&#x142;" horiz-adv-x="659" d="M51 680q-10 12 4 25l195 135v653q0 16 18 16h117q18 0 18 -16v-547l129 90q8 4 11 4q6 0 14 -8l49 -71q12 -14 -4 -25l-199 -139v-781q0 -16 -18 -16h-117q-18 0 -18 16v674l-123 -86q-8 -4 -10 -4q-8 0 -15 8z" />
<glyph unicode="&#x143;" horiz-adv-x="1392" d="M164 16v1401q0 16 16 17h146q16 0 24 -15l723 -1175h10l-12 561v612q0 17 16 17h125q16 0 17 -17v-1401q0 -16 -17 -16h-145q-16 0 -25 14l-436 705l-287 471h-10l13 -471v-703q0 -16 -17 -16h-125q-16 0 -16 16zM643 1608l150 319q10 18 28 19h101l-166 -338 q-10 -16 -27 -17h-78z" />
<glyph unicode="&#x144;" horiz-adv-x="1095" d="M131 16v992q0 16 16 16h107q14 0 16 -14l6 -111q175 152 345 152h14q170 0 252 -96.5t82 -268.5v-670q0 -16 -17 -16h-118q-16 0 -17 16v646q0 129 -53 195.5t-180 66.5h-6q-143 0 -295 -131v-777q0 -16 -17 -16h-119q-16 0 -16 16zM528 1198l150 320q10 18 29 18h100 l-166 -338q-10 -16 -25 -16h-79z" />
<glyph unicode="&#x145;" horiz-adv-x="1392" d="M164 16v1401q0 16 16 17h146q16 0 24 -15l723 -1175h10l-12 561v612q0 17 16 17h125q16 0 17 -17v-1401q0 -16 -17 -16h-145q-16 0 -25 14l-436 705l-287 471h-10l13 -471v-703q0 -16 -17 -16h-125q-16 0 -16 16zM598 -496l84 232h-51q-18 0 -19 16v127q1 19 19 19h147 q18 0 19 -19v-108q0 -25 -6 -33l-84 -225q-8 -14 -21 -15h-76q-8 0 -12 6z" />
<glyph unicode="&#x146;" horiz-adv-x="1095" d="M131 16v992q0 16 16 16h107q14 0 16 -14l6 -111q175 152 345 152h14q170 0 252 -96.5t82 -268.5v-670q0 -16 -17 -16h-118q-16 0 -17 16v646q0 129 -53 195.5t-180 66.5h-6q-143 0 -295 -131v-777q0 -16 -17 -16h-119q-16 0 -16 16zM451 -496l84 230h-52q-18 0 -18 18 v127q0 19 18 19h148q18 0 18 -19v-108q0 -23 -6 -35l-84 -223q-8 -14 -20 -15h-76q-8 0 -12 6z" />
<glyph unicode="&#x147;" horiz-adv-x="1392" d="M164 16v1401q0 16 16 17h146q16 0 24 -15l723 -1175h10l-12 561v612q0 17 16 17h125q16 0 17 -17v-1401q0 -16 -17 -16h-145q-16 0 -25 14l-436 705l-287 471h-10l13 -471v-703q0 -16 -17 -16h-125q-16 0 -16 16zM446 1927q0 18 11 19h90q18 0 28 -19l121 -235l121 235 q11 19 29 19h90q10 0 12 -7l-192 -331q-10 -16 -25 -17h-69q-14 0 -25 17z" />
<glyph unicode="&#x148;" horiz-adv-x="1095" d="M131 16v992q0 16 16 16h107q14 0 16 -14l6 -111q175 152 345 152h14q170 0 252 -96.5t82 -268.5v-670q0 -16 -17 -16h-118q-16 0 -17 16v646q0 129 -53 195.5t-180 66.5h-6q-143 0 -295 -131v-777q0 -16 -17 -16h-119q-16 0 -16 16zM299 1518l100 18q18 0 29 -18 l121 -236l121 236q10 18 28 18h90q10 0 13 -6l-193 -332q-10 -16 -24 -16h-70q-14 0 -25 16z" />
<glyph unicode="&#x14a;" horiz-adv-x="1392" d="M164 16v1401q0 16 16 17h146q16 0 24 -15l723 -1175h10l-12 561v612q0 17 16 17h125q16 0 17 -17v-1394q0 -391 -311 -392h-11q-113 0 -207 56q-12 6 -12 20v105q0 8 6 12q111 -55 189 -55h8q164 0 168 219l-453 731l-287 471h-10l13 -471v-703q0 -16 -17 -16h-125 q-16 0 -16 16z" />
<glyph unicode="&#x14b;" horiz-adv-x="1095" d="M131 16v992q0 16 16 16h107q14 0 16 -14l6 -111q175 152 345 152h14q170 0 252 -96.5t82 -268.5v-813q0 -57 -17 -106q-18 -45 -47 -78q-63 -57 -157 -58h-17q-74 0 -133 27q-16 10 -16 27v77q0 14 10 15q6 0 10 -2q49 -20 100 -21h9q106 0 106 119v789q0 129 -53 195.5 t-180 66.5h-6q-143 0 -295 -131v-777q0 -16 -17 -16h-119q-16 0 -16 16z" />
<glyph unicode="&#x14c;" horiz-adv-x="1409" d="M141 582v270q0 270 143.5 439t403.5 169h31q264 0 406.5 -171t142.5 -437v-270q0 -270 -144.5 -439.5t-404.5 -169.5h-31q-264 0 -405.5 172t-141.5 437zM303 578q0 -205 96.5 -334t292.5 -129h23q199 0 295 129t96 334v278q0 209 -96 336t-295 127h-23q-197 0 -293 -129 t-96 -334v-278zM440 1628v82q1 16 17 16h497q16 0 17 -16v-82q0 -16 -17 -16h-497q-16 0 -17 16z" />
<glyph unicode="&#x14d;" horiz-adv-x="1136" d="M113 436v152q0 207 119.5 335t324.5 128h23q207 0 325.5 -127t118.5 -336v-152q0 -207 -119 -335t-325 -128h-23q-205 0 -324.5 128t-119.5 335zM268 430q0 -145 76 -237.5t217 -92.5h14q143 0 218 93.5t75 236.5v164q0 147 -75 238.5t-218 91.5h-14q-141 0 -217 -92.5 t-76 -237.5v-164zM305 1221v79q1 17 17 17h495q18 0 19 -17v-81q0 -16 -19 -17h-495q-16 0 -17 19z" />
<glyph unicode="&#x150;" horiz-adv-x="1409" d="M141 582v270q0 270 143.5 439t403.5 169h31q264 0 406.5 -171t142.5 -437v-270q0 -270 -144.5 -439.5t-404.5 -169.5h-31q-264 0 -405.5 172t-141.5 437zM303 578q0 -205 96.5 -334t292.5 -129h23q199 0 295 129t96 334v278q0 209 -96 336t-295 127h-23q-197 0 -293 -129 t-96 -334v-278zM530 1608l150 319q8 18 29 19h90q8 0 12 -7l-176 -331q-10 -16 -27 -17h-67zM793 1608l149 319q8 18 29 19h90q8 0 12 -7l-178 -331q-10 -16 -25 -17h-67z" />
<glyph unicode="&#x151;" horiz-adv-x="1136" d="M113 436v152q0 207 119.5 335t324.5 128h23q207 0 325.5 -127t118.5 -336v-152q0 -207 -119 -335t-325 -128h-23q-205 0 -324.5 128t-119.5 335zM268 430q0 -147 76 -238.5t217 -91.5h14q143 0 218 91.5t75 238.5v164q0 147 -75 238.5t-218 91.5h-14q-143 0 -218 -91.5 t-75 -238.5v-164zM401 1198l150 320q10 18 27 18h92l-166 -338q-10 -16 -27 -16h-67zM664 1198l147 320q8 18 29 18h90q8 0 12 -6l-176 -332q-10 -16 -27 -16h-67z" />
<glyph unicode="&#x152;" horiz-adv-x="2070" d="M141 582v270q0 270 143.5 439t403.5 169h31q299 0 430 -237v194q0 16 16 17h803q16 0 17 -17v-106q0 -18 -17 -19h-702v-485h653q18 0 18 -16v-107q0 -18 -18 -18h-653v-525h702q16 0 17 -18v-107q0 -16 -17 -16h-803q-16 0 -16 16v195q-63 -117 -177 -177.5t-253 -60.5 h-31q-264 0 -405.5 172t-141.5 437zM303 578q0 -205 96.5 -334t292.5 -129h23q199 0 295 130t96 333v278q0 205 -96 334t-295 129h-23q-197 0 -293 -129t-96 -334v-278z" />
<glyph unicode="&#x153;" horiz-adv-x="1832" d="M113 436v152q0 207 119.5 335t324.5 128h23q264 0 368 -226q105 226 355 226h22q201 0 299 -125t98 -332v-78q0 -23 -22 -22h-676v-91q0 -143 89 -224t235 -81h8q137 0 313 82l17 -102q0 -20 -17 -27q-150 -78 -330 -78h-14q-127 0 -228.5 53.5t-152.5 159.5 q-63 -135 -213 -190q-74 -23 -151 -23h-23q-205 0 -324.5 128t-119.5 335zM268 430q0 -145 76 -237.5t217 -92.5h14q143 0 218 91.5t75 238.5v164q0 147 -75 238.5t-218 91.5h-14q-141 0 -217 -92.5t-76 -237.5v-164zM1024 592h555q2 340 -260 340h-14q-139 0 -208 -98.5 t-73 -241.5z" />
<glyph unicode="&#x154;" horiz-adv-x="1275" d="M172 16v1401q0 17 16 17h459q496 0 496 -398v-30q0 -162 -87 -267.5t-247 -140.5l147 -207l248 -371q6 -8 2 -14q-2 -6 -14 -6h-139q-18 0 -27 14l-373 559h-323v-557q0 -16 -17 -16h-125q-16 0 -16 16zM330 705h291q160 0 260 72.5t100 226.5v12q0 160 -93 218t-261 58 h-297v-587zM516 1608l150 319q10 18 28 19h101l-166 -338q-10 -16 -27 -17h-78z" />
<glyph unicode="&#x155;" horiz-adv-x="729" d="M131 16v992q0 16 16 16h107q14 0 16 -14l9 -142q143 183 323 183h8q23 0 56 -4q16 -4 16 -21v-106q0 -16 -20 -17h-5q-37 4 -67 4h-8q-156 0 -299 -159v-732q0 -16 -17 -16h-119q-16 0 -16 16zM336 1198l149 320q10 18 29 18h100q8 0 13 -6l-176 -332q-10 -16 -27 -16 h-78z" />
<glyph unicode="&#x156;" horiz-adv-x="1275" d="M172 16v1401q0 17 16 17h459q498 0 498 -398v-30q0 -160 -88 -266.5t-246 -141.5l145 -207l248 -371q6 -8 2 -14q-2 -6 -14 -6h-139q-18 0 -27 14l-373 559h-323v-557q0 -16 -17 -16h-125q-16 0 -16 16zM330 705h291q160 0 261 73.5t101 225.5v12q0 158 -93 217t-263 59 h-297v-587zM543 -496l84 232h-52q-18 0 -18 16v127q0 19 18 19h148q18 0 18 -19v-108q0 -25 -6 -33l-84 -225q-6 -14 -20 -15h-76q-10 0 -12 6z" />
<glyph unicode="&#x157;" horiz-adv-x="729" d="M117 -496l84 230h-51q-18 0 -19 18v127q1 19 19 19h147q18 0 18 -19v-108q0 -23 -6 -35l-84 -223q-8 -14 -20 -15h-76q-10 0 -12 6zM131 16v992q0 16 16 16h107q14 0 16 -14l9 -142q143 183 323 183h8q23 0 56 -4q16 -4 16 -21v-106q0 -16 -20 -17h-5q-37 4 -67 4h-8 q-156 0 -299 -159v-732q0 -16 -17 -16h-119q-16 0 -16 16z" />
<glyph unicode="&#x158;" horiz-adv-x="1275" d="M172 16v1401q0 17 16 17h459q498 0 498 -398v-30q0 -160 -89 -266.5t-247 -141.5l147 -207l248 -371q6 -8 2 -14q-2 -6 -14 -6h-139q-18 0 -27 14l-373 559h-323v-557q0 -16 -17 -16h-125q-16 0 -16 16zM330 705h291q160 0 261 73.5t101 225.5v12q0 158 -93 217t-263 59 h-297v-587zM371 1927q2 18 12 19h90q18 0 29 -19l121 -235l118 235q9 19 29 19h90q8 0 12 -7l-190 -331q-10 -16 -27 -17h-67q-16 0 -27 17z" />
<glyph unicode="&#x159;" horiz-adv-x="729" d="M115 1518l102 18q16 0 27 -18l121 -236l120 236q11 18 29 18h90q10 0 12 -6l-192 -332q-10 -16 -25 -16h-67q-16 0 -27 16zM131 16v992q0 16 16 16h107q14 0 16 -14l9 -142q143 183 323 183h8q23 0 56 -4q16 -4 16 -21v-106q0 -16 -20 -17h-5q-37 4 -67 4h-8 q-156 0 -299 -159v-732q0 -16 -17 -16h-119q-16 0 -16 16z" />
<glyph unicode="&#x15a;" horiz-adv-x="1122" d="M102 1061v22q0 174 132.5 275.5t310.5 101.5h16q211 0 352 -80q18 -8 19 -28v-107q-10 -12 -21 -12q-80 37 -159 63q-88 25 -185 25h-12q-119 0 -205 -63.5t-86 -178.5v-8q0 -53 22.5 -94t67.5 -69.5t83 -45t95 -35.5l97 -30q98 -35 157.5 -63.5t119 -76t87 -115 t27.5 -159.5v-18q0 -186 -137.5 -289t-329.5 -103h-18q-207 0 -385 95q-18 10 -19 28v107q51 -8 150 -41q117 -49 247 -49h15q131 0 223 65.5t92 190.5v6q0 127 -115 198q-78 39 -176 72l-94 31q-301 104 -352 274q-18 53 -19 111zM504 1608l149 319q10 18 29 19h100 q8 0 13 -7l-179 -331q-10 -16 -24 -17h-80z" />
<glyph unicode="&#x15b;" horiz-adv-x="876" d="M78 754v12q0 137 103.5 211t246.5 74h23q63 0 181 -28t118 -69v-88q-193 70 -289 70h-15q-82 0 -148.5 -41t-66.5 -119v-10q0 -37 15 -59q23 -49 168 -99q14 -2 20 -6l58 -18q152 -53 219 -105q86 -61 86 -200v-11q0 -143 -106.5 -219t-256.5 -76h-20q-72 0 -161 19.5 t-142 52.5q-16 6 -17 27v88q195 -72 312 -72h16q92 0 157.5 43t65.5 129v10q0 41 -15.5 70t-51 49.5t-58 30.5t-69.5 24l-56 19q-57 20 -65 22q-23 6 -62 25q-39 14 -61 31q-92 53 -117 141q-12 35 -12 72zM383 1198l149 320q8 18 29 18h101l-166 -338q-10 -16 -25 -16h-80z " />
<glyph unicode="&#x15e;" horiz-adv-x="1122" d="M102 1061v22q0 176 131.5 276.5t311.5 100.5h16q211 0 352 -80q18 -8 19 -28v-107q-10 -12 -21 -12q-111 49 -215 76q-66 12 -129 12h-14q-117 0 -203 -64.5t-86 -177.5v-8q0 -53 22.5 -94t67.5 -69.5t83 -45.5t95 -35l97 -30q98 -35 157.5 -63.5t119 -76t87 -115 t27.5 -159.5v-18q0 -184 -134 -286t-327 -106l-16 -94q25 8 59 8q72 0 118 -42t46 -113q0 -86 -58.5 -129t-148.5 -43q-152 0 -151 53v31q0 12 14 12q84 -20 121 -21q123 0 123 89q0 39 -25 61q-27 20 -72 20q-27 0 -82 -14q-14 0 -22 4l-8 4q-14 10 -11 23l29 153 q-182 16 -325 93q-18 10 -19 28v107q51 -8 150 -41q117 -49 247 -49h15q131 0 223 65.5t92 190.5v6q0 127 -115 198q-78 39 -176 72l-94 31q-170 57 -270.5 145t-100.5 240z" />
<glyph unicode="&#x15f;" horiz-adv-x="876" d="M78 754v12q0 137 103.5 211t246.5 74h23q61 0 180 -29t119 -68v-88q-193 70 -289 70h-15q-82 0 -148.5 -41t-66.5 -119v-10q0 -37 15 -59q23 -49 168 -99q14 -2 20 -6l58 -18q152 -53 219 -105q86 -61 86 -200v-11q0 -143 -106.5 -219t-256.5 -76h-22l-17 -94q25 8 60 8 q72 0 117.5 -42t45.5 -113q0 -86 -59 -129t-147 -43q-152 0 -152 53v31q0 12 14 12q84 -20 121 -21q123 0 123 89q0 82 -96 81q-27 0 -82 -14q-14 0 -23 4l-8 6q-14 8 -10 21l29 158q-145 23 -217 65q-16 6 -17 27v88q195 -72 312 -72h16q92 0 157.5 43t65.5 129v10 q0 100 -121 148q-66 25 -71 26l-58 19q-57 20 -65 22q-23 6 -62 25q-39 14 -61 31q-92 53 -117 141q-12 35 -12 72z" />
<glyph unicode="&#x160;" horiz-adv-x="1122" d="M102 1061v22q0 174 132.5 275.5t310.5 101.5h16q211 0 352 -80q18 -8 19 -28v-107q-4 -16 -21 -12q-197 88 -344 88h-12q-119 0 -205 -63.5t-86 -178.5v-8q0 -53 22.5 -95t68.5 -70.5t83 -44t94 -34.5l97 -30q98 -35 157.5 -63.5t119 -76t87 -115t27.5 -159.5v-18 q0 -186 -137.5 -289t-329.5 -103h-18q-207 0 -385 95q-18 10 -19 28v107q51 -8 150 -41q117 -49 247 -49h15q131 0 223 65.5t92 190.5v6q0 127 -115 198q-78 39 -176 72l-94 31q-170 57 -270.5 145t-100.5 240zM311 1927q2 18 13 19h90q20 0 28 -19l121 -235l119 235 q11 19 29 19h90q10 0 12 -7l-190 -331q-10 -16 -27 -17h-68q-16 0 -26 17z" />
<glyph unicode="&#x161;" horiz-adv-x="876" d="M78 754v12q0 137 103.5 211t246.5 74h23q61 0 180 -29t119 -68v-88q-193 70 -289 70h-15q-82 0 -148.5 -41t-66.5 -119v-10q0 -37 15 -59q23 -49 168 -99q14 -2 20 -6l58 -18q152 -53 219 -105q86 -61 86 -200v-11q0 -143 -106.5 -219t-256.5 -76h-20q-72 0 -161 19.5 t-142 52.5q-16 6 -17 27v88q195 -72 312 -72h16q92 0 157.5 43t65.5 129v10q0 41 -15.5 70t-51 49.5t-58 30.5t-69.5 24l-56 19q-57 20 -65 22q-23 6 -62 25q-39 14 -61 31q-92 53 -117 141q-12 35 -12 72zM188 1518q2 18 13 18h90q20 0 28 -18l119 -236l121 236 q11 18 29 18h90q10 0 12 -6l-190 -332q-10 -16 -27 -16h-67q-16 0 -27 16z" />
<glyph unicode="&#x162;" horiz-adv-x="1220" d="M68 1311v106q0 17 18 17h1051q16 0 16 -17v-106q0 -18 -16 -19h-447v-1276q0 -16 -16 -16h-37l-21 -121q25 8 60 8q74 0 119 -42t45 -113q0 -86 -59.5 -129t-147.5 -43q-72 0 -133 22q-18 8 -19 31v31q0 12 15 12q84 -20 120 -21q123 0 123 89q0 82 -96 81q-27 0 -82 -14 q-14 0 -22 4l-9 4q-14 8 -10 23l33 178h-4q-16 0 -17 16v1276h-446q-18 0 -18 19z" />
<glyph unicode="&#x163;" horiz-adv-x="690" d="M47 918v77q0 16 19 19l124 10v199q0 23 19 26l110 27q2 0 5 2h4q16 0 16 -21v-233h283q16 0 16 -16v-90q0 -17 -16 -17h-283v-651q0 -150 129 -150h10q53 0 140 33q2 2 6 2h6l2 -2q6 -6 6 -14v-80q0 -29 -73.5 -47.5t-114.5 -18.5h-15q-29 0 -43 2l-16 -96q25 8 59 8 q72 0 118 -42t46 -113q0 -86 -57.5 -129t-147.5 -43q-154 0 -153 53v31q0 12 14 12q84 -20 123 -21q121 0 121 89q0 39 -25 61q-27 20 -71 20q-25 0 -80 -14q-16 0 -25 4l-6 6q-16 10 -12 21l32 174q-127 55 -127 233v672h-124q-18 0 -19 17z" />
<glyph unicode="&#x164;" horiz-adv-x="1220" d="M68 1311v106q0 17 18 17h1051q16 0 16 -17v-106q0 -18 -16 -19h-447v-1276q0 -16 -16 -16h-125q-16 0 -17 16v1276h-446q-18 0 -18 19zM360 1927q2 18 13 19h90q20 0 29 -19l120 -235l119 235q11 19 29 19h90q10 0 12 -7l-190 -331q-10 -16 -27 -17h-67q-16 0 -27 17z " />
<glyph unicode="&#x165;" horiz-adv-x="948" d="M47 918v77q0 16 19 19l124 10v199q1 22 19 26l110 25q4 2 11 2q14 0 14 -19v-233h283q16 0 16 -16v-90q0 -16 -16 -17h-283v-651q0 -150 129 -150h10q53 0 140 33q2 2 6 2h6l2 -2q6 -6 6 -14v-80q0 -29 -73.5 -47.5t-114.5 -18.5h-15q-82 0 -137 31q-113 53 -113 225v672 h-124q-18 0 -19 17zM700 1118l84 228h-51q-18 0 -18 18v127q0 18 18 18h148q18 0 18 -18v-109q0 -18 -4 -34l-86 -224q-6 -14 -21 -14h-75q-10 0 -13 8z" />
<glyph unicode="&#x166;" horiz-adv-x="1220" d="M68 1311v106q0 17 18 17h1051q16 0 16 -17v-106q0 -18 -16 -19h-447v-393h209q16 0 16 -16v-82q0 -16 -16 -17h-209v-768q0 -16 -16 -16h-125q-16 0 -17 16v768h-210q-16 0 -17 17v82q0 16 17 16h210v393h-446q-18 0 -18 19z" />
<glyph unicode="&#x167;" horiz-adv-x="690" d="M47 584v80q0 18 19 18h124v219h-124q-18 0 -19 17v77q0 16 19 19l124 10v199q0 23 19 26l110 27q2 0 5 2h4q16 0 16 -21v-233h283q16 0 16 -16v-90q0 -17 -16 -17h-283v-219h283q16 0 16 -18v-80q0 -18 -16 -19l-283 2v-317q0 -150 129 -150h10q53 0 140 33q2 2 6 2h6 l2 -2q6 -6 6 -14v-80q0 -29 -73.5 -47.5t-114.5 -18.5h-15q-82 0 -137 31q-113 53 -113 225v338h-124q-18 0 -19 17z" />
<glyph unicode="&#x16a;" horiz-adv-x="1388" d="M172 518v899q0 16 16 17h127q16 0 17 -17v-895q0 -186 86 -296.5t268 -110.5h23q184 0 270 109.5t86 297.5v895q0 17 16 17h127q16 0 17 -17v-899q0 -252 -132 -398.5t-380 -146.5h-31q-248 0 -379 147.5t-131 397.5zM430 1630v80q0 16 16 16h496q18 0 19 -16v-82 q0 -16 -19 -16h-496q-16 0 -16 18z" />
<glyph unicode="&#x16b;" d="M127 338v670q0 16 16 16h119q16 0 17 -16v-646q0 -127 48 -194.5t169 -67.5h6q143 0 295 131v777q0 16 18 16h117q18 0 18 -16v-992q0 -16 -18 -16h-105q-14 0 -16 14l-8 111q-174 -152 -342 -152h-15q-319 0 -319 365zM274 1221v79q1 17 17 17h495q18 0 19 -17v-81 q0 -16 -19 -17h-495q-16 0 -17 19z" />
<glyph unicode="&#x16e;" horiz-adv-x="1388" d="M172 518v899q0 16 16 17h127q16 0 17 -17v-895q0 -186 86 -296.5t268 -110.5h23q184 0 270 109.5t86 297.5v895q0 17 16 17h127q16 0 17 -17v-899q0 -252 -134.5 -398.5t-377.5 -146.5h-31q-248 0 -379 147.5t-131 397.5zM524 1732.5q0 69.5 50.5 117.5t120 48t119.5 -48 t50 -117.5t-49 -118.5t-120.5 -49t-121 49t-49.5 118.5zM610 1733q0 -20 11 -41q8 -20 30 -33q18 -12 43 -12q37 0 60.5 24.5t23.5 61.5q0 33 -22 59q-25 25 -62 25q-39 0 -59 -25q-25 -25 -25 -59z" />
<glyph unicode="&#x16f;" d="M127 338v670q0 16 16 16h119q16 0 17 -16v-646q0 -127 48 -194.5t169 -67.5h6q143 0 295 131v777q0 16 18 16h117q18 0 18 -16v-992q0 -16 -18 -16h-105q-14 0 -16 14l-8 111q-174 -152 -342 -152h-15q-319 0 -319 365zM369 1323q0 70 50 118t119.5 48t120 -48t50.5 -118 t-49.5 -119t-121 -49t-120.5 49t-49 119zM454.5 1322.5q0.5 -34.5 24.5 -58.5q20 -27 60 -27q23 0 45 12q20 14 28 33q10 20 11 41q0 33 -23 59q-24 25 -61 25q-39 0 -60 -25q-25 -25 -24.5 -59.5z" />
<glyph unicode="&#x170;" horiz-adv-x="1388" d="M172 518v899q0 16 16 17h127q16 0 17 -17v-895q0 -188 86 -297.5t268 -109.5h23q184 0 270 109.5t86 297.5v895q0 17 16 17h127q16 0 17 -17v-899q0 -252 -134.5 -398.5t-377.5 -146.5h-31q-248 0 -379 147.5t-131 397.5zM526 1608l150 319q8 18 29 19h90q8 0 12 -7 l-176 -331q-10 -16 -27 -17h-67zM788 1608l150 319q8 18 29 19h90q8 0 12 -7l-176 -331q-10 -16 -27 -17h-67z" />
<glyph unicode="&#x171;" d="M127 338v670q0 16 16 16h119q16 0 17 -16v-646q0 -127 48 -194.5t169 -67.5h6q143 0 295 131v777q0 16 18 16h117q18 0 18 -16v-992q0 -16 -18 -16h-107q-12 0 -14 14l-8 111q-174 -152 -342 -152h-15q-319 0 -319 365zM362 1198l150 320q8 18 29 18h90q8 0 12 -6 l-178 -332q-10 -16 -25 -16h-67zM625 1198l149 320q8 18 29 18h90q8 0 12 -6l-178 -332q-10 -16 -25 -16h-67z" />
<glyph unicode="&#x172;" horiz-adv-x="1388" d="M172 518v899q0 16 16 17h127q16 0 17 -17v-895q0 -186 86 -296.5t268 -110.5h23q184 0 270 109.5t86 297.5v895q0 17 16 17h127q16 0 17 -17v-899q0 -197 -86 -337t-267 -189q-66 -55 -88 -78q-33 -29 -60.5 -77t-27.5 -85q0 -98 111 -98q29 0 59 8q16 4 17 -12v-47 q0 -23 -21 -29q-35 -14 -86 -14q-80 0 -131 45t-51 125q0 115 154 243h-66q-248 0 -379 147.5t-131 397.5z" />
<glyph unicode="&#x173;" d="M127 338v670q0 16 16 16h119q16 0 17 -16v-646q0 -127 48 -194.5t169 -67.5h6q143 0 295 131v777q0 16 18 16h117q18 0 18 -16v-992q0 -16 -18 -16q-43 -35 -70 -61l-55 -56q-33 -33 -45 -67q-14 -29 -14 -64q0 -98 110 -98q29 0 60 8q14 2 14 -12v-47q0 -23 -19 -29 q-35 -14 -86 -14q-80 0 -131 45t-51 125q0 63 43 125q37 59 141 145h-2q-14 0 -16 14l-8 111q-174 -152 -342 -152h-15q-319 0 -319 365z" />
<glyph unicode="&#x174;" horiz-adv-x="2015" d="M70 1413q-6 20 14 21h125q16 0 24 -19l164 -600l172 -665h9l174 665l163 600q6 18 25 19h137q18 0 25 -19l164 -600l172 -665h10l172 665l164 600q6 19 24 19h123q18 0 17 -21l-387 -1395q-8 -18 -27 -18h-172q-20 0 -27 18l-145 527l-176 680h-10l-177 -680l-147 -527 q-6 -18 -25 -18h-172q-20 0 -26 18zM770 1591l178 338q10 16 27 17h67q17 -1 27 -17l191 -319l-103 -19q-18 0 -29 17l-120 235l-119 -235q-10 -16 -29 -17h-90z" />
<glyph unicode="&#x175;" horiz-adv-x="1566" d="M49 1001q-6 23 17 23h116q18 0 25 -18l125 -428l114 -437h9l114 437l123 428q4 18 25 18h133q18 0 24 -18l125 -428l115 -437h8l113 437l125 428q6 18 24 18h117q27 0 17 -23l-297 -983q-6 -18 -25 -18h-143q-16 0 -23 18l-90 295l-152 551h-10l-151 -551l-88 -295 q-10 -18 -25 -18h-143q-23 0 -25 18zM545 1182l178 338q10 16 27 16h67q17 0 27 -16l190 -320l-102 -18q-18 0 -29 16l-121 236l-118 -236q-10 -16 -29 -16h-90z" />
<glyph unicode="&#x176;" horiz-adv-x="1267" d="M70 1409q-4 10 2 18q2 6 14 7h127q18 0 29 -17l280 -526l109 -248h6l108 248l283 526q11 17 27 17h129q8 0 14 -7q2 -10 0 -18l-485 -924v-469q0 -16 -17 -16h-125q-16 0 -16 16v469zM395 1591l178 338q10 16 27 17h68q14 -1 24 -17l193 -319l-103 -19q-18 0 -28 17 l-121 235l-119 -235q-10 -16 -29 -17h-90z" />
<glyph unicode="&#x177;" horiz-adv-x="1028" d="M49 1001q-6 23 17 23h116q18 0 25 -18l192 -514l113 -361h4l115 361l190 514q11 18 25 18h119q8 0 14 -6q4 -6 0 -17l-399 -1085q-33 -84 -52 -121q-53 -88 -107 -126t-147 -38h-14q-45 0 -105.5 12.5t-60.5 41.5v86q0 8 6 12q0 4 6 4q4 0 7 -2q80 -29 133 -29h6 q68 0 104.5 42t65.5 118l33 84h-21q-16 0 -22 18zM274 1182l181 338q10 16 24 16h68q16 0 26 -16l191 -320l-100 -18q-18 0 -29 16l-121 236l-121 -236q-10 -16 -28 -16h-91z" />
<glyph unicode="&#x178;" horiz-adv-x="1267" d="M70 1409q-4 10 2 18q2 6 14 7h127q18 0 29 -17l280 -526l109 -248h6l108 248l283 526q11 17 27 17h129q8 0 14 -7q2 -10 0 -18l-485 -924v-469q0 -16 -17 -16h-125q-16 0 -16 16v469zM395 1630v150q1 18 19 18h125q18 0 18 -18v-150q0 -18 -18 -18h-125q-18 0 -19 18z M711 1630v150q0 18 18 18h125q18 0 18 -18v-150q0 -18 -18 -18h-125q-18 0 -18 18z" />
<glyph unicode="&#x179;" horiz-adv-x="1144" d="M96 16v99q0 10 6 22l742 1155h-705q-16 0 -16 19v106q0 16 16 17h883q16 0 16 -17v-98q0 -11 -6 -23l-741 -1155h741q18 0 19 -18v-107q0 -16 -19 -16h-919q-16 0 -17 16zM528 1608l150 319q10 18 29 19h100q8 0 12 -7l-178 -331q-10 -16 -25 -17h-79z" />
<glyph unicode="&#x17a;" horiz-adv-x="894" d="M68 16v82q0 12 10 29l553 770h-518q-16 0 -17 16v95q0 16 17 16h688q16 0 16 -16v-82q0 -13 -10 -29l-553 -770h557q16 0 16 -16v-95q0 -16 -16 -16h-725q-18 0 -18 16zM401 1198l150 320q10 18 29 18h100l-166 -338q-10 -16 -27 -16h-77z" />
<glyph unicode="&#x17b;" horiz-adv-x="1144" d="M96 16v99q0 10 6 22l744 1155h-707q-16 0 -16 19v106q0 16 16 17h883q16 0 16 -17v-98q0 -11 -6 -23l-741 -1157h741q18 0 19 -16v-107q0 -16 -19 -16h-919q-16 0 -17 16zM483 1630v150q1 18 19 18h143q18 0 19 -18v-150q0 -18 -19 -18h-143q-18 0 -19 18z" />
<glyph unicode="&#x17c;" horiz-adv-x="894" d="M68 16v82q0 12 10 29l553 770h-518q-16 0 -17 16v95q0 16 17 16h688q16 0 16 -16v-82q0 -13 -10 -29l-553 -770h557q16 0 16 -16v-95q0 -16 -16 -16h-725q-18 0 -18 16zM358 1221v149q1 19 19 19h143q18 0 19 -19v-149q0 -18 -19 -19h-143q-18 0 -19 19z" />
<glyph unicode="&#x17d;" horiz-adv-x="1144" d="M96 16v99q0 10 6 22l742 1155h-705q-16 0 -16 19v106q0 16 16 17h883q16 0 16 -17v-98q0 -11 -6 -23l-741 -1155h741q18 0 19 -18v-107q0 -16 -19 -16h-919q-16 0 -17 16zM322 1927q2 18 12 19h90q18 0 29 -19l120 -235l119 235q9 19 29 19h90q8 0 12 -7l-190 -331 q-10 -16 -27 -17h-67q-16 0 -27 17z" />
<glyph unicode="&#x17e;" horiz-adv-x="894" d="M68 16v82q0 12 10 29l553 770h-518q-16 0 -17 16v95q0 16 17 16h688q16 0 16 -16v-82q0 -13 -10 -29l-553 -770h557q16 0 16 -16v-95q0 -16 -16 -16h-725q-18 0 -18 16zM199 1518q0 18 10 18h90q20 0 29 -18l121 -236l120 236q9 18 29 18h90q8 0 12 -6l-192 -332 q-10 -16 -25 -16h-69q-14 0 -25 16z" />
<glyph unicode="&#x1cd;" horiz-adv-x="1286" d="M70 16l452 1397q7 21 25 21h192q18 0 25 -21l453 -1397q4 -16 -15 -16h-125q-18 0 -24 20l-135 410h-549l-136 -410q-6 -20 -24 -20h-125q-18 0 -14 16zM391 1927q2 18 12 19h91q18 0 28 -19l121 -235l121 235q11 19 29 19h90l-181 -338q-10 -16 -26 -17h-68 q-14 0 -24 17zM408 569h471l-64 195l-168 532h-10l-166 -532z" />
<glyph unicode="&#x1ce;" horiz-adv-x="1003" d="M68 266v13q0 96 38.5 163.5t110.5 101.5t145.5 48t167.5 18l195 8v44q0 135 -52 199.5t-184 64.5h-8q-129 0 -315 -78q-2 0 -4 -1t-4 -1q-10 0 -11 14v88q0 20 17 27q166 76 344 76h10q190 0 274.5 -98.5t84.5 -286.5v-650q0 -16 -17 -16h-106q-14 0 -17 14l-6 121 q-147 -162 -334 -162h-10q-139 0 -229 78t-90 215zM221 285q0 -92 62.5 -140.5t156.5 -48.5h9q143 1 276 146v276l-197 -6q-307 -8 -307 -217v-10zM250 1530q4 6 12 6h90q20 0 29 -18l121 -236l121 236q8 18 28 18h90q14 -10 11 -20l-191 -318q-10 -16 -24 -16h-70 q-14 0 -25 16l-190 318q-6 8 -2 14z" />
<glyph unicode="&#x1cf;" horiz-adv-x="501" d="M0 1927q2 18 12 19h90q20 0 29 -19l121 -235l121 235q8 19 28 19h91l-181 -338q-10 -16 -26 -17h-68q-14 0 -24 17zM172 16v1401q0 17 16 17h125q16 0 17 -17v-1401q0 -16 -17 -16h-125q-16 0 -16 16z" />
<glyph unicode="&#x1d0;" horiz-adv-x="417" d="M-41 1518q2 18 12 18h90q20 0 29 -18l121 -236l121 236q8 18 26 18h93l-181 -338q-10 -16 -26 -16h-68q-14 0 -24 16zM135 16v992q1 16 17 16h118q16 0 17 -16v-992q0 -16 -17 -16h-118q-16 0 -17 16z" />
<glyph unicode="&#x1d1;" horiz-adv-x="1409" d="M141 582v270q0 270 143.5 439t403.5 169h31q264 0 406.5 -171t142.5 -437v-270q0 -270 -144.5 -439.5t-404.5 -169.5h-31q-264 0 -405.5 172t-141.5 437zM303 578q0 -205 96.5 -334t292.5 -129h23q199 0 295 129t96 334v278q0 209 -96 336t-295 127h-23q-197 0 -293 -129 t-96 -334v-278zM455 1927q2 18 12 19h90q20 0 29 -19l119 -235l120 235q11 19 29 19h90q10 0 12 -7l-190 -331q-10 -16 -27 -17h-67q-16 0 -27 17z" />
<glyph unicode="&#x1d2;" horiz-adv-x="1136" d="M113 436v152q0 207 119.5 335t324.5 128h23q207 0 325.5 -127t118.5 -336v-152q0 -207 -119 -335t-325 -128h-23q-205 0 -324.5 128t-119.5 335zM268 430q0 -147 76 -238.5t217 -91.5h14q143 0 218 91.5t75 238.5v164q0 147 -75 238.5t-218 91.5h-14q-141 0 -217 -92.5 t-76 -237.5v-164zM319 1518l101 18q18 0 29 -18l120 -236l121 236q11 18 29 18h90q10 0 12 -6l-192 -332q-10 -16 -25 -16h-69q-14 0 -25 16z" />
<glyph unicode="&#x1d3;" horiz-adv-x="1388" d="M172 518v899q0 16 16 17h127q16 0 17 -17v-895q0 -186 86 -296.5t268 -110.5h23q184 0 270 109.5t86 297.5v895q0 17 16 17h127q16 0 17 -17v-899q0 -252 -134.5 -398.5t-377.5 -146.5h-31q-248 0 -379 147.5t-131 397.5zM444 1927l101 19q20 0 28 -19l121 -235l121 235 q9 19 29 19h90q8 0 12 -7l-192 -331q-10 -16 -25 -17h-70q-14 0 -24 17z" />
<glyph unicode="&#x1d4;" d="M127 338v670q0 16 16 16h119q16 0 17 -16v-646q0 -127 48 -194.5t169 -67.5h6q143 0 295 131v777q0 16 18 16h117q18 0 18 -16v-992q0 -16 -18 -16h-105q-14 0 -16 14l-8 111q-174 -152 -342 -152h-15q-319 0 -319 365zM289 1518l100 18q20 0 29 -18l121 -236l120 236 q9 18 29 18h90q8 0 13 -6l-193 -332q-10 -16 -25 -16h-69q-14 0 -25 16z" />
<glyph unicode="&#x1d5;" horiz-adv-x="1388" d="M172 518v899q0 16 16 17h127q16 0 17 -17v-895q0 -186 86 -296.5t268 -110.5h23q184 0 270 109.5t86 297.5v895q0 17 16 17h127q16 0 17 -17v-899q0 -252 -134.5 -398.5t-377.5 -146.5h-31q-248 0 -379 147.5t-131 397.5zM430 1942v81q0 17 16 17h496q18 0 19 -17v-81 q0 -20 -19 -17h-496q-16 0 -16 17zM455 1630v150q0 18 18 18h127q18 0 18 -18v-150q0 -18 -18 -18h-127q-18 0 -18 18zM770 1630v150q0 18 18 18h127q18 0 19 -18v-150q0 -18 -19 -18h-127q-18 0 -18 18z" />
<glyph unicode="&#x1d6;" d="M127 338v670q0 16 16 16h119q16 0 17 -16v-646q0 -127 48 -194.5t169 -67.5h6q143 0 295 131v777q0 16 18 16h117q18 0 18 -16v-992q0 -16 -18 -16h-105q-14 0 -16 14l-8 111q-174 -152 -342 -152h-15q-319 0 -319 365zM274 1532v82q1 16 17 16h495q18 0 19 -16v-82 q0 -16 -19 -16h-495q-16 0 -17 16zM299 1221v149q0 19 18 19h127q18 0 19 -19v-149q0 -18 -19 -19h-127q-18 0 -18 19zM614 1221v149q1 19 19 19h127q18 0 18 -19v-149q0 -18 -18 -19h-127q-18 0 -19 19z" />
<glyph unicode="&#x1d7;" horiz-adv-x="1388" d="M172 518v899q0 16 16 17h127q16 0 17 -17v-895q0 -186 86 -296.5t268 -110.5h23q184 0 270 109.5t86 297.5v895q0 17 16 17h127q16 0 17 -17v-899q0 -252 -134.5 -398.5t-377.5 -146.5h-31q-248 0 -379 147.5t-131 397.5zM455 1630v150q0 18 18 18h127q18 0 18 -18v-150 q0 -18 -18 -18h-127q-18 0 -18 18zM641 1921l150 320q8 18 28 18h101q10 0 12 -6t0 -15l-176 -317q-10 -16 -27 -16h-78zM770 1630v150q0 18 18 18h127q18 0 19 -18v-150q0 -18 -19 -18h-127q-18 0 -18 18z" />
<glyph unicode="&#x1d8;" d="M127 338v670q0 16 16 16h119q16 0 17 -16v-646q0 -127 48 -194.5t169 -67.5h6q143 0 295 131v777q0 16 18 16h117q18 0 18 -16v-992q0 -16 -18 -16h-105q-14 0 -16 14l-8 111q-174 -152 -342 -152h-15q-319 0 -319 365zM299 1221v149q0 19 18 19h127q18 0 19 -19v-149 q0 -18 -19 -19h-127q-18 0 -18 19zM494 1511l149 320q8 18 29 18h100l-166 -338q-10 -16 -24 -16h-80zM614 1221v149q1 19 19 19h127q18 0 18 -19v-149q0 -18 -18 -19h-127q-18 0 -19 19z" />
<glyph unicode="&#x1d9;" horiz-adv-x="1388" d="M172 518v899q0 16 16 17h127q16 0 17 -17v-895q0 -186 86 -296.5t268 -110.5h23q184 0 270 109.5t86 297.5v895q0 17 16 17h127q16 0 17 -17v-899q0 -252 -134.5 -398.5t-377.5 -146.5h-31q-248 0 -379 147.5t-131 397.5zM444 2238q-2 8 0 15l101 6q20 0 28 -18l121 -236 l121 236q9 18 29 18h90q8 0 12 -6q2 -6 0 -15l-192 -317q-10 -16 -25 -16h-70q-14 0 -24 16zM455 1630v150q0 18 18 18h127q18 0 18 -18v-150q0 -18 -18 -18h-127q-18 0 -18 18zM770 1630v150q0 18 18 18h127q18 0 19 -18v-150q0 -18 -19 -18h-127q-18 0 -18 18z" />
<glyph unicode="&#x1da;" d="M127 338v670q0 16 16 16h119q16 0 17 -16v-646q0 -127 48 -194.5t169 -67.5h6q143 0 295 131v777q0 16 18 16h117q18 0 18 -16v-992q0 -16 -18 -16h-105q-14 0 -16 14l-8 111q-174 -152 -342 -152h-15q-319 0 -319 365zM289 1831l100 18q20 0 29 -18l121 -234l120 234 q9 18 29 18h90q8 0 13 -6l-193 -332q-10 -16 -25 -16h-69q-14 0 -25 16zM299 1221v149q0 19 18 19h127q18 0 19 -19v-149q0 -18 -19 -19h-127q-18 0 -18 19zM614 1221v149q1 19 19 19h127q18 0 18 -19v-149q0 -18 -18 -19h-127q-18 0 -19 19z" />
<glyph unicode="&#x1db;" horiz-adv-x="1388" d="M172 518v899q0 16 16 17h127q16 0 17 -17v-895q0 -186 86 -296.5t268 -110.5h23q184 0 270 109.5t86 297.5v895q0 17 16 17h127q16 0 17 -17v-899q0 -252 -134.5 -398.5t-377.5 -146.5h-31q-248 0 -379 147.5t-131 397.5zM449 2238q-2 8 0 15q2 6 12 6h100q21 0 29 -18 l149 -320l-88 -16q-14 0 -24 16zM455 1630v150q0 18 18 18h127q18 0 18 -18v-150q0 -18 -18 -18h-127q-18 0 -18 18zM770 1630v150q0 18 18 18h127q18 0 19 -18v-150q0 -18 -19 -18h-127q-18 0 -18 18z" />
<glyph unicode="&#x1dc;" d="M127 338v670q0 16 16 16h119q16 0 17 -16v-646q0 -127 48 -194.5t169 -67.5h6q143 0 295 131v777q0 16 18 16h117q18 0 18 -16v-992q0 -16 -18 -16h-105q-14 0 -16 14l-8 111q-174 -152 -342 -152h-15q-319 0 -319 365zM297 1831q2 18 12 18h101q20 0 28 -18l150 -320 l-88 -16q-16 0 -27 16zM299 1221v149q0 19 18 19h127q18 0 19 -19v-149q0 -18 -19 -19h-127q-18 0 -18 19zM614 1221v149q1 19 19 19h127q18 0 18 -19v-149q0 -18 -18 -19h-127q-18 0 -19 19z" />
<glyph unicode="&#x218;" horiz-adv-x="1122" d="M102 1061v22q0 174 132.5 275.5t310.5 101.5h16q211 0 352 -80q18 -8 19 -28v-107q-14 2 -195 53q-80 23 -170 23h-12q-119 0 -205 -63.5t-86 -178.5v-8q0 -53 22.5 -94t67.5 -69.5t83 -45t95 -35.5l97 -30q98 -35 157.5 -63.5t119 -76t87 -115t27.5 -159.5v-18 q0 -186 -137.5 -289t-329.5 -103h-18q-207 0 -385 95q-18 10 -19 28v107q51 -8 150 -41q117 -49 247 -49h15q131 0 223 65.5t92 190.5v6q0 127 -115 198q-78 39 -176 72l-94 31q-170 57 -270.5 145t-100.5 240zM461 -496l82 232h-51q-18 0 -19 16v127q1 19 19 19h149 q18 0 18 -19v-108q0 -25 -6 -33l-86 -225q-6 -14 -20 -15h-74q-10 0 -12 6z" />
<glyph unicode="&#x219;" horiz-adv-x="876" d="M78 754v12q0 137 103.5 211t246.5 74h23q61 0 180 -29t119 -68v-88q-193 70 -289 70h-15q-82 0 -148.5 -41t-66.5 -119v-10q0 -37 15 -59q23 -49 168 -99q14 -2 20 -6l58 -18q152 -53 219 -105q86 -61 86 -200v-11q0 -143 -106.5 -219t-256.5 -76h-20q-72 0 -161 19.5 t-142 52.5q-16 6 -17 27v88q195 -72 312 -72h16q92 0 157.5 43t65.5 129v10q0 100 -121 148q-66 25 -71 26l-58 19q-57 20 -65 22q-23 6 -62 25q-39 14 -61 31q-92 53 -117 141q-12 35 -12 72zM340 -496l84 230h-51q-18 0 -19 18v127q1 19 19 19h147q18 0 19 -19v-108 q0 -18 -4 -35l-86 -223q-6 -14 -21 -15h-76q-8 0 -12 6z" />
<glyph unicode="&#x21a;" horiz-adv-x="1220" d="M68 1311v106q0 17 18 17h1051q16 0 16 -17v-106q0 -18 -16 -19h-447v-1276q0 -16 -16 -16h-125q-16 0 -17 16v1276h-446q-18 0 -18 19zM506 -496l84 232h-51q-18 0 -19 16v127q1 19 19 19h147q18 0 19 -19v-108q0 -25 -7 -33l-84 -225q-8 -14 -20 -15h-76q-10 0 -12 6z " />
<glyph unicode="&#x21b;" horiz-adv-x="690" d="M47 918v77q0 16 19 19l124 10v199q1 22 19 26l110 25q4 2 11 2q14 0 14 -19v-233h283q16 0 16 -16v-90q0 -16 -16 -17h-283v-651q0 -150 129 -150h10q53 0 140 33q2 2 6 2h6l2 -2q6 -6 6 -14v-80q0 -29 -73.5 -47.5t-114.5 -18.5h-15q-82 0 -137 31q-113 53 -113 225v672 h-124q-18 0 -19 17zM344 -496l84 230h-51q-18 0 -19 18v127q1 19 19 19h147q18 0 19 -19v-108q0 -23 -6 -35l-84 -223q-8 -14 -23 -15h-74q-8 0 -12 6z" />
<glyph unicode="&#x243;" horiz-adv-x="1261" d="M68 387v47q0 16 18 17h111v966q0 16 18 17h471q442 0 442 -353v-28q0 -104 -56 -183t-154 -120q258 -78 258 -353v-30q0 -367 -445 -367h-516q-18 0 -18 16v355h-111q-18 0 -18 16zM356 141h365q293 0 293 250v12q0 272 -318 273h-340v-225h357q16 0 16 -17v-47 q0 -16 -16 -16h-357v-230zM356 797h306q131 0 219 61.5t88 188.5v6q0 133 -77 186t-216 53h-320v-495z" />
<glyph unicode="&#x2c6;" horiz-adv-x="643" d="M72 1610l190 319q10 16 25 17h69q15 -1 25 -17l190 -319l-100 -19q-18 0 -29 17l-120 235l-121 -235q-10 -16 -29 -17h-90q-16 10 -10 19z" />
<glyph unicode="&#x2c7;" horiz-adv-x="643" d="M72 1927q0 18 10 19h90q20 0 29 -19l121 -235l120 235q9 19 29 19h90l-180 -338q-10 -16 -25 -17h-69q-14 0 -25 17z" />
<glyph unicode="&#x2d8;" horiz-adv-x="686" d="M68 1698v74q0 12 8 14q0 2 6 2q2 0 10 -4q135 -78 252 -78q105 0 252 78q8 4 10 4q4 0 6 -2q6 -4 6 -14v-74q0 -18 -12 -27q-119 -80 -262 -80q-121 0 -205 47q-31 14 -57 33q-14 8 -14 27z" />
<glyph unicode="&#x2d9;" horiz-adv-x="317" d="M68 1630v150q0 18 18 18h143q18 0 19 -18v-150q0 -18 -19 -18h-143q-18 0 -18 18z" />
<glyph unicode="&#x2da;" horiz-adv-x="475" d="M68 1732.5q0 69.5 50 117.5t119.5 48t120 -48t50.5 -117.5t-49.5 -118.5t-121 -49t-120.5 49t-49 118.5zM154 1733q0 -20 10 -41q8 -20 31 -33q18 -12 43 -12q37 0 60.5 24.5t23.5 61.5q0 33 -23 59q-25 25 -61.5 25t-59.5 -25q-25 -25 -24 -59z" />
<glyph unicode="&#x2db;" horiz-adv-x="423" d="M68 -270q0 118 184 270h104q-43 -33 -71 -61l-56 -56q-33 -33 -45 -67q-14 -29 -14 -64q0 -98 111 -98q29 0 59 8q16 4 16 -12v-47q0 -23 -20 -29q-35 -14 -86 -14q-109 0 -156 75q-27 39 -26 95z" />
<glyph unicode="&#x2dc;" horiz-adv-x="720" d="M70 1593q25 76 75 130.5t119 54.5h8q41 0 74 -23q14 -10 60 -45q29 -23 57 -22q55 0 102 71q9 15 25 15h49q18 0 12 -19q-25 -76 -75 -130t-119 -54h-8q-53 0 -101 45q-51 45 -90 45q-55 0 -102 -72q-8 -14 -23 -14h-51q-18 0 -12 18z" />
<glyph unicode="&#x2dd;" horiz-adv-x="681" d="M70 1608l149 319q10 18 29 19h90q10 0 12 -7l-176 -331q-10 -16 -27 -17h-67zM332 1608l149 319q10 18 29 19h90q10 0 12 -7l-178 -331q-10 -16 -24 -17h-68z" />
<glyph unicode="&#x326;" horiz-adv-x="0" d="M70 -496l84 232h-52q-18 0 -18 16v127q0 19 18 19h148q18 0 18 -19v-108q0 -20 -4 -33l-86 -225q-6 -14 -20 -15h-76q-8 0 -12 6z" />
<glyph unicode="&#x401;" horiz-adv-x="1134" d="M172 16v1401q0 17 16 17h844q16 0 17 -17v-106q0 -18 -17 -19h-702v-485h655q16 0 16 -16v-107q0 -18 -16 -18h-655v-525h702q16 0 17 -18v-107q0 -16 -17 -16h-844q-16 0 -16 16zM367 1630v150q0 18 18 18h125q18 0 18 -18v-150q0 -18 -18 -18h-125q-18 0 -18 18z M682 1630v150q0 18 16 18h127q18 0 19 -18v-150q0 -18 -19 -18h-127q-16 0 -16 18z" />
<glyph unicode="&#x404;" horiz-adv-x="1193" d="M141 608v217q0 274 161 454.5t427 180.5h25q195 0 336 -82q18 -10 18 -30v-103q-217 74 -342 74l-14 2q-215 0 -332 -144.5t-117 -359.5v-14h635q16 0 16 -17v-106q0 -16 -16 -16h-635v-48q0 -217 118 -359t331 -142h14q156 0 324 86h8l10 -117q0 -18 -18 -29 q-63 -39 -158.5 -60.5t-177.5 -21.5h-25q-270 0 -429 182.5t-159 452.5z" />
<glyph unicode="&#x406;" horiz-adv-x="501" d="M172 16v1401q0 17 16 17h125q16 0 17 -17v-1401q0 -16 -17 -16h-125q-16 0 -16 16z" />
<glyph unicode="&#x407;" horiz-adv-x="501" d="M12 1630v150q1 18 19 18h125q18 0 18 -18v-150q0 -18 -18 -18h-125q-18 0 -19 18zM172 16v1401q0 17 16 17h125q16 0 17 -17v-1401q0 -16 -17 -16h-125q-16 0 -16 16zM328 1630v150q0 18 18 18h125q18 0 18 -18v-150q0 -18 -18 -18h-125q-18 0 -18 18z" />
<glyph unicode="&#x40e;" horiz-adv-x="1292" d="M70 1409q-4 10 2 18q2 6 14 7h127q18 0 29 -17l278 -600l123 -309h4l123 309l281 600q10 17 28 17h127q10 0 15 -7q4 -10 0 -18l-502 -1077q-41 -86 -66.5 -131t-74 -105.5t-108.5 -88t-136 -27.5h-10q-70 0 -117 18q-12 2 -12 20v109q0 14 12 14q4 0 8 -2q47 -18 84 -18 h8q80 0 133 47q49 43 115 178l6 14zM371 1698v74q0 12 8 14q0 2 4 2q2 0 10 -4q145 -78 254 -78q115 0 250 78q8 4 10 4q6 0 8 -2q6 -4 7 -14v-74q0 -18 -15 -27q-98 -80 -262 -80q-156 0 -260 80q-14 8 -14 27z" />
<glyph unicode="&#x410;" horiz-adv-x="1286" d="M70 16l452 1397q7 21 25 21h192q18 0 25 -21l453 -1397q4 -16 -15 -16h-125q-18 0 -24 20l-135 410h-549l-136 -410q-6 -20 -24 -20h-125q-18 0 -14 16zM408 569h471l-64 195l-168 532h-10l-166 -532z" />
<glyph unicode="&#x411;" horiz-adv-x="1214" d="M172 16v1401q0 16 16 17h807q16 0 17 -17v-106q0 -18 -17 -19h-665v-440h288q510 0 510 -403v-37q0 -215 -141 -313.5t-366 -98.5h-433q-16 0 -16 16zM330 141h272q365 0 365 283v22q0 154 -97.5 213.5t-263.5 59.5h-276v-578z" />
<glyph unicode="&#x412;" horiz-adv-x="1234" d="M172 16v1401q0 16 16 17h471q442 0 443 -353v-28q0 -102 -56.5 -182t-152.5 -121q258 -80 258 -353v-30q0 -195 -122 -281t-324 -86h-517q-16 0 -16 16zM330 141h364q295 0 295 250v12q0 37 -6 72q-55 201 -311 201h-342v-535zM330 797h307q131 0 219 61.5t88 188.5v6 q0 133 -78 186t-217 53h-319v-495z" />
<glyph unicode="&#x413;" horiz-adv-x="1071" d="M172 16v1401q0 17 16 17h797q16 0 16 -17v-106q0 -18 -16 -19h-655v-1276q0 -16 -17 -16h-125q-16 0 -16 16z" />
<glyph unicode="&#x414;" horiz-adv-x="1523" d="M82 123q0 18 16 18h168q74 49 86 226l78 1050q4 16 19 17h811q16 -1 16 -17v-1276h162q16 0 16 -18v-377q0 -18 -16 -18h-125q-16 0 -17 18v254h-1054v-254q0 -18 -19 -18h-125q-16 0 -16 18v377zM451 141h667v1151h-538l-70 -927q-8 -145 -59 -224z" />
<glyph unicode="&#x415;" horiz-adv-x="1134" d="M172 16v1401q0 16 16 17h844q16 0 17 -17v-106q0 -18 -17 -19h-702v-485h655q16 0 16 -16v-107q0 -18 -16 -18h-655v-525h702q16 0 17 -18v-107q0 -16 -17 -16h-844q-16 0 -16 16z" />
<glyph unicode="&#x416;" horiz-adv-x="1918" d="M70 8q-4 10 2 15l497 704l-463 684q-2 6 0.5 14.5t12.5 8.5h137q14 0 23 -13l432 -628h170v624q0 16 16 17h125q16 0 16 -17v-624h170l432 628q10 12 23 13h137q12 0 14 -8.5t-4 -14.5l-460 -684l497 -704q4 -4 2 -15q-2 -8 -12 -8h-143q-14 0 -23 12l-461 639h-172v-635 q0 -16 -16 -16h-125q-16 0 -16 16v635h-172l-461 -639q-10 -12 -23 -12h-143q-10 0 -12 8z" />
<glyph unicode="&#x417;" horiz-adv-x="1087" d="M109 1352q0 20 18 28q141 80 350 80h17q190 0 325 -93t135 -275v-35q0 -102 -61.5 -184t-157.5 -123q125 -37 195.5 -126t70.5 -218v-35q0 -190 -148 -294t-349 -104h-19q-203 0 -354 80q-16 10 -16 29v108q10 -2 192 -53q80 -23 174 -22h15q137 0 240.5 73.5 t103.5 204.5v15q0 133 -94.5 200.5t-231.5 67.5h-197q-16 0 -16 16v88q0 16 16 17h162q125 0 220.5 65.5t95.5 186.5v18q0 121 -91.5 186.5t-218.5 65.5h-14q-147 0 -342 -86q-2 -2 -8 -2q-4 0 -6 2z" />
<glyph unicode="&#x418;" horiz-adv-x="1392" d="M164 16v1401q0 16 16 17h125q16 0 17 -17v-635l-13 -538h10l723 1175q9 15 25 15h145q16 0 17 -17v-1401q0 -16 -17 -16h-125q-16 0 -16 16v680l12 494h-10l-723 -1176q-8 -14 -24 -14h-146q-16 0 -16 16z" />
<glyph unicode="&#x419;" horiz-adv-x="1392" d="M164 16v1401q0 16 16 17h125q16 0 17 -17v-635l-13 -538h10l723 1175q9 15 25 15h145q16 0 17 -17v-1401q0 -16 -17 -16h-125q-16 0 -16 16v680l12 494h-10l-723 -1176q-8 -14 -24 -14h-146q-16 0 -16 16zM430 1698v74q0 10 6 14q2 2 6 2q2 0 11 -4q135 -78 252 -78 q104 0 251 78q8 4 11 4q4 0 6 -2q6 -4 6 -14v-74q0 -18 -12 -27q-109 -80 -262.5 -80t-262.5 80q-12 8 -12 27z" />
<glyph unicode="&#x41a;" horiz-adv-x="1263" d="M172 16v1401q0 16 16 17h125q16 0 17 -17v-624h223l432 628q8 12 23 13h137q12 0 14 -9q2 -6 -2 -14l-463 -684l498 -704q4 -4 2 -15q-2 -8 -12 -8h-144q-14 0 -22 12l-461 639h-225v-635q0 -16 -17 -16h-125q-16 0 -16 16z" />
<glyph unicode="&#x41b;" horiz-adv-x="1429" d="M68 14v103q0 16 12 16q6 0 10 -2q43 -16 72 -16h10q66 0 104.5 44t49 91t16.5 117l78 1050q4 17 16 17h813q16 0 17 -17v-1401q0 -16 -17 -16h-125q-16 0 -16 16v1276h-539l-69 -927q-29 -391 -310 -392h-12q-49 0 -96 21q-14 2 -14 20z" />
<glyph unicode="&#x41c;" horiz-adv-x="1685" d="M164 16v1401q0 16 16 17h158q20 0 27 -17l471 -815h6l471 815q10 17 26 17h160q16 0 17 -17v-1401q0 -16 -17 -16h-129q-16 0 -16 16l2 781l14 405h-12l-230 -405l-229 -385q-10 -16 -27 -17h-67q-16 0 -27 17l-227 385l-232 405h-12l15 -405l4 -781q0 -16 -19 -16h-127 q-16 0 -16 16z" />
<glyph unicode="&#x41d;" horiz-adv-x="1392" d="M172 16v1401q0 16 16 17h125q16 0 17 -17v-610h733v610q0 17 16 17h125q16 0 17 -17v-1401q0 -16 -17 -16h-125q-16 0 -16 16v650h-733v-650q0 -16 -17 -16h-125q-16 0 -16 16z" />
<glyph unicode="&#x41e;" horiz-adv-x="1409" d="M141 582v270q0 270 143.5 439t403.5 169h31q264 0 406.5 -171t142.5 -437v-270q0 -270 -144.5 -439.5t-404.5 -169.5h-31q-264 0 -405.5 172t-141.5 437zM303 578q0 -205 96.5 -334t292.5 -129h23q199 0 295 130t96 333v278q0 205 -96 334t-295 129h-23q-197 0 -293 -129 t-96 -334v-278z" />
<glyph unicode="&#x41f;" horiz-adv-x="1398" d="M172 16v1401q0 17 16 17h1022q16 0 17 -17v-1401q0 -16 -17 -16h-125q-16 0 -16 16v1276h-739v-1276q0 -16 -17 -16h-125q-16 0 -16 16z" />
<glyph unicode="&#x420;" horiz-adv-x="1280" d="M172 16v1401q0 17 16 17h445q229 0 368.5 -100.5t139.5 -319.5v-37q0 -227 -142.5 -338t-373.5 -111h-295v-512q0 -16 -17 -16h-125q-16 0 -16 16zM330 664h280q369 0 369 315v22q0 162 -98.5 226.5t-270.5 64.5h-280v-628z" />
<glyph unicode="&#x421;" horiz-adv-x="1193" d="M141 608v217q0 274 161 454.5t427 180.5h25q195 0 336 -82q18 -10 18 -30v-103q-217 74 -342 74h-14q-215 0 -332 -142.5t-117 -359.5v-201q0 -217 118 -359t331 -142h14q156 0 324 86h8l10 -117q0 -18 -18 -29q-63 -39 -158.5 -60.5t-177.5 -21.5h-25q-270 0 -429 182.5 t-159 452.5z" />
<glyph unicode="&#x422;" horiz-adv-x="1220" d="M68 1311v106q0 17 18 17h1051q16 0 16 -17v-106q0 -18 -16 -19h-447v-1276q0 -16 -16 -16h-125q-16 0 -17 16v1276h-446q-18 0 -18 19z" />
<glyph unicode="&#x423;" horiz-adv-x="1292" d="M70 1409l143 25q18 0 29 -17l278 -600l123 -309h6l121 309l281 600q10 17 28 17h127q10 0 15 -7q4 -10 0 -18l-502 -1077q-41 -86 -66.5 -131t-74 -105.5t-108.5 -88t-136 -27.5h-10q-70 0 -117 18q-12 2 -12 20v109q0 14 12 14q4 0 8 -2q47 -18 84 -18h8q80 0 133 47 q49 43 115 178l6 14z" />
<glyph unicode="&#x424;" horiz-adv-x="1832" d="M141 727v31q0 242 152.5 394.5t394.5 152.5h150v112q0 16 16 17h125q16 -1 16 -17v-112h148q246 0 397.5 -150.5t151.5 -396.5v-31q0 -246 -151.5 -395.5t-397.5 -149.5h-148v-166q0 -16 -16 -16h-125q-16 0 -16 16v166h-150q-244 0 -395.5 151.5t-151.5 393.5zM303 729 q0 -182 103.5 -294.5t285.5 -112.5h146v841h-146q-182 0 -285.5 -112.5t-103.5 -294.5v-27zM995 322h144q182 0 286.5 113.5t104.5 293.5v27q0 186 -103.5 296.5t-287.5 110.5h-144v-841z" />
<glyph unicode="&#x425;" horiz-adv-x="1245" d="M70 20l438 711l-422 682q-2 8 0 14q4 6 12 7h138q16 0 24 -15l264 -415l94 -177h11l92 177l262 415q9 15 27 15h137q8 0 12 -7q2 -6 0 -14l-422 -682l437 -711q6 -8 2 -14q-6 -6 -15 -6h-139q-16 0 -25 14l-276 443l-92 176l-11 -2l-94 -174l-276 -443q-8 -14 -25 -14 h-139q-10 0 -12 6q-6 4 -2 14z" />
<glyph unicode="&#x426;" horiz-adv-x="1456" d="M172 16v1401q0 16 16 17h125q16 0 17 -17v-1276h721v1276q0 16 16 17h125q16 -1 16 -17v-1276h162q16 0 16 -18v-377q0 -18 -16 -18h-125q-16 0 -16 18v254h-1041q-16 0 -16 16z" />
<glyph unicode="&#x427;" horiz-adv-x="1292" d="M141 934v483q0 16 17 17h127q18 0 18 -17v-469q0 -162 80 -256t240 -94h14q168 0 326 88v731q0 17 16 17h125q16 0 16 -17v-1401q0 -16 -16 -16h-125q-16 0 -16 16v533q-166 -90 -349 -90h-22q-215 0 -333 129t-118 346z" />
<glyph unicode="&#x428;" horiz-adv-x="2000" d="M172 16v1401q0 16 16 17h125q16 0 17 -17v-1276h592v1276q0 16 16 17h125q16 0 16 -17v-1276h592v1276q1 17 17 17h124q16 0 17 -17v-1401q0 -16 -17 -16h-1624q-16 0 -16 16z" />
<glyph unicode="&#x429;" horiz-adv-x="2074" d="M172 16v1401q0 16 16 17h125q16 0 17 -17v-1276h592v1276q0 16 16 17h125q16 0 16 -17v-1276h592v1276q0 16 17 17h124q17 -1 17 -17v-1276h162q16 0 16 -18v-377q0 -18 -16 -18h-125q-16 0 -17 18v254h-1661q-16 0 -16 16z" />
<glyph unicode="&#x42a;" horiz-adv-x="1415" d="M68 1311v106q0 16 18 17h373q16 -1 16 -17v-565h291q510 0 510 -403v-37q0 -215 -141.5 -313.5t-366.5 -98.5h-434q-16 0 -17 16v1276h-231q-18 0 -18 19zM475 141h275q364 0 364 283v22q0 272 -362 273h-277v-578z" />
<glyph unicode="&#x42b;" horiz-adv-x="1648" d="M172 16v1401q0 16 16 17h125q17 -1 17 -17v-565h288q510 0 510 -403v-37q0 -215 -141 -313.5t-366 -98.5h-433q-16 0 -16 16zM330 141h272q365 0 365 283v22q0 154 -97.5 213.5t-263.5 59.5h-276v-578zM1319 16v1401q0 17 16 17h125q16 0 17 -17v-1401q0 -16 -17 -16 h-125q-16 0 -16 16z" />
<glyph unicode="&#x42c;" horiz-adv-x="1269" d="M172 16v1401q0 16 16 17h125q17 -1 17 -17v-565h288q510 0 510 -403v-37q0 -215 -141 -313.5t-366 -98.5h-433q-16 0 -16 16zM330 141h272q365 0 365 283v22q0 154 -97.5 213.5t-263.5 59.5h-276v-578z" />
<glyph unicode="&#x42d;" horiz-adv-x="1198" d="M86 84v104q215 -74 342 -73h14q217 0 335 142t118 359v48h-639q-16 0 -16 16v106q0 16 16 17h639v14q0 219 -119 360.5t-334 141.5h-14q-152 0 -324 -86h-8l-10 115q0 20 16 30q139 82 338 82h25q272 0 432 -181t160 -454v-217q0 -274 -163 -454.5t-429 -180.5h-25 q-197 0 -338 82q-16 10 -16 29z" />
<glyph unicode="&#x42e;" horiz-adv-x="1843" d="M172 16v1401q0 16 16 17h125q16 0 17 -17v-614h245v49q0 270 144.5 439t404.5 169h31q264 0 406.5 -171t142.5 -437v-270q0 -270 -144.5 -439.5t-404.5 -169.5h-31q-264 0 -406.5 172t-142.5 437v80h-245v-646q0 -16 -17 -16h-125q-16 0 -16 16zM737 578 q0 -205 96.5 -334t294.5 -129h23q199 0 295 129t96 334v278q0 207 -97 335t-294 128h-23q-199 0 -295 -129t-96 -334v-278z" />
<glyph unicode="&#x42f;" horiz-adv-x="1275" d="M72 6q-2 6 0 14l247 371l148 207q-158 35 -246 141.5t-88 266.5v30q0 398 496 398h458q18 0 19 -17v-1401q0 -16 -19 -16h-122q-18 0 -19 16v557h-323l-373 -559q-8 -14 -25 -14h-141q-10 0 -12 6zM295 1004q0 -154 101.5 -226.5t260.5 -72.5h289v587h-297 q-168 0 -261 -59t-93 -217v-12z" />
<glyph unicode="&#x430;" horiz-adv-x="1003" d="M68 266v13q0 96 38.5 163.5t110.5 101.5t145.5 48t167.5 18l195 8l-2 44q2 135 -51 202q-53 61 -183 62h-8q-129 0 -315 -78q-2 0 -4 -1t-4 -1q-10 0 -11 14v88q0 20 17 27q166 76 344 76h10q188 0 271 -96.5t88 -288.5v-650q0 -16 -17 -16h-106q-14 0 -17 14l-6 121 q-147 -162 -334 -162h-10q-139 0 -229 78t-90 215zM221 285q0 -92 62.5 -140.5t156.5 -48.5h9q143 1 276 146v276l-197 -6q-307 -8 -307 -217v-10z" />
<glyph unicode="&#x431;" horiz-adv-x="1097" d="M113 436v535q0 473 467 473h8q199 0 332 90l18 -104q0 -20 -20 -29q-115 -84 -336 -84h-11q-147 0 -225 -80t-78 -227v-138q134 148 318 148h12q195 0 290 -126t95 -327v-131q0 -205 -111.5 -334t-312.5 -129h-22q-205 0 -314.5 128t-109.5 335zM268 430 q0 -145 66.5 -237.5t206.5 -92.5h14q139 0 206.5 94.5t67.5 235.5v135q0 147 -64.5 237.5t-205.5 90.5h-6q-154 0 -285 -143v-320z" />
<glyph unicode="&#x432;" horiz-adv-x="1001" d="M131 16v992q0 16 16 16h375q360 0 361 -258v-16q0 -154 -146 -222q186 -57 187 -235v-17q0 -145 -103.5 -210.5t-257.5 -65.5h-416q-16 0 -16 16zM283 117h262q94 0 158.5 39t64.5 127v20q0 168 -223 168h-262v-354zM283 567h221q92 0 159.5 41t67.5 127v23 q0 149 -223 149h-225v-340z" />
<glyph unicode="&#x433;" horiz-adv-x="831" d="M131 16v992q0 16 16 16h621q16 0 16 -16v-90q0 -16 -16 -17h-485v-885q0 -16 -17 -16h-119q-16 0 -16 16z" />
<glyph unicode="&#x434;" horiz-adv-x="1249" d="M47 106q0 16 19 17h143q47 37 55 149l58 736q4 16 16 16h670q16 0 16 -16v-885h160q16 0 16 -17v-360q0 -18 -16 -18h-119q-16 0 -16 18v254h-848v-254q0 -18 -17 -18h-118q-18 0 -19 18v360zM373 123h499v778h-409l-45 -588q-8 -119 -45 -190z" />
<glyph unicode="&#x435;" horiz-adv-x="1077" d="M113 418v145q0 209 114.5 348.5t319.5 139.5h22q201 0 300.5 -125t99.5 -332v-78q0 -23 -25 -22h-676v-91q0 -141 91.5 -223t232.5 -82h10q135 0 311 82l17 -102q0 -20 -17 -27q-150 -78 -329 -78h-15q-205 0 -330.5 120t-125.5 325zM268 592h555q2 340 -260 340h-14 q-137 0 -207 -98.5t-74 -241.5z" />
<glyph unicode="&#x436;" horiz-adv-x="1511" d="M49 8q-4 10 2 19l350 503l-307 469q-2 8 0 16.5t15 8.5h122q14 0 25 -12l281 -424h143v420q0 16 16 16h119q16 0 16 -16v-420h146l278 424q10 12 25 12h125q12 0 14 -8.5t-2 -16.5l-307 -469l350 -503q6 -8 2 -19q-2 -8 -14 -8h-131q-14 0 -25 12l-317 453h-144v-449 q0 -16 -16 -16h-119q-16 0 -16 16v449h-143l-318 -453q-6 -12 -22 -12h-134q-12 0 -14 8z" />
<glyph unicode="&#x437;" horiz-adv-x="880" d="M78 70v92q197 -70 301 -70h16q96 0 174 47t78 137v21q0 168 -221 168h-162q-16 0 -16 18v74q0 16 16 16h123q94 0 160.5 41t66.5 129v19q0 88 -65.5 129t-159.5 41h-14q-117 0 -271 -80h-6q-10 0 -12 10v92q0 16 16 27q127 70 281 70h23q152 0 256 -66.5t104 -210.5v-16 q0 -160 -148 -230q184 -57 185 -241v-19q0 -150 -116 -222.5t-273 -72.5h-25q-66 0 -188.5 28t-122.5 69z" />
<glyph unicode="&#x438;" horiz-adv-x="1105" d="M131 16v992q0 16 16 16h119q16 0 17 -16v-420l-4 -379h12l493 797q11 18 25 18h149q16 0 17 -16v-992q0 -16 -17 -16h-118q-16 0 -17 16v459l4 342h-12l-493 -799q-10 -18 -25 -18h-150q-16 0 -16 16z" />
<glyph unicode="&#x439;" horiz-adv-x="1105" d="M131 16v992q0 16 16 16h119q16 0 17 -16v-420l-4 -379h12l493 797q11 18 25 18h149q16 0 17 -16v-992q0 -16 -17 -16h-118q-16 0 -17 16v459l4 342h-12l-493 -799q-10 -18 -25 -18h-150q-16 0 -16 16zM287 1288v74q0 12 8 14q0 2 6 2q2 0 10 -4q137 -78 250 -78 q111 0 252 78q8 4 10 4q6 0 8 -2q6 -4 7 -14v-74q0 -18 -15 -26q-104 -80 -260 -80q-154 0 -262 80q-14 8 -14 26z" />
<glyph unicode="&#x43a;" horiz-adv-x="999" d="M135 16v992q0 16 17 16h118q16 0 17 -16v-420h176l280 424q10 12 23 12h125q12 0 14 -8.5t-2 -16.5l-305 -469l350 -503q6 -8 2 -19q-2 -8 -16 -8h-131q-16 0 -23 12l-317 453h-176v-449q0 -16 -17 -16h-118q-16 0 -17 16z" />
<glyph unicode="&#x43b;" horiz-adv-x="1144" d="M47 20v80q0 8 6 15h4q2 2 4 2q4 0 7 -2q31 -14 67 -15h8q98 0 113 168l57 740q1 16 17 16h667q18 0 19 -16v-992q0 -16 -19 -16h-118q-16 0 -17 16v885h-409l-50 -647q-23 -281 -225 -281h-12q-53 0 -103 23q-16 10 -16 24z" />
<glyph unicode="&#x43c;" horiz-adv-x="1280" d="M131 16v992q0 16 16 16h158q14 0 25 -18l307 -535h6l307 535q9 18 25 18h158q18 0 18 -16v-992q0 -16 -18 -16h-117q-18 0 -19 16v373l19 461h-15l-303 -522q-10 -16 -28 -17h-60q-18 0 -28 17l-303 522h-15l19 -461v-373q0 -16 -17 -16h-119q-16 0 -16 16z" />
<glyph unicode="&#x43d;" horiz-adv-x="1097" d="M131 16v992q0 16 16 16h119q16 0 17 -16v-424h532v424q1 16 19 16h116q18 0 19 -16v-992q0 -16 -19 -16h-116q-18 0 -19 16v445h-532v-445q0 -16 -17 -16h-119q-16 0 -16 16z" />
<glyph unicode="&#x43e;" horiz-adv-x="1136" d="M113 436v152q0 207 119.5 335t324.5 128h23q207 0 325.5 -127t118.5 -336v-152q0 -207 -119 -335t-325 -128h-23q-205 0 -324.5 128t-119.5 335zM268 430q0 -147 76 -238.5t217 -91.5h14q143 0 218 91.5t75 238.5v164q0 147 -75 238.5t-218 91.5h-14q-141 0 -217 -92.5 t-76 -237.5v-164z" />
<glyph unicode="&#x43f;" horiz-adv-x="1101" d="M131 16v992q0 16 16 16h807q16 0 17 -16v-992q0 -16 -17 -16h-118q-16 0 -17 16v885h-536v-885q0 -16 -17 -16h-119q-16 0 -16 16z" />
<glyph unicode="&#x440;" horiz-adv-x="1116" d="M135 -326v1334q0 16 17 16h106q14 0 16 -14l5 -115q61 72 147 114t178 42h12q195 0 290 -126t95 -329v-160q0 -205 -99 -334t-298 -129h-12q-176 0 -305 140v-439q0 -16 -17 -16h-118q-16 0 -17 16zM287 246q135 -145 284 -146h7q143 0 206.5 90.5t63.5 239.5v164 q0 150 -63.5 240t-206.5 90h-7q-152 0 -284 -146v-532z" />
<glyph unicode="&#x441;" horiz-adv-x="995" d="M113 444v136q0 211 122.5 341t331.5 130h23q143 0 280 -78q16 -6 17 -27v-90q-197 68 -279 68h-16q-152 0 -238 -97.5t-86 -248.5v-132q0 -152 87 -249t237 -97h16q109 0 262 80l17 -102q0 -20 -17 -27q-137 -78 -280 -78h-23q-207 0 -330.5 131.5t-123.5 339.5z" />
<glyph unicode="&#x442;" horiz-adv-x="952" d="M47 918v90q1 16 19 16h823q16 0 16 -16v-90q0 -16 -16 -17h-336v-885q0 -16 -16 -16h-119q-18 0 -19 16v885h-333q-18 0 -19 17z" />
<glyph unicode="&#x443;" horiz-adv-x="1028" d="M49 1001q-6 23 17 23h116q18 0 25 -18l192 -514l113 -361h4l115 361l190 514q11 18 25 18h119q8 0 14 -6q4 -6 0 -17l-399 -1085q-49 -137 -116 -211t-190 -74h-14q-45 0 -105.5 12.5t-60.5 41.5v86q0 8 6 12q0 4 6 4q4 0 7 -2q80 -29 133 -29h6q68 0 104.5 42t65.5 118 l33 84h-21q-16 0 -22 18z" />
<glyph unicode="&#x444;" horiz-adv-x="1536" d="M113 436v152q0 207 128 335t334 128h117v442q0 16 17 16h118q17 0 17 -16v-442h117q207 0 334.5 -128t127.5 -335v-152q0 -207 -128 -335t-334 -128h-117v-299q0 -16 -17 -16h-118q-16 0 -17 16v299h-117q-207 0 -334.5 128t-127.5 335zM268 430q0 -145 84 -237.5 t228 -92.5h112v824h-112q-143 0 -227.5 -93.5t-84.5 -236.5v-164zM844 100h112q145 0 228.5 92.5t83.5 237.5v164q0 147 -83 238.5t-229 91.5h-112v-824z" />
<glyph unicode="&#x445;" horiz-adv-x="958" d="M49 8q-4 10 2 19l324 497l-309 475q-2 8 0 16.5t12 8.5h125q16 0 22 -12l197 -295l53 -107h8l54 107l194 295q11 12 25 12h123q12 0 14 -8t-2 -17l-307 -475l323 -497q6 -8 2 -19q-2 -8 -14 -8h-127q-14 0 -23 12l-208 318l-54 104h-8l-53 -104l-209 -318q-8 -12 -23 -12 h-127q-12 0 -14 8z" />
<glyph unicode="&#x446;" horiz-adv-x="1191" d="M131 16v992q0 16 16 16h119q16 0 17 -16v-885h532v885q0 16 16 16h119q17 0 17 -16v-885h159q18 0 19 -17v-360q0 -18 -19 -18h-116q-18 0 -19 18v254h-844q-16 0 -16 16z" />
<glyph unicode="&#x447;" horiz-adv-x="1067" d="M127 655v353q0 16 16 16h119q16 0 17 -16v-338q0 -205 122 -246q43 -18 105 -18h6q139 0 276 96v506q1 16 17 16h119q16 0 16 -16v-992q0 -16 -16 -16h-119q-16 0 -17 16v357q-145 -94 -307 -94h-14q-174 0 -257 99t-83 277z" />
<glyph unicode="&#x448;" horiz-adv-x="1634" d="M131 16v992q0 16 16 16h119q16 0 17 -16v-885h458v885q0 16 17 16h119q16 0 16 -16v-885h459v885q0 16 16 16h119q16 0 16 -16v-992q0 -16 -16 -16h-1340q-16 0 -16 16z" />
<glyph unicode="&#x449;" horiz-adv-x="1728" d="M131 16v992q0 16 16 16h119q16 0 17 -16v-885h458v885q0 16 17 16h119q16 0 16 -16v-885h459v885q0 16 16 16h119q16 0 16 -16v-885h160q16 0 16 -17v-360q0 -18 -16 -18h-119q-16 0 -16 18v254h-1381q-16 0 -16 16z" />
<glyph unicode="&#x44a;" horiz-adv-x="1116" d="M47 918v90q0 16 19 16h325q17 0 17 -16v-363h272q166 0 261 -72.5t95 -228.5v-20q0 -158 -97 -241t-259 -83h-408q-16 0 -16 16v885h-190q-18 0 -19 17zM408 123h245q102 0 166 51t64 150v20q0 82 -56 135q-57 49 -174 49h-245v-405z" />
<glyph unicode="&#x44b;" horiz-adv-x="1357" d="M131 16v992q0 16 16 16h119q17 0 17 -16v-363h272q162 0 259 -71.5t97 -229.5v-20q0 -158 -97 -241t-259 -83h-408q-16 0 -16 16zM283 123h245q102 0 166 51.5t64 149.5v20q0 82 -56 135q-57 49 -174 49h-245v-405zM1075 16v992q1 16 17 16h118q16 0 17 -16v-992 q0 -16 -17 -16h-118q-16 0 -17 16z" />
<glyph unicode="&#x44c;" horiz-adv-x="991" d="M131 16v992q0 16 16 16h119q17 0 17 -16v-363h274q162 0 259 -71.5t97 -229.5v-20q0 -158 -97 -241t-259 -83h-410q-16 0 -16 16zM283 123h245q104 0 167 50t63 151v20q0 82 -56 135q-57 49 -174 49h-245v-405z" />
<glyph unicode="&#x44d;" horiz-adv-x="997" d="M109 78v90q197 -68 278 -68h16q152 0 239 96.5t87 249.5v23h-455q-18 0 -18 16v72q0 16 18 16h455v5q0 154 -87 250t-239 96h-16q-111 0 -260 -80l-18 102q0 20 16 27q138 78 281 78h22q211 0 333 -130t122 -341v-136q0 -211 -123 -341t-332 -130h-22q-143 0 -281 78 q-16 6 -16 27z" />
<glyph unicode="&#x44e;" horiz-adv-x="1527" d="M131 16v992q0 16 16 16h119q16 0 17 -16v-424h221v4q0 207 119.5 335t324.5 128h23q207 0 325.5 -127t118.5 -336v-152q0 -207 -120.5 -335t-323.5 -128h-23q-205 0 -324.5 128t-119.5 335v25h-221v-445q0 -16 -17 -16h-119q-16 0 -16 16zM659 430q0 -145 76 -237.5 t217 -92.5h17q143 0 217 92.5t74 237.5v164q0 150 -74 240t-217 90h-17q-141 0 -217 -92.5t-76 -237.5v-164z" />
<glyph unicode="&#x44f;" horiz-adv-x="1038" d="M82 8q-6 8 0 19l209 307l67 86q-109 20 -172 94t-63 184v19q0 156 97 231.5t259 75.5h412q18 0 18 -16v-992q0 -16 -18 -16h-119q-16 0 -16 16v379h-250l-258 -379q-10 -16 -29 -16h-123q-12 0 -14 8zM279 696q0 -94 64.5 -141t162.5 -47h250v393h-250q-227 0 -227 -184 v-21z" />
<glyph unicode="&#x451;" horiz-adv-x="1077" d="M113 418v145q0 209 114.5 348.5t319.5 139.5h22q201 0 300.5 -125t99.5 -332v-78q0 -23 -25 -22h-676v-91q0 -141 91.5 -223t232.5 -82h10q135 0 311 82l17 -102q0 -20 -17 -27q-150 -78 -329 -78h-15q-205 0 -330.5 120t-125.5 325zM268 592h555q2 340 -260 340h-14 q-137 0 -207 -98.5t-74 -241.5zM307 1221v149q1 19 19 19h125q18 0 18 -19v-149q0 -18 -18 -19h-125q-18 0 -19 19zM623 1221v149q0 19 18 19h125q18 0 18 -19v-149q0 -18 -18 -19h-125q-18 0 -18 19z" />
<glyph unicode="&#x454;" horiz-adv-x="995" d="M113 444v136q0 211 122.5 341t331.5 130h23q143 0 280 -78q16 -6 17 -27v-90q-197 68 -279 68h-16q-152 0 -238 -97.5t-86 -248.5v-5h455q16 0 16 -16v-72q0 -16 -16 -16h-455v-23q0 -152 87 -249t237 -97h16q109 0 262 80l17 -102q0 -20 -17 -27q-137 -78 -280 -78h-23 q-207 0 -330.5 131.5t-123.5 339.5z" />
<glyph unicode="&#x456;" horiz-adv-x="436" d="M135 1221v139q1 18 19 18h135q16 0 16 -18v-139q0 -18 -16 -19h-135q-18 0 -19 19zM143 16v992q1 16 19 16h117q18 0 18 -16v-992q0 -16 -18 -16h-117q-18 0 -19 16z" />
<glyph unicode="&#x457;" horiz-adv-x="417" d="M-29 1221v149q1 19 19 19h127q18 0 18 -19v-149q0 -18 -18 -19h-127q-18 0 -19 19zM135 16v992q1 16 17 16h118q16 0 17 -16v-992q0 -16 -17 -16h-118q-16 0 -17 16zM287 1221v149q0 19 18 19h127q18 0 19 -19v-149q0 -18 -19 -19h-127q-18 0 -18 19z" />
<glyph unicode="&#x45e;" horiz-adv-x="1028" d="M49 1001q-6 23 17 23h116q18 0 25 -18l192 -514l113 -361h4l115 361l190 514q11 18 25 18h119q8 0 14 -6q4 -6 0 -17l-399 -1085q-49 -137 -116 -211t-190 -74h-14q-45 0 -105.5 12.5t-60.5 41.5v86q0 8 6 12q0 4 6 4q4 0 7 -2q80 -29 133 -29h6q68 0 104.5 42t65.5 118 l33 84h-21q-16 0 -22 18zM240 1288v74q0 12 8 14q0 2 4 2q2 0 10 -4q147 -78 252 -78q115 0 252 78q8 4 10 4q4 0 6 -2q6 -4 6 -14v-74q0 -18 -12 -26q-109 -80 -262.5 -80t-261.5 80q-12 8 -12 26z" />
<glyph unicode="&#x490;" horiz-adv-x="1071" d="M172 16v1401q0 16 16 17h680v129q1 16 17 16h100q16 0 16 -16v-252q0 -18 -16 -19h-655v-1276q0 -16 -17 -16h-125q-16 0 -16 16z" />
<glyph unicode="&#x491;" horiz-adv-x="831" d="M131 16v992q0 16 16 16h517v129q0 16 16 16h88q16 0 16 -16v-235q0 -16 -16 -17h-485v-885q0 -16 -17 -16h-119q-16 0 -16 16z" />
<glyph unicode="&#x1e80;" horiz-adv-x="2015" d="M70 1413q-6 20 14 21h125q16 0 24 -19l164 -600l172 -665h9l174 665l163 600q6 18 25 19h137q18 0 25 -19l164 -600l172 -665h10l172 665l164 600q6 19 24 19h123q18 0 17 -21l-387 -1395q-8 -18 -27 -18h-172q-20 0 -27 18l-145 527l-176 680h-10l-177 -680l-147 -527 q-6 -18 -25 -18h-172q-20 0 -26 18zM764 1925q-2 8 0 14l113 7q20 -1 28 -19l150 -319l-88 -17q-16 0 -27 17z" />
<glyph unicode="&#x1e81;" horiz-adv-x="1566" d="M49 1001q-6 23 17 23h116q18 0 25 -18l125 -428l114 -437h9l114 437l123 428q4 18 25 18h133q18 0 24 -18l125 -428l115 -437h8l113 437l125 428q6 18 24 18h117q27 0 17 -23l-297 -983q-6 -18 -25 -18h-143q-16 0 -23 18l-90 295l-152 551h-10l-151 -551l-88 -295 q-10 -18 -25 -18h-143q-23 0 -25 18zM532 1516q-2 8 0 14l113 6q19 0 29 -18l149 -320l-88 -16q-16 0 -26 16z" />
<glyph unicode="&#x1e82;" horiz-adv-x="2015" d="M70 1413q-6 20 14 21h125q16 0 24 -19l164 -600l172 -665h9l174 665l163 600q6 18 25 19h137q18 0 25 -19l164 -600l172 -665h10l172 665l164 600q6 19 24 19h123q18 0 17 -21l-387 -1395q-8 -18 -27 -18h-172q-20 0 -27 18l-145 527l-176 680h-10l-177 -680l-147 -527 q-6 -18 -25 -18h-172q-20 0 -26 18zM961 1608l149 319q8 18 29 19h100l-166 -338q-10 -16 -26 -17h-78z" />
<glyph unicode="&#x1e83;" horiz-adv-x="1566" d="M49 1001q-6 23 17 23h116q18 0 25 -18l125 -428l114 -437h9l114 437l123 428q4 18 25 18h133q18 0 24 -18l125 -428l115 -437h8l113 437l125 428q6 18 24 18h117q27 0 17 -23l-297 -983q-6 -18 -25 -18h-143q-16 0 -23 18l-90 295l-152 551h-10l-151 -551l-88 -295 q-10 -18 -25 -18h-143q-23 0 -25 18zM735 1198l150 320q8 18 28 18h101q10 0 12 -6l-176 -332q-10 -16 -27 -16h-78z" />
<glyph unicode="&#x1e84;" horiz-adv-x="2015" d="M70 1413q-6 20 14 21h125q16 0 24 -19l164 -600l172 -665h9l174 665l163 600q6 18 25 19h137q18 0 25 -19l164 -600l172 -665h10l172 665l164 600q6 19 24 19h123q18 0 17 -21l-387 -1395q-8 -18 -27 -18h-172q-20 0 -27 18l-145 527l-176 680h-10l-177 -680l-147 -527 q-6 -18 -25 -18h-172q-20 0 -26 18zM770 1630v150q0 18 18 18h125q18 0 19 -18v-150q0 -18 -19 -18h-125q-18 0 -18 18zM1085 1630v150q1 18 19 18h125q18 0 18 -18v-150q0 -18 -18 -18h-125q-18 0 -19 18z" />
<glyph unicode="&#x1e85;" horiz-adv-x="1566" d="M49 1001q-6 23 17 23h116q18 0 25 -18l125 -428l114 -437h9l114 437l123 428q4 18 25 18h133q18 0 24 -18l125 -428l115 -437h8l113 437l125 428q6 18 24 18h117q27 0 17 -23l-297 -983q-6 -18 -25 -18h-143q-16 0 -23 18l-90 295l-152 551h-10l-151 -551l-88 -295 q-10 -18 -25 -18h-143q-23 0 -25 18zM545 1221v149q0 19 18 19h125q18 0 19 -19v-149q0 -18 -19 -19h-125q-18 0 -18 19zM860 1221v149q1 19 19 19h125q18 0 18 -19v-149q0 -18 -18 -19h-125q-18 0 -19 19z" />
<glyph unicode="&#x1ef2;" horiz-adv-x="1267" d="M70 1409q-4 10 2 18q2 6 14 7h127q18 0 29 -17l280 -526l109 -248h6l108 248l283 526q11 17 27 17h129q8 0 14 -7q2 -10 0 -18l-485 -924v-469q0 -16 -17 -16h-125q-16 0 -16 16v469zM395 1925q-2 8 0 14l111 7q19 -1 29 -19l149 -319l-86 -17q-16 0 -27 17z" />
<glyph unicode="&#x1ef3;" horiz-adv-x="1028" d="M49 1001q-6 23 17 23h116q18 0 25 -18l192 -514l113 -361h4l115 361l190 514q11 18 25 18h119q8 0 14 -6q4 -6 0 -17l-399 -1085q-49 -137 -116 -211t-190 -74h-14q-45 0 -105.5 12.5t-60.5 41.5v86q0 8 6 12q0 4 6 4q4 0 7 -2q80 -29 133 -29h6q68 0 104.5 42t65.5 118 l33 84h-21q-16 0 -22 18zM276 1518l113 18q21 0 29 -18l149 -320l-86 -16q-16 0 -26 16z" />
<glyph unicode="&#x2000;" horiz-adv-x="1129" />
<glyph unicode="&#x2001;" horiz-adv-x="2259" />
<glyph unicode="&#x2002;" horiz-adv-x="1129" />
<glyph unicode="&#x2003;" horiz-adv-x="2259" />
<glyph unicode="&#x2004;" horiz-adv-x="753" />
<glyph unicode="&#x2005;" horiz-adv-x="564" />
<glyph unicode="&#x2006;" horiz-adv-x="376" />
<glyph unicode="&#x2007;" horiz-adv-x="376" />
<glyph unicode="&#x2008;" horiz-adv-x="282" />
<glyph unicode="&#x2009;" horiz-adv-x="892" />
<glyph unicode="&#x200a;" horiz-adv-x="125" />
<glyph unicode="&#x2010;" horiz-adv-x="776" d="M68 604v90q0 17 18 17h604q16 0 17 -17v-90q0 -16 -17 -16h-604q-18 0 -18 16z" />
<glyph unicode="&#x2011;" horiz-adv-x="776" d="M68 604v90q0 17 18 17h604q16 0 17 -17v-90q0 -16 -17 -16h-604q-18 0 -18 16z" />
<glyph unicode="&#x2012;" horiz-adv-x="776" d="M68 604v90q0 17 18 17h604q16 0 17 -17v-90q0 -16 -17 -16h-604q-18 0 -18 16z" />
<glyph unicode="&#x2013;" horiz-adv-x="1087" d="M68 604v90q0 17 18 17h915q16 0 17 -17v-90q0 -16 -17 -16h-915q-18 0 -18 16z" />
<glyph unicode="&#x2014;" horiz-adv-x="1239" d="M68 604v90q0 17 18 17h1067q16 0 16 -17v-90q0 -16 -16 -16h-1067q-18 0 -18 16z" />
<glyph unicode="&#x2018;" horiz-adv-x="335" d="M68 924v131q0 18 6 35l86 329q2 14 20 15h74q14 0 12 -21l-82 -321h52q18 0 18 -19v-149q0 -19 -18 -19h-150q-18 0 -18 19z" />
<glyph unicode="&#x2019;" horiz-adv-x="335" d="M70 926l84 321h-54q-16 0 -16 19v149q0 19 16 19h150q18 0 18 -19v-131q0 -18 -6 -35l-84 -329q-2 -14 -22 -15h-74q-14 0 -12 21z" />
<glyph unicode="&#x201a;" horiz-adv-x="335" d="M70 -322l84 322h-54q-16 0 -16 18v150q0 18 16 18h150q18 0 18 -18v-131q0 -20 -6 -35l-84 -330q-2 -14 -22 -14h-74q-14 0 -12 20z" />
<glyph unicode="&#x201c;" horiz-adv-x="675" d="M68 924v131q0 18 6 35l86 329q2 14 20 15h74q14 0 12 -21l-82 -321h52q18 0 18 -19v-149q0 -19 -18 -19h-150q-18 0 -18 19zM408 924v131q0 14 4 35l86 329q2 14 20 15h76q14 0 12 -21l-84 -321h51q18 0 19 -19v-149q-1 -19 -19 -19h-147q-18 0 -18 19z" />
<glyph unicode="&#x201d;" horiz-adv-x="675" d="M70 926l84 321h-54q-16 0 -16 19v149q0 19 16 19h150q18 0 18 -19v-131q0 -18 -6 -35l-84 -329q-2 -14 -22 -15h-74q-14 0 -12 21zM408 926l84 321h-52q-18 0 -18 19v149q0 19 18 19h148q18 0 18 -19v-131q0 -18 -6 -35l-84 -329q-2 -14 -20 -15h-76q-14 0 -12 21z" />
<glyph unicode="&#x201e;" horiz-adv-x="675" d="M70 -322l84 322h-54q-16 0 -16 18v150q0 18 16 18h150q18 0 18 -18v-131q0 -20 -6 -35l-84 -330q-2 -14 -22 -14h-74q-14 0 -12 20zM408 -322l84 322h-52q-18 0 -18 18v150q0 18 18 18h148q18 0 18 -18v-131q0 -20 -6 -35l-84 -330q-2 -14 -20 -14h-76q-14 0 -12 20z" />
<glyph unicode="&#x2020;" horiz-adv-x="958" d="M68 901v107q0 16 18 16h313v393q0 16 19 17h125q16 -1 16 -17v-393h315q16 0 17 -16v-107q0 -18 -17 -18h-315v-1018q0 -16 -16 -17h-125q-18 0 -19 17v1018h-313q-18 0 -18 18z" />
<glyph unicode="&#x2021;" horiz-adv-x="958" d="M68 303v107q0 16 18 16h313v457h-313q-18 0 -18 18v107q0 16 18 16h313v393q0 16 19 17h125q16 0 16 -17v-393h315q16 0 17 -16v-107q0 -18 -17 -18h-315v-457h315q16 0 17 -16v-107q0 -18 -17 -18h-315v-420q0 -16 -16 -17h-125q-18 0 -19 17v420h-313q-18 0 -18 18z " />
<glyph unicode="&#x2022;" horiz-adv-x="491" d="M68 586q0 74 52 126t126 52q78 0 128 -50t50 -128q0 -74 -53.5 -126t-125 -52t-124.5 53t-53 125z" />
<glyph unicode="&#x2026;" horiz-adv-x="1337" d="M68 18v150q0 18 18 18h143q18 0 19 -18v-150q0 -18 -19 -18h-143q-18 0 -18 18zM580 18v150q0 18 16 18h143q18 0 19 -18v-150q0 -18 -19 -18h-143q-16 0 -16 18zM1090 18v150q0 18 18 18h143q18 0 19 -18v-150q0 -18 -19 -18h-143q-18 0 -18 18z" />
<glyph unicode="&#x202f;" horiz-adv-x="451" />
<glyph unicode="&#x2030;" horiz-adv-x="2822" d="M68 1010v75q0 166 91 270.5t251 104.5h28q160 0 251 -105.5t91 -269.5v-75q0 -164 -91 -269.5t-251 -105.5h-28q-160 0 -251 105.5t-91 269.5zM197 1010q0 -113 55 -187.5t164 -74.5h16q109 0 164 75.5t55 186.5v75q0 113 -55 188t-164 75h-16q-109 0 -164 -75t-55 -188 v-75zM596 8q-4 6 0 17l659 1386q10 23 33 23h76q12 0 14 -7q2 -10 0 -18l-657 -1386q-12 -23 -35 -23h-74q-14 0 -16 8zM1196 348v76q0 164 90 269.5t250 105.5h29q160 0 251 -105.5t91 -269.5v-76q0 -164 -91.5 -269.5t-250.5 -105.5h-29q-162 0 -251 106.5t-89 268.5z M1323 348q0 -113 55.5 -187.5t163.5 -74.5h17q109 0 164 75t55 187v76q0 113 -55 187.5t-164 74.5h-17q-109 0 -164 -74.5t-55 -187.5v-76zM2042 348v76q0 164 91 269.5t251 105.5h29q160 0 251 -105.5t91 -269.5v-76q0 -164 -91.5 -269.5t-250.5 -105.5h-29 q-160 0 -251 105.5t-91 269.5zM2171 348q0 -113 55 -187.5t164 -74.5h16q109 0 164.5 75t55.5 187v76q0 113 -55.5 187.5t-164.5 74.5h-16q-109 0 -164 -74.5t-55 -187.5v-76z" />
<glyph unicode="&#x2039;" horiz-adv-x="497" d="M68 514v33q0 12 10 26l225 269q8 8 21 8h96l-221 -320l227 -303l-102 -16q-10 0 -21 10l-225 268q-10 10 -10 25z" />
<glyph unicode="&#x203a;" horiz-adv-x="497" d="M72 836l102 14q12 0 21 -8l225 -269q10 -14 10 -26v-33q0 -14 -10 -25l-225 -268q-10 -10 -21 -10h-96l221 319z" />
<glyph unicode="&#x2044;" horiz-adv-x="376" d="M-203 8q-4 6 0 17l660 1386q9 23 32 23h74q14 0 17 -7q2 -10 0 -18l-660 -1386q-10 -23 -33 -23h-73q-14 0 -17 8z" />
<glyph unicode="&#x205f;" horiz-adv-x="564" />
<glyph unicode="&#x20ac;" horiz-adv-x="1351" d="M68 539v67q0 16 18 17h213v190h-213q-18 0 -18 16v68q0 16 18 16h217q27 246 185.5 396.5t400.5 150.5h22q197 0 338 -82q16 -10 17 -30v-103q-215 74 -342 74h-15q-182 0 -298.5 -110.5t-143.5 -295.5h516q16 0 16 -16v-68q0 -16 -16 -16h-522v-190h522q16 0 16 -17v-67 q0 -16 -16 -17h-516q23 -184 142.5 -295.5t299.5 -111.5h15q154 0 323 86l19 -117q0 -18 -17 -29q-141 -82 -338 -82h-22q-244 0 -402.5 153t-183.5 396h-217q-18 0 -18 17z" />
<glyph unicode="&#x2116;" horiz-adv-x="2146" d="M164 16v1401q0 16 16 17h146q16 0 24 -15l723 -1175h10l-12 561v612q0 17 16 17h125q16 0 17 -17v-1401q0 -16 -17 -16h-145q-16 0 -25 14l-436 705l-287 471h-10l13 -471v-703q0 -16 -17 -16h-125q-16 0 -16 16zM1368 1010v75q0 164 90 269.5t250 105.5h29 q162 0 252 -104.5t90 -270.5v-75q0 -166 -90.5 -270.5t-251.5 -104.5h-29q-160 0 -250 105.5t-90 269.5zM1389 399v107q0 16 16 16h637q16 0 16 -16v-107q0 -18 -16 -18h-637q-16 0 -16 18zM1495 1010q0 -111 56.5 -186.5t162.5 -75.5h17q109 0 164 74.5t55 187.5v75 q0 115 -55 189t-164 74h-17q-106 0 -162.5 -76t-56.5 -187v-75z" />
<glyph unicode="&#x2122;" horiz-adv-x="1611" d="M68 1432v73q0 11 10 11h600q8 0 8 -11v-73l-256 -9v-696q0 -10 -10 -10h-84q-10 0 -10 10v696h-248q-10 0 -10 9zM793 727v778q0 10 8 11h121q14 0 16 -9l225 -405h8l228 405q2 9 14 9h121q10 0 10 -11v-778q0 -10 -10 -10h-86q-10 0 -10 10l2 459l10 200h-10l-111 -200 l-121 -205q-6 -12 -18 -12h-43q-12 0 -19 12l-120 205l-113 200h-8l8 -200l2 -459q0 -10 -10 -10h-86q-8 0 -8 10z" />
<glyph unicode="&#x212e;" horiz-adv-x="1529" d="M68 670q0 301 199.5 498.5t498.5 197.5q301 0 498.5 -198.5t197.5 -497.5h-1171v-426q184 -207 475 -207q127 0 255 43t218 123q4 4 8 4h6q6 -2 7 -14v-37q0 -18 -15 -31q-193 -152 -479 -152q-301 0 -499.5 200t-198.5 497zM291 729h950v371q-184 203 -475 203 t-475 -203v-371z" />
<glyph unicode="&#x215b;" horiz-adv-x="1730" d="M68 678v80q0 16 18 16h172v526l-172 -65h-6q-12 0 -12 12v76q0 20 18 25l205 79q14 6 35 7h39q16 -1 16 -17v-643h154q16 0 16 -16v-80q0 -16 -16 -16h-449q-18 0 -18 16zM416 25l659 1386q10 23 33 23h76q10 0 16 -7q4 -10 -2 -18l-657 -1386q-12 -23 -33 -23h-76 q-12 0 -14 8q-6 6 -2 17zM1065 193v16q0 137 137 192q-117 57 -117 170v13q0 102 82 158.5t189 56.5h14q109 0 189.5 -56.5t80.5 -158.5v-13q1 -113 -116 -170q59 -25 100 -73q37 -51 37 -119v-16q0 -106 -87 -163t-200 -57h-22q-111 0 -199 57.5t-88 162.5zM1186 209 q0 -66 50 -100.5t120 -34.5h14q72 0 121 34.5t49 100.5v8q0 59 -46 94t-108 35h-47q-61 0 -107 -35t-46 -94v-8zM1202 563q0 -55 46 -88t104 -33h22q57 0 103.5 33t46.5 88v4q0 63 -46 97t-112 34h-8q-66 0 -111 -34t-45 -97v-4z" />
<glyph unicode="&#x215c;" horiz-adv-x="1783" d="M68 711v71q180 -43 223 -43h10q72 0 125 36t53 104v8q0 61 -44 92t-105 31h-119q-16 0 -16 16v59q0 16 16 17h102q39 0 70 12q51 16 72 68q8 16 8 39v6q0 61 -46 95t-112 34h-6q-72 0 -203 -53q-12 -4 -16 10v71q0 20 16 27q111 49 211 49h8q109 0 191 -56t82 -161v-14 q0 -111 -111 -170q129 -47 129 -182v-17q0 -109 -89 -167t-204 -58h-14q-102 0 -213 49q-18 6 -18 27zM471 8q-4 6 0 17l659 1386q10 23 33 23h74q12 0 16 -7q4 -10 0 -18l-659 -1386q-10 -23 -33 -23h-74q-14 0 -16 8zM1120 193v16q0 129 137 192q-117 57 -116 170v13 q0 102 82 158.5t188 56.5h12q109 0 191 -56.5t82 -158.5v-13q0 -113 -117 -170q59 -25 100 -73q37 -51 37 -119v-16q0 -106 -87 -163t-199 -57h-25q-113 0 -199 56.5t-86 163.5zM1241 209q0 -66 50 -100.5t120 -34.5h12q70 0 120 34.5t50 100.5v8q0 59 -46 94t-107 35h-45 q-61 0 -107.5 -35t-46.5 -94v-8zM1255 563q0 -55 48.5 -88t103.5 -33h20q59 0 105.5 33t46.5 88v4q0 63 -46 97t-112 34h-8q-63 0 -110.5 -35t-47.5 -96v-4z" />
<glyph unicode="&#x215d;" horiz-adv-x="1789" d="M68 711v69q180 -43 231 -43h10q72 0 123 40t51 110v10q0 72 -43 108.5t-114 36.5q-59 0 -166 -30q-2 0 -6 -1t-7 -1q-8 0 -18 6l-16 10q-16 12 -17 29v362q1 17 17 17h426q16 0 16 -17v-74q0 -16 -16 -16h-328v-227q100 31 158 30q111 0 176 -60t65 -171v-18 q0 -117 -86 -181.5t-205 -64.5h-12q-111 0 -221 49q-18 6 -18 27zM477 8q-4 6 0 17l658 1386q11 23 34 23h74q14 0 17 -7q2 -10 0 -18l-660 -1386q-10 -23 -33 -23h-75q-12 0 -15 8zM1124 193v16q0 137 140 192q-117 57 -117 170v13q0 102 82 158.5t188 56.5h13 q109 0 189.5 -56.5t80.5 -158.5v-13q0 -113 -117 -170q139 -55 139 -192v-16q0 -106 -87 -163t-199 -57h-25q-111 0 -199 57.5t-88 162.5zM1247 209q0 -66 50.5 -100.5t119.5 -34.5h13q70 0 119.5 34.5t49.5 100.5v8q0 59 -46 94t-107 35h-45q-61 0 -107.5 -35t-46.5 -94v-8 zM1262 563q0 -55 47 -88t102 -33h23q59 0 105 33t46 88v4q0 61 -47 96t-111 35h-8q-63 0 -110 -35t-47 -96v-4z" />
<glyph unicode="&#x215e;" horiz-adv-x="1650" d="M68 1337v80q0 17 18 17h512q18 0 18 -17v-55q0 -16 -14 -37l-248 -330q-10 -16 -10 -30v-287q0 -16 -16 -16h-92q-16 0 -17 16v305q0 14 10 31l238 307h-381q-18 0 -18 16zM338 8q-4 6 0 17l659 1386q10 23 33 23h74q14 0 16 -7q2 -10 0 -18l-659 -1386q-10 -23 -33 -23 h-76q-12 0 -14 8zM985 193v16q0 137 139 192q-117 57 -116 170v13q0 102 81.5 158.5t188.5 56.5h12q106 0 188.5 -56.5t82.5 -158.5v-13q0 -113 -117 -170q139 -55 139 -192v-16q0 -106 -87 -163t-200 -57h-24q-111 0 -199 57.5t-88 162.5zM1108 209q0 -66 51 -100.5 t119 -34.5h12q70 0 120 34.5t50 100.5v8q0 59 -46 94t-107 35h-45q-61 0 -107.5 -35t-46.5 -94v-8zM1122 563q0 -53 47.5 -87t102.5 -34h22q59 0 105.5 33t46.5 88v4q0 63 -46 97t-112 34h-8q-63 0 -110.5 -35t-47.5 -96v-4z" />
<glyph unicode="&#x2190;" horiz-adv-x="1284" d="M68 639v25q0 18 16 28l344 193l16 -31q0 -12 -10 -23l-158 -116h922q16 0 16 -19v-90q0 -16 -16 -16h-922l158 -117q10 -10 10 -22v-21l-360 182q-16 10 -16 27z" />
<glyph unicode="&#x2191;" horiz-adv-x="610" d="M82 770l184 360q11 17 27 17h24q16 0 27 -17l195 -342l-33 -18q-14 0 -23 12l-116 156v-922q0 -16 -17 -16h-90q-16 0 -16 16v922l-117 -156q-10 -12 -23 -12h-22z" />
<glyph unicode="&#x2192;" horiz-adv-x="1284" d="M68 606v90q0 16 18 17h920l-156 116q-10 10 -10 23v22q6 12 8 13q6 0 10 -2l340 -195q16 -10 16 -26v-25q0 -16 -16 -27l-340 -194q-4 -2 -10 -2q-2 0 -4 2l-4 33q0 12 10 22l156 117h-920q-18 0 -18 16z" />
<glyph unicode="&#x2193;" horiz-adv-x="610" d="M72 332l32 16q12 0 23 -10l117 -156v922q0 16 16 16h90q16 0 17 -16v-922l116 156q10 10 23 10h22l-184 -358q-10 -16 -27 -17h-24q-16 0 -27 17z" />
<glyph unicode="&#x2194;" horiz-adv-x="1570" d="M68 639v25q0 18 16 28l344 193l16 -31q0 -12 -10 -23l-158 -116h1018l-157 116q-10 10 -11 23v20l17 11l344 -193q16 -10 16 -28v-25q0 -16 -16 -27l-344 -194l-17 33q0 12 11 22l157 117h-1018l158 -117q10 -10 10 -22v-21l-360 182q-16 10 -16 27z" />
<glyph unicode="&#x2195;" horiz-adv-x="608" d="M72 332l30 16q12 0 23 -10l117 -156v1016l-117 -158q-10 -10 -23 -10h-20l182 361q11 16 27 16h26q16 0 27 -16l193 -344l-31 -17q-12 0 -23 10l-116 158v-1016l116 156q10 10 23 10h20l-182 -358q-10 -16 -27 -17h-26q-16 0 -27 17z" />
<glyph unicode="&#x2196;" horiz-adv-x="1001" d="M70 803q-4 18 8 31l16 18q8 8 19 8q8 0 12 -2l379 -104q20 -4 6 -19l-16 -16q-10 -10 -23 -8l-192 28l649 -651q12 -12 0 -25l-64 -63q-6 -6 -10 -6q-6 0 -12 6l-652 651l29 -194q0 -12 -8 -23l-16 -14q-6 -6 -11 -6q-6 0 -10 10z" />
<glyph unicode="&#x2197;" horiz-adv-x="1001" d="M74 63q-12 12 0 25l651 649l-193 -26h-4q-12 0 -20 8l-14 16q-14 15 4 21l379 102q4 2 12 2q10 0 18 -8l19 -18q12 -12 6 -31l-103 -379q-4 -10 -10 -10q-4 0 -10 6l-16 14q-10 10 -9 25l27 192l-649 -651q-6 -6 -12.5 -6t-12.5 6z" />
<glyph unicode="&#x2198;" horiz-adv-x="1001" d="M74 745q-12 12 0 25l63 64q4 4 12.5 4t12.5 -4l649 -652l-27 193q-2 12 9 22l16 17q6 6 10 6q6 0 10 -10l103 -381q6 -16 -6 -31l-19 -16q-8 -8 -22 -9h-8l-379 105q-18 6 -4 20l14 17q8 8 24 8l193 -29z" />
<glyph unicode="&#x2199;" horiz-adv-x="1001" d="M70 29l104 381q4 10 10 10q4 0 11 -6l16 -17q10 -10 6 -22l-27 -193l652 652q4 4 12 4q6 0 10 -4l64 -64q12 -12 0 -25l-649 -651l192 29q12 2 23 -8l16 -17q14 -14 -6 -20l-379 -105q-20 0 -31 9l-16 16q-12 14 -8 31z" />
<glyph unicode="&#x2202;" d="M72 436l12 131q23 205 126 329t300 124h12q182 0 303 -148l23 258q12 143 -51.5 213t-210.5 70h-8q-104 0 -211 -39q-10 -4 -44 -17.5t-57 -23.5q-4 -2 -10 -2t-6 12l8 93q0 20 18 26q178 74 338 74h13q182 0 291 -102q104 -102 86 -304l-62 -694q-18 -207 -138 -335 t-325 -128h-22q-184 0 -295 125q-111 123 -90 338zM227 430q-8 -106 19 -180q55 -150 225 -150h16q141 0 214 91.5t85 238.5l29 320q-119 143 -270 143h-6q-266 0 -299 -328z" />
<glyph unicode="&#x2205;" horiz-adv-x="1222" d="M70 512q4 231 155.5 384t382.5 155q197 0 346 -121l103 102q6 6 12 6t12 -6l49 -51q12 -13 0 -23l-100 -102q119 -145 119 -344q0 -231 -154.5 -385t-386.5 -154q-199 4 -342 119l-100 -100q-6 -6 -14 -6q-4 0 -11 6l-49 51q-12 12 0 23l98 100q-121 150 -120 346z M201 512q0 -147 82 -254l581 582q-109 84 -254 84q-176 0 -290.5 -117t-118.5 -295zM356 184q109 -84 254 -84q176 0 292 118t116 294q0 143 -80 252z" />
<glyph unicode="&#x220f;" horiz-adv-x="1277" d="M68 1311v106q0 17 18 17h1106q16 0 16 -17v-106q0 -18 -16 -19h-154v-1276q0 -16 -16 -16h-125q-16 0 -16 16v1276h-484v-1276q0 -16 -16 -16h-125q-16 0 -16 16v1276h-154q-18 0 -18 19z" />
<glyph unicode="&#x2211;" horiz-adv-x="1040" d="M68 16v99q0 16 8 24l553 578l-553 577q-8 8 -8 25v98q0 16 18 17h868q17 -1 17 -17v-106q0 -18 -17 -19h-673l499 -520q10 -10 11 -22v-66q0 -12 -11 -22l-499 -521h673q16 0 17 -18v-107q0 -16 -17 -16h-868q-18 0 -18 16z" />
<glyph unicode="&#x2212;" horiz-adv-x="1087" d="M68 604v90q0 17 18 17h915q16 0 17 -17v-90q0 -16 -17 -16h-915q-18 0 -18 16z" />
<glyph unicode="&#x221a;" horiz-adv-x="1421" d="M68 918v90q0 16 18 16h324q18 0 24 -18l156 -426l147 -449h4l148 449l305 835q7 19 25 19h116q12 0 15 -7q4 -8 2 -16l-510 -1393q-6 -18 -23 -18h-157q-23 0 -25 18l-326 883h-225q-18 0 -18 17z" />
<glyph unicode="&#x221e;" horiz-adv-x="1380" d="M68 666v30q0 150 75.5 252.5t218.5 102.5h15q59 0 107 -20.5t89 -62.5t67 -77t62 -96q68 121 139.5 188.5t180.5 67.5h12q131 0 205 -100.5t74 -235.5v-31q0 -150 -75 -252t-220 -102h-12q-55 0 -103 18q-98 33 -221 242q-45 -78 -81 -126t-101.5 -91t-139.5 -43h-14 q-131 0 -204.5 100t-73.5 236zM186 653q0 -88 44 -155.5t128 -67.5h11q72 0 125 53q53 57 127 187q-47 76 -84 129q-78 100 -166 100h-13q-82 0 -127 -68.5t-45 -156.5v-21zM764 715q78 -131 127 -180q49 -53 121 -54h10q86 0 129 67.5t43 158.5v20q0 90 -42 156.5 t-128 66.5h-12q-18 0 -47 -4q-51 -14 -119 -98q-18 -27 -82 -133z" />
<glyph unicode="&#x222b;" horiz-adv-x="888" d="M68 -367q0 10 6 13q4 4 8 4t6 -2q90 -33 141 -33h9q66 0 100 35q31 37 31 114v1516q0 256 247 256h17q80 0 172 -43q14 -6 14 -23v-79q-2 -14 -18 -15q-90 33 -142 33h-8q-92 0 -116 -66q-14 -31 -15 -83v-1516q0 -256 -248 -256h-16q-80 0 -172 43q-16 6 -16 23v79z" />
<glyph unicode="&#x2248;" horiz-adv-x="919" d="M68 391v53q0 20 12 27q2 0 24 14q14 10 25 13l25 12q14 8 28 12q6 2 27 10q10 4 31 9q26 6 61 6q72 0 166 -49q90 -51 151 -52q72 0 209 72q4 2 9 2q6 0 8 -2q6 -2 6 -14v-55q0 -27 -82 -64q-70 -39 -152 -39q-72 0 -161 51q-96 49 -156 49q-74 0 -207 -69q-8 -4 -10 -4 q-6 0 -6 2q-8 2 -8 16zM68 682v53q0 20 12 27l6 2l10 5t13 7q6 2 12 6t10 7.5t6 3.5t11.5 5t17.5 9q16 8 63 22l37 7q10 2 35 2q72 0 166 -50q90 -51 151 -51q72 0 209 72q4 2 9 2q6 0 8 -2q6 -2 6 -14v-56q0 -16 -16 -26q-45 -27 -60 -35q-98 -41 -158 -41q-72 0 -161 51 q-96 49 -156 49q-74 0 -207 -69q-8 -4 -10 -4q-6 0 -6 2q-8 2 -8 16z" />
<glyph unicode="&#x2260;" horiz-adv-x="1089" d="M68 442v68q0 16 18 16h350l109 191h-459q-18 0 -18 16v68q0 16 18 16h518l129 225q6 8 15 9q4 0 8 -2l51 -31q14 -8 6 -23l-100 -178h291q16 0 16 -16v-68q0 -16 -16 -16h-351l-108 -191h459q16 0 16 -16v-68q0 -16 -16 -16h-519l-129 -223q-6 -10 -14 -10q-6 0 -8 2 l-53 30q-14 8 -7 25l103 176h-291q-18 0 -18 16z" />
<glyph unicode="&#x2264;" horiz-adv-x="1087" d="M68 170v68q0 18 18 18h915q16 0 17 -18v-68q0 -16 -17 -16h-915q-18 0 -18 16zM68 664v59q0 25 20 27l903 225h6q8 0 13 -2q8 -6 8 -17v-59q0 -25 -23 -31l-741 -172l741 -174q23 -6 23 -31v-57q-16 -20 -27 -20l-903 225q-20 2 -20 27z" />
<glyph unicode="&#x2265;" horiz-adv-x="1087" d="M68 170v68q0 18 18 18h915q16 0 17 -18v-68q0 -16 -17 -16h-915q-18 0 -18 16zM68 432v57q0 25 24 31l742 174l-742 172q-25 6 -24 31v59q0 10 8 17q4 2 14 2h6l903 -225q18 -4 19 -27v-59q0 -25 -19 -27l-903 -225h-6q-10 0 -14 4q-8 2 -8 16z" />
<glyph unicode="&#x25ca;" horiz-adv-x="833" d="M68 1057v57q0 16 12 27l280 280q13 13 29 13h55q16 0 29 -13l281 -280q10 -10 10 -27v-57q0 -16 -10 -27l-281 -280q-12 -12 -29 -13h-55q-16 0 -29 13l-280 280q-12 10 -12 27zM180 1085l236 -239l237 239l-237 240z" />
<glyph unicode="&#x25fc;" horiz-adv-x="1024" d="M0 0v1024h1024v-1024h-1024z" />
<glyph unicode="&#xfe6b;" horiz-adv-x="1327" d="M141 356v312q0 182 98.5 282.5t280.5 100.5h287q182 0 280.5 -100.5t98.5 -282.5v-326q0 -80 -44 -126t-124 -46h-47q-41 0 -88 25q-43 20 -54 75q-94 -100 -202 -100h-4q-125 0 -183.5 79t-58.5 208v100q0 131 67.5 211t196.5 80h8q59 0 136 -20.5t124 -51.5 q10 -10 11 -18v-424q0 -78 65 -78h21q70 0 69 82v332q0 190 -127 258q-63 29 -147 28h-283q-276 0 -276 -286v-303q0 -299 276 -299h377q10 0 10 -11v-73q0 -10 -10 -11h-379q-180 0 -279.5 101.5t-99.5 281.5zM483 461q0 -203 162 -203h2q92 0 176 90v365q-88 51 -170 51 h-4q-109 0 -145 -90q-20 -43 -21 -113v-100z" />
<glyph horiz-adv-x="417" d="M121 1221v149q0 19 18 19h144q18 0 18 -19v-149q0 -18 -18 -19h-144q-18 0 -18 19zM135 16v992q1 16 17 16h118q16 0 17 -16v-992q0 -16 -17 -16h-118q-16 0 -17 16z" />
<glyph horiz-adv-x="1101" d="M113 428v160q0 207 106.5 335t308.5 128h17q100 0 223 -35q205 -60 205 -109v-891q0 -16 -19 -16h-104q-14 0 -16 14l-9 119q-61 -70 -150 -115t-177 -45h-9q-195 0 -285.5 128t-90.5 327zM268 430q0 -330 262 -330h7q149 1 282 146v596q-145 84 -274 84h-8 q-139 0 -204 -93.5t-65 -236.5v-166z" />
<glyph horiz-adv-x="1101" d="M113 428v160q0 207 106.5 335t308.5 128h17q100 0 223 -35q205 -60 205 -109v-891q0 -16 -19 -16h-106q-12 0 -14 14l-9 119q-61 -70 -150 -115t-177 -45h-9q-193 0 -284.5 127t-91.5 328zM268 430q0 -330 262 -330h7q149 1 282 146v596q-145 84 -274 84h-8 q-139 0 -204 -92.5t-65 -237.5v-166zM483 1198l150 320q10 18 26 18h103l-166 -338q-10 -16 -27 -16h-77z" />
<glyph horiz-adv-x="1101" d="M113 428v160q0 207 106.5 335t308.5 128h17q100 0 223 -35q205 -60 205 -109v-891q0 -16 -19 -16h-104q-14 0 -16 14l-9 119q-61 -70 -150 -115t-177 -45h-9q-195 0 -285.5 128t-90.5 327zM268 430q0 -330 262 -330h7q149 1 282 146v596q-145 84 -274 84h-8 q-139 0 -204 -92.5t-65 -237.5v-166zM276 1288v74q0 12 9 14q0 2 4 2q2 0 10 -4q145 -78 254 -78q115 0 250 78q8 4 10 4q6 0 8 -2q6 -4 6 -14v-74q0 -18 -14 -26q-104 -80 -260 -80q-150 0 -264 80q-12 8 -13 26z" />
<glyph horiz-adv-x="1101" d="M113 428v160q0 207 106.5 335t308.5 128h17q100 0 223 -35q205 -60 205 -109v-891q0 -16 -19 -16h-104q-14 0 -16 14l-9 119q-61 -70 -150 -115t-177 -45h-9q-193 0 -284.5 127t-91.5 328zM268 430q0 -330 262 -330h7q149 1 282 146v596q-145 84 -274 84h-8 q-139 0 -204 -93.5t-65 -236.5v-166zM301 1518q2 18 12 18h90q18 0 29 -18l119 -236l121 236q8 18 28 18h91q8 0 12 -6l-191 -332q-10 -16 -26 -16h-68q-16 0 -26 16z" />
<glyph horiz-adv-x="1101" d="M113 428v160q0 207 106.5 335t308.5 128h17q100 0 223 -35q205 -60 205 -109v-891q0 -16 -19 -16h-104q-14 0 -16 14l-9 119q-61 -70 -150 -115t-177 -45h-9q-193 0 -284.5 127t-91.5 328zM268 430q0 -330 262 -330h7q149 1 282 146v596q-145 84 -274 84h-8 q-139 0 -204 -92.5t-65 -237.5v-166zM313 1182l179 338q10 16 26 16h68q16 0 26 -16l191 -320l-103 -18q-18 0 -28 16l-121 236l-119 -236q-10 -16 -29 -16h-90z" />
<glyph horiz-adv-x="1101" d="M113 428v160q0 207 106.5 335t308.5 128h17q137 0 303 -62q67 -28 108 -55q16 -10 17 -27v-891q0 -16 -19 -16h-104q-14 0 -16 14l-9 119q-61 -70 -150 -115t-177 -45h-9q-193 0 -284.5 127t-91.5 328zM268 430q0 -330 262 -330h7q149 1 282 146v596q-145 84 -274 84h-8 q-139 0 -204 -92.5t-65 -237.5v-166zM324 1221v149q0 19 18 19h125q18 0 18 -19v-149q0 -18 -18 -19h-125q-18 0 -18 19zM639 1221v149q0 19 18 19h125q18 0 19 -19v-149q0 -18 -19 -19h-125q-18 0 -18 19z" />
<glyph horiz-adv-x="1101" d="M113 428v160q0 207 106.5 335t308.5 128h17q100 0 223 -35q205 -60 205 -109v-891q0 -16 -19 -16h-106q-12 0 -14 14l-9 119q-61 -70 -150 -115t-177 -45h-9q-195 0 -285.5 128t-90.5 327zM268 430q0 -330 262 -330h7q149 1 282 146v596q-145 84 -274 84h-8 q-139 0 -204 -92.5t-65 -237.5v-166zM293 1516q-2 8 0 14l113 6q20 0 28 -18l150 -320l-88 -16q-16 0 -27 16z" />
<glyph horiz-adv-x="1101" d="M113 428v160q0 207 106.5 335t308.5 128h17q100 0 223 -35q205 -60 205 -109v-891q0 -16 -19 -16h-104q-14 0 -16 14l-9 119q-61 -70 -150 -115t-177 -45h-9q-195 0 -285.5 128t-90.5 327zM268 430q0 -330 262 -330h7q149 1 282 146v596q-145 84 -274 84h-8 q-139 0 -204 -93.5t-65 -236.5v-166zM315 1219v81q1 17 19 17h495q16 0 17 -17v-81q0 -16 -17 -17h-495q-18 0 -19 17z" />
<glyph horiz-adv-x="1101" d="M113 428v160q0 207 106.5 335t308.5 128h17q100 0 223 -35q205 -60 205 -109v-891q0 -16 -19 -16q-43 -35 -69 -61l-56 -56q-33 -33 -45 -67q-14 -29 -14 -64q0 -98 111 -98q29 0 59 8q14 2 14 -12v-47q0 -23 -18 -29q-35 -14 -86 -14q-82 0 -132 44t-50 126 q0 123 184 270h-2q-14 0 -16 14l-9 119q-61 -70 -150 -115t-177 -45h-9q-195 0 -285.5 128t-90.5 327zM268 430q0 -330 262 -330h7q149 1 282 146v596q-145 84 -274 84h-8q-139 0 -204 -93.5t-65 -236.5v-166z" />
<glyph horiz-adv-x="1101" d="M113 428v160q0 207 106.5 335t308.5 128h17q100 0 223 -35q205 -60 205 -109v-891q0 -16 -19 -16h-104q-14 0 -16 14l-9 119q-61 -70 -150 -115t-177 -45h-9q-193 0 -284.5 127t-91.5 328zM268 430q0 -330 262 -330h7q149 1 282 146v596q-145 84 -274 84h-8 q-139 0 -204 -92.5t-65 -237.5v-166zM397 1323q0 70 50.5 118t120 48t118.5 -48t49 -118t-48 -119t-119.5 -49t-121 49t-49.5 119zM483 1323q0 -20 11 -41q8 -20 30 -33q18 -12 43 -12q39 0 60 27q23 27 22 59q0 25 -8 43t-29 31q-25 10 -45 10q-23 0 -43 -10 q-20 -12 -30 -31q-10 -25 -11 -43z" />
<glyph horiz-adv-x="1101" d="M113 428v160q0 207 106.5 335t308.5 128h17q137 0 303 -62q67 -28 108 -55q16 -10 17 -27v-891q0 -16 -19 -16h-106q-12 0 -14 14l-9 119q-61 -70 -150 -115t-177 -45h-9q-195 0 -285.5 128t-90.5 327zM268 430q0 -330 262 -330h7q149 1 282 146v596q-145 84 -274 84h-8 q-139 0 -204 -92.5t-65 -237.5v-166zM283 1184q63 184 194 184h8q39 0 74 -22q12 -8 33.5 -25.5t23.5 -20.5q29 -23 60 -22q55 0 102 72q9 14 23 14h51q16 0 10 -18q-25 -76 -75 -130.5t-119 -54.5h-9q-53 0 -100 45q-51 45 -90 45q-55 0 -102 -71q-8 -14 -23 -15h-51 q-16 0 -10 19z" />
<glyph horiz-adv-x="1783" d="M113 428v160q0 207 106.5 335t308.5 128h17q82 0 178 -28t166 -71q14 -8 14 -26v-70q114 195 350 195h23q201 0 300 -125t99 -332v-78q0 -23 -24 -22h-676l2 -91q-2 -143 90 -223q88 -82 231 -82h11q135 0 311 82q14 2 16 -12v-90q0 -20 -16 -27q-145 -78 -328 -78h-16 q-246 0 -358 166v-123q0 -16 -19 -16h-49q-14 0 -16 14l-9 119q-61 -70 -150 -115t-177 -45h-9q-193 0 -284.5 127t-91.5 328zM268 430q0 -330 262 -330h7q150 0 282 146v596q-145 84 -274 84h-8q-139 0 -204 -93.5t-65 -236.5v-166zM975 592h555q2 340 -260 340h-15 q-137 0 -206.5 -98.5t-73.5 -241.5z" />
<glyph d="M127 360v648q0 16 16 16h119q16 0 17 -16v-623q0 -127 48 -194.5t169 -67.5h6q143 0 295 131v754q0 16 18 16h117q18 0 18 -16v-973q-2 -193 -110.5 -298.5t-302.5 -105.5h-11q-168 0 -333 74q-16 6 -17 27v92q213 -70 322 -70h10q289 0 289 283v104q-170 -145 -336 -145 h-15q-319 0 -319 364z" />
<glyph d="M127 360v648q0 16 16 16h119q16 0 17 -16v-623q0 -127 48 -194.5t169 -67.5h6q143 0 295 131v754q0 16 18 16h117q18 0 18 -16v-973q-2 -193 -110.5 -298.5t-302.5 -105.5h-11q-168 0 -333 74q-16 6 -17 27v92q213 -70 322 -70h10q289 0 289 283v104q-170 -145 -336 -145 h-15q-319 0 -319 364zM496 1198l149 320q10 18 29 18h100l-166 -338q-10 -16 -24 -16h-80z" />
<glyph d="M127 360v648q0 16 16 16h119q16 0 17 -16v-623q0 -127 48 -194.5t169 -67.5h6q143 0 295 131v754q0 16 18 16h117q18 0 18 -16v-973q-2 -193 -110.5 -298.5t-302.5 -105.5h-11q-168 0 -333 74q-16 6 -17 27v92q213 -70 322 -70h10q289 0 289 283v104q-170 -145 -336 -145 h-15q-319 0 -319 364zM299 1182l180 338q10 16 25 16h69q15 0 25 -16l190 -320q6 -8 3 -12l-103 -6q-18 0 -29 16l-120 236l-121 -236q-10 -16 -29 -16h-90z" />
<glyph d="M127 360v648q0 16 16 16h119q16 0 17 -16v-623q0 -127 48 -194.5t169 -67.5h6q143 0 295 131v754q0 16 18 16h117q18 0 18 -16v-973q-2 -193 -110.5 -298.5t-302.5 -105.5h-11q-168 0 -333 74q-16 6 -17 27v92q213 -70 322 -70h10q289 0 289 283v104q-170 -145 -336 -145 h-15q-319 0 -319 364zM299 1221v149q0 19 18 19h127q18 0 19 -19v-149q0 -18 -19 -19h-127q-18 0 -18 19zM614 1221v149q1 19 19 19h127q18 0 18 -19v-149q0 -18 -18 -19h-127q-18 0 -19 19z" />
<glyph d="M127 360v648q0 16 16 16h119q16 0 17 -16v-623q0 -127 48 -194.5t169 -67.5h6q143 0 295 131v754q0 16 18 16h117q18 0 18 -16v-973q-2 -193 -110.5 -298.5t-302.5 -105.5h-11q-168 0 -333 74q-16 6 -17 27v92q213 -70 322 -70h10q289 0 289 283v104q-170 -145 -336 -145 h-15q-319 0 -319 364zM299 1518q2 18 12 18h101q18 0 28 -18l150 -320l-88 -16q-14 0 -25 16z" />
<glyph horiz-adv-x="1003" d="M68 266v13q0 96 38.5 163.5t110.5 101.5t145.5 48t167.5 18l195 8v283h-563q-16 0 -17 17v90q1 16 17 16h698q16 0 17 -16v-992q0 -16 -17 -16h-106q-14 0 -17 14l-6 121q-147 -162 -334 -162h-10q-139 0 -229 78t-90 215zM221 285q0 -92 62.5 -140.5t156.5 -48.5h9 q143 1 276 146v276l-197 -6q-307 -8 -307 -217v-10z" />
<glyph horiz-adv-x="1003" d="M68 266v13q0 96 38.5 163.5t110.5 101.5t145.5 48t167.5 18l195 8v283h-563q-16 0 -17 17v90q1 16 17 16h698q16 0 17 -16v-992q0 -16 -17 -16h-106q-14 0 -17 14l-6 121q-94 -100 -215 -143q-61 -18 -119 -19h-10q-139 0 -229 78t-90 215zM221 285q0 -92 62.5 -140.5 t156.5 -48.5h9q143 1 276 146v276l-197 -6q-307 -8 -307 -217v-10zM457 1198l149 320q8 18 29 18h100l-166 -338q-10 -16 -26 -16h-78z" />
<glyph horiz-adv-x="1003" d="M68 266v13q0 96 38.5 163.5t110.5 101.5t145.5 48t167.5 18l195 8v283h-563q-16 0 -17 17v90q1 16 17 16h698q16 0 17 -16v-992q0 -16 -17 -16h-106q-14 0 -17 14l-6 121q-147 -162 -334 -162h-10q-139 0 -229 78t-90 215zM221 285q0 -92 62.5 -140.5t156.5 -48.5h9 q143 1 276 146v276l-197 -6q-307 -8 -307 -217v-10zM238 1288v74q0 10 6 14q2 2 6 2q2 0 10 -4q147 -78 252 -78t252 78q8 4 10 4q4 0 6 -2q6 -4 6 -14v-74q0 -18 -12 -26q-109 -80 -262.5 -80t-261.5 80q-12 8 -12 26z" />
<glyph horiz-adv-x="1003" d="M68 266v13q0 96 38.5 163.5t110.5 101.5t145.5 48t167.5 18l195 8v283h-563q-16 0 -17 17v90q1 16 17 16h698q16 0 17 -16v-992q0 -16 -17 -16h-106q-14 0 -17 14l-6 121q-94 -100 -215 -143q-61 -18 -119 -19h-10q-139 0 -229 78t-90 215zM221 285q0 -92 62.5 -140.5 t156.5 -48.5h9q143 1 276 146v276l-197 -6q-307 -8 -307 -217v-10zM258 1516q-2 8 0 14q4 6 12 6h90q20 0 29 -18l121 -236l119 236q10 18 28 18h91q10 0 12 -6t0 -14l-191 -318q-10 -16 -26 -16h-68q-16 0 -26 16z" />
<glyph horiz-adv-x="1003" d="M68 266v13q0 96 38.5 163.5t110.5 101.5t145.5 48t167.5 18l195 8v283h-563q-16 0 -17 17v90q1 16 17 16h698q16 0 17 -16v-992q0 -16 -17 -16h-106q-14 0 -17 14l-6 121q-147 -162 -334 -162h-10q-139 0 -229 78t-90 215zM221 285q0 -92 62.5 -140.5t156.5 -48.5h9 q143 1 276 146v276l-197 -6q-307 -8 -307 -217v-10zM268 1182l178 338q10 16 27 16h68q16 0 26 -16l191 -320l-103 -18q-18 0 -28 16l-119 236l-121 -236q-10 -16 -29 -16h-90z" />
<glyph horiz-adv-x="1003" d="M68 266v13q0 96 38.5 163.5t110.5 101.5t145.5 48t167.5 18l195 8v283h-563q-16 0 -17 17v90q1 16 17 16h698q16 0 17 -16v-992q0 -16 -17 -16h-106q-14 0 -17 14l-6 121q-94 -100 -215 -143q-61 -18 -119 -19h-10q-139 0 -229 78t-90 215zM221 285q0 -92 62.5 -140.5 t156.5 -48.5h9q143 1 276 146v276l-197 -6q-307 -8 -307 -217v-10zM262 1221v149q1 19 19 19h127q18 0 18 -19v-149q0 -18 -18 -19h-127q-18 0 -19 19zM578 1221v149q0 19 18 19h127q18 0 18 -19v-149q0 -18 -18 -19h-127q-18 0 -18 19z" />
<glyph horiz-adv-x="1003" d="M68 266v13q0 96 38.5 163.5t110.5 101.5t145.5 48t167.5 18l195 8v283h-563q-16 0 -17 17v90q1 16 17 16h698q16 0 17 -16v-992q0 -16 -17 -16h-106q-14 0 -17 14l-6 121q-147 -162 -334 -162h-10q-139 0 -229 78t-90 215zM221 285q0 -92 62.5 -140.5t156.5 -48.5h9 q143 1 276 146v276l-197 -6q-307 -8 -307 -217v-10zM262 1516q-2 6 2 14l111 6q18 0 28 -18l150 -320l-86 -16q-16 0 -27 16z" />
<glyph horiz-adv-x="1003" d="M68 266v13q0 96 38.5 163.5t110.5 101.5t145.5 48t167.5 18l195 8v283h-563q-16 0 -17 17v90q1 16 17 16h698q16 0 17 -16v-992q0 -16 -17 -16h-106q-14 0 -17 14l-6 121q-94 -100 -215 -143q-61 -18 -119 -19h-10q-139 0 -229 78t-90 215zM221 285q0 -92 62.5 -140.5 t156.5 -48.5h9q143 1 276 146v276l-197 -6q-307 -8 -307 -217v-10zM250 1219v81q0 17 16 17h498q16 0 16 -17v-81q0 -16 -16 -17h-498q-16 0 -16 17z" />
<glyph horiz-adv-x="1003" d="M68 266v13q0 96 38.5 163.5t110.5 101.5t145.5 48t167.5 18l195 8v283h-563q-16 0 -17 17v90q1 16 17 16h698q16 0 17 -16v-992q0 -16 -17 -16q-150 -125 -172 -184q-14 -29 -14 -64q0 -98 110 -98q29 0 60 8q16 4 16 -12v-47q0 -23 -20 -29q-35 -14 -86 -14 q-82 0 -131.5 44t-49.5 126q0 121 183 270h-2q-14 0 -17 14l-6 121q-147 -162 -334 -162h-10q-139 0 -229 78t-90 215zM221 285q0 -92 62.5 -140.5t156.5 -48.5h9q143 1 276 146v276l-197 -6q-307 -8 -307 -217v-10z" />
<glyph horiz-adv-x="1003" d="M68 266v13q0 96 38.5 163.5t110.5 101.5t145.5 48t167.5 18l195 8v283h-563q-16 0 -17 17v90q1 16 17 16h698q16 0 17 -16v-992q0 -16 -17 -16h-106q-14 0 -17 14l-6 121q-94 -100 -215 -143q-61 -18 -119 -19h-10q-139 0 -229 78t-90 215zM221 285q0 -92 62.5 -140.5 t156.5 -48.5h9q143 1 276 146v276l-197 -6q-307 -8 -307 -217v-10zM344 1323q0 70 50 118t120 48t119 -48t49 -118t-48 -119t-120 -49t-121 49t-49 119zM430 1323q0 -20 10 -41q8 -20 31 -33q18 -12 43 -12q39 0 59 27q23 27 23 59q0 18 -10 43q-8 18 -29 31q-20 10 -43 10 q-37 0 -60.5 -23.5t-23.5 -60.5z" />
<glyph horiz-adv-x="1003" d="M68 266v13q0 96 38.5 163.5t110.5 101.5t145.5 48t167.5 18l195 8v283h-563q-16 0 -17 17v90q1 16 17 16h698q16 0 17 -16v-992q0 -16 -17 -16h-106q-14 0 -17 14l-6 121q-147 -162 -334 -162h-10q-139 0 -229 78t-90 215zM221 285q0 -92 62.5 -140.5t156.5 -48.5h9 q143 1 276 146v276l-197 -6q-307 -8 -307 -217v-10zM225 1184q25 76 75 130t120 54h8q41 0 74 -22q14 -10 59 -46q29 -23 57 -22q55 0 103 72q8 14 24 14h50q18 0 12 -18q-25 -76 -75 -130.5t-120 -54.5h-8q-53 0 -100 45q-51 45 -90 45q-55 0 -103 -71q-8 -14 -22 -15h-51 q-18 0 -13 19z" />
<glyph horiz-adv-x="1687" d="M68 266v13q0 96 38.5 163.5t110.5 101.5t145.5 48t167.5 18l195 8v283h-563q-16 0 -17 17v90q0 16 17 16h645q18 0 18 -16v-138q109 181 332 181h23q201 0 300 -125t99 -332v-78q0 -23 -25 -22h-673v-91q0 -143 90 -224t233 -81h8q135 0 312 82l16 -102q0 -20 -16 -27 q-145 -78 -328 -78h-16q-238 0 -355 164v-121q0 -16 -18 -16h-53q-14 0 -17 14l-6 121q-147 -162 -334 -162h-10q-139 0 -229 78t-90 215zM221 285q0 -92 62.5 -140.5t156.5 -48.5h9q143 1 276 146v276l-197 -6q-307 -8 -307 -217v-10zM879 592h555q2 340 -260 340h-15 q-135 0 -205.5 -99.5t-74.5 -240.5z" />
<glyph horiz-adv-x="745" d="M47 918v90q0 16 19 16h131v469q0 16 16 16h467q16 0 16 -16v-90q0 -16 -16 -17h-332v-362h273q16 0 16 -16v-90q0 -16 -16 -17h-273v-885q0 -16 -16 -16h-119q-16 0 -16 16v885h-131q-18 0 -19 17z" />
<glyph horiz-adv-x="1101" d="M113 451v137q0 209 105.5 336t309.5 127h17q96 0 214.5 -34t196.5 -83q14 -8 15 -27v-1233q0 -16 -17 -16h-745q-16 0 -16 16v90q0 16 16 17h610v364q-139 -150 -317 -149h-13q-195 0 -285.5 126t-90.5 329zM268 453q0 -330 260 -330h7q152 0 284 145v574 q-145 84 -274 84h-8q-139 0 -204 -91.5t-65 -236.5v-145z" />
<glyph horiz-adv-x="1101" d="M113 451v137q0 209 105.5 336t309.5 127h17q96 0 214.5 -34t196.5 -83q14 -8 15 -27v-1233q0 -16 -17 -16h-745q-16 0 -16 16v90q0 16 16 17h610v364q-139 -150 -317 -149h-13q-195 0 -285.5 126t-90.5 329zM268 453q0 -330 260 -330h7q152 0 284 145v574 q-145 84 -274 84h-8q-139 0 -204 -91.5t-65 -236.5v-145zM276 1288v74q0 12 9 14q0 2 4 2q2 0 10 -4q147 -78 252 -78t252 78q8 4 10 4q4 0 6 -2q6 -4 6 -14v-74q0 -18 -12 -26q-109 -80 -262.5 -80t-261.5 80q-12 8 -13 26z" />
<glyph horiz-adv-x="1101" d="M113 451v137q0 209 105.5 336t309.5 127h17q96 0 214.5 -34t196.5 -83q14 -8 15 -27v-1233q0 -16 -17 -16h-745q-16 0 -16 16v90q0 16 16 17h610v364q-139 -150 -317 -149h-13q-195 0 -285.5 128t-90.5 327zM268 453q0 -330 260 -330h7q152 0 284 145v574 q-145 84 -274 84h-8q-139 0 -204 -91.5t-65 -236.5v-145zM451 1200v109q0 20 6 32l84 226q6 14 20 14h76q10 0 12 -6l-84 -232h51q18 0 19 -18v-125q-1 -18 -19 -18h-147q-18 0 -18 18z" />
<glyph horiz-adv-x="1101" d="M113 451v137q0 209 105.5 336t309.5 127h17q96 0 214.5 -34t196.5 -83q14 -8 15 -27v-1233q0 -16 -17 -16h-745q-16 0 -16 16v90q0 16 16 17h610v364q-139 -150 -317 -149h-13q-195 0 -285.5 128t-90.5 327zM268 453q0 -330 260 -330h7q152 0 284 145v574 q-145 84 -274 84h-8q-139 0 -204 -91.5t-65 -236.5v-145zM494 1221v149q0 19 18 19h143q18 0 19 -19v-149q0 -18 -19 -19h-143q-18 0 -18 19z" />
<glyph horiz-adv-x="718" d="M131 16v992q0 16 16 16h506q16 0 17 -16v-90q0 -16 -17 -17h-370v-885q0 -16 -17 -16h-119q-16 0 -16 16z" />
<glyph horiz-adv-x="718" d="M131 16v992q0 16 16 16h506q16 0 17 -16v-90q0 -16 -17 -17h-370v-885q0 -16 -17 -16h-119q-16 0 -16 16zM344 1198l150 320q10 18 28 18h101l-166 -338q-10 -16 -27 -16h-78z" />
<glyph horiz-adv-x="718" d="M109 1518q2 18 12 18h90q18 0 29 -18l120 -236l119 236q9 18 29 18h90q8 0 12 -6l-190 -332q-10 -16 -27 -16h-67q-16 0 -27 16zM131 16v992q0 16 16 16h506q16 0 17 -16v-90q0 -16 -17 -17h-370v-885q0 -16 -17 -16h-119q-16 0 -16 16z" />
<glyph horiz-adv-x="718" d="M117 -496l84 232h-51q-18 0 -19 16v127q1 19 19 19h147q18 0 18 -19v-108q0 -25 -6 -33l-84 -225q-8 -14 -20 -15h-76q-10 0 -12 6zM131 16v992q0 16 16 16h506q16 0 17 -16v-90q0 -16 -17 -17h-370v-885q0 -16 -17 -16h-119q-16 0 -16 16z" />
<glyph horiz-adv-x="690" d="M47 918v90q0 16 19 16h124v199q1 22 19 26l110 27q2 0 5 2h4q16 0 16 -21v-233h283q16 0 16 -16v-90q0 -16 -16 -17h-283v-778h283q16 0 16 -17v-90q0 -16 -16 -16h-420q-16 0 -17 16v885h-124q-18 0 -19 17z" />
<glyph horiz-adv-x="690" d="M47 584v80q0 18 19 18h124v219h-124q-18 0 -19 17v90q0 16 19 16h124v199q0 23 19 26l110 27q2 0 5 2h4q16 0 16 -21v-233h283q16 0 16 -16v-90q0 -17 -16 -17h-283v-219h283q16 0 16 -18v-80q0 -18 -16 -19l-283 2v-444h283q16 0 16 -17v-90q0 -16 -16 -16h-420 q-16 0 -17 16v551h-124q-18 0 -19 17z" />
<glyph horiz-adv-x="948" d="M47 918v90q0 16 19 16h124v199q1 22 19 26l110 27q2 0 5 2h4q16 0 16 -21v-233h283q16 0 16 -16v-90q0 -16 -16 -17h-283v-778h283q16 0 16 -17v-90q0 -16 -16 -16h-420q-16 0 -17 16v885h-124q-18 0 -19 17zM700 1118l84 228h-51q-18 0 -18 18v127q0 18 18 18h148 q18 0 18 -18v-109q0 -18 -4 -34l-86 -224q-6 -14 -21 -14h-75q-10 0 -13 8z" />
<glyph horiz-adv-x="690" d="M47 918v90q0 16 19 16h124v199q0 23 19 26l110 27q2 0 5 2h4q16 0 16 -21v-233h283q16 0 16 -16v-90q0 -17 -16 -17h-283v-778h283q16 0 16 -17v-90q0 -16 -16 -16h-230l-20 -121q25 8 59 8q72 0 118 -42t46 -113q0 -86 -58.5 -129t-148.5 -43q-152 0 -151 53v31 q0 12 14 12q84 -20 121 -21q123 0 123 89q0 39 -25 61q-27 20 -72 20q-27 0 -81 -14q-14 0 -23 4l-8 4q-12 12 -10 23l32 178h-106q-16 0 -17 16v885h-124q-18 0 -19 17z" />
<glyph horiz-adv-x="690" d="M47 918v90q0 16 19 16h124v199q1 22 19 26l110 27q2 0 5 2h4q16 0 16 -21v-233h283q16 0 16 -16v-90q0 -16 -16 -17h-283v-778h283q16 0 16 -17v-90q0 -16 -16 -16h-420q-16 0 -17 16v885h-124q-18 0 -19 17zM313 -496l82 230h-51q-18 0 -18 18v127q0 19 18 19h150 q18 0 18 -19v-108q0 -23 -6 -35l-86 -223q-6 -14 -21 -15h-73q-10 0 -13 6z" />
<glyph d="M127 360v648q0 16 16 16h119q16 0 17 -16v-623q0 -127 48 -194.5t169 -67.5h6q143 0 295 131v754q0 16 18 16h117q18 0 18 -16v-1334q0 -16 -18 -16h-746q-16 0 -16 16v90q0 16 16 17h611v360q-170 -145 -336 -145h-15q-319 0 -319 364z" />
<glyph d="M127 360v648q0 16 16 16h119q16 0 17 -16v-623q0 -127 48 -194.5t169 -67.5h6q143 0 295 131v754q0 16 18 16h117q18 0 18 -16v-1334q0 -16 -18 -16h-746q-16 0 -16 16v90q0 16 16 17h611v360q-170 -145 -336 -145h-15q-319 0 -319 364zM498 1198l147 320q10 18 29 18 h102l-166 -338q-10 -16 -26 -16h-78z" />
<glyph d="M127 360v648q0 16 16 16h119q16 0 17 -16v-623q0 -127 48 -194.5t169 -67.5h6q143 0 295 131v754q0 16 18 16h117q18 0 18 -16v-1334q0 -16 -18 -16h-746q-16 0 -16 16v90q0 16 16 17h611v360q-170 -145 -336 -145h-15q-319 0 -319 364zM299 1182l180 338q10 16 25 16h69 q15 0 25 -16l190 -320q6 -8 3 -12l-103 -6q-18 0 -29 16l-120 236l-121 -236q-10 -16 -29 -16h-90z" />
<glyph d="M127 360v648q0 16 16 16h119q16 0 17 -16v-623q0 -127 48 -194.5t169 -67.5h6q143 0 295 131v754q0 16 18 16h117q18 0 18 -16v-1334q0 -16 -18 -16h-746q-16 0 -16 16v90q0 16 16 17h611v360q-170 -145 -336 -145h-15q-319 0 -319 364zM299 1221v149q0 19 18 19h127 q18 0 19 -19v-149q0 -18 -19 -19h-127q-18 0 -18 19zM614 1221v149q1 19 19 19h127q18 0 18 -19v-149q0 -18 -18 -19h-127q-18 0 -19 19z" />
<glyph d="M127 360v648q0 16 16 16h119q16 0 17 -16v-623q0 -127 48 -194.5t169 -67.5h6q143 0 295 131v754q0 16 18 16h117q18 0 18 -16v-1334q0 -16 -18 -16h-746q-16 0 -16 16v90q0 16 16 17h611v360q-170 -145 -336 -145h-15q-319 0 -319 364zM295 1516q-2 8 0 14l113 6 q18 0 28 -18l148 -320l-86 -16q-16 0 -27 16z" />
<glyph horiz-adv-x="1101" d="M113 428v160q0 207 106.5 335t308.5 128h17q100 0 223 -35q205 -60 205 -109v-891q0 -16 -19 -16h-104q-14 0 -16 14l-9 119q-61 -70 -150 -115t-177 -45h-9q-195 0 -285.5 128t-90.5 327zM268 430q0 -330 262 -330h7q149 1 282 146v596q-145 84 -274 84h-8 q-139 0 -204 -93.5t-65 -236.5v-166z" />
<glyph d="M127 360v648q0 16 16 16h119q16 0 17 -16v-623q0 -127 48 -194.5t169 -67.5h6q143 0 295 131v754q0 16 18 16h117q18 0 18 -16v-973q-2 -193 -110.5 -298.5t-302.5 -105.5h-11q-168 0 -333 74q-16 6 -17 27v92q213 -70 322 -70h10q289 0 289 283v104q-170 -145 -336 -145 h-15q-319 0 -319 364z" />
<glyph d="M127 360v648q0 16 16 16h119q16 0 17 -16v-623q0 -127 48 -194.5t169 -67.5h6q143 0 295 131v754q0 16 18 16h117q18 0 18 -16v-973q-2 -193 -110.5 -298.5t-302.5 -105.5h-11q-168 0 -333 74q-16 6 -17 27v92q213 -70 322 -70h10q289 0 289 283v104q-170 -145 -336 -145 h-15q-319 0 -319 364zM258 1288v74q0 12 8 14q0 2 4 2q2 0 11 -4q147 -78 251 -78q115 0 252 78q8 4 11 4q4 0 6 -2q6 -4 6 -14v-74q0 -18 -12 -26q-104 -80 -260 -80q-160 0 -265 80q-12 8 -12 26z" />
<glyph horiz-adv-x="1003" d="M68 266v13q0 96 38.5 163.5t110.5 101.5t145.5 48t167.5 18l195 8v283h-563q-16 0 -17 17v90q1 16 17 16h698q16 0 17 -16v-992q0 -16 -17 -16h-106q-14 0 -17 14l-6 121q-147 -162 -334 -162h-10q-139 0 -229 78t-90 215zM221 285q0 -92 62.5 -140.5t156.5 -48.5h9 q143 1 276 146v276l-197 -6q-307 -8 -307 -217v-10z" />
<glyph horiz-adv-x="1097" d="M113 436v1057q0 16 18 16h750q16 0 16 -16v-90q0 -16 -16 -17h-613v-514q134 148 318 148h12q197 0 291 -126t94 -327v-131q0 -205 -111.5 -334t-312.5 -129h-22q-205 0 -314.5 128t-109.5 335zM268 430q0 -145 66.5 -237.5t206.5 -92.5h14q139 0 206.5 94.5t67.5 235.5 v135q0 147 -64.5 237.5t-205.5 90.5h-6q-154 0 -285 -143v-320z" />
<glyph horiz-adv-x="1634" d="M131 16v992q0 16 16 16h1340q16 0 16 -16v-992q0 -16 -16 -16h-119q-16 0 -16 16v885h-459v-885q0 -16 -16 -16h-119q-16 0 -17 16v885h-458v-885q0 -16 -17 -16h-119q-16 0 -16 16z" />
<glyph d="M127 360v648q0 16 16 16h119q16 0 17 -16v-623q0 -127 48 -194.5t169 -67.5h6q143 0 295 131v754q0 16 18 16h117q18 0 18 -16v-1334q0 -16 -18 -16h-746q-16 0 -16 16v90q0 16 16 17h611v360q-170 -145 -336 -145h-15q-319 0 -319 364z" />
<glyph d="M127 360v648q0 16 16 16h119q16 0 17 -16v-623q0 -127 48 -194.5t169 -67.5h6q143 0 295 131v754q0 16 18 16h117q18 0 18 -16v-1334q0 -16 -18 -16h-746q-16 0 -16 16v90q0 16 16 17h611v360q-170 -145 -336 -145h-15q-319 0 -319 364zM258 1288v74q0 12 8 14q0 2 4 2 q2 0 11 -4q147 -78 251 -78q115 0 252 78q8 4 11 4q4 0 6 -2q6 -4 6 -14v-74q0 -18 -12 -26q-104 -80 -260 -80q-160 0 -265 80q-12 8 -12 26z" />
<glyph horiz-adv-x="1216" d="M141 438v148q0 211 122 338t333 127h22q211 0 334 -127t123 -338v-148q0 -211 -123 -338t-334 -127h-22q-211 0 -333 127t-122 338zM299 442q0 -147 78 -237t223 -90h16q145 0 223.5 90t78.5 237v140q0 211 -144 292q-70 35 -158 35h-16q-145 0 -223 -89t-78 -238v-140z " />
<glyph horiz-adv-x="821" d="M68 16v107q0 18 18 18h256v709l-256 -98l-4 -2h-4q-10 0 -10 14v117q0 18 18 24l291 113q16 6 35 6h71q17 0 17 -16v-867h235q18 0 19 -18v-107q0 -16 -19 -16h-649q-18 0 -18 16z" />
<glyph horiz-adv-x="1122" d="M109 16v52q0 14 16 26l278 176q211 131 302 222q86 86 86 190v10q0 109 -74 165t-187 56h-12q-129 0 -321 -86l-19 115q0 20 19 29q150 80 329 80h19q170 0 287.5 -82t117.5 -244v-18q0 -76 -33.5 -145.5t-97 -128t-119 -98.5t-131.5 -85l-180 -109h606q16 0 17 -18v-107 q0 -16 -17 -16h-868q-18 0 -18 16z" />
<glyph horiz-adv-x="1077" d="M109 942q0 20 18 29q141 80 350 80h17q190 0 320 -93.5t130 -275.5v-35q0 -102 -60.5 -183t-158.5 -124q125 -37 195.5 -126t70.5 -218v-35q0 -193 -144.5 -295t-342.5 -102h-17q-129 0 -270 43q-53 18 -86 37q-16 10 -16 28v109q51 -10 120.5 -32.5t71.5 -22.5 q74 -20 174 -21h15q137 0 235 72.5t98 206.5v14q0 133 -94 200.5t-231 67.5h-189q-18 0 -18 17v88q0 16 18 16h154q129 0 222 65.5t93 186.5v18q0 121 -87 186.5t-212 65.5h-14q-147 0 -342 -86q-2 -2 -8 -2q-4 0 -6 2z" />
<glyph horiz-adv-x="1239" d="M68 -16v88q0 29 14 49l610 885q12 18 37 18h172q18 0 19 -16v-902h235q16 0 16 -16v-106q0 -16 -16 -17h-235v-360q0 -16 -19 -17h-125q-16 0 -16 17v360h-674q-18 0 -18 17zM238 106h522v750z" />
<glyph horiz-adv-x="1083" d="M109 -219q8 12 12 12q6 0 8 -2q188 -86 350 -86h15q147 0 245.5 80t98.5 225v10q0 152 -89.5 230t-242.5 78q-66 0 -158 -19q-45 -12 -139 -33q-20 0 -29 9l-14 14q-12 8 -12 27v682q0 16 18 16h715q16 0 16 -16v-107q0 -18 -16 -18h-576v-473q182 41 256 41 q201 0 316.5 -112t115.5 -312v-33q0 -201 -144 -315.5t-351 -114.5h-19q-215 0 -358 80q-18 8 -18 28v109z" />
<glyph horiz-adv-x="1193" d="M141 580v34q0 147 23.5 281.5t78 268.5t166 215t267.5 81h16q168 0 316 -80q18 -8 18 -28v-109q-72 14 -123 37q-84 39 -201 39h-12q-106 0 -182 -52.5t-116 -141.5t-59.5 -176t-25.5 -189q195 110 379 110q195 0 308.5 -109.5t113.5 -301.5v-31q0 -203 -131 -329 t-336 -126h-16q-127 0 -222.5 50.5t-151.5 137.5t-83 192.5t-27 226.5zM303 543q0 -152 39 -232q74 -197 281 -196h12q143 0 227 93t84 238v11q0 139 -77.5 215t-219.5 76q-158 0 -346 -109v-96z" />
<glyph horiz-adv-x="1073" d="M68 901v107q0 16 18 16h903q16 0 17 -16v-97q0 -14 -9 -24l-460 -635q-8 -14 -9 -29v-616q0 -16 -18 -17h-125q-16 0 -16 17v647q0 31 16 53l428 576h-727q-18 0 -18 18z" />
<glyph horiz-adv-x="1202" d="M86 371v32q0 127 73.5 217.5t196.5 127.5q-98 41 -159.5 123.5t-61.5 183.5v35q0 178 134.5 274t320.5 96h22q188 0 321.5 -95t133.5 -275v-35q0 -102 -61.5 -183t-159.5 -122q123 -37 197.5 -128.5t74.5 -218.5v-32q0 -131 -76.5 -224.5t-186.5 -133.5t-239 -40h-30 q-203 0 -351.5 102.5t-148.5 295.5zM248 391q0 -135 98 -205.5t240 -70.5h32q139 0 237.5 70.5t98.5 205.5v15q0 135 -92 202.5t-229 67.5h-64q-137 0 -229 -69.5t-92 -200.5v-15zM293 1051q0 -117 84 -183.5t205 -66.5h32q123 0 209 65.5t86 184.5v18q0 123 -85 187.5 t-212 64.5h-20q-125 0 -212 -66.5t-87 -185.5v-18z" />
<glyph horiz-adv-x="1193" d="M86 565v31q0 201 133 328t334 127h16q127 0 222.5 -50.5t151.5 -137.5t83 -192.5t27 -226.5v-34q0 -147 -23.5 -281.5t-78 -268.5t-166 -215t-267.5 -81h-16q-168 0 -316 80q-18 8 -18 28v109q63 -12 123 -37q88 -39 201 -39h12q106 0 182 52.5t116 141.5t59.5 176 t25.5 189q-195 -111 -379 -110q-195 0 -308.5 110.5t-113.5 300.5zM248 567q0 -139 79 -215t218 -76q158 0 346 109v96q0 180 -76 304t-244 124h-12q-145 0 -228 -92t-83 -239v-11z" />
<glyph horiz-adv-x="1343" d="M141 582v270q0 266 130 437t386 171h31q258 0 387 -173t129 -435v-270q0 -295 -143 -451q-145 -158 -373 -158h-31q-227 0 -372 158q-143 156 -144 451zM303 578q0 -213 82 -332l487 1024q-80 49 -188 49h-22q-188 0 -273.5 -131t-85.5 -332v-278zM471 164 q80 -49 191 -49h22q190 0 274 130t84 333v278q0 211 -84 332z" />
<glyph horiz-adv-x="1216" d="M141 438v148q0 211 122 338t333 127h22q211 0 334 -127t123 -338v-148q0 -211 -123 -338t-334 -127h-22q-211 0 -333 127t-122 338zM299 442q0 -178 104 -264l338 711q-53 20 -125 20h-16q-145 0 -223 -88.5t-78 -238.5v-140zM473 135q55 -20 127 -20h16q145 0 223.5 90 t78.5 237v140q0 178 -107 266z" />
<glyph horiz-adv-x="847" d="M68 348v76q0 164 91 269.5t251 105.5h28q160 0 251 -105.5t91 -269.5v-76q0 -166 -91 -270.5t-251 -104.5h-28q-160 0 -251 105.5t-91 269.5zM197 348q0 -113 55 -187.5t164 -74.5h16q109 0 164 75t55 187v76q0 113 -55 187.5t-164 74.5h-16q-109 0 -164 -74.5 t-55 -187.5v-76z" />
<glyph horiz-adv-x="618" d="M68 16v80q0 16 18 17h172v526l-172 -66h-6q-12 0 -12 13v76q0 23 18 24l205 80q16 6 35 6h39q16 0 16 -16v-643h154q16 0 16 -17v-80q0 -16 -16 -16h-449q-18 0 -18 16z" />
<glyph horiz-adv-x="692" d="M68 16v70q0 12 10 23l135 112q10 10 20 19q98 88 129 118q106 102 107 183v8q0 66 -43 104q-47 37 -107 37h-12q-74 0 -196 -55q-16 0 -19 12v76q0 20 19 27q104 49 208 49h15q113 0 187.5 -61.5t74.5 -170.5v-16q0 -59 -33 -119q-23 -33 -24 -35q-12 -20 -31 -39 q-8 -8 -18.5 -19t-14.5 -15q-23 -23 -39 -37q-18 -16 -41 -39q-6 -6 -21.5 -19.5t-23.5 -19.5q-10 -8 -25.5 -21.5t-21.5 -19.5l-61 -55h364q18 0 19 -17v-80q0 -16 -19 -16h-520q-18 0 -18 16z" />
<glyph horiz-adv-x="673" d="M68 49v72q180 -43 223 -43h10q72 0 125 36t53 103v8q0 61 -44 92t-105 31h-119q-16 0 -16 17v59q0 16 16 16h102q59 0 104.5 32t45.5 87v6q0 61 -46 95t-112 34h-6q-72 0 -203 -53l-16 82q0 20 16 27q111 49 211 49h8q109 0 191 -56.5t82 -160.5v-15q0 -109 -111 -168 q76 -31 113 -102q16 -39 16 -82v-16q0 -111 -88 -168.5t-205 -57.5h-14q-102 0 -213 50q-18 6 -18 26z" />
<glyph horiz-adv-x="817" d="M68 211v59q0 16 8 27l323 455q14 20 39 20h123q17 0 17 -16v-457h153q16 0 17 -16v-72q0 -18 -17 -18h-153v-177q0 -16 -17 -16h-90q-16 0 -16 16v177h-369q-18 0 -18 18zM190 299h265v369z" />
<glyph horiz-adv-x="679" d="M68 49v70q180 -43 231 -43h10q72 0 123 40t51 109v11q0 72 -42 108.5t-115 36.5q-59 0 -166 -31q-2 0 -6 -1t-7 -1q-8 0 -18 6l-16 11q-16 12 -17 28v363q1 16 17 16h426q16 0 16 -16v-74q0 -16 -16 -16h-328v-228q102 31 158 31q111 0 176 -60.5t65 -170.5v-19 q0 -117 -85 -181.5t-206 -64.5h-12q-111 0 -221 50q-18 6 -18 26z" />
<glyph horiz-adv-x="714" d="M68 342v18q0 174 80.5 306.5t244.5 132.5h10q43 0 118 -20.5t75 -53.5v-74q-156 41 -186 41h-11q-72 0 -119 -47t-65 -106.5t-22 -130.5q109 61 206 61q113 0 179.5 -58.5t66.5 -168.5v-17q0 -113 -79 -182.5t-193 -69.5h-13q-152 0 -222 105.5t-70 263.5zM190 291 q0 -106 52 -164q39 -51 112 -51h11q70 0 111.5 43t41.5 112v11q0 53 -33 98q-14 18 -43 31q-30 10 -67 10q-90 0 -185 -64v-26z" />
<glyph horiz-adv-x="540" d="M68 676v80q0 16 18 16h512q18 0 18 -16v-56q0 -16 -14 -36l-248 -330q-10 -16 -10 -31v-287q0 -16 -16 -16h-92q-16 0 -17 16v306q0 14 10 30l238 307h-381q-18 0 -18 17z" />
<glyph horiz-adv-x="733" d="M68 193v16q0 137 139 192q-117 57 -117 170v13q0 102 82 158.5t188 56.5h13q109 0 189.5 -56.5t80.5 -158.5v-13q0 -111 -115 -170q137 -57 138 -192v-16q0 -106 -87 -163t-200 -57h-25q-111 0 -198.5 57.5t-87.5 162.5zM190 209q0 -63 48 -98q43 -37 122 -37h13 q70 0 120 34.5t50 100.5v8q0 59 -46 94t-108 35h-45q-61 0 -107.5 -35t-46.5 -94v-8zM205 563q0 -55 48 -88t103 -33h21q59 0 105 33t46 88v4q0 63 -46 97t-111 34h-9q-63 0 -110 -35t-47 -96v-4z" />
<glyph horiz-adv-x="714" d="M68 530v17q0 111 80.5 181.5t193.5 70.5h12q156 0 223.5 -104.5t67.5 -264.5v-18q0 -80 -17.5 -155t-53 -140.5t-101 -104.5t-151.5 -39h-11q-43 0 -117.5 20.5t-74.5 53.5v74q156 -41 186 -41h8q104 0 152.5 85t56.5 200q-109 -61 -207 -62q-111 0 -179 59.5t-68 167.5z M195 530q0 -66 38.5 -102.5t106.5 -36.5q92 0 182 64v26q0 68 -22 123q-47 92 -140 92h-10q-68 0 -111.5 -44t-43.5 -111v-11z" />
<glyph horiz-adv-x="847" d="M68 1010v75q0 164 91 269.5t251 105.5h28q160 0 251 -105.5t91 -269.5v-75q0 -164 -91 -269.5t-251 -105.5h-28q-160 0 -251 105.5t-91 269.5zM197 1010q0 -113 55 -187.5t164 -74.5h16q109 0 164 74.5t55 187.5v75q0 113 -55 188t-164 75h-16q-109 0 -164 -75t-55 -188 v-75z" />
<glyph horiz-adv-x="618" d="M68 678v80q0 16 18 16h172v526l-172 -65h-6q-12 0 -12 12v76q0 20 18 25l205 79q14 6 35 7h39q16 -1 16 -17v-643h154q16 0 16 -16v-80q0 -16 -16 -16h-449q-18 0 -18 16z" />
<glyph horiz-adv-x="692" d="M68 678v70q0 12 10 22l135 113q10 10 20 18q98 88 129 119q106 102 107 182v8q0 63 -43 105q-47 37 -107 37h-12q-74 0 -196 -56l-19 88q0 20 19 27q104 49 208 49h15q113 0 187.5 -61.5t74.5 -169.5v-17q0 -47 -18 -90q-16 -29 -23 -39q-10 -18 -31 -43q-18 -23 -32 -39 l-43 -43q-29 -27 -46 -38q-4 -4 -49 -46q-37 -31 -51 -45l-61 -55h364q18 0 19 -16v-80q0 -16 -19 -16h-520q-18 0 -18 16z" />
<glyph horiz-adv-x="673" d="M68 711v71q180 -43 223 -43h10q72 0 125 36t53 104v8q0 61 -44 92t-105 31h-119q-16 0 -16 16v59q0 16 16 17h102q39 0 70 12q51 16 72 68q8 16 8 39v6q0 61 -46 95t-112 34h-6q-72 0 -203 -53q-12 -4 -16 10v71q0 20 16 27q111 49 211 49h8q109 0 191 -56t82 -161v-14 q0 -111 -111 -170q129 -47 129 -182v-17q0 -109 -89 -167t-204 -58h-14q-102 0 -213 49q-18 6 -18 27z" />
<glyph horiz-adv-x="817" d="M68 872v60q0 16 8 26l323 455q14 20 39 21h123q17 -1 17 -17v-456h153q16 0 17 -17v-72q0 -18 -17 -18h-153v-176q0 -16 -17 -16h-90q-16 0 -16 16v176h-369q-18 0 -18 18zM190 961h265v366z" />
<glyph horiz-adv-x="679" d="M68 711v69q180 -43 231 -43h10q72 0 123 40t51 110v10q0 72 -43 108.5t-114 36.5q-59 0 -166 -30q-2 0 -6 -1t-7 -1q-8 0 -18 6l-16 10q-16 12 -17 29v362q1 17 17 17h426q16 0 16 -17v-74q0 -16 -16 -16h-328v-227q100 31 158 30q111 0 176 -60t65 -171v-18 q0 -117 -86 -181.5t-205 -64.5h-12q-111 0 -221 49q-18 6 -18 27z" />
<glyph horiz-adv-x="714" d="M68 1004v18q0 174 80.5 306t244.5 132h10q43 0 118 -20.5t75 -53.5v-73q-156 41 -186 41h-11q-102 0 -150 -85t-56 -200q104 61 206 61q113 0 179.5 -58t66.5 -169v-16q0 -113 -79 -182.5t-193 -69.5h-13q-152 0 -222 105.5t-70 263.5zM190 952q0 -86 42 -150.5 t122 -64.5h11q70 0 111.5 43t41.5 113v10q0 68 -37.5 103.5t-105.5 35.5q-90 0 -185 -63v-27z" />
<glyph horiz-adv-x="540" d="M68 1337v80q0 17 18 17h512q18 0 18 -17v-55q0 -16 -14 -37l-248 -330q-10 -16 -10 -30v-287q0 -16 -16 -16h-92q-16 0 -17 16v305q0 14 10 31l238 307h-381q-18 0 -18 16z" />
<glyph horiz-adv-x="733" d="M68 854v16q0 131 137 191q-115 61 -115 172v12q0 102 82 158.5t188 56.5h13q106 0 188 -56t82 -159v-12q0 -111 -115 -170q61 -23 99.5 -75t38.5 -118v-16q0 -106 -87 -162.5t-200 -56.5h-25q-113 0 -199.5 57.5t-86.5 161.5zM190 870q0 -66 51.5 -100.5t118.5 -34.5h13 q70 0 120 34.5t50 100.5v9q0 59 -46 94t-108 35h-45q-61 0 -107.5 -35t-46.5 -94v-9zM205 1225q0 -55 48 -88t103 -33h21q59 0 105 32.5t46 88.5v4q0 63 -47 97t-110 34h-9q-63 0 -110 -35t-47 -96v-4z" />
<glyph horiz-adv-x="714" d="M68 1192v16q0 111 80.5 181.5t193.5 70.5h12q156 0 223.5 -104.5t67.5 -263.5v-19q0 -80 -17.5 -154.5t-53 -140t-101 -104.5t-151.5 -39h-11q-43 0 -117.5 20.5t-74.5 53.5v73q156 -41 186 -41h8q104 0 152.5 85t56.5 200q-109 -61 -207 -61q-111 0 -179 59t-68 168z M195 1192q0 -66 38.5 -102.5t106.5 -36.5q92 0 182 63v27q0 68 -22 123q-47 92 -140 92h-10q-68 0 -111.5 -44t-43.5 -112v-10z" />
<glyph horiz-adv-x="847" d="M68 348v76q0 164 91 269.5t251 105.5h28q160 0 251 -105.5t91 -269.5v-76q0 -166 -91 -270.5t-251 -104.5h-28q-160 0 -251 105.5t-91 269.5zM197 348q0 -135 73 -207l250 529q-43 16 -88 16h-16q-109 0 -164 -74.5t-55 -187.5v-76zM328 104q41 -18 88 -18h16 q109 0 164 74.5t55 187.5v76q0 137 -73 209z" />
<glyph horiz-adv-x="847" d="M68 1010v75q0 164 91 269.5t251 105.5h28q160 0 251 -105.5t91 -269.5v-75q0 -164 -91 -269.5t-251 -105.5h-28q-160 0 -251 105.5t-91 269.5zM197 1010q0 -137 73 -207l250 528q-43 16 -88 17h-16q-109 0 -164 -75t-55 -188v-75zM328 766q41 -18 88 -18h16 q109 0 164 74.5t55 187.5v75q0 139 -73 209z" />
<glyph horiz-adv-x="1234" d="M172 16v1401q0 16 16 17h150v270q0 16 18 16h84q18 0 19 -16v-270h211v270q0 16 18 16h84q18 0 19 -16v-279q311 -49 311 -344v-28q0 -102 -56.5 -182t-152.5 -121q125 -39 191.5 -130.5t66.5 -222.5v-30q0 -324 -360 -363v-274q0 -16 -19 -17h-84q-18 0 -18 17v270h-211 v-270q0 -16 -19 -17h-84q-18 0 -18 17v270h-150q-16 0 -16 16zM330 141h364q295 0 295 250v12q0 272 -317 273h-342v-535zM330 797h307q131 0 219 61.5t88 188.5v6q0 133 -78 186t-217 53h-319v-495z" />
</font>
</defs>
</svg>
