<?xml version="1.0" standalone="no"?>
<!DOCTYPE svg PUBLIC "-//W3C//DTD SVG 1.1//EN" "http://www.w3.org/Graphics/SVG/1.1/DTD/svg11.dtd" >
<svg xmlns="http://www.w3.org/2000/svg" xmlns:xlink="http://www.w3.org/1999/xlink" version="1.1">
<metadata></metadata>
<defs>
<font id="webnarbold" horiz-adv-x="1064" >
<font-face units-per-em="2048" ascent="1651" descent="-397" />
<missing-glyph horiz-adv-x="440" />
<glyph unicode="&#xd;" horiz-adv-x="681" />
<glyph unicode=" "  horiz-adv-x="440" />
<glyph unicode="&#x09;" horiz-adv-x="440" />
<glyph unicode="&#xa0;" horiz-adv-x="440" />
<glyph unicode="!" horiz-adv-x="421" d="M51 1407q0 6 4 14q13 13 23 13h266q12 0 21 -7q8 -8 6 -20l-47 -905q-2 -27 -27 -27h-172q-25 0 -27 27zM55 27v254q0 28 27 28h258q27 0 27 -28v-254q0 -27 -27 -27h-258q-27 0 -27 27z" />
<glyph unicode="&#x22;" horiz-adv-x="856" d="M49 1407q-2 12 6 20q11 7 21 7h264q12 0 20 -7q8 -8 9 -20l-47 -469q-2 -27 -27 -27h-172q-27 0 -29 27zM489 1407q-2 12 7 20q8 7 20 7h264q14 0 23 -7q6 -10 6 -20l-47 -469q-2 -27 -27 -27h-172q-27 0 -28 27z" />
<glyph unicode="#" horiz-adv-x="1273" d="M49 469l33 125q12 39 51 39h158l45 168h-160q-12 0 -22 12q-10 10 -7 27l33 125q8 39 51 39h158l105 397q6 33 41 33h153q14 0 25 -11q8 -10 4 -28l-105 -391h199l104 397q6 33 41 33h156q12 0 23 -11q8 -10 4 -28l-103 -391h160q14 0 25 -11q8 -10 4 -28l-33 -125 q-12 -39 -51 -39h-158l-43 -168h158q14 0 24 -10q8 -10 4 -29l-32 -125q-8 -39 -50 -39h-157l-105 -397q-8 -33 -43 -33h-151q-18 0 -27 12q-8 8 -4 27l105 391h-199l-105 -397q-8 -33 -41 -33h-153q-16 0 -25 12q-8 8 -4 27l103 391h-160q-12 0 -23 12q-8 12 -6 27z M516 633h199l43 168h-197z" />
<glyph unicode="$" horiz-adv-x="1155" d="M90 1012v22q0 168 101.5 276.5t269.5 139.5v244q0 27 28 26h168q27 0 27 -26v-238q170 -16 256 -55q25 -8 25 -41v-227q0 -12 -11 -17q-8 -4 -12 -4q-6 0 -10 2q-43 14 -90 31q-100 29 -158 37q-49 4 -78 4h-10q-74 0 -128 -35t-54 -107v-8q0 -55 39 -82q39 -30 133 -63 l80 -27q195 -66 297 -164t102 -280v-17q0 -172 -103.5 -279.5t-277.5 -139.5v-244q0 -27 -27 -27h-168q-29 0 -28 27v237q-207 23 -318 74q-25 12 -24 43v225q0 12 10 19q4 4 8 4t13 -4q168 -57 227 -72q68 -18 147 -18h11q63 0 110 18q45 14 70 49q23 35 22 78v6 q0 63 -41 95q-45 33 -147 65l-76 27q-383 123 -383 426z" />
<glyph unicode="%" horiz-adv-x="2019" d="M49 995v103q0 158 98.5 260t255.5 102h37q160 0 259.5 -101.5t99.5 -260.5v-103q0 -160 -99.5 -260t-259.5 -100h-37q-158 0 -256 101.5t-98 258.5zM293 1001q0 -68 29.5 -111.5t95.5 -43.5h12q66 0 95.5 44t29.5 111v93q0 156 -125 155h-12q-37 0 -66 -16 q-59 -41 -59 -139v-93zM571 33l650 1368q14 33 53 33h153q12 0 19 -11q6 -8 2 -22l-649 -1368q-15 -33 -54 -33h-153q-12 0 -19 10q-6 8 -2 23zM1221 336v102q0 160 99 260.5t259 100.5h37q160 0 257 -100.5t97 -260.5v-102q0 -160 -98 -261.5t-256 -101.5h-37 q-160 0 -259 101.5t-99 261.5zM1464 340q0 -66 32 -111t93 -45h13q41 0 67 19q57 33 57 137v92q1 156 -124 156h-13q-37 0 -65 -17q-59 -41 -60 -139v-92z" />
<glyph unicode="&#x26;" horiz-adv-x="1460" d="M61 393v21q0 238 215 331q-82 49 -132 128t-50 171v17q0 199 133 299t340 100h13q121 0 194 -28q25 -10 25 -43v-228q0 -23 -21 -22h-4q-4 2 -6 2l-111 37q-31 6 -59 6h-10q-78 0 -126 -43t-48 -121v-19q0 -78 61.5 -119.5t142.5 -41.5l256 -2v366q0 37 31 43l238 53 q4 2 10 3h8q8 -2 13 -11q4 -12 4 -20v-434h227q29 0 29 -27v-178q0 -27 -29 -27h-227v-284q0 -104 86 -105h10q27 0 131 31q4 2 8 2t12 -4q8 -6 9 -19v-170q0 -23 -21 -30q-117 -53 -209 -54h-20q-170 0 -248 109q-170 -109 -371 -109h-14q-205 0 -347.5 112t-142.5 308z M389 430q0 -86 62.5 -133t150.5 -47h10q100 -1 262 69v287h-284q-86 0 -143.5 -43t-57.5 -125v-8z" />
<glyph unicode="'" horiz-adv-x="415" d="M49 1407q-2 12 6 20q11 7 21 7h264q12 0 20 -7q8 -8 9 -20l-47 -469q-2 -27 -27 -27h-172q-27 0 -29 27z" />
<glyph unicode="(" horiz-adv-x="671" d="M104 315v543q0 268 119 417.5t373 184.5q14 0 20 -6q6 -10 7 -20v-183q0 -18 -27 -26q-104 -41 -138 -122t-34 -210v-612q0 -279 172 -332q27 -8 27 -27v-182q0 -10 -7 -21q-6 -6 -16 -6h-4q-260 35 -376 187.5t-116 414.5z" />
<glyph unicode=")" horiz-adv-x="671" d="M49 -78q0 18 27 27q33 14 63 31q109 72 109 301v612q0 229 -109 301q-31 16 -63 31q-27 8 -27 26v183q0 12 8 20q4 6 15 6h4q260 -35 375.5 -187.5t115.5 -414.5v-543q0 -268 -118.5 -417.5t-372.5 -184.5h-4q-10 0 -15 6q-8 8 -8 21v182z" />
<glyph unicode="*" horiz-adv-x="1001" d="M51 1032l86 236q6 20 21 20q6 0 14 -4l201 -100l-25 223q-2 12 6 20q10 6 21 7h252q12 0 20 -7q8 -8 6 -20l-26 -223l202 100q8 4 15 4q14 0 20 -20l86 -236q10 -31 -16 -37l-227 -53l163 -162q16 -18 -2 -39l-200 -155q-10 -10 -21 -6q-12 0 -18 12l-129 207l-129 -207 q-2 -12 -15 -12q-12 -4 -22 6l-201 155q-18 20 -2 37l164 164l-227 53q-27 6 -17 37z" />
<glyph unicode="+" horiz-adv-x="1046" d="M49 541v182q0 27 27 27h330v309q0 27 26 26h184q27 1 27 -26v-309h330q27 0 26 -27v-182q0 -27 -26 -27h-330v-307q0 -29 -29 -29h-184q-27 0 -27 29v307h-327q-27 0 -27 27z" />
<glyph unicode="," horiz-adv-x="421" d="M49 -317l121 317h-86q-27 0 -27 27v254q0 28 27 28h262q29 0 29 -28v-226q0 -27 -10 -53l-121 -319q-10 -25 -37 -25h-141q-12 0 -15 6q-4 12 -2 19z" />
<glyph unicode="-" horiz-adv-x="735" d="M49 541v182q0 27 27 27h583q29 0 29 -27v-182q0 -27 -29 -27h-583q-27 0 -27 27z" />
<glyph unicode="." horiz-adv-x="407" d="M49 27v254q0 28 27 28h256q29 0 28 -28v-254q0 -27 -28 -27h-256q-27 0 -27 27z" />
<glyph unicode="/" horiz-adv-x="679" d="M49 39l359 1362q6 33 41 33h155q12 0 23 -11q8 -10 4 -28l-357 -1362q-8 -33 -43 -33h-151q-18 0 -27 12q-8 8 -4 27z" />
<glyph unicode="0" horiz-adv-x="1341" d="M104 582v270q0 262 148.5 435t402.5 173h31q260 0 405.5 -174t145.5 -434v-270q0 -264 -147.5 -436.5t-403.5 -172.5h-31q-258 0 -404.5 175.5t-146.5 433.5zM432 553q0 -133 54.5 -218t177.5 -85h16q123 0 176 87t53 216v328q0 131 -53 217t-176 86h-16 q-125 0 -178.5 -86t-53.5 -217v-328z" />
<glyph unicode="1" horiz-adv-x="901" d="M49 27v223q0 27 27 26h225v814l-225 -76h-6q-8 0 -13 4q-8 6 -8 16v246q0 29 27 37l315 108q25 8 55 9h148q27 0 27 -27v-1131h206q27 0 27 -26v-223q0 -27 -27 -27h-751q-27 0 -27 27z" />
<glyph unicode="2" horiz-adv-x="1118" d="M90 27v196q0 25 14 39l406 455q90 96 139 168q43 68 43 133v6q0 78 -52 120t-132 42h-10q-121 0 -324 -72l-33 246q0 33 27 41q57 27 163.5 43t184.5 16h14q213 0 349.5 -101.5t136.5 -305.5v-13q0 -211 -266 -508l-234 -256h485q27 0 27 -26v-223q0 -27 -27 -27h-884 q-27 0 -27 27z" />
<glyph unicode="3" horiz-adv-x="1058" d="M90 1130v230q0 33 25 41q57 27 160.5 43t181.5 16h14q215 0 354.5 -98t139.5 -301v-17q-1 -188 -181 -299q215 -94 215 -331v-21q0 -209 -155.5 -314.5t-372.5 -105.5h-14q-207 0 -338 60q-27 8 -27 41v229q0 10 10 16q8 4 13 5q6 0 10 -2q104 -35 121 -39 q88 -33 192 -33h13q88 0 154.5 47t66.5 133v8q0 82 -58.5 125t-144.5 43h-186q-27 0 -27 29v176q0 29 27 29h157q84 0 144.5 41t60.5 120v19q0 78 -57.5 121t-136.5 43h-11q-121 0 -319 -72q-4 -2 -10.5 -2t-10.5 4q-10 6 -10 16z" />
<glyph unicode="4" horiz-adv-x="1277" d="M49 369v170q0 51 29 104l479 760q16 31 53 31h361q27 0 26 -27v-789h205q27 0 27 -26v-223q0 -27 -27 -27h-205v-315q0 -27 -26 -27h-266q-27 0 -27 27v315h-602q-27 0 -27 27zM375 618h303v484z" />
<glyph unicode="5" horiz-adv-x="1075" d="M90 74v229q0 10 10 16q4 4 10.5 4.5t10.5 -1.5q104 -35 121 -39q98 -33 196 -33h11q104 0 171.5 51t67.5 152v8q0 104 -69.5 152.5t-180.5 48.5q-74 0 -235 -37q-2 0 -5 -1t-5 -1q-6 0 -23 8l-16 10q-25 14 -25 43v723q0 27 27 27h743q29 0 29 -27v-223q0 -27 -29 -27 h-455v-283q85 19 146 19q203 0 314.5 -118t111.5 -322v-19q0 -223 -158 -342t-389 -119h-14q-78 0 -180.5 16.5t-159.5 43.5q-25 8 -25 41z" />
<glyph unicode="6" horiz-adv-x="1206" d="M104 623v24q0 154 31 291t95.5 258t183 192.5t278.5 71.5h15q186 0 305 -59q27 -8 26 -41v-230q0 -10 -10 -16q-8 -4 -12 -4q-6 0 -10 2q-82 35 -158 59q-47 12 -115 13h-6q-258 0 -289 -361q138 76 283 76q205 0 314.5 -116.5t109.5 -323.5v-19q0 -211 -143.5 -339 t-356.5 -128h-12q-141 0 -246.5 53.5t-165 146.5t-88.5 204.5t-29 245.5zM432 510q0 -106 45 -183t146 -77h10q92 0 138 60.5t46 154.5v8q0 195 -184 195q-88 0 -201 -58v-100z" />
<glyph unicode="7" horiz-adv-x="1060" d="M49 1184v223q0 27 27 27h909q27 0 27 -27v-193q0 -23 -13 -43l-376 -567q-14 -20 -15 -43v-534q0 -27 -26 -27h-265q-29 0 -28 27v579q0 63 30 107l312 444h-555q-27 0 -27 27z" />
<glyph unicode="8" horiz-adv-x="1204" d="M61 389v21q0 238 226 331q-84 49 -135.5 125t-51.5 168v19q0 199 140.5 303t347.5 104h26q207 0 348.5 -104.5t141.5 -302.5v-19q0 -92 -51.5 -169t-132.5 -122q223 -96 223 -333v-21q0 -109 -45 -190.5t-122 -130t-168 -72t-192 -23.5h-28q-137 0 -253 42t-195 138.5 t-79 235.5zM389 426q0 -84 53.5 -130t139.5 -46h41q86 0 139 46t53 130v8q0 84 -51 128t-137 44h-49q-86 0 -137.5 -44t-51.5 -128v-8zM418 1008q0 -74 46 -118t120 -44h32q76 0 123 43t47 119v16q0 76 -47 119t-123 43h-28q-74 0 -122 -44t-48 -118v-16z" />
<glyph unicode="9" horiz-adv-x="1206" d="M61 975v18q0 211 143.5 339t356.5 128h12q143 0 249 -53t164 -146.5t86 -205t28 -244.5v-25q0 -154 -30 -291t-94.5 -257.5t-183 -192.5t-278.5 -72h-14q-184 0 -305 60q-27 8 -27 41v229q0 10 10 16q8 4 12 5q6 0 11 -2q102 -43 157 -58q43 -14 113 -14h8q258 0 289 360 q-137 -76 -285 -75q-203 0 -312.5 117.5t-109.5 322.5zM389 961q0 -92 47 -143.5t137.5 -51.5t198.5 57v101q0 111 -43 185.5t-145 74.5h-11q-94 0 -139 -60.5t-45 -154.5v-8z" />
<glyph unicode=":" horiz-adv-x="407" d="M49 27v254q0 28 27 28h256q29 0 28 -28v-254q0 -27 -28 -27h-256q-27 0 -27 27zM49 676v254q0 28 27 28h256q29 0 28 -28v-254q0 -27 -28 -27h-256q-27 0 -27 27z" />
<glyph unicode=";" horiz-adv-x="421" d="M49 -317l121 317h-86q-27 0 -27 27v254q0 28 27 28h262q29 0 29 -28v-226q0 -27 -10 -53l-121 -319q-10 -25 -37 -25h-141q-12 0 -15 6q-4 12 -2 19zM63 676v254q0 28 27 28h256q29 0 29 -28v-254q0 -27 -29 -27h-256q-27 0 -27 27z" />
<glyph unicode="&#x3c;" horiz-adv-x="1046" d="M49 502v182q0 29 29 39l880 287q4 2 12.5 2t16.5 -4q12 -8 12 -27v-184q0 -41 -38 -49l-545 -154l545 -156q39 -8 38 -49v-184q0 -16 -12 -25q-6 -6 -16 -6q-8 0 -13 2l-880 287q-29 10 -29 39z" />
<glyph unicode="=" horiz-adv-x="1046" d="M49 403v127q0 27 27 27h895q29 0 28 -27v-127q0 -27 -28 -26h-895q-27 0 -27 26zM49 700v125q0 29 27 29h895q29 0 28 -29v-125q0 -27 -28 -26h-895q-27 0 -27 26z" />
<glyph unicode="&#x3e;" horiz-adv-x="1046" d="M49 205v184q0 41 39 49l545 156l-545 154q-39 8 -39 49v184q0 18 12 27q8 4 15 4q8 0 12 -2l883 -287q29 -10 28 -39v-182q0 -29 -28 -39l-883 -287q-4 -2 -12 -2t-15 6q-12 8 -12 25z" />
<glyph unicode="?" horiz-adv-x="1024" d="M49 1360q0 33 25 41q57 27 159.5 43t180.5 16h14q141 0 260 -40t203 -138t84 -244v-18q0 -176 -110.5 -283.5t-286.5 -107.5q-49 0 -107 10l-6 -137q-2 -27 -27 -27h-172q-25 0 -26 27l-15 254q-2 27 21 49l16 16q18 18 60 19q92 -10 104 -11q94 0 157.5 40t63.5 128v7 q0 180 -239 180h-11q-74 0 -196 -31q-8 -2 -49 -16.5t-72 -24.5zM197 27v254q-1 28 26 28h258q27 0 27 -28v-254q0 -27 -27 -27h-258q-27 0 -26 27z" />
<glyph unicode="@" horiz-adv-x="2131" d="M121 182v666q0 272 162 440t428 168h743q272 0 431 -169t159 -439v-502q0 -373 -377 -373h-121q-90 0 -171 37t-113 111q-139 -147 -299 -148h-7q-180 0 -272 126t-92 315v174q0 213 116.5 338t329.5 125h21q111 0 238.5 -33t218.5 -88q18 -12 18 -35v-586 q0 -39 19.5 -65.5t56.5 -26.5h30q76 0 76 92v568q0 139 -66.5 221t-201.5 82h-731q-135 0 -201.5 -83t-66.5 -220v-721q0 -141 66.5 -223.5t201.5 -82.5h813q29 0 29 -26v-223q0 -27 -29 -27h-819q-270 0 -430 171t-160 437zM901 422q0 -205 152 -205h8q86 0 170 64v481 q-94 51 -168 51h-10q-152 0 -152 -207v-184z" />
<glyph unicode="A" horiz-adv-x="1341" d="M49 27l381 1378q6 29 29 29h424q18 0 28 -29l381 -1378q2 -12 -6 -19q-8 -8 -20 -8h-271q-23 0 -28 29l-84 307h-424l-84 -307q-6 -29 -29 -29h-270q-12 0 -21 8q-10 6 -6 19zM526 612h287l-41 154l-94 412h-14l-95 -412z" />
<glyph unicode="B" horiz-adv-x="1236" d="M121 27v1380q0 27 26 27h519q477 0 477 -383v-17q0 -191 -174 -291q207 -96 207 -331v-21q0 -205 -131.5 -298t-346.5 -93h-551q-27 0 -26 27zM440 276h236q57 0 96 21q76 37 76 137v8q0 119 -98 154q-37 10 -80 10h-230v-330zM440 840h201q82 0 132 37.5t50 117.5v6 q0 156 -178 156h-205v-317z" />
<glyph unicode="C" horiz-adv-x="1157" d="M104 625v184q0 281 171.5 466t445.5 185h31q197 0 319 -65q25 -12 25 -43v-217q0 -12 -11 -19q-8 -4 -12 -4q-6 0 -8 2q-162 70 -281 70h-10q-162 0 -252 -104.5t-90 -270.5v-184q0 -166 90 -270.5t252 -104.5h10q127 0 281 69q2 0 5 1.5t5 1.5h6q14 -14 15 -23v-219 q0 -27 -25 -43q-113 -63 -319 -64h-31q-276 0 -446.5 187.5t-170.5 464.5z" />
<glyph unicode="D" horiz-adv-x="1327" d="M121 27v1380q-1 27 26 27h496q279 0 429.5 -172t150.5 -451v-188q0 -281 -154 -452t-426 -171h-496q-27 0 -26 27zM440 276h164q295 1 295 347v188q0 166 -67.5 256t-227.5 90h-164v-881z" />
<glyph unicode="E" horiz-adv-x="1103" d="M121 27v1380q0 27 26 27h871q27 0 26 -27v-223q0 -27 -26 -27h-578v-289h521q27 0 26 -26v-224q0 -27 -26 -26h-521v-316h578q27 0 26 -26v-223q0 -27 -26 -27h-871q-27 0 -26 27z" />
<glyph unicode="F" horiz-adv-x="1103" d="M121 27v1380q-1 27 26 27h871q27 0 26 -27v-223q0 -27 -26 -27h-578v-307h521q27 0 26 -27v-223q0 -27 -26 -27h-521v-546q0 -27 -26 -27h-267q-27 0 -26 27z" />
<glyph unicode="G" horiz-adv-x="1294" d="M104 625v184q0 285 181 468t460 183h29q190 0 320 -67q27 -12 26 -43v-215q0 -12 -8 -19q-8 -4 -14 -4t-11 2q-94 39 -153 57q-53 12 -127 13h-10q-168 0 -266.5 -103.5t-98.5 -271.5v-184q0 -170 80 -272.5t242 -102.5h10q59 0 102 20v437q0 29 27 28h258q27 0 27 -28 v-568q0 -35 -25 -53q-61 -49 -181 -81t-212 -32h-29q-283 0 -455 185.5t-172 466.5z" />
<glyph unicode="H" horiz-adv-x="1384" d="M121 27v1380q0 27 26 27h267q27 0 26 -27v-539h504v539q0 27 27 27h264q29 0 29 -27v-1380q0 -27 -29 -27h-264q-27 0 -27 27v565h-504v-565q0 -27 -26 -27h-267q-27 0 -26 27z" />
<glyph unicode="I" horiz-adv-x="561" d="M121 27v1380q-1 27 26 27h267q27 0 26 -27v-1380q0 -27 -26 -27h-267q-27 0 -26 27z" />
<glyph unicode="J" horiz-adv-x="804" d="M49 37v225q0 14 10 21h4q4 2 7 2q6 0 10 -2q66 -33 117 -33h10q150 0 149 176v981q0 27 27 27h274q27 0 27 -27v-969q0 -215 -105.5 -340t-310.5 -125h-10q-51 0 -130 16.5t-79 47.5z" />
<glyph unicode="K" horiz-adv-x="1304" d="M121 27v1380q0 27 26 27h267q27 0 26 -27v-551h121l320 557q8 20 34 21h293q12 0 18.5 -10.5t-1.5 -22.5l-383 -672l409 -696q8 -12 2 -23q-10 -10 -20 -10h-301q-23 0 -35 20l-332 560h-125v-553q0 -27 -26 -27h-267q-27 0 -26 27z" />
<glyph unicode="L" horiz-adv-x="1034" d="M121 27v1380q0 27 26 27h267q26 0 26 -27v-1131h521q27 0 26 -26v-223q0 -27 -26 -27h-814q-27 0 -26 27z" />
<glyph unicode="M" horiz-adv-x="1667" d="M117 27v1380q0 27 26 27h342q27 0 37 -23l301 -633h15l301 633q10 23 37 23h342q29 0 28 -27v-1380q0 -27 -28 -27h-273q-27 0 -26 27l8 667l33 303h-25l-135 -303l-158 -301q-10 -23 -35 -22h-153q-25 0 -35 22l-158 301l-135 303h-25l33 -303l10 -667q0 -27 -28 -27 h-273q-27 0 -26 27z" />
<glyph unicode="N" horiz-adv-x="1386" d="M117 27v1380q0 27 26 27h299q25 0 37 -23l309 -575l170 -347h23l-29 347v571q0 27 27 27h264q29 0 29 -27v-1380q0 -27 -29 -27h-299q-25 0 -37 23l-325 600l-154 321h-22l28 -321v-596q0 -27 -26 -27h-265q-27 0 -26 27z" />
<glyph unicode="O" horiz-adv-x="1392" d="M104 582v270q0 266 158 437t418 171h31q266 0 421.5 -171t155.5 -437v-270q0 -266 -158.5 -437.5t-418.5 -171.5h-31q-264 0 -420 173t-156 436zM432 553q0 -133 63.5 -218t192.5 -85h17q129 0 192.5 85t63.5 218v328q0 133 -63.5 218t-192.5 85h-17q-131 0 -193.5 -85 t-62.5 -218v-328z" />
<glyph unicode="P" horiz-adv-x="1267" d="M121 27v1380q-1 27 26 27h510q231 0 367.5 -114t136.5 -341v-23q0 -231 -143.5 -354t-378.5 -123h-199v-452q0 -27 -26 -27h-267q-27 0 -26 27zM440 743h162q232 0 232 199v21q0 194 -226 194h-2h-166v-414z" />
<glyph unicode="Q" horiz-adv-x="1392" d="M104 582v270q0 266 158 437t418 171h31q266 0 421.5 -172t155.5 -436v-270q0 -293 -180 -461l170 -170q18 -16 0 -37l-158 -158q-10 -10 -18 -10q-10 0 -21 10l-231 232q-63 -14 -139 -15h-31q-264 0 -420 173t-156 436zM432 553q0 -133 63.5 -218t192.5 -85h17 q129 0 192.5 85t63.5 218v328q0 133 -63.5 218t-192.5 85h-17q-131 0 -193.5 -85t-62.5 -218v-328z" />
<glyph unicode="R" horiz-adv-x="1302" d="M121 27v1380q-1 27 26 27h533q225 0 357 -102.5t132 -319.5v-21q0 -303 -260 -409l142 -205l200 -344q6 -12 0 -22.5t-20 -10.5h-299q-25 0 -35 23l-293 507h-164v-503q0 -27 -26 -27h-267q-27 0 -26 27zM440 784h189q213 0 213 183v12q0 178 -213 178h-189v-373z" />
<glyph unicode="S" horiz-adv-x="1120" d="M72 1012v22q0 199 141 312.5t344 113.5h14q225 0 351 -59q27 -8 26 -41v-227q0 -12 -10 -17q-8 -4 -12 -4q-6 0 -11 2q-207 72 -325 72h-10q-72 0 -129 -37q-53 -37 -54 -105v-8q0 -55 39 -82q39 -31 133 -63l78 -27q197 -66 299.5 -164t102.5 -280v-17 q0 -207 -146.5 -318.5t-359.5 -111.5h-17q-88 0 -207.5 22.5t-191.5 55.5q-27 12 -27 43v225q0 12 11 19q4 4 10 4q4 0 12 -4q168 -57 227 -72q68 -18 148 -18h10q84 0 143.5 33.5t59.5 111.5v6q0 63 -43 95q-46 32 -148 65l-73 27q-385 125 -385 426z" />
<glyph unicode="T" horiz-adv-x="1212" d="M49 1184v223q0 27 27 27h1063q27 0 26 -27v-223q0 -27 -26 -27h-373v-1130q0 -27 -27 -27h-266q-27 0 -27 27v1130h-370q-27 0 -27 27z" />
<glyph unicode="U" horiz-adv-x="1357" d="M121 535v872q0 27 26 27h275q27 0 27 -27v-883q0 -274 225 -274h16q223 0 223 274v883q0 27 27 27h274q27 0 27 -27v-872q0 -262 -144.5 -412t-400.5 -150h-30q-260 0 -402.5 153t-142.5 409z" />
<glyph unicode="V" horiz-adv-x="1267" d="M49 1399q-4 16 4 24q10 10 25 11h266q20 0 29 -21l182 -727l74 -430h10l74 430l184 727q7 21 27 21h268q12 0 22 -11q8 -8 5 -24l-345 -1379q-6 -20 -26 -20h-426q-23 0 -29 20z" />
<glyph unicode="W" horiz-adv-x="2093" d="M49 1399q-4 14 6 24t23 11h268q23 0 29 -21l164 -670l75 -460h15l73 460l164 670q6 20 29 21h303q20 0 27 -21l164 -670l75 -460h15l75 460l164 670q7 21 27 21h270q12 0 23 -11q8 -8 4 -24l-340 -1379q-6 -20 -29 -20h-377q-23 0 -28 20l-121 488l-92 516h-19l-92 -516 l-119 -488q-8 -20 -28 -20h-379q-20 0 -27 20z" />
<glyph unicode="X" horiz-adv-x="1329" d="M51 33l385 696l-368 672q-6 12 0 22q4 10 18 11h293q25 0 35 -23l174 -305l69 -193h17l67 193l174 305q12 23 35 23h293q14 0 20.5 -10.5t-1.5 -22.5l-369 -672l385 -696q6 -12 0 -22.5t-21 -10.5h-294q-25 0 -35 23l-187 327l-67 191h-17l-69 -191l-185 -327 q-12 -23 -34 -23h-297q-14 0 -20.5 10t-0.5 23z" />
<glyph unicode="Y" horiz-adv-x="1288" d="M51 1391q-6 16 2 30q8 12 27 13h266q27 0 39 -25l193 -399l63 -246h6l64 246l192 399q12 25 39 25h266q20 0 29 -13q8 -16 0 -30l-432 -920v-444q0 -27 -27 -27h-266q-29 0 -29 27v444z" />
<glyph unicode="Z" horiz-adv-x="1126" d="M72 27v196q0 20 10 37l567 897h-528q-27 0 -27 27v223q0 27 27 27h895q27 0 26 -27v-197q0 -20 -10 -36l-567 -898h563q27 0 27 -26v-223q0 -27 -27 -27h-930q-27 0 -26 27z" />
<glyph unicode="[" horiz-adv-x="702" d="M121 -233v1640q0 27 26 27h480q27 0 26 -27v-182q0 -27 -26 -27h-187v-1223h187q27 0 26 -26v-182q0 -27 -26 -27h-480q-27 0 -26 27z" />
<glyph unicode="\" horiz-adv-x="679" d="M49 1395q-4 18 4 28q11 11 25 11h153q35 0 41 -33l359 -1362q4 -18 -4 -27q-8 -12 -25 -12h-153q-33 0 -41 33z" />
<glyph unicode="]" horiz-adv-x="702" d="M49 -51q0 27 27 26h186v1223h-186q-27 0 -27 27v182q0 27 27 27h479q27 0 27 -27v-1640q0 -27 -27 -27h-479q-27 0 -27 27v182z" />
<glyph unicode="^" horiz-adv-x="776" d="M51 772l207 637q10 29 39 29h182q29 0 39 -29l207 -637q6 -16 -2 -29q-10 -12 -27 -12h-184q-47 0 -49 39l-68 375h-12l-70 -375q-2 -39 -49 -39h-184q-14 0 -25 12q-10 14 -4 29z" />
<glyph unicode="_" horiz-adv-x="1046" d="M49 -76q0 27 27 27h895q29 0 28 -27v-182q0 -27 -28 -27h-895q-27 0 -27 27v182z" />
<glyph unicode="`" horiz-adv-x="524" d="M51 1901l230 20q24 0 36 -25l156 -313l-182 -16q-23 0 -35 18z" />
<glyph unicode="a" horiz-adv-x="1007" d="M49 264v23q0 303 434 331l144 11v20q0 92 -37 129q-41 35 -129 35h-4q-25 0 -37 -2l-43 -6q-57 -8 -86 -19l-41 -10q-45 -8 -94 -26q-4 -2 -9 -2q-6 0 -10 4q-8 6 -8 16v182q0 33 23 39q200 62 370 62h10q397 0 400 -389v-635q0 -27 -27 -27h-221q-18 0 -25 20l-16 89 q-137 -135 -293 -136h-10q-131 0 -211 80t-80 211zM354 317q0 -51 33 -81.5t84 -30.5h10h2q69 0 144 67v179l-103 -2q-170 -4 -170 -123v-9z" />
<glyph unicode="b" horiz-adv-x="1097" d="M80 129v1354q0 27 26 26h250q29 0 29 -26v-535q109 103 254 103h20q182 0 276.5 -126t94.5 -315v-174q0 -213 -121 -338t-334 -125h-20q-109 0 -238 34t-219 87q-18 12 -18 35zM385 262q90 -51 166 -51h10q49 0 98 35q14 12 33 41q10 20 21 57q6 33 6 74v184 q0 205 -156 205h-10q-86 0 -168 -64v-481z" />
<glyph unicode="c" horiz-adv-x="931" d="M68 459v106q0 221 129 353.5t348 132.5h22q41 0 103 -11q106 -25 176 -57q20 -8 20 -37v-188q0 -10 -8 -17q-8 -4 -10 -4q-6 0 -8 2q-154 68 -228 68h-12q-109 0 -165 -68.5t-56 -179.5v-94q0 -111 56.5 -179.5t164.5 -68.5h12q74 0 228 68q2 2 8 2q2 0 10 -4q8 -6 8 -17 v-188q0 -29 -20 -37q-131 -68 -279 -68h-22q-219 0 -348 134.5t-129 351.5z" />
<glyph unicode="d" horiz-adv-x="1097" d="M68 414v174q0 201 104 332t299 131h21q135 0 223 -80v512q-1 26 26 26h250q27 0 27 -26v-1456q0 -27 -27 -27h-219q-20 0 -27 20l-12 74q-111 -121 -274 -121h-19q-184 0 -278 125t-94 316zM379 422q0 -205 158 -205h8q86 0 170 64v458q-90 68 -170 68h-8 q-158 0 -158 -205v-180z" />
<glyph unicode="e" horiz-adv-x="1052" d="M68 451v110q0 215 128 352.5t341 137.5h22q203 0 315.5 -122t112.5 -327v-108q0 -18 -12 -30.5t-31 -12.5h-563v-33q0 -98 60.5 -152.5t160.5 -54.5h10q102 0 299 74q2 2 9 2q2 0 10 -4q8 -6 8 -17v-188q0 -27 -23 -37q-141 -68 -348 -68h-20q-219 0 -349 129t-130 349z M379 625h326v14q0 190 -156 190h-8q-49 0 -84 -22q-35 -27 -54 -70q-20 -45 -24 -112z" />
<glyph unicode="f" horiz-adv-x="804" d="M29 815v182q0 27 26 27h121v180q0 158 98.5 245t257.5 87h21q59 0 141 -18.5t82 -57.5v-174q0 -10 -8 -16q-8 -4 -14 -4h-4q-82 32 -135 32h-3h-10q-63 0 -92 -44t-29 -109v-121h199q27 0 27 -27v-182q0 -27 -27 -27h-199v-761q0 -27 -26 -27h-250q-29 0 -29 27v761h-121 q-27 0 -26 27z" />
<glyph unicode="g" horiz-adv-x="1089" d="M68 471v117q0 213 116.5 338t329.5 125h21q111 0 238.5 -33t217.5 -88q18 -12 19 -35v-823q0 -207 -132.5 -324t-338.5 -117h-9q-129 0 -260 29q-29 8 -98 31q-23 6 -22 37v186q0 12 8 18l10 5q6 0 8 -3q175 -69 280 -69h3h10q117 0 177.5 47t60.5 160v61 q-121 -102 -256 -102h-19q-180 0 -272 126t-92 314zM379 477q0 -203 147 -203h11q86 0 170 64v424q-94 51 -168 51h-11q-150 0 -149 -203v-133z" />
<glyph unicode="h" horiz-adv-x="1097" d="M84 27v1456q0 27 27 26h249q29 0 29 -26v-557q146 125 287 125h22q152 0 238 -90.5t86 -241.5v-692q0 -27 -27 -27h-250q-27 0 -26 27v626q0 154 -141 154h-11q-84 0 -178 -64v-716q0 -27 -29 -27h-249q-27 0 -27 27z" />
<glyph unicode="i" horiz-adv-x="473" d="M84 1190v229q0 29 27 29h256q27 0 26 -29v-229q0 -29 -26 -29h-256q-27 0 -27 29zM86 27v970q0 27 29 27h250q27 0 26 -27v-970q0 -27 -26 -27h-250q-29 0 -29 27z" />
<glyph unicode="j" horiz-adv-x="612" d="M29 -141q0 20 16 20q8 0 12 -2q37 -12 72 -12h8q88 0 88 102v1030q0 27 27 27h250q27 0 26 -27v-1032q0 -150 -76.5 -242t-224.5 -92h-20q-178 0 -178 66v162zM223 1190v229q0 29 27 29h254q29 0 28 -29v-229q0 -29 -28 -29h-254q-27 0 -27 29z" />
<glyph unicode="k" horiz-adv-x="1079" d="M84 27v1456q0 27 27 26h249q29 0 29 -26v-842h94l201 363q8 20 35 20h264q16 0 23 -10q6 -13 -2 -25l-254 -454l299 -498q6 -16 0 -25q-6 -12 -21 -12h-280q-23 0 -33 18l-232 390h-94v-381q0 -27 -29 -27h-249q-27 0 -27 27z" />
<glyph unicode="l" horiz-adv-x="464" d="M84 27v1456q0 26 27 26h249q29 0 29 -26v-1456q0 -27 -29 -27h-249q-27 0 -27 27z" />
<glyph unicode="m" horiz-adv-x="1679" d="M80 27v970q0 27 26 27h222q23 0 24 -20l17 -86q156 133 297 133h22q195 0 268 -152q170 152 320 152h22q150 0 228 -90.5t78 -241.5v-692q0 -27 -27 -27h-250q-27 0 -27 27v626q0 49 -10 86q-12 33 -39 52q-29 16 -75 16h-9q-78 0 -178 -66q4 -37 4 -88v-626 q0 -27 -26 -27h-250q-27 0 -27 27v626q0 78 -25.5 116t-99.5 38h-8q-80 0 -172 -62v-718q0 -27 -29 -27h-250q-27 0 -26 27z" />
<glyph unicode="n" horiz-adv-x="1083" d="M80 27v970q0 27 26 27h222q23 0 24 -20l17 -86q156 133 297 133h22q154 0 237 -89.5t83 -242.5v-692q0 -27 -27 -27h-250q-27 0 -26 27v626q0 78 -32 116t-108 38h-8q-80 0 -172 -62v-718q0 -27 -29 -27h-250q-27 0 -26 27z" />
<glyph unicode="o" horiz-adv-x="1112" d="M68 436v152q0 209 134 336t343 127h22q211 0 344 -127t133 -336v-152q0 -209 -134 -336t-343 -127h-22q-209 0 -343 128t-134 335zM379 422q0 -90 43 -147.5t129 -57.5h12q86 0 128 57.5t42 147.5v180q0 90 -42 147.5t-128 57.5h-12q-51 0 -78 -16q-18 -10 -33 -21 q-14 -16 -24 -31q-37 -47 -37 -137v-180z" />
<glyph unicode="p" horiz-adv-x="1101" d="M84 -315v1312q0 27 27 27h221q23 0 24 -20l13 -74q110 121 274 121h21q182 0 276 -126t94 -315v-174q0 -201 -104.5 -332t-298.5 -131h-21q-131 0 -221 80v-368q0 -27 -29 -27h-249q-27 0 -27 27zM389 285q90 -68 168 -68h10q156 0 156 205v180q0 205 -156 205h-10 q-84 0 -168 -64v-458z" />
<glyph unicode="q" horiz-adv-x="1091" d="M68 414v174q0 215 117.5 339t330.5 124h21q113 0 237.5 -33t218.5 -88q18 -12 19 -35v-1210q0 -27 -27 -27h-250q-29 0 -28 27v391q-109 -102 -254 -103h-21q-180 0 -272 126t-92 315zM379 422q0 -205 149 -205h11q86 0 168 64v481q-90 51 -166 51h-11q-47 0 -81 -22 q-37 -27 -52 -70q-18 -45 -18 -115v-184z" />
<glyph unicode="r" horiz-adv-x="753" d="M80 27v970q0 27 26 27h222q18 0 24 -20l23 -113q51 70 124.5 115t153.5 45h9q16 0 45 -4q20 -2 20 -25v-231q0 -29 -35 -29q-41 4 -78 4h-12q-123 0 -217 -68v-671q0 -27 -29 -27h-250q-27 0 -26 27z" />
<glyph unicode="s" horiz-adv-x="888" d="M59 717v12q0 154 113.5 238t271.5 84h21q172 0 278 -50q23 -10 23 -36v-179q0 -14 -8 -16q-4 -4 -10.5 -4t-8.5 2q-160 68 -245 68h-5q-129 0 -129 -82v-6q0 -10 2 -15l44 -49q2 -2 14 -6t14 -6t16.5 -6t16.5 -7l70 -22q150 -49 222 -118.5t72 -211.5v-14 q0 -158 -123.5 -239t-289.5 -81h-15q-63 0 -160.5 15.5t-142.5 36.5q-23 10 -22 38v177q0 12 8 18q8 4 10 4q6 0 8 -2q178 -72 273 -72h12q137 0 137 88v7q0 37 -22 55q-29 18 -82 35l-70 22q-10 4 -24.5 9.5t-25.5 9.5t-19 8q-39 18 -66 33q-39 18 -63 43q-66 51 -82 127 q-12 43 -13 92z" />
<glyph unicode="t" horiz-adv-x="749" d="M29 815v154q0 18 26 26l109 29v180q0 37 31 43l237 53q35 -18 35 -28v-248h227q29 0 29 -27v-182q0 -27 -29 -27h-227v-466q0 -104 86 -105h10q27 0 131 31q4 2 8.5 2t12.5 -4q8 -6 8 -19v-170q0 -23 -21 -30q-117 -53 -208 -54h-21q-141 0 -225 76t-84 215v524h-109 q-27 0 -26 27z" />
<glyph unicode="u" d="M76 305v692q0 27 26 27h250q29 0 29 -27v-626q0 -74 26.5 -114t96.5 -40h8q80 0 172 62v718q0 27 29 27h250q27 0 26 -27v-970q0 -27 -26 -27h-222q-23 0 -24 20l-17 86q-156 -133 -297 -133h-22q-147 0 -226 90.5t-79 241.5z" />
<glyph unicode="v" horiz-adv-x="1075" d="M31 985q-6 16 2 29q10 10 24 10h254q18 0 25 -20l117 -363l82 -387h4l82 387l116 363q9 20 27 20h254q14 0 24 -10q8 -12 2 -29l-315 -965q-8 -20 -27 -20h-329q-20 0 -27 20z" />
<glyph unicode="w" horiz-adv-x="1679" d="M31 985q-6 16 2 29q10 10 24 10h258q18 0 27 -20l109 -410l51 -324h10l53 324l109 410q6 20 24 20h283q18 0 25 -20l108 -410l53 -324h11l51 324l108 410q7 20 27 20h256q16 0 27 -10q8 -12 2 -29l-285 -965q-6 -20 -27 -20h-293q-20 0 -26 20l-84 285l-86 408h-17 l-86 -408l-83 -285q-8 -20 -27 -20h-295q-18 0 -25 20z" />
<glyph unicode="x" horiz-adv-x="1060" d="M31 12.5q-6 12.5 0 24.5l291 483l-279 469q-6 12 0 25q4 10 20 10h263q23 0 34 -20l123 -211l41 -125h11l43 125l122 211q8 20 35 20h262q14 0 21 -10q6 -12 -2 -25l-277 -469l289 -483q8 -12 2 -24.5t-22 -12.5h-269q-20 0 -32 18l-129 220l-43 127h-11l-41 -127 l-129 -220q-12 -18 -35 -18h-268q-14 0 -20 12.5z" />
<glyph unicode="y" horiz-adv-x="1075" d="M31 985q-6 16 2 29q10 10 24 10h254q18 0 25 -20l125 -379l76 -371h4l75 371l123 379q7 20 27 20h252q14 0 24 -10q8 -10 5 -29l-340 -1028q-51 -156 -136.5 -241t-234.5 -85h-17q-61 0 -139 14.5t-78 49.5v184q0 12 9 19q8 4 12 4t8 -2q94 -31 152 -31h4q82 0 110 88 l17 43h-41q-18 0 -25 20z" />
<glyph unicode="z" horiz-adv-x="890" d="M49 27v161q0 16 12 39l402 553h-365q-27 0 -26 27v190q0 27 26 27h707q27 0 26 -27v-161q0 -16 -12 -39l-401 -553h397q27 0 27 -27v-190q0 -27 -27 -27h-739q-27 0 -27 27z" />
<glyph unicode="{" horiz-adv-x="821" d="M49 496v182q0 27 27 27h102q27 0 44.5 17t17.5 46v475q0 84 54 137.5t136 53.5h318q27 0 26 -27v-182q0 -27 -26 -27h-125q-64 0 -64 -63v-367q0 -66 -37 -117t-100 -65q66 -14 101.5 -63.5t35.5 -116.5v-367q0 -63 64 -64h125q27 0 26 -26v-182q0 -27 -26 -27h-318 q-82 0 -136 54t-54 136v476q0 27 -17 47q-20 16 -45 16h-102q-27 0 -27 27z" />
<glyph unicode="|" horiz-adv-x="561" d="M121 -125v1532q-1 27 26 27h267q27 0 26 -27v-1532q0 -27 -26 -27h-267q-27 0 -26 27z" />
<glyph unicode="}" horiz-adv-x="821" d="M49 -51q0 27 27 26h125q25 0 45 17q16 20 16 47v367q0 66 37 115.5t100 64.5q-61 14 -99 65t-38 117v367q0 27 -16 47q-20 16 -45 16h-125q-27 0 -27 27v182q0 27 27 27h315q84 0 137.5 -53.5t53.5 -137.5v-475q0 -31 18 -45q14 -18 43 -18h105q27 0 26 -27v-182 q0 -27 -26 -27h-105q-27 0 -44 -17.5t-17 -45.5v-476q0 -84 -53.5 -137t-137.5 -53h-315q-27 0 -27 27v182z" />
<glyph unicode="~" horiz-adv-x="878" d="M49 489v164q0 35 21 43q4 4 22 13q16 8 23 14q16 16 49 25q2 0 11 3t15.5 5t28.5 8q31 6 64 6q70 0 163 -49q90 -51 154 -51q76 0 197 65q6 4 14 4t10 -2q10 -6 10 -22v-164q0 -47 -89 -82t-146 -35q-68 0 -162 51q-94 49 -153 50q-74 0 -199 -66q-8 -4 -12 -4 q-2 0 -11 4q-10 4 -10 20z" />
<glyph unicode="&#xa1;" horiz-adv-x="421" d="M51 -315l47 905q2 26 27 26h172q25 0 27 -26l47 -905q2 -12 -6 -21q-10 -6 -21 -6h-266q-27 0 -27 27zM55 811v254q0 27 27 27h258q27 0 27 -27v-254q0 -29 -27 -29h-258q-27 0 -27 29z" />
<glyph unicode="&#xa2;" horiz-adv-x="931" d="M68 459v106q0 186 98 315.5t278 161.5v242q0 27 29 27h168q27 0 27 -27v-244q104 -18 178 -57q20 -8 20 -37v-188q0 -10 -8 -17q-8 -4 -10 -4q-6 0 -8 2q-154 68 -228 68h-12q-109 0 -165 -68.5t-56 -179.5v-94q0 -111 56.5 -179.5t164.5 -68.5h12q74 0 228 68q2 2 8 2 q2 0 10 -4q8 -6 8 -17v-188q0 -29 -20 -37q-74 -39 -178 -57v-244q0 -27 -27 -27h-168q-29 0 -29 27v242q-180 33 -278 161.5t-98 315.5z" />
<glyph unicode="&#xa3;" horiz-adv-x="1067" d="M49 641v127q0 27 27 27h92q-29 125 -29 206v13q0 211 142.5 328.5t357.5 117.5h14q152 0 287 -59q27 -8 27 -41v-227q0 -12 -11 -17q-8 -4 -12 -4q-6 0 -10 2q-35 14 -49 21q-29 12 -45 18q-12 2 -37 12q-61 20 -131 21h-8q-90 0 -145.5 -58.5t-55.5 -146.5v-8 q0 -74 18 -178h305q29 0 29 -27v-127q0 -27 -29 -27h-272q4 -53 4 -71q0 -146 -123 -267h559q27 0 27 -26v-223q0 -27 -27 -27h-837q-27 0 -27 27v206q0 16 10 33q2 2 7.5 12.5t12.5 22.5t15 25q78 119 78 231q0 20 -4 57h-133q-27 0 -27 27z" />
<glyph unicode="&#xa4;" horiz-adv-x="1282" d="M57 104q-18 20 0 41l172 170q-70 113 -69 256q0 141 69 254l-172 170q-18 20 0 39l119 119q10 10 19 10q10 0 20 -10l170 -172q113 70 256 70q141 0 254 -70l170 172q10 10 20.5 10t20.5 -10l117 -119q20 -18 0 -39l-170 -170q70 -113 69 -254q1 -143 -69 -258l170 -168 q20 -20 0 -41l-117 -116q-10 -10 -20.5 -10.5t-20.5 10.5l-168 170q-113 -70 -256 -70t-256 70l-170 -170q-10 -10 -20 -11q-8 0 -19 11zM397 569q0 -102 67.5 -172.5t170.5 -70.5q109 0 179.5 68.5t70.5 174.5q0 104 -70 174t-174 70q-37 0 -78 -10q-53 -16 -96 -58.5 t-57 -95.5q-12 -39 -13 -80z" />
<glyph unicode="&#xa5;" horiz-adv-x="1288" d="M51 1391q-6 16 2 30q8 12 27 13h266q27 0 39 -25l193 -399l63 -246h6l64 246l192 399q12 25 39 25h266q20 0 29 -13q8 -16 0 -30l-340 -727h190q27 0 27 -27v-125q0 -27 -27 -27h-276l-6 -14v-104h282q27 0 27 -27v-125q0 -27 -27 -27h-282v-161q0 -27 -27 -27h-266 q-29 0 -29 27v161h-282q-27 0 -27 27v125q0 27 27 27h282v104l-6 14h-276q-27 0 -27 27v125q0 27 27 27h192z" />
<glyph unicode="&#xa6;" horiz-adv-x="561" d="M121 -125v653q-1 27 26 27h267q27 0 26 -27v-653q0 -27 -26 -27h-267q-27 0 -26 27zM121 754v653q-1 27 26 27h267q27 0 26 -27v-653q0 -27 -26 -27h-267q-27 0 -26 27z" />
<glyph unicode="&#xa7;" horiz-adv-x="901" d="M49 551v14q0 143 113 226q-82 80 -82 204v13q0 154 112.5 237.5t270.5 83.5h20q172 0 279 -49q23 -10 22 -37v-178q0 -14 -8 -16q-4 -4 -10 -4.5t-8 2.5q-164 68 -246 67h-6q-125 0 -125 -82v-6q0 -10 2 -14l43 -49q2 -2 14.5 -6.5t14.5 -6.5t16 -6t16 -6l70 -23 q150 -49 222.5 -118.5t72.5 -210.5v-15q0 -143 -113 -225q82 -80 82 -205v-12q0 -154 -112.5 -238t-270.5 -84h-20q-172 0 -279 50q-23 10 -22 37v178q0 12 8 18h4q4 2 6 2q6 0 8 -2q160 -68 246 -67h4q125 0 125 81v7q0 49 -65 73q-4 0 -41 15l-70 22q-147 49 -220 120 t-73 210zM295 596q0 -39 24 -55q25 -16 80 -35l144 -49q63 20 63 78v6q0 41 -24 55q-29 19 -80 35l-144 49q-63 -20 -63 -78v-6z" />
<glyph unicode="&#xa8;" horiz-adv-x="741" d="M49 1599v254q0 27 27 27h213q29 0 28 -27v-254q0 -29 -28 -28h-213q-27 0 -27 28zM426 1599v254q0 27 27 27h213q27 0 26 -27v-254q0 -29 -26 -28h-213q-27 0 -27 28z" />
<glyph unicode="&#xa9;" horiz-adv-x="1206" d="M49 983q0 231 162 392t393 161q233 0 393 -161t160 -392t-160.5 -392t-392 -161t-393.5 161t-162 392zM164 983q0 -184 128 -312t312 -128t311 128t127 312t-127 311t-311 127t-312 -127t-128 -311zM362 952v54q0 113 66 180t178 67h12q37 0 94.5 -13t57.5 -38v-100 q-117 22 -129 22h-6q-111 0 -111 -123v-47q0 -55 29 -89t82 -34h6q39 0 115 35l14 -110q0 -25 -57.5 -38t-94.5 -13h-12q-113 0 -178.5 67.5t-65.5 179.5z" />
<glyph unicode="&#xab;" horiz-adv-x="933" d="M49 516v68q0 20 14 41l183 229q10 16 30 16h191l-170 -319l180 -303l-201 -17q-23 0 -30 15l-183 229q-14 20 -14 41zM457 516v68q0 20 14 41l180 229q12 16 33 16h190l-172 -319l183 -303l-201 -17q-20 0 -33 15l-180 229q-14 20 -14 41z" />
<glyph unicode="&#xac;" horiz-adv-x="1046" d="M49 541v182q0 27 27 27h895q29 0 28 -27v-389q0 -29 -28 -29h-189q-27 0 -26 29v180h-680q-27 0 -27 27z" />
<glyph unicode="&#xad;" horiz-adv-x="735" d="M49 541v182q0 27 27 27h583q29 0 29 -27v-182q0 -27 -29 -27h-583q-27 0 -27 27z" />
<glyph unicode="&#xae;" horiz-adv-x="1206" d="M49 983q0 231 162 392t393 161q233 0 393 -161t160 -392t-160.5 -392t-392 -161t-393.5 161t-162 392zM164 983q0 -184 128 -312t312 -128t311 128t127 312t-127 311t-311 127t-312 -127t-128 -311zM381 729v504q0 14 14 14h248q94 0 148 -47q49 -49 49 -129v-8 q0 -49 -27 -87t-72 -52l43 -54l78 -139l-153 -16q-12 0 -21 12l-94 170h-53v-168q0 -14 -15 -14h-131q-14 0 -14 14zM541 1006h67q70 0 70 55v8q0 55 -70 55h-67v-118z" />
<glyph unicode="&#xaf;" horiz-adv-x="626" d="M49 1597v162q0 27 27 27h475q29 0 29 -27v-162q0 -27 -29 -26h-475q-27 0 -27 26z" />
<glyph unicode="&#xb0;" horiz-adv-x="616" d="M49 1278q0 109 76 183.5t184.5 74.5t183 -76t74.5 -182.5t-74.5 -182t-183.5 -75.5q-106 -2 -184 76q-76 76 -76 182zM209 1278q0 -41 29.5 -69.5t70.5 -28.5t70 28.5t29 69.5t-29 69.5t-70 28.5t-70.5 -28.5t-29.5 -69.5z" />
<glyph unicode="&#xb1;" horiz-adv-x="1046" d="M49 98v125q0 27 27 27h897q27 0 26 -27v-125q0 -29 -26 -28h-897q-27 0 -27 28zM49 588v180q0 27 27 27h330v202q0 27 26 27h184q27 0 27 -27v-202h330q27 0 26 -27v-180q0 -29 -26 -29h-330v-201q0 -27 -29 -26h-184q-27 0 -27 26v201h-327q-27 0 -27 29z" />
<glyph unicode="&#xb4;" horiz-adv-x="524" d="M51 1583l156 313q10 25 37 25h219l-197 -336q-12 -18 -33 -18h-172z" />
<glyph unicode="&#xb6;" horiz-adv-x="1136" d="M49 1024q0 410 365 410h575q27 0 27 -27v-1722q0 -27 -27 -27h-170q-27 0 -26 27v1587h-156v-1587q0 -27 -27 -27h-170q-27 0 -26 27v946q-365 0 -365 393z" />
<glyph unicode="&#xb7;" horiz-adv-x="407" d="M49 483v254q0 29 27 29h256q29 0 28 -29v-254q0 -27 -28 -26h-256q-27 0 -27 26z" />
<glyph unicode="&#xb8;" horiz-adv-x="497" d="M49 -313q0 10 8 10q10 0 31 -8q29 -8 47 -13q37 -4 51 -4q84 0 84 56q0 53 -67 53q-31 0 -72 -14q-4 -2 -10 -2.5t-8 2.5l-9 4q-18 8 -14 24l41 205h148l-21 -98q16 4 27 4q74 0 119 -44t45 -118q0 -92 -66 -138t-162 -46q-86 0 -145 30q-27 12 -27 39v58z" />
<glyph unicode="&#xbb;" horiz-adv-x="933" d="M51 852l201 18q18 0 31 -16l182 -229q14 -20 14 -41v-68q0 -20 -14 -41l-182 -229q-12 -14 -31 -15h-193l172 320zM457 852l202 18q18 0 31 -16l182 -229q14 -20 15 -41v-68q0 -20 -15 -41l-182 -229q-12 -14 -31 -15h-192l172 320z" />
<glyph unicode="&#xbc;" horiz-adv-x="1964" d="M49 688v156q0 29 27 28h147v316l-147 -45q-4 -2 -8 -2q-6 0 -11 4q-8 6 -8 16v148q0 29 27 37l233 79q25 8 56 9h63q27 0 27 -27v-535h131q27 0 26 -28v-156q0 -27 -26 -26h-510q-27 0 -27 26zM459 10q-6 10 0 23l649 1368q14 33 51 33h154q14 0 20 -10.5t0 -22.5 l-649 -1368q-14 -33 -51 -33h-154q-14 0 -20 10zM1180 197v122q0 20 10 37l248 392q16 25 45 24h248q26 0 26 -27v-385h131q29 0 29 -26v-137q0 -27 -29 -27h-131v-143q0 -27 -26 -27h-177q-27 0 -26 27v143h-322q-27 0 -26 27zM1382 360h146v232z" />
<glyph unicode="&#xbd;" horiz-adv-x="1820" d="M49 688v156q0 29 27 28h147v316l-147 -45q-4 -2 -8 -2q-6 0 -11 4q-8 6 -8 16v148q0 29 27 37l233 79q25 8 56 9h63q27 0 27 -27v-535h131q27 0 26 -28v-156q0 -27 -26 -26h-510q-27 0 -27 26zM459 10q-6 10 0 23l649 1368q14 33 51 33h154q14 0 20 -10.5t0 -22.5 l-649 -1368q-14 -33 -51 -33h-154q-14 0 -20 10zM1180 27v123q0 23 18 38l191 148q72 59 98 94q29 39 29 76v6q0 41 -27 66q-29 23 -74 22h-8q-14 0 -43 -4q-8 -2 -21.5 -5t-15.5 -3q-4 0 -11 -3t-17.5 -6.5t-18.5 -5.5q-45 -16 -51 -18h-6q-8 0 -13 4q-8 6 -8 16v152 q0 29 23 35q123 37 215 37h8q131 0 219 -64.5t88 -191.5v-13q0 -109 -127 -219q-27 -25 -72 -59q-16 -12 -18 -14l-35 -27h242q27 0 27 -29v-155q0 -27 -27 -27h-539q-27 0 -26 27z" />
<glyph unicode="&#xbe;" horiz-adv-x="1968" d="M49 707v141q0 10 8 16q6 4 19 4q4 0 10 -3t18.5 -6t22.5 -7q47 -16 51 -16l15 -5q14 -2 24 -4q33 -4 43 -4h8q43 0 76 18.5t33 57.5v8q0 27 -21 47q-23 18 -65 19h-90q-27 0 -27 26v103q0 27 27 26h78q43 0 63 21q23 18 23 49v6q0 33 -25 53q-29 18 -68 19h-6 q-12 0 -41 -4q-33 -10 -37 -10t-21 -5.5t-30 -9.5q-45 -14 -51 -16h-6q-8 0 -12 4q-8 2 -9 14v140q0 29 25 34q123 37 207 37h6q125 0 214 -57t89 -176v-10q0 -100 -102 -162q119 -51 118 -174v-11q0 -121 -97 -178t-226 -57h-6q-90 0 -215 37q-23 6 -23 35zM463 10 q-6 10 0 23l649 1368q14 33 51 33h154q14 0 20 -10.5t0 -22.5l-649 -1368q-14 -33 -51 -33h-154q-14 0 -20 10zM1184 197v122q0 20 12 37l246 392q16 25 45 24h248q28 0 28 -27v-385h131q27 0 27 -26v-137q0 -27 -27 -27h-131v-143q0 -27 -28 -27h-176q-27 0 -27 27v143 h-322q-27 0 -26 27zM1386 360h146v232z" />
<glyph unicode="&#xbf;" horiz-adv-x="1024" d="M49 53v19q0 178 110.5 284.5t286.5 106.5q49 0 107 -10l4 137q2 26 29 26h172q25 0 26 -26l15 -254q2 -27 -21 -49l-16 -17q-23 -18 -62 -18q-92 10 -102 10q-94 0 -157.5 -40t-63.5 -128v-6q0 -180 237 -180h13q74 0 196 31q45 16 119 41q4 2 10 2q4 0 13 -5 q10 -6 10 -16v-229q0 -33 -27 -41q-131 -59 -340 -60h-14q-141 0 -260 40t-202 139.5t-83 242.5zM516 811v254q0 27 27 27h256q29 0 28 -27v-254q0 -29 -28 -29h-256q-27 0 -27 29z" />
<glyph unicode="&#xc0;" horiz-adv-x="1341" d="M49 27l381 1378q6 29 29 29h424q18 0 28 -29l381 -1378q2 -12 -6 -19q-8 -8 -20 -8h-271q-23 0 -28 29l-84 307h-424l-84 -307q-6 -29 -29 -29h-270q-12 0 -21 8q-10 6 -6 19zM344 1901l229 20q29 0 37 -25l156 -313l-182 -16q-20 0 -33 18zM526 612h287l-41 154l-94 412 h-14l-95 -412z" />
<glyph unicode="&#xc1;" horiz-adv-x="1341" d="M49 27l381 1378q6 29 29 29h424q18 0 28 -29l381 -1378q2 -12 -6 -19q-8 -8 -20 -8h-271q-23 0 -28 29l-84 307h-424l-84 -307q-6 -29 -29 -29h-270q-12 0 -21 8q-10 6 -6 19zM526 612h287l-41 154l-94 412h-14l-95 -412zM567 1583l156 313q10 25 37 25h219l-197 -336 q-12 -18 -32 -18h-172z" />
<glyph unicode="&#xc2;" horiz-adv-x="1341" d="M49 27l381 1378q6 29 29 29h422q20 0 30 -29l381 -1378q2 -12 -6 -19q-8 -8 -20 -8h-271q-23 0 -28 29l-84 307h-424l-84 -307q-6 -29 -29 -29h-270q-12 0 -21 8q-10 6 -6 19zM352 1573l211 328q12 20 35 20h145q21 0 33 -20l211 -316q-2 -18 -12 -18h-191q-27 0 -39 22 l-75 150l-76 -150q-12 -23 -39 -22h-190q-8 0 -13 6zM526 612h287l-41 154l-94 412h-14l-95 -412z" />
<glyph unicode="&#xc3;" horiz-adv-x="1341" d="M49 27l381 1378q6 29 29 29h424q18 0 28 -29l381 -1378q2 -12 -6 -19q-8 -8 -20 -8h-271q-23 0 -28 29l-84 307h-424l-84 -307q-6 -29 -29 -29h-270q-12 0 -21 8q-10 6 -6 19zM360 1587q16 51 32 86t42.5 79t64.5 66.5t85 22.5h8q51 0 102 -39q51 -41 78 -41q39 0 72 45 q12 15 30 15h93q20 0 14 -21q-16 -49 -31.5 -84t-43 -79t-65.5 -67.5t-83 -23.5h-8q-57 0 -99 41q-39 39 -84 39q-18 0 -32 -6q-16 -8 -21 -14q-29 -39 -47 -39h-94q-20 0 -13 20zM526 612h287l-41 154l-94 412h-14l-95 -412z" />
<glyph unicode="&#xc4;" horiz-adv-x="1341" d="M49 27l381 1378q6 29 29 29h422q20 0 30 -29l381 -1378q2 -12 -6 -19q-8 -8 -20 -8h-271q-23 0 -28 29l-84 307h-424l-84 -307q-6 -29 -29 -29h-270q-12 0 -21 8q-10 6 -6 19zM348 1599v254q0 27 27 27h213q29 0 28 -27v-254q0 -29 -28 -28h-213q-27 0 -27 28zM526 612 h287l-41 154l-94 412h-14l-95 -412zM725 1599v254q0 27 27 27h213q27 0 26 -27v-254q0 -29 -26 -28h-213q-27 0 -27 28z" />
<glyph unicode="&#xc5;" horiz-adv-x="1341" d="M49 27l381 1378q6 29 29 29h424q18 0 28 -29l381 -1378q2 -12 -6 -19q-8 -8 -20 -8h-271q-23 0 -28 29l-84 307h-424l-84 -307q-6 -29 -29 -29h-270q-12 0 -21 8q-10 6 -6 19zM471 1728.5q0 81.5 59.5 139t141.5 57.5t139 -57.5t57 -139t-57 -141t-139 -59.5t-141.5 59.5 t-59.5 141zM526 612h287l-41 154l-94 412h-14l-95 -412zM610 1729q0 -25 19 -43q14 -20 43 -21q25 0 43 18q16 20 16 46q0 23 -16 43q-20 16 -43 16q-27 0 -44.5 -16.5t-17.5 -42.5z" />
<glyph unicode="&#xc6;" horiz-adv-x="1660" d="M49 27l381 1378q6 29 29 29h1114q27 0 26 -27v-223q0 -27 -26 -27h-578v-289h521q27 0 26 -26v-224q0 -27 -26 -26h-521v-316h578q27 0 26 -26v-223q0 -27 -26 -27h-868q-27 0 -27 27v309h-219l-84 -307q-6 -29 -29 -29h-270q-12 0 -21 8q-10 6 -6 19zM526 612h152v566 h-14l-95 -412z" />
<glyph unicode="&#xc7;" horiz-adv-x="1157" d="M104 625v184q0 281 171 466t446 185h31q197 0 319 -65q25 -12 25 -43v-217q0 -12 -11 -19q-8 -4 -12 -4q-6 0 -8 2q-162 70 -281 70h-10q-162 0 -252 -104.5t-90 -270.5v-184q0 -166 90 -270.5t252 -104.5h10q127 0 281 69q2 2 8 3q4 0 12 -5q10 -6 11 -18v-219 q0 -27 -25 -43q-127 -63 -315 -64l-15 -71q16 4 29 4q74 0 119 -44t45 -118q0 -94 -66.5 -139t-162.5 -45q-86 0 -146 30q-27 12 -27 39v58q0 10 10.5 10t30.5 -8q29 -8 48 -13q33 -4 51 -4q84 0 84 56q0 53 -70 53q-29 0 -70 -14q-4 -2 -10 -2.5t-8 2.5l-10 4 q-16 10 -15 24l39 187q-238 41 -373 219t-135 424z" />
<glyph unicode="&#xc8;" horiz-adv-x="1103" d="M121 27v1380q0 27 26 27h871q27 0 26 -27v-223q0 -27 -26 -27h-578v-289h521q27 0 26 -26v-224q0 -27 -26 -26h-521v-316h578q27 0 26 -26v-223q0 -27 -26 -27h-871q-27 0 -26 27zM268 1901l230 20q27 0 37 -25l155 -313l-182 -16q-20 0 -33 18z" />
<glyph unicode="&#xc9;" horiz-adv-x="1103" d="M121 27v1380q0 27 26 27h871q27 0 26 -27v-223q0 -27 -26 -27h-578v-289h521q27 0 26 -26v-224q0 -27 -26 -26h-521v-316h578q27 0 26 -26v-223q0 -27 -26 -27h-871q-27 0 -26 27zM457 1583l155 313q12 25 39 25h217q8 0 13 -6l-207 -330q-12 -18 -35 -18h-172z" />
<glyph unicode="&#xca;" horiz-adv-x="1103" d="M121 27v1380q0 27 26 27h871q27 0 26 -27v-223q0 -27 -26 -27h-578v-289h521q27 0 26 -26v-224q0 -27 -26 -26h-521v-316h578q27 0 26 -26v-223q0 -27 -26 -27h-871q-27 0 -26 27zM256 1567l201 334q12 20 32 20h146q23 0 35 -20l209 -316l-203 -18q-25 0 -37 22l-76 150 l-78 -150q-10 -23 -36 -22h-193z" />
<glyph unicode="&#xcb;" horiz-adv-x="1103" d="M121 27v1380q0 27 26 27h871q27 0 26 -27v-223q0 -27 -26 -27h-578v-289h521q27 0 26 -26v-224q0 -27 -26 -26h-521v-316h578q27 0 26 -26v-223q0 -27 -26 -27h-871q-27 0 -26 27zM238 1599v254q-1 27 28 27h213q27 0 27 -27v-254q0 -29 -27 -28h-213q-29 0 -28 28z M614 1599v254q0 27 29 27h213q27 0 27 -27v-254q0 -29 -27 -28h-213q-29 0 -29 28z" />
<glyph unicode="&#xcc;" horiz-adv-x="561" d="M-45 1901l229 20q25 0 37 -25l156 -313l-182 -16q-23 0 -35 18zM121 27v1380q-1 27 26 27h267q27 0 26 -27v-1380q0 -27 -26 -27h-267q-27 0 -26 27z" />
<glyph unicode="&#xcd;" horiz-adv-x="561" d="M121 27v1380q-1 27 26 27h267q27 0 26 -27v-1380q0 -27 -26 -27h-267q-27 0 -26 27zM180 1583l156 313q8 25 37 25h219l-197 -336q-12 -18 -33 -18h-172z" />
<glyph unicode="&#xce;" horiz-adv-x="561" d="M-25 1567l201 334q12 20 33 20h145q23 0 35 -20l209 -316l-203 -18q-27 0 -37 22l-75 150l-78 -150q-10 -23 -37 -22h-193zM121 27v1380q-1 27 26 27h267q27 0 26 -27v-1380q0 -27 -26 -27h-267q-27 0 -26 27z" />
<glyph unicode="&#xcf;" horiz-adv-x="561" d="M-41 1599v254q0 27 29 27h213q27 0 26 -27v-254q0 -29 -26 -28h-213q-29 0 -29 28zM121 27v1380q-1 27 26 27h267q27 0 26 -27v-1380q0 -27 -26 -27h-267q-27 0 -26 27zM336 1599v254q-1 27 26 27h216q27 0 26 -27v-254q0 -29 -26 -28h-216q-27 0 -26 28z" />
<glyph unicode="&#xd0;" horiz-adv-x="1327" d="M49 575v181q0 27 27 26h45v625q-1 27 26 27h496q279 0 429.5 -173.5t150.5 -449.5v-188q0 -281 -154 -452t-426 -171h-496q-27 0 -26 27v522h-45q-27 0 -27 26zM440 276h164q295 1 295 347v188q0 170 -68.5 258t-226.5 88h-164v-375h219q29 0 29 -26v-181q0 -27 -29 -26 h-219v-273z" />
<glyph unicode="&#xd1;" horiz-adv-x="1386" d="M117 27v1380q0 27 26 27h299q25 0 37 -23l309 -575l170 -347h23l-29 347v571q0 27 27 27h264q29 0 29 -27v-1380q0 -27 -29 -27h-299q-25 0 -37 23l-325 600l-154 321h-22l28 -321v-596q0 -27 -26 -27h-265q-27 0 -26 27zM383 1587q16 51 31.5 86t42 79t64.5 66.5 t85 22.5h8q51 0 103 -39q51 -41 80 -41q37 0 69 45q13 15 31 15h92q20 0 15 -21q-16 -51 -32 -85t-42.5 -78t-64.5 -67.5t-85 -23.5h-8q-47 0 -98 41q-47 39 -84 39q-16 0 -31 -6q-14 -8 -20 -14q-25 -39 -50 -39h-92q-20 0 -14 20z" />
<glyph unicode="&#xd2;" horiz-adv-x="1392" d="M104 582v270q0 266 158 437t418 171h31q266 0 421.5 -171t155.5 -437v-270q0 -266 -158.5 -437.5t-418.5 -171.5h-31q-264 0 -420 173t-156 436zM373 1901l229 20q29 0 37 -25l156 -313l-183 -16q-20 0 -32 18zM432 553q0 -133 63.5 -218t192.5 -85h17q129 0 192.5 85 t63.5 218v328q0 133 -63.5 218t-192.5 85h-17q-129 0 -192.5 -85t-63.5 -218v-328z" />
<glyph unicode="&#xd3;" horiz-adv-x="1392" d="M104 582v270q0 266 158 437t418 171h31q266 0 421.5 -172t155.5 -436v-270q0 -266 -158.5 -437.5t-418.5 -171.5h-31q-264 0 -420 173t-156 436zM432 553q0 -135 63.5 -219t192.5 -84h17q129 0 192.5 85t63.5 218v328q0 135 -63.5 219t-192.5 84h-17q-129 0 -192.5 -85 t-63.5 -218v-328zM606 1583l156 313q8 25 37 25h219l-197 -336q-12 -18 -33 -18h-174z" />
<glyph unicode="&#xd4;" horiz-adv-x="1392" d="M104 582v270q0 266 158 437t418 171h31q266 0 421.5 -172t155.5 -436v-270q0 -266 -158.5 -437.5t-418.5 -171.5h-31q-264 0 -420 173t-156 436zM391 1567l199 334q12 20 35 20h145q21 0 33 -20l211 -316l-203 -18q-27 0 -37 22l-78 150l-75 -150q-12 -23 -37 -22h-193z M432 553q0 -133 63.5 -218t192.5 -85h17q129 0 192.5 85t63.5 218v328q0 133 -63.5 218t-192.5 85h-17q-131 0 -193.5 -85t-62.5 -218v-328z" />
<glyph unicode="&#xd5;" horiz-adv-x="1392" d="M104 582v270q0 266 158 437t418 171h31q266 0 421.5 -171t155.5 -437v-270q0 -266 -158.5 -437.5t-418.5 -171.5h-31q-264 0 -420 173t-156 436zM387 1587q16 51 31.5 86t42 79t64.5 66.5t85 22.5h8q51 0 103 -39q51 -41 80 -41q37 0 69 45q13 15 31 15h92q20 0 15 -21 q-16 -51 -31.5 -85t-42.5 -78t-65 -67.5t-85 -23.5h-8q-41 0 -67 21q-33 18 -58 39q-27 20 -57 20q-16 0 -31 -6q-14 -8 -20 -14q-25 -39 -49 -39h-93q-20 0 -14 20zM432 553q0 -133 63.5 -218t192.5 -85h17q129 0 192.5 85t63.5 218v328q0 133 -63.5 218t-192.5 85h-17 q-131 0 -193.5 -85t-62.5 -218v-328z" />
<glyph unicode="&#xd6;" horiz-adv-x="1392" d="M104 582v270q0 266 158 437t418 171h31q266 0 421.5 -172t155.5 -436v-270q0 -266 -158.5 -437.5t-418.5 -171.5h-31q-264 0 -420 173t-156 436zM375 1599v254q-1 27 26 27h215q27 0 27 -27v-254q0 -29 -27 -28h-215q-27 0 -26 28zM432 553q0 -135 63.5 -219t192.5 -84 h17q129 0 192.5 85t63.5 218v328q0 51 -11 106q-35 137 -157 184q-39 13 -88 13h-17q-129 0 -192.5 -85t-63.5 -218v-328zM752 1599v254q-1 27 26 27h213q29 0 29 -27v-254q0 -29 -29 -28h-213q-27 0 -26 28z" />
<glyph unicode="&#xd7;" horiz-adv-x="915" d="M57 352q-20 18 0 37l236 236l-234 231q-20 20 0 39l127 129q10 10 21 10q8 0 18 -10l234 -233l233 233q10 10 18.5 10t18.5 -10l129 -129q18 -19 0 -39l-233 -231l233 -236q18 -16 0 -37l-129 -127q-10 -10 -18.5 -10t-18.5 10l-233 234l-236 -236q-8 -8 -18 -8t-19 8z " />
<glyph unicode="&#xd8;" horiz-adv-x="1392" d="M102 12q-6 12 2 27l111 162q-111 156 -111 381v270q0 266 158 437t418 171h31q170 0 305 -80l14 21q20 33 47 33h193q16 0 22 -13q4 -14 -4 -26l-110 -162q111 -156 110 -381v-270q0 -266 -158.5 -437.5t-418.5 -171.5h-31q-168 0 -303 80l-12 -20q-20 -33 -50 -33h-192 q-16 0 -21 12zM432 553q0 -20 2 -31l418 619q-57 43 -147 43h-17q-129 0 -192.5 -85t-63.5 -218v-328zM541 293q57 -43 147 -43h17q129 0 192.5 85t63.5 218v328q0 18 -3 28z" />
<glyph unicode="&#xd9;" horiz-adv-x="1357" d="M121 535v872q0 27 26 27h275q27 0 27 -27v-883q0 -274 225 -274h16q223 0 223 274v883q0 27 27 27h274q27 0 27 -27v-872q0 -262 -144.5 -412t-400.5 -150h-30q-260 0 -402.5 153t-142.5 409zM350 1901l230 20q26 0 38 -25l156 -313l-182 -16q-23 0 -35 18z" />
<glyph unicode="&#xda;" horiz-adv-x="1357" d="M121 535v872q0 27 26 27h275q27 0 27 -27v-883q0 -274 225 -274h16q223 0 223 274v883q0 27 27 27h274q27 0 27 -27v-872q0 -262 -144.5 -412t-400.5 -150h-30q-260 0 -402.5 153t-142.5 409zM590 1583l155 313q12 25 37 25h219l-194 -336q-12 -18 -35 -18h-172z" />
<glyph unicode="&#xdb;" horiz-adv-x="1357" d="M121 535v872q0 27 26 27h275q27 0 27 -27v-883q0 -274 225 -274h16q223 0 223 274v883q0 27 27 27h274q27 0 27 -27v-872q0 -260 -145.5 -411t-399.5 -151h-30q-260 0 -402.5 153t-142.5 409zM373 1567l200 334q12 20 33 20h146q22 0 34 -20l209 -316l-202 -18 q-25 0 -37 22l-76 150l-78 -150q-10 -23 -37 -22h-192z" />
<glyph unicode="&#xdc;" horiz-adv-x="1357" d="M121 535v872q0 27 26 27h275q27 0 27 -27v-883q0 -274 225 -274h16q223 0 223 274v883q0 27 27 27h274q27 0 27 -27v-872q0 -262 -144.5 -412t-400.5 -150h-30q-260 0 -402.5 153t-142.5 409zM356 1599v254q0 27 29 27h213q27 0 27 -27v-254q0 -29 -27 -28h-213 q-29 0 -29 28zM733 1599v254q0 27 29 27h213q27 0 26 -27v-254q0 -29 -26 -28h-213q-29 0 -29 28z" />
<glyph unicode="&#xdd;" horiz-adv-x="1288" d="M51 1391q-6 16 2 30q8 12 27 13h266q27 0 39 -25l193 -399l63 -246h6l64 246l192 399q12 25 39 25h266q20 0 29 -13q8 -16 0 -30l-432 -920v-444q0 -27 -27 -27h-266q-29 0 -29 27v444zM551 1583l156 313q12 25 38 25h218q8 0 12 -6l-207 -330q-12 -18 -35 -18h-172z" />
<glyph unicode="&#xde;" horiz-adv-x="1267" d="M121 27v1380q0 27 26 27h267q26 0 26 -27v-162h217q231 0 367.5 -113.5t136.5 -340.5v-21q0 -233 -142 -356t-380 -123h-199v-264q0 -27 -26 -27h-267q-27 0 -26 27zM440 555h162q232 0 232 201v18q0 195 -228 195h-166v-414z" />
<glyph unicode="&#xdf;" horiz-adv-x="1284" d="M80 27v1177q0 158 98 245t258 87h21q164 0 266 -87t102 -245v-6q0 -111 -65 -197q-68 -90 -68 -155v-4q0 -123 170 -183l68 -22q152 -51 224.5 -119.5t72.5 -210.5v-14q0 -158 -124 -239t-290 -81h-14q-195 0 -303 52q-23 10 -23 38v177q0 12 8 18q4 4 11 4q4 0 8 -2 q178 -72 272 -72h12q137 0 138 88v7q0 37 -25 55q-29 18 -80 35l-69 22q-143 47 -219 119t-76 203v12q0 123 88 229q88 104 88 195v6q0 139 -113 139h-10q-63 0 -92 -44t-29 -109v-1118q0 -27 -27 -27h-249q-29 0 -29 27z" />
<glyph unicode="&#xe0;" horiz-adv-x="1007" d="M49 264v23q0 303 434 331l144 11v20q0 92 -37 129q-41 35 -129 35h-4q-35 0 -68 -6q-16 -4 -37 -6q-8 -2 -21.5 -5t-15.5 -3q-6 -2 -19 -5.5t-20 -5.5q-10 -2 -24 -6l-14 -4q-4 0 -17.5 -4t-23.5 -6q-25 -8 -41 -12q-4 -2 -9 -2q-6 0 -10 4q-8 6 -8 16v182q0 33 23 39 q200 62 370 62h10q397 0 400 -389v-635q0 -27 -27 -27h-221q-18 0 -25 20l-16 89q-137 -135 -293 -136h-10q-131 0 -211 80t-80 211zM205 1491l229 20q29 1 37 -24l156 -313l-183 -17q-20 0 -32 19zM354 317q0 -49 34 -80.5t83 -31.5h10q70 -1 146 67v179l-103 -2 q-170 -4 -170 -123v-9z" />
<glyph unicode="&#xe1;" horiz-adv-x="1007" d="M49 264v23q0 303 434 331l144 11v20q0 92 -37 129q-41 35 -129 35h-4q-35 0 -68 -6q-16 -4 -37 -6q-8 -2 -21.5 -5t-15.5 -3q-6 -2 -19 -5.5t-20 -5.5q-10 -2 -24 -6l-14 -4q-4 0 -17.5 -4t-23.5 -6q-25 -8 -41 -12q-4 -2 -9 -2q-6 0 -10 4q-8 6 -8 16v182q0 33 23 39 q200 62 370 62h10q397 0 400 -389v-635q0 -27 -27 -27h-221q-18 0 -25 20l-16 89q-137 -135 -293 -136h-10q-131 0 -211 80t-80 211zM354 317q0 -49 34 -80.5t83 -31.5h10q70 -1 146 67v179l-103 -2q-170 -4 -170 -123v-9zM438 1174l156 313q8 25 37 24h219l-197 -335 q-12 -18 -32 -19h-175z" />
<glyph unicode="&#xe2;" horiz-adv-x="1007" d="M49 264v23q0 303 434 331l144 11v20q0 92 -37 129q-41 35 -129 35h-4q-25 0 -37 -2l-43 -6q-57 -8 -86 -19l-41 -10q-45 -8 -94 -26q-4 -2 -9 -2q-6 0 -10 4q-8 6 -8 16v182q0 33 23 39q200 62 370 62h10q397 0 400 -389v-635q0 -27 -27 -27h-221q-18 0 -25 20l-16 89 q-137 -135 -293 -136h-10q-131 0 -211 80t-80 211zM199 1157l198 334q12 20 35 20h146q20 0 32 -20l211 -315l-203 -19q-27 0 -36 23l-78 149l-76 -149q-12 -23 -37 -23h-192zM354 317q0 -51 33 -81.5t84 -30.5h10q70 -1 146 67v179l-103 -2q-170 -4 -170 -123v-9z" />
<glyph unicode="&#xe3;" horiz-adv-x="1007" d="M49 264v23q0 303 434 331l144 11v20q0 92 -37 129q-41 35 -129 35h-4q-25 0 -37 -2l-43 -6q-57 -8 -86 -19l-41 -10q-45 -8 -94 -26q-4 -2 -9 -2q-6 0 -10 4q-8 6 -8 16v182q0 33 23 39q200 62 370 62h10q397 0 400 -389v-635q0 -27 -27 -27h-221q-18 0 -25 20l-16 89 q-137 -135 -293 -136h-10q-131 0 -211 80t-80 211zM195 1178q70 197 155 241q31 12 68 13h8q51 0 102 -39q51 -41 80 -41q37 0 70 45q13 14 31 14h92q20 0 14 -20q-16 -51 -31.5 -85t-42 -78t-64.5 -67.5t-85 -23.5h-8q-47 0 -99 41q-47 39 -84 39q-16 0 -30 -7 q-16 -10 -21 -14q-25 -39 -49 -39h-92q-20 0 -14 21zM354 317q0 -49 34 -80.5t83 -31.5h10q70 -1 146 67v179l-103 -2q-170 -4 -170 -123v-9z" />
<glyph unicode="&#xe4;" horiz-adv-x="1007" d="M49 264v23q0 303 434 331l144 11v20q0 92 -37 129q-41 35 -129 35h-4q-25 0 -37 -2l-43 -6q-57 -8 -86 -19l-41 -10q-45 -8 -94 -26q-4 -2 -9 -2q-6 0 -10 4q-8 6 -8 16v182q0 33 23 39q200 62 370 62h10q397 0 400 -389v-635q0 -27 -27 -27h-221q-18 0 -25 20l-16 89 q-137 -135 -293 -136h-10q-131 0 -211 80t-80 211zM182 1190v254q0 26 27 26h215q27 0 27 -26v-254q0 -29 -27 -29h-215q-27 0 -27 29zM354 317q0 -49 34 -80.5t83 -31.5h10q70 -1 146 67v179l-103 -2q-170 -4 -170 -123v-9zM559 1190v254q0 26 27 26h213q29 0 28 -26v-254 q0 -29 -28 -29h-213q-27 0 -27 29z" />
<glyph unicode="&#xe5;" horiz-adv-x="1007" d="M49 264v23q0 303 434 331l144 11v20q0 92 -37 129q-41 35 -129 35h-4q-25 0 -37 -2l-43 -6q-57 -8 -86 -19l-41 -10q-45 -8 -94 -26q-4 -2 -9 -2q-6 0 -10 4q-8 6 -8 16v182q0 33 23 39q200 62 370 62h10q397 0 400 -389v-635q0 -27 -27 -27h-221q-18 0 -25 20l-16 89 q-137 -135 -293 -136h-10q-131 0 -211 80t-80 211zM305 1319q0 82 59.5 139.5t141.5 57.5q84 0 141.5 -57.5t57.5 -139.5q0 -84 -57.5 -142.5t-141.5 -58.5t-142.5 59.5t-58.5 141.5zM354 317q0 -49 34 -80.5t83 -31.5h10q70 -1 146 67v179l-103 -2q-170 -4 -170 -123v-9z M444 1319q0 -25 19 -43q14 -20 43 -21q25 0 43 19q16 20 16 45q0 23 -16 43q-20 16 -43 16q-27 0 -44.5 -16t-17.5 -43z" />
<glyph unicode="&#xe6;" horiz-adv-x="1611" d="M49 264v23q0 303 434 331l144 11v20q0 92 -37 129q-41 35 -129 35h-4h-29q-4 -2 -15.5 -2t-17.5 -2l-30 -6q-39 -6 -66 -15q-4 0 -15.5 -3t-19.5 -5q-12 -2 -35.5 -9t-35.5 -11q-10 -2 -21.5 -6t-15.5 -4q-4 -2 -9 -2q-6 0 -10 4q-8 6 -8 16v182q0 33 23 39 q201 61 370 62h10q186 0 283 -103q115 103 281 103h22q203 0 316.5 -122t113.5 -327v-108q0 -18 -12 -31q-16 -12 -33 -12h-563v-33q0 -98 60.5 -152.5t160.5 -54.5h10q102 0 299 74q2 0 5.5 1t5.5 1h4l14 -209q0 -27 -22 -37q-145 -68 -351 -68h-20q-190 0 -313 105v-51 q0 -27 -27 -27h-82q-18 0 -25 20l-16 89q-137 -135 -293 -136h-10q-131 0 -211 80t-80 211zM354 317q0 -49 34 -80.5t83 -31.5h10q70 -1 146 67v179l-103 -2q-170 -4 -170 -123v-9zM940 625h324q6 205 -156 204h-8q-80 0 -118 -59t-42 -145z" />
<glyph unicode="&#xe7;" horiz-adv-x="931" d="M68 459v106q0 221 129 353.5t348 132.5h22q147 0 279 -68q20 -8 20 -37v-188q0 -10 -8 -17q-8 -4 -10 -4q-6 0 -8 2q-154 68 -228 68h-12q-109 0 -165 -68.5t-56 -179.5v-94q0 -111 56.5 -179.5t164.5 -68.5h12q74 0 228 68q2 2 8 2q2 0 10 -4q8 -6 8 -17v-188 q0 -29 -20 -37q-131 -68 -279 -68h-2l-14 -71q16 4 27 4q74 0 118.5 -44t44.5 -118q0 -92 -65.5 -138t-161.5 -46q-88 0 -145 30q-27 12 -27 39v58q0 10 10 10t31 -8q29 -8 47 -13q33 -4 49 -4q84 0 84 56q0 53 -67 53q-29 0 -72 -14q-4 -2 -8 -3q-6 0 -8 3l-11 4 q-16 10 -14 24l39 191q-172 37 -263 165t-91 308z" />
<glyph unicode="&#xe8;" horiz-adv-x="1052" d="M68 451v110q0 215 128 352.5t341 137.5h22q203 0 315.5 -124t112.5 -325v-108q0 -18 -12 -30.5t-31 -12.5h-563v-33q0 -98 60.5 -152.5t160.5 -54.5h10q102 0 299 74q2 2 9 2q2 0 10 -4q8 -6 8 -17v-188q0 -27 -23 -37q-12 -6 -30 -12q-14 -6 -43 -15q-33 -8 -51 -12 l-56 -12q-8 -2 -27.5 -4t-29.5 -4q-8 -2 -27.5 -4.5t-29.5 -2.5q-18 -2 -54 -2h-20q-219 0 -349 129t-130 349zM236 1491l229 20q27 1 37 -24l155 -313l-182 -17q-20 0 -33 19zM379 625h326q6 204 -156 204h-8q-80 0 -119 -59t-43 -145z" />
<glyph unicode="&#xe9;" horiz-adv-x="1052" d="M68 451v110q0 215 128 352.5t341 137.5h22q203 0 315.5 -124t112.5 -325v-108q0 -18 -12 -30.5t-31 -12.5h-563v-33q0 -98 60.5 -152.5t160.5 -54.5h10q102 0 299 74q2 2 9 2q2 0 10 -4q8 -6 8 -17v-188q0 -27 -23 -37q-61 -31 -164.5 -49.5t-183.5 -18.5h-20 q-221 0 -350 128t-129 350zM379 625h326q6 204 -156 204h-8q-80 0 -119 -59t-43 -145zM420 1174l155 313q10 25 37 24h219l-196 -335q-12 -18 -33 -19h-172z" />
<glyph unicode="&#xea;" horiz-adv-x="1052" d="M68 451v110q0 215 128 352.5t341 137.5h22q203 0 315.5 -122t112.5 -327v-108q0 -18 -12 -30.5t-31 -12.5h-563v-33q0 -98 60.5 -152.5t160.5 -54.5h10q102 0 299 74q2 2 9 2q2 0 10 -4q8 -6 8 -17v-188q0 -27 -23 -37q-141 -68 -348 -68h-20q-219 0 -349 129t-130 349z M209 1163l211 328q12 20 35 20h145q21 0 33 -20l211 -315l-203 -19q-27 0 -37 23l-78 149l-75 -149q-12 -23 -39 -23h-191q-8 0 -12 6zM379 625h326q6 204 -156 204h-8q-49 0 -84 -22q-35 -27 -54 -70q-20 -45 -24 -112z" />
<glyph unicode="&#xeb;" horiz-adv-x="1052" d="M68 451v110q0 215 128 352.5t341 137.5h22q203 0 315.5 -122t112.5 -327v-108q0 -18 -12 -30.5t-31 -12.5h-563v-33q0 -98 60.5 -152.5t160.5 -54.5h10q102 0 299 74q2 2 9 2q2 0 10 -4q8 -6 8 -17v-188q0 -27 -23 -37q-141 -68 -348 -68h-20q-221 0 -350 130t-129 348z M205 1190v254q-1 26 26 26h213q29 0 29 -26v-254q0 -29 -29 -29h-213q-27 0 -26 29zM379 625h326q6 204 -156 204h-8q-49 0 -84 -22q-35 -27 -54 -70q-20 -45 -24 -112zM582 1190v254q-1 26 26 26h213q29 0 29 -26v-254q0 -29 -29 -29h-213q-27 0 -26 29z" />
<glyph unicode="&#xec;" horiz-adv-x="468" d="M-104 1491l229 20q27 1 39 -24l153 -313l-180 -17q-23 0 -35 19zM84 27v970q0 27 27 27h249q29 0 29 -27v-970q0 -27 -29 -27h-249q-27 0 -27 27z" />
<glyph unicode="&#xed;" horiz-adv-x="468" d="M84 27v970q0 27 27 27h249q29 0 29 -27v-970q0 -27 -29 -27h-249q-27 0 -27 27zM141 1174l156 313q12 25 37 24h219l-195 -335q-12 -18 -34 -19h-172z" />
<glyph unicode="&#xee;" horiz-adv-x="468" d="M-66 1157l201 334q12 20 33 20h145q23 0 35 -20l209 -315l-203 -19q-25 0 -37 23l-75 149l-78 -149q-10 -23 -37 -23h-193zM84 27v970q0 27 27 27h249q29 0 29 -27v-970q0 -27 -29 -27h-249q-27 0 -27 27z" />
<glyph unicode="&#xef;" horiz-adv-x="468" d="M-86 1190v254q0 26 27 26h215q27 0 26 -26v-254q0 -29 -26 -29h-215q-27 0 -27 29zM84 27v970q0 27 27 27h249q29 0 29 -27v-970q0 -27 -29 -27h-249q-27 0 -27 27zM291 1190v254q-1 26 26 26h215q27 0 27 -26v-254q0 -29 -27 -29h-215q-27 0 -26 29z" />
<glyph unicode="&#xf0;" horiz-adv-x="1093" d="M68 436v139q0 188 96 314.5t276 126.5h19q147 0 256 -103v183q0 35 -6 61l-121 -84q-12 -8 -17 -8q-10 0 -20 12l-78 111q-14 20 8 37l97 67q-45 10 -93 11h-10q-104 0 -282 -70q-27 10 -27 20v187q0 31 22 37q70 23 99 30q131 29 260 29h8q152 0 270 -70l101 70 q8 6 18.5 6t18.5 -12l77 -109q16 -23 -8 -39l-69 -47q63 -100 63 -239v-660q-4 -211 -129 -337t-334 -126h-22q-207 0 -340 130t-133 333zM379 422q0 -88 41 -146.5t125 -58.5h12q158 0 158 205v285q-88 66 -170 65h-8q-158 0 -158 -205v-145z" />
<glyph unicode="&#xf1;" horiz-adv-x="1083" d="M80 27v970q0 27 26 27h222q23 0 24 -20l17 -86q156 133 297 133h22q154 0 237 -89.5t83 -242.5v-692q0 -27 -27 -27h-250q-27 0 -26 27v626q0 78 -32 116t-108 38h-8q-80 0 -172 -62v-718q0 -27 -29 -27h-250q-27 0 -26 27zM233 1178q16 51 32 85.5t42.5 78.5t64.5 67 t85 23h8q51 0 102 -39q51 -41 78 -41q39 0 72 45q13 14 31 14h92q20 0 14 -20q-68 -182 -135 -228q-39 -27 -88 -26h-8q-47 0 -99 41q-47 39 -84 39q-18 0 -32 -7q-14 -10 -21 -14q-29 -39 -47 -39h-94q-20 0 -13 21z" />
<glyph unicode="&#xf2;" horiz-adv-x="1112" d="M68 436v152q0 209 134 336t343 127h22q211 0 344 -127t133 -336v-152q0 -209 -134 -336t-343 -127h-22q-209 0 -343 128t-134 335zM238 1491q2 20 12 20h217q27 1 39 -24l156 -313l-183 -17q-23 0 -35 19zM379 422q0 -90 43 -147.5t129 -57.5h12q86 0 128 57.5t42 147.5 v180q0 92 -42 148.5t-128 56.5h-12q-86 0 -129 -57.5t-43 -147.5v-180z" />
<glyph unicode="&#xf3;" horiz-adv-x="1112" d="M68 436v152q0 209 134 336t343 127h22q211 0 344 -127t133 -336v-152q0 -209 -134 -336t-343 -127h-22q-209 0 -343 128t-134 335zM379 422q0 -90 43 -147.5t129 -57.5h12q86 0 128 57.5t42 147.5v180q0 90 -42 147.5t-128 57.5h-12q-86 0 -129 -57.5t-43 -147.5v-180z M465 1174l156 313q12 25 38 24h218q8 0 12 -6l-207 -329q-12 -18 -35 -19h-172z" />
<glyph unicode="&#xf4;" horiz-adv-x="1112" d="M68 436v152q0 209 134 336t343 127h22q211 0 344 -127t133 -336v-152q0 -209 -134 -336t-343 -127h-22q-209 0 -343 128t-134 335zM240 1163l211 328q12 20 34 20h146q21 0 33 -20l210 -315l-202 -19q-27 0 -37 23l-78 149l-76 -149q-12 -23 -39 -23h-190q-10 0 -12 6z M379 422q0 -90 43 -147.5t129 -57.5h12q86 0 128 57.5t42 147.5v180q0 90 -42 147.5t-128 57.5h-12q-86 0 -129 -57.5t-43 -147.5v-180z" />
<glyph unicode="&#xf5;" horiz-adv-x="1112" d="M68 436v152q0 209 134 336t343 127h22q211 0 344 -127t133 -336v-152q0 -209 -134 -336t-343 -127h-22q-209 0 -343 128t-134 335zM248 1178q16 51 31.5 85.5t42 78.5t64.5 67t85 23h8q51 0 103 -39q51 -41 77 -41q39 0 72 45q13 14 31 14h92q20 0 14 -20 q-68 -182 -135 -228q-39 -27 -88 -26h-8q-47 0 -98 41q-47 39 -84 39q-16 0 -33 -7q-16 -10 -21 -14q-29 -39 -47 -39h-94q-20 0 -12 21zM379 422q0 -90 43 -147.5t129 -57.5h12q88 0 129 57.5t41 147.5v180q0 90 -42 147.5t-128 57.5h-12q-86 0 -129 -57.5t-43 -147.5v-180 z" />
<glyph unicode="&#xf6;" horiz-adv-x="1112" d="M68 436v152q0 209 134 336t343 127h22q211 0 344 -128t133 -335v-152q0 -209 -134 -336t-343 -127h-22q-209 0 -343 128t-134 335zM236 1190v254q-1 26 26 26h213q29 0 29 -26v-254q0 -29 -29 -29h-213q-27 0 -26 29zM379 422q0 -90 43 -147.5t129 -57.5h12 q86 0 128 57.5t42 147.5v180q0 90 -42 147.5t-128 57.5h-12q-86 0 -129 -57.5t-43 -147.5v-180zM612 1190v254q0 26 27 26h213q29 0 29 -26v-254q0 -29 -29 -29h-213q-27 0 -27 29z" />
<glyph unicode="&#xf7;" horiz-adv-x="1046" d="M49 541v182q0 27 27 27h895q29 0 28 -27v-182q0 -27 -28 -27h-895q-27 0 -27 27zM369 68v254q-1 28 26 28h256q29 0 29 -28v-254q0 -27 -29 -27h-256q-27 0 -26 27zM369 942v254q-1 27 26 27h256q29 0 29 -27v-254q0 -27 -29 -27h-256q-27 0 -26 27z" />
<glyph unicode="&#xf8;" horiz-adv-x="1112" d="M63 12q-6 10 5 27l88 115q-88 115 -88 282v152q0 209 134 336t343 127h22q125 0 228 -50q23 23 43 23h190q16 0 23 -12q2 -12 -7 -27l-86 -117q86 -117 86 -280v-152q0 -209 -134 -336t-343 -127h-22q-121 0 -219 45q-18 -18 -41 -18h-199q-16 0 -23 12zM379 451l258 342 q-31 14 -74 14h-12q-86 0 -129 -57.5t-43 -147.5v-151zM483 229q31 -12 68 -12h12q86 0 128 57.5t42 147.5v145z" />
<glyph unicode="&#xf9;" d="M76 305v692q0 27 26 27h250q29 0 29 -27v-626q0 -74 26.5 -114t96.5 -40h8q80 0 172 62v718q0 27 29 27h250q27 0 26 -27v-970q0 -27 -26 -27h-222q-23 0 -24 20l-17 86q-156 -133 -297 -133h-22q-147 0 -226 90.5t-79 241.5zM199 1505q2 6 12 6h217q27 1 39 -24 l156 -313l-183 -17q-23 0 -34 19l-205 315q-4 4 -2 14z" />
<glyph unicode="&#xfa;" d="M76 305v692q0 27 26 27h250q29 0 29 -27v-626q0 -74 26.5 -114t96.5 -40h8q80 0 172 62v718q0 27 29 27h250q27 0 26 -27v-970q0 -27 -26 -27h-222q-23 0 -24 20l-17 86q-156 -133 -297 -133h-22q-147 0 -226 90.5t-79 241.5zM436 1174l156 313q10 25 37 24h219 l-197 -335q-12 -18 -33 -19h-172z" />
<glyph unicode="&#xfb;" d="M76 305v692q0 27 26 27h250q29 0 29 -27v-626q0 -74 26.5 -114t96.5 -40h8q80 0 172 62v718q0 27 29 27h250q27 0 26 -27v-970q0 -27 -26 -27h-222q-23 0 -24 20l-17 86q-156 -133 -297 -133h-22q-147 0 -226 90.5t-79 241.5zM215 1163l211 328q12 20 35 20h145 q21 0 33 -20l211 -315q-2 -18 -12 -19h-191q-27 0 -39 23l-76 149l-75 -149q-12 -23 -39 -23h-191q-10 0 -12 6z" />
<glyph unicode="&#xfc;" d="M76 305v692q0 27 26 27h250q29 0 29 -27v-626q0 -74 26.5 -114t96.5 -40h8q80 0 172 62v718q0 27 29 27h250q27 0 26 -27v-970q0 -27 -26 -27h-222q-23 0 -24 20l-17 86q-156 -133 -297 -133h-22q-147 0 -226 90.5t-79 241.5zM211 1190v254q0 26 27 26h213q29 0 28 -26 v-254q0 -29 -28 -29h-213q-27 0 -27 29zM588 1190v254q-1 26 26 26h213q27 0 27 -26v-254q0 -29 -27 -29h-213q-27 0 -26 29z" />
<glyph unicode="&#xfd;" horiz-adv-x="1075" d="M31 985q-6 16 2 29q10 10 24 10h254q18 0 25 -20l125 -379l76 -371h4l75 371l123 379q7 20 27 20h252q14 0 24 -10q8 -10 5 -29l-340 -1028q-49 -156 -135.5 -241t-235.5 -85h-17q-61 0 -139 14.5t-78 49.5v184q0 12 9 19q8 4 12 4t8 -2q94 -31 152 -31h4q82 0 110 88 l17 43h-41q-18 0 -25 20zM449 1174l155 313q12 25 39 24h217q8 0 12 -6l-206 -329q-12 -18 -35 -19h-172z" />
<glyph unicode="&#xfe;" horiz-adv-x="1101" d="M84 -315v1798q0 27 27 26h249q29 0 29 -26v-535q107 103 254 103h21q182 0 276 -126t94 -315v-174q0 -201 -104.5 -332t-298.5 -131h-21q-131 0 -221 80v-368q0 -27 -29 -27h-249q-27 0 -27 27zM389 285q90 -68 168 -68h10q156 0 156 205v180q0 205 -156 205h-10 q-84 0 -168 -64v-458z" />
<glyph unicode="&#xff;" horiz-adv-x="1075" d="M31 985q-6 16 2 29q10 10 24 10h254q18 0 25 -20l125 -379l76 -371h4l75 371l123 379q7 20 27 20h252q6 0 18 -4q6 -4 10.5 -14.5t0.5 -20.5l-340 -1028q-51 -156 -136.5 -241t-234.5 -85h-17q-61 0 -139 14.5t-78 49.5v184q0 12 9 19q8 4 12 4t8 -2q94 -31 152 -31h4 q82 0 110 88l17 43h-41q-18 0 -25 20zM215 1190v254q0 26 29 26h213q27 0 26 -26v-254q0 -29 -26 -29h-213q-29 0 -29 29zM592 1190v254q-1 26 26 26h216q27 0 26 -26v-254q0 -29 -26 -29h-216q-27 0 -26 29z" />
<glyph unicode="&#x100;" horiz-adv-x="1341" d="M49 27l381 1378q6 29 29 29h422q20 0 30 -29l381 -1378q2 -12 -6 -19q-8 -8 -20 -8h-271q-23 0 -28 29l-84 307h-424l-84 -307q-6 -29 -29 -29h-270q-12 0 -21 8q-10 6 -6 19zM406 1597v162q-1 27 26 27h475q29 0 29 -27v-162q0 -27 -29 -26h-475q-27 0 -26 26zM526 612 h287l-41 154l-94 412h-14l-95 -412z" />
<glyph unicode="&#x101;" horiz-adv-x="1007" d="M49 264v23q0 303 434 331l144 11v20q0 92 -37 129q-41 35 -129 35h-4q-25 0 -37 -2l-43 -6q-57 -8 -86 -19l-41 -10q-45 -8 -94 -26q-4 -2 -9 -2q-6 0 -10 4q-8 6 -8 16v182q0 33 23 39q200 62 370 62h10q397 0 400 -389v-635q0 -27 -27 -27h-221q-18 0 -25 20l-16 89 q-137 -135 -293 -136h-10q-131 0 -211 80t-80 211zM240 1190v160q-1 26 26 26h477q27 0 27 -26v-162q0 -27 -27 -27l-477 2q-27 0 -26 27zM354 317q0 -49 34 -80.5t83 -31.5h10q70 -1 146 67v179l-103 -2q-170 -4 -170 -123v-9z" />
<glyph unicode="&#x102;" horiz-adv-x="1341" d="M49 27l381 1378q6 29 29 29h422q20 0 30 -29l381 -1378q2 -12 -6 -19q-8 -8 -20 -8h-271q-23 0 -28 29l-84 307h-424l-84 -307q-6 -29 -29 -29h-270q-12 0 -21 8q-10 6 -6 19zM381 1659v149q0 14 10 21q2 0 5 1t5 1t15 -4q45 -20 78 -31q72 -33 178 -33q102 0 174 33 q27 11 80 31q8 4 12 4q2 0 5 -1t5 -1q10 -6 10 -21v-149q0 -16 -18 -33q-106 -76 -270 -76q-68 0 -178.5 31t-110.5 78zM526 612h287l-41 154l-94 412h-14l-95 -412z" />
<glyph unicode="&#x103;" horiz-adv-x="1007" d="M49 264v23q0 303 434 331l144 11v20q0 92 -37 129q-41 35 -129 35h-4q-25 0 -37 -2l-43 -6q-57 -8 -86 -19l-41 -10q-45 -8 -94 -26q-4 -2 -9 -2q-6 0 -10 4q-8 6 -8 16v182q0 33 23 39q200 62 370 62h10q397 0 400 -389v-635q0 -27 -27 -27h-221q-18 0 -25 20l-16 89 q-137 -135 -293 -136h-10q-131 0 -211 80t-80 211zM217 1249v150q0 14 10 20l2 2h7q4 0 75 -28q57 -25 123 -33q33 -6 70 -6q104 0 176 32q29 11 80 31q12 4 14 4t5 -1t5 -1q8 -6 9 -20v-150q0 -16 -17 -32q-43 -35 -124 -55.5t-146 -20.5q-68 0 -149 20.5t-124 55.5 q-16 16 -16 32zM354 317q0 -49 34 -80.5t83 -31.5h10q70 -1 146 67v179l-103 -2q-170 -4 -170 -123v-9z" />
<glyph unicode="&#x104;" horiz-adv-x="1341" d="M49 27l381 1378q6 29 29 29h422q20 0 30 -29l381 -1378q2 -12 -6 -19q-8 -8 -20 -8q-2 -2 -14.5 -13.5t-22.5 -21.5q-27 -25 -39 -39q-14 -14 -33 -39q-35 -41 -35 -90q0 -25 13 -43q16 -37 73 -37q8 0 41 4h6q10 0 11 -10v-94q0 -29 -27 -37q-41 -20 -104 -20 q-86 0 -139.5 46t-53.5 132q0 133 154 262h-101q-23 0 -28 29l-84 307h-424l-84 -307q-6 -29 -29 -29h-270q-12 0 -21 8q-10 6 -6 19zM526 612h287l-41 154l-94 412h-14l-95 -412z" />
<glyph unicode="&#x105;" horiz-adv-x="1007" d="M49 264v23q0 303 434 331l144 11v20q0 92 -37 129q-41 35 -129 35h-4q-25 0 -37 -2l-43 -6q-57 -8 -86 -19l-41 -10q-45 -8 -94 -26q-4 -2 -9 -2q-6 0 -10 4q-8 6 -8 16v182q0 33 23 39q200 62 370 62h10q397 0 400 -389v-635q0 -27 -27 -27q-2 -2 -14 -13.5t-23 -21.5 q-20 -18 -39 -41q-68 -68 -67 -127q0 -25 12 -43q16 -37 74 -37q8 0 41 4h6q10 0 10 -10v-94q0 -29 -26 -37q-41 -20 -105 -20q-86 0 -139 46t-53 132q0 131 153 262h-51q-18 0 -25 20l-16 89q-137 -135 -293 -136h-10q-131 0 -211 80t-80 211zM354 317q0 -49 34 -80.5 t83 -31.5h10q70 -1 146 67v179l-103 -2q-170 -4 -170 -123v-9z" />
<glyph unicode="&#x106;" horiz-adv-x="1157" d="M104 625v184q0 281 171.5 466t445.5 185h31q197 0 319 -65q25 -12 25 -43v-217q0 -12 -11 -19q-8 -4 -12 -4q-6 0 -8 2q-23 10 -54.5 23.5t-39.5 15.5q-92 31 -187 31h-10q-162 0 -252 -104.5t-90 -270.5v-184q0 -166 90 -270.5t252 -104.5h10q127 0 281 69q2 2 8 3 q4 0 12 -5q10 -6 11 -18v-219q0 -27 -25 -43q-113 -63 -319 -64h-31q-276 0 -446.5 187.5t-170.5 464.5zM600 1583l156 313q12 25 39 25h217q8 0 12 -6l-207 -330q-12 -18 -35 -18h-172z" />
<glyph unicode="&#x107;" horiz-adv-x="931" d="M68 459v106q0 221 129 353.5t348 132.5h22q41 0 103 -11q106 -25 176 -57q20 -8 20 -37v-188q0 -10 -8 -17q-8 -4 -10 -4q-6 0 -8 2q-154 68 -228 68h-12q-109 0 -165 -68.5t-56 -179.5v-94q0 -111 56.5 -179.5t164.5 -68.5h12q74 0 228 68q2 2 8 2q2 0 10 -4q8 -6 8 -17 v-188q0 -29 -20 -37q-131 -68 -279 -68h-22q-219 0 -348 134.5t-129 351.5zM387 1174l156 313q10 25 37 24h219l-197 -335q-12 -18 -33 -19h-172z" />
<glyph unicode="&#x10a;" horiz-adv-x="1157" d="M104 625v184q0 281 171.5 466t445.5 185h31q197 0 319 -65q25 -12 25 -43v-217q0 -12 -11 -19q-8 -4 -12 -4q-6 0 -8 2q-162 70 -281 70h-10q-162 0 -252 -104.5t-90 -270.5v-184q0 -166 90 -270.5t252 -104.5h10q127 0 281 69q2 0 5 1.5t5 1.5h6q14 -14 15 -23v-219 q0 -27 -25 -43q-113 -63 -319 -64h-31q-276 0 -446.5 187.5t-170.5 464.5zM580 1599v254q-1 27 26 27h258q27 0 27 -27v-254q0 -29 -27 -28h-258q-27 0 -26 28z" />
<glyph unicode="&#x10b;" horiz-adv-x="931" d="M68 459v106q0 221 129 353.5t348 132.5h22q147 0 279 -68q20 -8 20 -37v-188q0 -10 -8 -17q-8 -4 -10 -4q-6 0 -8 2q-154 68 -228 68h-12q-109 0 -165 -68.5t-56 -179.5v-94q0 -111 56.5 -179.5t164.5 -68.5h12q74 0 228 68q2 2 8 2q2 0 10 -4q8 -6 8 -17v-188 q0 -29 -20 -37q-131 -68 -279 -68h-22q-217 0 -347 133.5t-130 352.5zM375 1190v254q-1 26 28 26h256q27 0 27 -26v-254q0 -29 -27 -29h-256q-29 0 -28 29z" />
<glyph unicode="&#x10c;" horiz-adv-x="1157" d="M104 625v184q0 281 171.5 466t445.5 185h31q197 0 319 -65q25 -12 25 -43v-217q0 -12 -11 -19q-8 -4 -12 -4q-6 0 -8 2q-162 70 -281 70h-10q-162 0 -252 -104.5t-90 -270.5v-184q0 -166 90 -270.5t252 -104.5h10q127 0 281 69q2 2 8 3q4 0 12 -5q10 -6 11 -18v-219 q0 -27 -25 -43q-113 -63 -319 -64h-31q-276 0 -446.5 187.5t-170.5 464.5zM422 1901q2 20 12 20h191q27 0 39 -25l75 -149l76 149q12 25 39 25h190q8 0 13 -6l-211 -330q-12 -18 -33 -18h-145q-23 0 -35 18z" />
<glyph unicode="&#x10d;" horiz-adv-x="931" d="M68 459v106q0 221 129 353.5t348 132.5h22q147 0 279 -68q20 -8 20 -37v-188q0 -10 -8 -17q-8 -4 -10 -4q-6 0 -8 2q-154 68 -228 68h-12q-109 0 -165 -68.5t-56 -179.5v-94q0 -111 56.5 -179.5t164.5 -68.5h12q74 0 228 68q2 2 8 2q2 0 10 -4q8 -6 8 -17v-188 q0 -29 -20 -37q-131 -68 -279 -68h-22q-217 0 -347 133.5t-130 352.5zM184 1491l203 20q27 0 37 -24l78 -150l76 150q11 24 36 24h193l-199 -335q-12 -18 -35 -19h-145q-20 0 -33 19z" />
<glyph unicode="&#x10e;" horiz-adv-x="1327" d="M121 27v1380q-1 27 26 27h496q279 0 429.5 -172t150.5 -451v-188q0 -281 -154 -452t-426 -171h-496q-27 0 -26 27zM203 1915q2 6 12 6h191q27 0 38 -25l76 -149l78 149q8 25 37 25h192l-200 -336q-12 -18 -33 -18h-145q-23 0 -35 18l-209 316q-4 4 -2 14zM440 276h164 q295 1 295 347v188q0 166 -67.5 256t-227.5 90h-164v-881z" />
<glyph unicode="&#x10f;" horiz-adv-x="1460" d="M68 414v174q0 201 104 332t299 131h21q135 0 223 -80v512q-1 26 26 26h250q27 0 27 -26v-1456q0 -27 -27 -27h-219q-20 0 -27 20l-12 74q-111 -121 -274 -121h-19q-184 0 -278 125t-94 316zM379 422q0 -205 158 -205h8q86 0 170 64v458q-90 68 -170 68h-8 q-158 0 -158 -205v-180zM1108 1040l121 220h-86q-27 0 -27 26v197q0 26 27 26h262q29 0 29 -26v-168q0 -37 -13 -53l-118 -222q-16 -25 -37 -24h-142q-12 0 -14 8q-4 8 -2 16z" />
<glyph unicode="&#x110;" horiz-adv-x="1327" d="M49 575v181q0 27 27 26h45v625q-1 27 26 27h496q279 0 429.5 -173.5t150.5 -449.5v-188q0 -281 -154 -452t-426 -171h-496q-27 0 -26 27v522h-45q-27 0 -27 26zM440 276h164q295 1 295 347v188q0 170 -68.5 258t-226.5 88h-164v-375h219q29 0 29 -26v-181q0 -27 -29 -26 h-219v-273z" />
<glyph unicode="&#x111;" horiz-adv-x="1097" d="M68 414v174q0 201 104 332t299 131h21q135 0 223 -80v190h-117q-27 0 -27 29v160q0 29 27 28h117v105q0 27 26 26h250q27 1 27 -26v-105h74q27 0 26 -28v-160q0 -27 -26 -27h-74v-1136q0 -27 -27 -27h-219q-20 0 -27 20l-12 74q-111 -121 -274 -121h-19q-184 0 -278 125 t-94 316zM379 422q0 -205 158 -205h8q86 1 170 64v458q-90 68 -170 68h-8q-158 0 -158 -205v-180z" />
<glyph unicode="&#x112;" horiz-adv-x="1103" d="M121 27v1380q0 27 26 27h871q27 0 26 -27v-223q0 -27 -26 -27h-578v-289h521q27 0 26 -26v-224q0 -27 -26 -26h-521v-316h578q27 0 26 -26v-223q0 -27 -26 -27h-871q-27 0 -26 27zM297 1597v162q0 27 27 27h477q27 0 26 -27v-162q0 -27 -26 -26h-477q-27 0 -27 26z" />
<glyph unicode="&#x113;" horiz-adv-x="1052" d="M68 451v110q0 215 128 352.5t341 137.5h22q203 0 315.5 -122t112.5 -327v-108q0 -18 -12 -30.5t-31 -12.5h-563v-33q0 -98 60.5 -152.5t160.5 -54.5h10q102 0 299 74q2 2 9 2q2 0 10 -4q8 -6 8 -17v-188q0 -27 -23 -37q-141 -68 -348 -68h-20q-219 0 -349 129t-130 349z M262 1188v162q0 26 27 26h477q27 0 27 -26v-162q0 -27 -27 -27h-477q-27 0 -27 27zM379 625h326q6 204 -156 204h-8q-49 0 -84 -22q-35 -27 -54 -70q-20 -45 -24 -112z" />
<glyph unicode="&#x116;" horiz-adv-x="1103" d="M121 27v1380q0 27 26 27h871q27 0 26 -27v-223q0 -27 -26 -27h-578v-289h521q27 0 26 -26v-224q0 -27 -26 -26h-521v-316h578q27 0 26 -26v-223q0 -27 -26 -27h-871q-27 0 -26 27zM408 1599v254q-1 27 26 27h258q27 0 27 -27v-254q0 -29 -27 -28h-258q-27 0 -26 28z" />
<glyph unicode="&#x117;" horiz-adv-x="1052" d="M68 451v110q0 215 128 352.5t341 137.5h22q203 0 315.5 -122t112.5 -327v-108q0 -18 -12 -30.5t-31 -12.5h-563v-33q0 -98 60.5 -152.5t160.5 -54.5h10q102 0 299 74q2 2 9 2q2 0 10 -4q8 -6 8 -17v-188q0 -27 -23 -37q-141 -68 -348 -68h-20q-219 0 -349 129t-130 349z M371 1190v254q-1 26 26 26h258q27 0 27 -26v-254q0 -29 -27 -29h-258q-27 0 -26 29zM379 625h326q6 204 -156 204h-8q-49 0 -84 -22q-35 -27 -54 -70q-20 -45 -24 -112z" />
<glyph unicode="&#x118;" horiz-adv-x="1103" d="M121 27v1380q0 27 26 27h871q27 0 26 -27v-223q1 -27 -26 -27h-578v-289h521q27 0 26 -26v-224q0 -27 -26 -26h-521v-316h578q27 0 26 -26v-223q0 -27 -26 -27q-2 -2 -14.5 -13.5t-22.5 -21.5q-20 -18 -39 -41q-68 -68 -68 -127q0 -53 41 -71q16 -8 43 -9q10 0 43 4h7 q10 0 10 -10v-94q0 -29 -27 -37q-41 -20 -104 -20q-86 0 -140.5 47t-54.5 131q0 133 156 262h-701q-27 0 -26 27z" />
<glyph unicode="&#x119;" horiz-adv-x="1052" d="M68 451v110q0 215 128 352.5t341 137.5h22q203 0 315.5 -124t112.5 -325v-108q0 -18 -12 -30.5t-31 -12.5h-563v-33q0 -98 60.5 -152.5t160.5 -54.5h10q102 0 299 74q2 2 9 2q2 0 10 -4q8 -6 8 -17v-188q0 -27 -23 -37q-45 -25 -161 -47l-29 -29q-8 -8 -19.5 -18 t-13.5 -13q-74 -74 -74 -137q0 -53 41 -71q16 -8 43 -9q10 0 43 4h7q8 0 8 -10v-94q0 -29 -27 -37q-39 -20 -102 -20q-86 0 -140.5 47t-54.5 131q0 119 125 235h-14q-219 0 -349 129t-130 349zM379 625h326q6 205 -156 204h-8q-80 0 -119 -59t-43 -145z" />
<glyph unicode="&#x11a;" horiz-adv-x="1103" d="M121 27v1380q0 27 26 27h871q27 0 26 -27v-223q0 -27 -26 -27h-578v-289h521q27 0 26 -26v-224q0 -27 -26 -26h-521v-316h578q27 0 26 -26v-223q0 -27 -26 -27h-871q-27 0 -26 27zM244 1901l202 20q29 0 37 -25l78 -149l76 149q12 25 37 25h192l-198 -336 q-12 -18 -35 -18h-146q-20 0 -32 18z" />
<glyph unicode="&#x11b;" horiz-adv-x="1052" d="M68 451v110q0 215 128 352.5t341 137.5h22q203 0 315.5 -122t112.5 -327v-108q0 -18 -12 -30.5t-31 -12.5h-563v-33q0 -98 60.5 -152.5t160.5 -54.5h10q102 0 299 74q2 2 9 2q2 0 10 -4q8 -6 8 -17v-188q0 -27 -23 -37q-61 -31 -164.5 -49.5t-183.5 -18.5h-20 q-219 0 -349 129t-130 349zM209 1505q4 6 12 6h191q27 0 39 -24l75 -150l78 150q10 24 37 24h193l-201 -335q-12 -18 -33 -19h-145q-23 0 -35 19l-209 315q-6 4 -2 14zM379 625h326q6 204 -156 204h-8q-80 0 -119 -59t-43 -145z" />
<glyph unicode="&#x11e;" horiz-adv-x="1294" d="M104 625v184q0 285 181 468t460 183h29q190 0 320 -67q27 -12 26 -43v-215q0 -12 -8 -19q-8 -4 -14 -4t-11 2q-94 39 -153 57q-53 12 -127 13h-10q-168 0 -266.5 -103.5t-98.5 -271.5v-184q0 -170 80 -272.5t242 -102.5h10q59 0 102 20v437q0 29 27 28h258q27 0 27 -28 v-568q0 -35 -25 -53q-61 -49 -181 -81t-212 -32h-29q-283 0 -455 185.5t-172 466.5zM449 1659v149q0 14 10 21q2 0 5 1t5 1q4 0 12 -4q51 -20 80 -31q76 -33 176 -33q102 0 174 33q27 11 80 31q12 4 14.5 4t5.5 -1t5 -1q8 -6 8 -21v-149q0 -16 -16 -33q-45 -35 -124 -55.5 t-146.5 -20.5t-148.5 20.5t-124 55.5q-16 16 -16 33z" />
<glyph unicode="&#x11f;" horiz-adv-x="1089" d="M68 471v117q0 213 116.5 338t329.5 125h21q111 0 238.5 -33t217.5 -88q18 -12 19 -35v-823q0 -207 -132.5 -324t-338.5 -117h-9q-129 0 -260 29q-29 8 -98 31q-23 6 -22 37v186q0 12 8 18l10 5q6 0 8 -3q178 -70 283 -69h10q117 0 177.5 47t60.5 160v61 q-121 -102 -256 -102h-19q-180 0 -272 126t-92 314zM256 1249v150q0 14 10 20q2 0 5 1t5.5 1t14.5 -4q45 -20 78 -31q72 -33 178 -32q102 0 174 32q29 11 80 31q8 4 12 4q2 0 5 -1t5 -1q10 -6 11 -20v-150q0 -16 -19 -32q-45 -35 -124 -55.5t-146 -20.5q-164 0 -271 76 q-18 16 -18 32zM379 477q0 -203 147 -203h11q86 0 170 64v424q-94 51 -168 51h-11q-150 0 -149 -203v-133z" />
<glyph unicode="&#x120;" horiz-adv-x="1294" d="M104 625v184q0 285 181 468t460 183h29q190 0 320 -67q27 -12 26 -43v-215q0 -12 -8 -19q-8 -4 -14 -4t-11 2q-94 39 -153 57q-53 12 -127 13h-10q-168 0 -266.5 -103.5t-98.5 -271.5v-184q0 -170 80 -272.5t242 -102.5h10q59 0 102 20v437q0 29 27 28h258q27 0 27 -28 v-568q0 -35 -25 -53q-61 -49 -181 -81t-212 -32h-29q-283 0 -455 185.5t-172 466.5zM559 1599v254q0 27 29 27h256q27 0 26 -27v-254q0 -29 -26 -28h-256q-29 0 -29 28z" />
<glyph unicode="&#x121;" horiz-adv-x="1089" d="M68 471v117q0 213 116.5 338t329.5 125h21q255 0 456 -121q18 -12 19 -35v-823q0 -207 -132.5 -324t-338.5 -117h-9q-129 0 -260 29q-29 8 -98 31q-23 6 -22 37v186q0 12 8 18l10 5q6 0 8 -3q178 -70 283 -69h10q117 0 177.5 47t60.5 160v61q-121 -102 -256 -102h-19 q-180 0 -272 126t-92 314zM379 477q0 -203 147 -203h11q86 0 170 64v424q-94 51 -168 51h-11q-150 0 -149 -203v-133zM389 1184v254q0 26 27 26h258q27 0 26 -26v-254q0 -27 -26 -27h-258q-27 0 -27 27z" />
<glyph unicode="&#x122;" horiz-adv-x="1294" d="M104 625v184q0 285 181 468t460 183h29q190 0 320 -67q27 -12 26 -43v-215q0 -12 -8 -19q-8 -4 -14 -4t-11 2q-94 39 -153 57q-53 12 -127 13h-10q-168 0 -266.5 -103.5t-98.5 -271.5v-184q0 -170 80 -272.5t242 -102.5h10q59 0 102 20v437q0 29 27 28h258q27 0 27 -28 v-568q0 -35 -25 -53q-61 -49 -181 -81t-212 -32h-29q-283 0 -455 185.5t-172 466.5zM557 -569l121 217h-86q-27 0 -27 26v197q0 27 27 27h262q29 0 29 -27v-168q0 -39 -13 -53l-118 -221q-14 -25 -37 -25h-142q-12 0 -14 8q-6 8 -2 19z" />
<glyph unicode="&#x123;" horiz-adv-x="1089" d="M68 471v117q0 213 116.5 338t329.5 125h21q255 0 456 -121q18 -12 19 -35v-823q0 -207 -132.5 -324t-338.5 -117h-9q-129 0 -260 29q-29 8 -98 31q-23 6 -22 37v186q0 12 8 18l10 5q6 0 8 -3q178 -70 283 -69h10q117 0 177.5 47t60.5 160v61q-121 -102 -256 -102h-19 q-180 0 -272 126t-92 314zM379 477q0 -203 147 -203h11q86 0 170 64v424q-94 51 -168 51h-11q-150 0 -149 -203v-133zM385 1184v168q0 33 10 53l121 219q16 25 37 25h141q10 0 17 -7q2 -8 0 -18l-121 -217h86q27 0 26 -27v-196q1 -27 -26 -27h-262q-29 0 -29 27z" />
<glyph unicode="&#x126;" horiz-adv-x="1486" d="M49 1020v180q0 27 27 27h96v180q0 27 27 27h266q27 0 27 -27v-180h503v180q0 27 27 27h264q27 0 27 -27v-180h98q27 0 27 -27v-180q0 -29 -27 -29h-98v-964q0 -27 -27 -27h-264q-27 0 -27 27v565h-503v-565q0 -27 -27 -27h-266q-27 0 -27 27v964h-96q-27 0 -27 29z M492 868h503v123h-503v-123z" />
<glyph unicode="&#x127;" horiz-adv-x="1097" d="M-16 1192v158q0 29 26 28h74v105q0 27 27 26h249q29 0 29 -26v-105h115q27 0 26 -28v-160q0 -14 -6 -21.5t-20 -5.5h-115v-237q146 125 287 125h22q152 0 238 -90.5t86 -241.5v-692q0 -27 -27 -27h-250q-27 0 -26 27v626q0 154 -141 154h-11q-84 0 -178 -64v-716 q0 -27 -29 -27h-249q-27 0 -27 27v1136h-74q-27 0 -26 29z" />
<glyph unicode="&#x12a;" horiz-adv-x="561" d="M16 1597v162q0 27 27 27h477q27 0 27 -27v-162q0 -27 -27 -26h-477q-27 0 -27 26zM121 27v1380q-1 27 26 27h267q27 0 26 -27v-1380q0 -27 -26 -27h-267q-27 0 -26 27z" />
<glyph unicode="&#x12b;" horiz-adv-x="468" d="M-31 1188v162q0 26 27 26h477q27 0 27 -26v-162q0 -27 -27 -27h-477q-27 0 -27 27zM84 27v970q0 27 27 27h249q29 0 29 -27v-970q0 -27 -29 -27h-249q-27 0 -27 27z" />
<glyph unicode="&#x12e;" horiz-adv-x="561" d="M90 -262q0 131 154 262h-97q-27 0 -26 27v1380q-1 27 26 27h267q27 0 26 -27v-1380q0 -27 -26 -27q-2 -2 -14.5 -13.5t-22.5 -21.5q-20 -18 -39 -41q-68 -68 -68 -127q0 -25 13 -43q16 -37 73 -37q8 0 41 4h6q10 0 11 -10v-94q0 -29 -27 -37q-41 -20 -104 -20 q-86 0 -139.5 46t-53.5 132z" />
<glyph unicode="&#x12f;" horiz-adv-x="468" d="M37 -262q0 131 156 262h-82q-27 0 -27 27v970q0 27 27 27h249q29 0 29 -27v-970q0 -27 -29 -27l-34 -35q-20 -18 -39 -41q-68 -68 -68 -127q0 -53 41 -71q16 -8 43 -9q10 0 43 4h6q8 0 8 -10v-94q0 -27 -24 -37q-41 -20 -105 -20q-86 0 -140 47t-54 131zM80 1190v254 q0 26 29 26h256q27 0 26 -26v-254q0 -29 -26 -29h-256q-29 0 -29 29z" />
<glyph unicode="&#x130;" horiz-adv-x="561" d="M121 27v1380q-1 27 26 27h267q27 0 26 -27v-1380q0 -27 -26 -27h-267q-27 0 -26 27zM125 1599v254q0 27 29 27h256q29 0 28 -27v-254q0 -29 -28 -28h-256q-29 0 -29 28z" />
<glyph unicode="&#x131;" horiz-adv-x="468" d="M84 27v970q0 27 27 27h249q29 0 29 -27v-970q0 -27 -29 -27h-249q-27 0 -27 27z" />
<glyph unicode="&#x132;" horiz-adv-x="1366" d="M121 27v1380q-1 27 26 27h267q27 0 26 -27v-1380q0 -27 -26 -27h-267q-27 0 -26 27zM610 37v225q0 14 11 21h4q4 2 6 2q6 0 10 -2q66 -33 117 -33h10q150 0 150 176v981q-1 27 26 27h275q27 0 26 -27v-969q0 -215 -105.5 -340t-310.5 -125h-10q-51 0 -130 16.5t-79 47.5z " />
<glyph unicode="&#x133;" horiz-adv-x="980" d="M84 1190v229q0 29 27 29h256q27 0 26 -29v-229q0 -29 -26 -29h-256q-27 0 -27 29zM86 27v970q0 27 29 27h250q27 0 26 -27v-970q0 -27 -26 -27h-250q-29 0 -29 27zM397 -141q2 20 19 20q6 0 10 -2q41 -12 72 -12h10q86 0 86 102v1030q0 27 29 27h249q27 0 27 -27v-1032 q0 -152 -77 -243t-226 -91h-21q-88 0 -155 29q-18 8 -23 37v162zM592 1190v229q0 29 29 29h253q27 0 27 -29v-229q0 -29 -27 -29h-253q-29 0 -29 29z" />
<glyph unicode="&#x136;" horiz-adv-x="1304" d="M121 27v1380q0 27 26 27h267q27 0 26 -27v-551h121l320 557q8 20 34 21h293q12 0 18.5 -10.5t-1.5 -22.5l-383 -672l409 -696q8 -12 2 -23q-10 -10 -20 -10h-301q-23 0 -35 20l-332 560h-125v-553q0 -27 -26 -27h-267q-27 0 -26 27zM492 -569l118 217h-86q-27 0 -26 26 v197q-1 27 26 27h264q27 0 27 -27v-168q0 -37 -10 -53l-121 -221q-16 -25 -37 -25h-141q-12 0 -14 8q-6 10 0 19z" />
<glyph unicode="&#x137;" horiz-adv-x="1079" d="M84 27v1456q0 27 27 26h249q29 0 29 -26v-842h94l201 363q8 20 35 20h264q16 0 23 -10q6 -13 -2 -25l-254 -454l299 -498q6 -16 0 -25q-6 -12 -21 -12h-280q-23 0 -33 18l-232 390h-94v-381q0 -27 -29 -27h-249q-27 0 -27 27zM379 -569l121 217h-86q-29 0 -29 26v197 q0 27 29 27h262q27 0 26 -27v-168q0 -37 -10 -53l-119 -221q-16 -25 -36 -25h-142q-14 0 -16 8q-2 10 0 19z" />
<glyph unicode="&#x139;" horiz-adv-x="1034" d="M121 27v1380q0 27 26 27h267q26 0 26 -27v-1131h521q27 0 26 -26v-223q0 -27 -26 -27h-814q-27 0 -26 27zM193 1583l155 313q8 25 37 25h219l-196 -336q-12 -18 -33 -18h-172z" />
<glyph unicode="&#x13a;" horiz-adv-x="464" d="M84 27v1456q0 26 27 26h249q29 0 29 -26v-1456q0 -27 -29 -27h-249q-27 0 -27 27zM137 1659l156 313q12 25 39 25h217l-195 -336q-12 -18 -35 -19h-172z" />
<glyph unicode="&#x13b;" horiz-adv-x="1034" d="M121 27v1380q0 27 26 27h267q26 0 26 -27v-1131h521q27 0 26 -26v-223q0 -27 -26 -27h-814q-27 0 -26 27zM358 -569l119 217h-86q-27 0 -26 26v197q-1 27 26 27h262q29 0 29 -27v-168q0 -37 -10 -53l-121 -221q-14 -25 -37 -25h-141q-12 0 -15 8q-6 10 0 19z" />
<glyph unicode="&#x13c;" horiz-adv-x="464" d="M72 -569l118 217h-84q-29 0 -28 26v197q-1 27 28 27h263q27 0 26 -27v-168q0 -37 -10 -53l-121 -221q-14 -25 -37 -25h-141q-12 0 -14 8q-6 10 0 19zM84 27v1456q0 26 27 26h249q29 0 29 -26v-1456q0 -27 -29 -27h-249q-27 0 -27 27z" />
<glyph unicode="&#x13d;" horiz-adv-x="1034" d="M121 27v1380q0 27 26 27h267q26 0 26 -27v-1131h521q27 0 26 -26v-223q0 -27 -26 -27h-814q-27 0 -26 27zM639 948q-2 8 0 17l121 219h-86q-29 0 -29 26v197q0 27 29 27h262q27 0 27 -27v-168q0 -37 -11 -53l-118 -221q-14 -25 -37 -25h-142q-14 0 -16 8z" />
<glyph unicode="&#x13e;" horiz-adv-x="831" d="M84 27v1456q0 26 27 26h249q29 0 29 -26v-1456q0 -27 -29 -27h-249q-27 0 -27 27zM479 1040l121 220h-86q-29 0 -29 26v197q0 26 29 26h262q27 0 27 -26v-168q0 -37 -10 -53l-119 -222q-14 -25 -37 -24h-141q-14 0 -16.5 8t-0.5 16z" />
<glyph unicode="&#x13f;" horiz-adv-x="1034" d="M121 27v1380q0 27 26 27h267q26 0 26 -27v-1131h521q27 0 26 -26v-223q0 -27 -26 -27h-814q-27 0 -26 27zM651 483v254q0 29 29 29h256q27 0 27 -29v-254q0 -27 -27 -26h-256q-29 0 -29 26z" />
<glyph unicode="&#x140;" horiz-adv-x="825" d="M84 27v1456q0 26 27 26h249q29 0 29 -26v-1456q0 -27 -29 -27h-249q-27 0 -27 27zM485 483v254q0 29 27 29h258q27 0 27 -29v-254q0 -27 -27 -26h-258q-27 0 -27 26z" />
<glyph unicode="&#x141;" horiz-adv-x="1163" d="M49 563q-16 23 6 37l195 135v672q0 27 26 27h267q27 0 26 -27v-449l144 101q8 6 16 6q12 0 21 -12l100 -142q16 -23 -6 -39l-275 -190v-406h518q29 0 29 -26v-223q0 -27 -29 -27h-811q-27 0 -26 27v432l-64 -43q-12 -8 -18 -8q-8 0 -18 12z" />
<glyph unicode="&#x142;" horiz-adv-x="847" d="M33 639q-16 23 8 37l229 160v647q0 27 27 26h250q27 0 26 -26v-434l103 71q8 6 18 6q11 0 21 -12l100 -141q16 -23 -8 -39l-234 -162v-745q0 -27 -26 -27h-250q-27 0 -27 27v532l-100 -67q-12 -8 -16 -9q-10 0 -21 13z" />
<glyph unicode="&#x143;" horiz-adv-x="1386" d="M117 27v1380q0 27 26 27h299q25 0 37 -23l309 -575l170 -347h23l-29 347v571q0 27 27 27h264q29 0 29 -27v-1380q0 -27 -29 -27h-299q-25 0 -37 23l-325 600l-154 321h-22l28 -321v-596q0 -27 -26 -27h-265q-27 0 -26 27zM592 1583l153 313q12 25 39 25h220l-197 -336 q-12 -18 -35 -18h-172z" />
<glyph unicode="&#x144;" horiz-adv-x="1083" d="M80 27v970q0 27 26 27h222q23 0 24 -20l17 -86q156 133 297 133h22q156 0 238 -89.5t82 -242.5v-692q0 -27 -27 -27h-250q-27 0 -26 27v626q0 78 -32 116t-108 38h-8q-80 0 -172 -62v-718q0 -27 -29 -27h-250q-27 0 -26 27zM449 1174l155 313q12 25 39 24h217l-194 -335 q-12 -18 -35 -19h-172z" />
<glyph unicode="&#x145;" horiz-adv-x="1386" d="M117 27v1380q0 27 26 27h299q25 0 37 -23l309 -575l170 -347h23l-29 347v571q0 27 27 27h264q29 0 29 -27v-1380q0 -27 -29 -27h-299q-25 0 -37 23l-325 600l-154 321h-22l28 -321v-596q0 -27 -26 -27h-265q-27 0 -26 27zM532 -569l119 217h-84q-29 0 -28 26v197 q-1 27 28 27h262q27 0 27 -27v-168q0 -37 -10 -53l-119 -221q-14 -25 -39 -25h-141q-12 0 -15 8q-6 10 0 19z" />
<glyph unicode="&#x146;" horiz-adv-x="1083" d="M80 27v970q0 27 26 27h222q23 0 24 -20l17 -86q156 133 297 133h22q154 0 237 -89.5t83 -242.5v-692q0 -27 -27 -27h-250q-27 0 -26 27v626q0 78 -32 116t-108 38h-8q-80 0 -172 -62v-718q0 -27 -29 -27h-250q-27 0 -26 27zM383 -569l119 217h-86q-27 0 -27 26v197 q0 27 27 27h262q29 0 29 -27v-168q0 -37 -11 -53l-121 -221q-14 -25 -36 -25h-142q-12 0 -14 8q-6 10 0 19z" />
<glyph unicode="&#x147;" horiz-adv-x="1386" d="M117 27v1380q0 27 26 27h299q25 0 37 -23l309 -575l170 -347h23l-29 347v571q0 27 27 27h264q29 0 29 -27v-1380q0 -27 -29 -27h-299q-25 0 -37 23l-325 600l-154 321h-22l28 -321v-596q0 -27 -26 -27h-265q-27 0 -26 27zM377 1901l203 20q27 0 36 -25l78 -149l76 149 q8 25 37 25h192l-198 -336q-12 -18 -35 -18h-145q-20 0 -33 18z" />
<glyph unicode="&#x148;" horiz-adv-x="1083" d="M80 27v970q0 27 26 27h222q23 0 24 -20l17 -86q156 133 297 133h22q154 0 237 -89.5t83 -242.5v-692q0 -27 -27 -27h-250q-27 0 -26 27v626q0 78 -32 116t-108 38h-8q-80 0 -172 -62v-718q0 -27 -29 -27h-250q-27 0 -26 27zM225 1505q4 6 13 6h190q27 0 39 -24l76 -150 l78 150q9 24 36 24h193l-201 -335q-12 -18 -33 -19h-145q-23 0 -35 19l-209 315q-6 4 -2 14z" />
<glyph unicode="&#x14a;" horiz-adv-x="1386" d="M117 27v1380q0 27 26 27h299q25 0 37 -23l309 -575l170 -347h23l-29 347v571q0 27 27 27h264q29 0 29 -27v-1311q0 -465 -371 -465h-10q-106 0 -193 39q-18 6 -18 25v217q0 14 10 18q4 4 10.5 4t10.5 -2q66 -33 118 -32h11q80 0 80 100l-338 623l-154 321h-22l28 -321 v-596q0 -27 -26 -27h-265q-27 0 -26 27z" />
<glyph unicode="&#x14b;" horiz-adv-x="1083" d="M80 27v970q0 27 26 27h222q23 0 24 -20l17 -86q156 133 297 133h22q154 0 237 -89.5t83 -242.5v-754q0 -150 -77 -242t-224 -92h-21q-174 0 -180 66v162q2 20 18 20q6 0 11 -2q39 -12 71 -12h10q88 0 89 102v686q0 78 -32 116t-108 38h-8q-80 0 -172 -62v-718 q0 -27 -29 -27h-250q-27 0 -26 27z" />
<glyph unicode="&#x14c;" horiz-adv-x="1392" d="M104 582v270q0 266 158 437t418 171h31q266 0 421.5 -172t155.5 -436v-270q0 -266 -158.5 -437.5t-418.5 -171.5h-31q-264 0 -420 173t-156 436zM432 553q0 -135 63.5 -219t192.5 -84h17q129 0 192.5 85t63.5 218v328q0 51 -11 106q-35 137 -157 184q-39 13 -88 13h-17 q-129 0 -192.5 -85t-63.5 -218v-328zM432 1597v162q0 27 27 27h477q27 0 27 -27v-162q0 -27 -27 -26h-477q-27 0 -27 26z" />
<glyph unicode="&#x14d;" horiz-adv-x="1112" d="M68 436v152q0 209 134 336t343 127h22q211 0 344 -127t133 -336v-152q0 -209 -134 -336t-343 -127h-22q-209 0 -343 128t-134 335zM293 1190v160q-1 26 26 26h476q29 0 28 -26v-162q0 -27 -28 -27l-476 2q-27 0 -26 27zM379 422q0 -90 43 -147.5t129 -57.5h12 q86 0 128 57.5t42 147.5v180q0 90 -42 147.5t-128 57.5h-12q-86 0 -129 -57.5t-43 -147.5v-180z" />
<glyph unicode="&#x150;" horiz-adv-x="1392" d="M104 582v270q0 266 158 437t418 171h31q266 0 421.5 -172t155.5 -436v-270q0 -268 -158.5 -438.5t-418.5 -170.5h-31q-264 0 -420 173t-156 436zM432 553q0 -133 63.5 -218t192.5 -85h17q131 0 193.5 85t62.5 218v328q0 133 -63.5 218t-192.5 85h-17q-129 0 -192.5 -85 t-63.5 -218v-328zM455 1583l155 313q8 25 37 25h193l-197 -336q-12 -18 -33 -18h-145zM780 1583l156 313q12 25 37 25h192l-194 -336q-12 -18 -35 -18h-145z" />
<glyph unicode="&#x151;" horiz-adv-x="1112" d="M68 436v152q0 209 134 336t343 127h22q211 0 344 -128t133 -335v-152q0 -209 -134 -336t-343 -127h-22q-209 0 -343 128t-134 335zM315 1174l156 313q8 25 37 24h190q10 0 13 -6l-207 -329q-12 -18 -35 -19h-145zM379 422q0 -90 43 -147.5t129 -57.5h12q86 0 128 57.5 t42 147.5v180q0 90 -42 147.5t-128 57.5h-12q-86 0 -129 -57.5t-43 -147.5v-180zM641 1174l156 313q10 25 37 24h192l-197 -335q-12 -18 -32 -19h-146z" />
<glyph unicode="&#x152;" horiz-adv-x="1943" d="M104 582v270q0 266 158 437t418 171h31q215 0 352 -131v78q0 27 29 27h763q27 0 27 -27v-223q0 -27 -27 -27h-577v-289h520q27 0 27 -26v-224q0 -27 -27 -26h-520v-316h577q27 0 27 -26v-223q0 -27 -27 -27h-763q-29 0 -29 27v77q-137 -131 -352 -131h-31 q-264 0 -420 173t-156 436zM432 553q0 -133 63.5 -218t192.5 -85h17q129 0 192.5 85t63.5 218v328q0 133 -63.5 218t-192.5 85h-17q-131 0 -193.5 -85t-62.5 -218v-328z" />
<glyph unicode="&#x153;" horiz-adv-x="1718" d="M68 436v152q0 209 134 336t343 127h22q201 0 324 -129q121 129 311 129h23q203 0 316.5 -122t113.5 -327v-108q0 -18 -13 -31q-16 -12 -32 -12h-563v-33q0 -98 60 -152.5t161 -54.5h10q102 0 299 74q4 2 8 2t12 -4q8 -6 9 -17v-188q0 -27 -23 -37q-145 -68 -350 -68h-21 q-205 0 -325 123q-123 -123 -320 -123h-22q-209 0 -343 128t-134 335zM379 422q0 -90 43 -147.5t129 -57.5h12q86 0 128 57.5t42 147.5v180q0 92 -42 148.5t-128 56.5h-12q-86 0 -129 -57.5t-43 -147.5v-180zM1047 625h323q6 204 -156 204h-8q-80 0 -117.5 -59t-41.5 -145z " />
<glyph unicode="&#x154;" horiz-adv-x="1302" d="M121 27v1380q-1 27 26 27h533q227 0 358 -102.5t131 -319.5v-21q0 -303 -260 -409l142 -205l200 -344q6 -12 0 -22.5t-20 -10.5h-299q-25 0 -35 23l-293 507h-164v-503q0 -27 -26 -27h-267q-27 0 -26 27zM440 784h189q213 0 213 183v12q0 178 -213 178h-189v-373z M446 1583l156 313q8 25 37 25h219l-196 -336q-12 -18 -33 -18h-174z" />
<glyph unicode="&#x155;" horiz-adv-x="753" d="M80 27v970q0 27 26 27h222q23 0 24 -20l23 -113q51 70 124.5 115t153.5 45h9q16 0 45 -4q20 -2 20 -25v-231q0 -29 -35 -29q-41 4 -78 4h-12q-123 0 -217 -68v-671q0 -27 -29 -27h-250q-27 0 -26 27zM268 1174l156 313q10 25 37 24h219l-197 -335q-12 -18 -32 -19h-172z " />
<glyph unicode="&#x156;" horiz-adv-x="1302" d="M121 27v1380q-1 27 26 27h533q225 0 357 -102.5t132 -319.5v-21q0 -303 -260 -409l142 -205l200 -344q6 -12 0 -22.5t-20 -10.5h-299q-25 0 -35 23l-293 507h-164v-503q0 -27 -26 -27h-267q-27 0 -26 27zM440 784h189q213 0 213 183v12q0 178 -213 178h-189v-373z M487 -569l119 217h-84q-29 0 -28 26v197q-1 27 28 27h262q27 0 27 -27v-168q0 -37 -10 -53l-121 -221q-16 -25 -37 -25h-141q-12 0 -15 8q-6 10 0 19z" />
<glyph unicode="&#x157;" horiz-adv-x="753" d="M74 -569l119 217h-87q-27 0 -26 26v197q-1 27 26 27h265q27 0 26 -27v-168q0 -37 -10 -53l-121 -221q-16 -25 -37 -25h-141q-12 0 -14 8q-6 10 0 19zM80 27v970q0 27 26 27h222q18 0 24 -20l23 -113q51 70 124.5 115t153.5 45h9q16 0 45 -4q20 -2 20 -25v-231 q0 -29 -35 -29q-41 4 -78 4h-12q-123 0 -217 -68v-671q0 -27 -29 -27h-250q-27 0 -26 27z" />
<glyph unicode="&#x158;" horiz-adv-x="1302" d="M121 27v1380q-1 27 26 27h533q225 0 357 -102.5t132 -319.5v-21q0 -303 -260 -409l142 -205l200 -344q6 -12 0 -22.5t-20 -10.5h-299q-25 0 -35 23l-293 507h-164v-503q0 -27 -26 -27h-267q-27 0 -26 27zM295 1901l203 20q27 0 37 -25l77 -149l76 149q12 25 37 25h193 l-199 -336q-12 -18 -35 -18h-145q-20 0 -33 18zM440 784h189q213 0 213 183v12q0 39 -11 76q-12 31 -36 55q-55 47 -166 47h-189v-373z" />
<glyph unicode="&#x159;" horiz-adv-x="753" d="M61 1491l203 20q27 0 37 -24l78 -150l76 150q12 24 37 24h192l-199 -335q-12 -18 -34 -19h-146q-20 0 -33 19zM80 27v970q0 27 26 27h222q23 0 24 -20l23 -113q51 70 124.5 115t153.5 45h9q16 0 45 -4q20 -2 20 -25v-231q0 -29 -35 -29q-41 4 -78 4h-12q-123 0 -217 -68 v-671q0 -27 -29 -27h-250q-27 0 -26 27z" />
<glyph unicode="&#x15a;" horiz-adv-x="1120" d="M72 1012v22q0 199 141 312.5t344 113.5h14q225 0 351 -59q27 -8 26 -41v-227q0 -12 -10 -17q-8 -4 -12 -4q-6 0 -11 2q-207 72 -325 72h-10q-72 0 -129 -37q-53 -37 -54 -105v-8q0 -55 39 -82q39 -31 133 -63l78 -27q197 -66 299.5 -164t102.5 -280v-17 q0 -207 -146.5 -318.5t-359.5 -111.5h-17q-88 0 -207.5 22.5t-191.5 55.5q-27 12 -27 43v225q0 12 11 19q4 4 10 4q4 0 12 -4q168 -57 227 -72q68 -18 148 -18h10q84 0 143.5 33.5t59.5 111.5v6q0 31 -10 58q-12 23 -39 43q-50 32 -142 59l-73 27q-385 125 -385 426z M473 1583l156 313q10 25 37 25h219l-197 -336q-12 -18 -33 -18h-172z" />
<glyph unicode="&#x15b;" horiz-adv-x="888" d="M59 717v12q0 154 113.5 238t271.5 84h21q172 0 278 -50q23 -10 23 -36v-179q0 -14 -8 -16q-4 -4 -10.5 -4t-8.5 2q-160 68 -245 68h-5q-129 0 -129 -82v-6q0 -10 2 -15l44 -49q2 -2 14 -6t14 -6t16.5 -6t16.5 -7l70 -22q150 -49 222 -118.5t72 -211.5v-14 q0 -158 -123.5 -239t-289.5 -81h-15q-63 0 -160.5 15.5t-142.5 36.5q-23 10 -22 38v177q0 6 4 14q223 -66 295 -66h12q137 0 137 88v7q0 37 -22 55q-29 18 -82 35l-70 22q-119 39 -194 101q-98 68 -99 221zM346 1174l156 313q12 25 39 24h217q8 0 12 -6l-207 -329 q-12 -18 -35 -19h-172z" />
<glyph unicode="&#x15e;" horiz-adv-x="1120" d="M72 1012v22q0 199 141 312.5t344 113.5h14q225 0 351 -59q27 -8 26 -41v-227q0 -12 -10 -17q-8 -4 -12 -4q-6 0 -11 2q-207 72 -325 72h-10q-74 0 -128.5 -35t-54.5 -107v-8q0 -55 39 -82q39 -30 133 -63l78 -27q197 -66 299.5 -164t102.5 -280v-17q0 -195 -130.5 -305 t-326.5 -123l-14 -73q16 4 26 4q74 0 119 -44t45 -118q0 -92 -65.5 -138t-161.5 -46q-86 0 -146 30q-27 12 -26 39v58q0 10 8 10q10 0 31 -8q29 -8 47 -13q37 -4 51 -4q84 0 84 56q0 53 -68 53q-31 0 -71 -14q-4 -2 -10.5 -2.5t-8.5 2.5l-8 4q-18 8 -14 24l36 182 q-207 23 -319 74q-27 12 -27 43v225q0 12 11 19q4 4 10 4q4 0 12 -4q168 -57 227 -72q68 -18 148 -18h10q63 0 109 18q94 31 94 127v6q0 63 -43 95q-45 33 -148 65l-73 27q-385 125 -385 426z" />
<glyph unicode="&#x15f;" horiz-adv-x="888" d="M59 717v12q0 154 114 238t271 84h21q172 0 278 -50q23 -10 23 -36v-179q0 -14 -8 -16q-4 -4 -10.5 -4t-8.5 2q-160 68 -245 68h-5q-129 0 -129 -82v-6q0 -10 2 -15l44 -49q2 -2 14 -6t14 -6t16.5 -6.5t16.5 -6.5l70 -22q150 -49 222 -118.5t72 -211.5v-14 q0 -143 -105 -224t-255 -94l-16 -73q16 4 26 4q74 0 119 -44t45 -118q0 -92 -65.5 -138t-161.5 -46q-86 0 -146 30q-27 12 -26 39v58q0 10 10 10t31 -8q29 -8 47 -13q33 -4 51 -4q84 0 84 56q0 53 -70 53q-29 0 -69 -14q-4 -2 -10.5 -2.5t-8.5 2.5l-10 4q-16 10 -14 24 l39 182q-158 14 -226 48q-23 10 -22 38v177q0 6 4 14q223 -66 295 -66h12q137 0 137 88v7q0 37 -22 55q-29 18 -82 35l-70 22q-119 39 -194 101q-98 68 -99 221z" />
<glyph unicode="&#x160;" horiz-adv-x="1120" d="M72 1012v22q0 199 141 312.5t344 113.5h14q225 0 351 -59q27 -8 26 -41v-227q0 -12 -10 -17q-8 -4 -12 -4q-6 0 -11 2q-207 72 -325 72h-10q-72 0 -129 -37q-53 -37 -54 -105v-8q0 -55 39 -82q39 -31 133 -63l78 -27q197 -66 299.5 -164t102.5 -280v-17 q0 -207 -146.5 -318.5t-359.5 -111.5h-17q-88 0 -207.5 22.5t-191.5 55.5q-27 12 -27 43v225q0 12 11 19q4 4 10 4q4 0 12 -4q168 -57 227 -72q68 -18 148 -18h10q84 0 143.5 33.5t59.5 111.5v6q0 63 -43 95q-46 32 -148 65l-73 27q-385 125 -385 426zM244 1915q2 6 12 6 h190q27 0 39 -25l76 -149l78 149q8 25 37 25h192l-200 -336q-12 -18 -33 -18h-146q-23 0 -34 18l-209 316q-4 4 -2 14z" />
<glyph unicode="&#x161;" horiz-adv-x="888" d="M59 717v12q0 154 113.5 238t271.5 84h21q172 0 278 -50q23 -10 23 -36v-179q0 -14 -8 -16q-4 -4 -10.5 -4t-8.5 2q-160 68 -245 68h-5q-129 0 -129 -82v-6q0 -10 2 -15l44 -49q2 -2 14 -6t14 -6t16.5 -6t16.5 -7l70 -22q150 -49 222 -118.5t72 -211.5v-14 q0 -158 -123.5 -239t-289.5 -81h-15q-63 0 -160.5 15.5t-142.5 36.5q-23 10 -22 38v177q0 12 8 18q8 4 10 4q6 0 8 -2q178 -72 273 -72h12q137 0 137 88v7q0 37 -22 55q-29 18 -82 35l-70 22q-231 72 -274 213q-18 49 -19 109zM129 1491l203 20q29 0 37 -24l77 -150l76 150 q12 24 39 24h191l-199 -335q-12 -18 -35 -19h-145q-20 0 -33 19z" />
<glyph unicode="&#x162;" horiz-adv-x="1212" d="M49 1184v223q0 27 27 27h1063q27 0 26 -27v-223q0 -27 -26 -27h-373v-1130q0 -27 -27 -27h-90l-18 -98q12 4 26 4q49 0 84 -21q80 -41 80 -141q0 -92 -65.5 -138t-161.5 -46q-90 0 -148 30q-27 12 -26 39v58q0 10 10 10h6q6 -6 54.5 -15.5t68.5 -9.5q84 0 84 56 q0 53 -68 53q-31 0 -71 -14q-4 -2 -10.5 -2.5t-8.5 2.5l-10 4q-16 8 -12 24l41 205h-31q-27 0 -27 27v1130h-370q-27 0 -27 27z" />
<glyph unicode="&#x163;" horiz-adv-x="749" d="M29 815v154q0 18 26 26l109 29v180q0 37 31 43l237 53q2 0 6 3h2q27 0 27 -31v-248h227q29 0 29 -27v-182q0 -27 -29 -27h-227v-466q0 -104 86 -105h10q27 0 131 31q4 2 8.5 2t12.5 -4q8 -6 8 -19v-170q0 -23 -21 -30q-117 -53 -208 -54h-19l-12 -71q12 4 26 4 q74 0 119 -44t45 -118q0 -94 -66.5 -139t-162.5 -45q-88 0 -145 30q-27 12 -27 39v58q0 10 10 10t31 -8q29 -8 47 -13q33 -4 51 -4q84 0 84 56q0 53 -69 53q-29 0 -70 -14q-4 -2 -10.5 -2.5t-8.5 2.5l-10 4q-16 8 -12 24l39 201q-170 63 -170 268v524h-109q-27 0 -26 27z " />
<glyph unicode="&#x164;" horiz-adv-x="1212" d="M49 1184v223q0 27 27 27h1063q27 0 26 -27v-223q0 -27 -26 -27h-373v-1130q0 -27 -27 -27h-266q-27 0 -27 27v1130h-370q-27 0 -27 27zM291 1901l203 20q27 0 36 -25l78 -149l76 149q12 25 37 25h192l-198 -336q-12 -18 -35 -18h-145q-20 0 -33 18z" />
<glyph unicode="&#x165;" horiz-adv-x="1153" d="M29 815v154q0 18 26 26l109 29v180q0 37 31 43l237 53q2 0 6 3h2q27 0 27 -31v-248h227q29 0 29 -27v-182q0 -27 -29 -27h-227v-466q0 -104 86 -105h10q27 0 131 31h15l14 -191q0 -23 -21 -30q-117 -53 -208 -54h-21q-143 0 -226 76t-83 215v524h-109q-27 0 -26 27z M801 1040l121 220h-86q-27 0 -27 26v197q0 26 27 26h262q29 0 28 -26v-168q0 -37 -12 -53l-119 -222q-16 -25 -37 -24h-141q-12 0 -14 8q-4 8 -2 16z" />
<glyph unicode="&#x166;" horiz-adv-x="1212" d="M49 1184v223q0 27 27 27h1063q27 0 26 -27v-223q0 -27 -26 -27h-373v-250h170q27 0 27 -26v-160q0 -29 -27 -29h-170v-665q0 -27 -27 -27h-266q-27 0 -27 27v665h-167q-27 0 -27 29v160q0 27 27 26h167v250h-370q-27 0 -27 27z" />
<glyph unicode="&#x167;" horiz-adv-x="749" d="M29 467v160q0 27 26 26h109v135h-109q-27 0 -26 27v154q0 18 26 26l109 29v180q0 37 31 43l237 53q2 0 6 3h2q27 0 27 -31v-248h227q29 0 29 -27v-182q0 -27 -29 -27h-227v-135h227q29 0 29 -26v-162q0 -27 -29 -27h-227v-116q0 -104 86 -105h10q27 0 131 31q4 2 8.5 2 t12.5 -4q8 -6 8 -19v-170q0 -23 -21 -30q-117 -53 -208 -54h-21q-141 0 -225 76t-84 215v176h-109q-27 0 -26 27z" />
<glyph unicode="&#x16a;" horiz-adv-x="1357" d="M121 535v872q0 27 26 27h275q27 0 27 -27v-883q0 -274 225 -274h16q223 0 223 274v883q0 27 27 27h274q27 0 27 -27v-872q0 -262 -144.5 -412t-400.5 -150h-30q-260 0 -402.5 153t-142.5 409zM414 1599v160q-1 27 26 27h478q27 0 26 -27v-162q0 -27 -26 -26l-478 2 q-27 0 -26 26z" />
<glyph unicode="&#x16b;" d="M76 305v692q0 27 26 27h250q29 0 29 -27v-626q0 -74 26.5 -114t96.5 -40h8q80 0 172 62v718q0 27 29 27h250q27 0 26 -27v-970q0 -27 -26 -27h-222q-23 0 -24 20l-17 86q-156 -133 -297 -133h-22q-147 0 -226 90.5t-79 241.5zM268 1190v160q0 26 27 26h475q29 0 29 -26 v-162q0 -27 -29 -27l-475 2q-27 0 -27 27z" />
<glyph unicode="&#x16e;" horiz-adv-x="1357" d="M121 535v872q0 27 26 27h275q27 0 27 -27v-883q0 -274 225 -274h16q223 0 223 274v883q0 27 27 27h274q27 0 27 -27v-872q0 -262 -144.5 -412t-400.5 -150h-30q-260 0 -402.5 153t-142.5 409zM481 1728.5q0 81.5 58.5 139t140.5 57.5q84 0 141.5 -57.5t57.5 -138.5 q0 -84 -57.5 -142.5t-141.5 -58.5q-82 0 -140.5 59.5t-58.5 141zM618 1729q0 -25 19 -43q18 -20 45 -21q25 0 41 18.5t16 45.5q0 23 -16 43q-16 16 -43 16t-44.5 -16.5t-17.5 -42.5z" />
<glyph unicode="&#x16f;" d="M76 305v692q0 27 26 27h250q29 0 29 -27v-626q0 -74 26.5 -114t96.5 -40h8q80 0 172 62v718q0 27 29 27h250q27 0 26 -27v-970q0 -27 -26 -27h-222q-23 0 -24 20l-17 86q-156 -133 -297 -133h-22q-147 0 -226 90.5t-79 241.5zM334 1319q0 82 58 139.5t140 57.5 q84 0 141.5 -57.5t57.5 -139.5q0 -84 -57.5 -142.5t-141.5 -58.5q-82 0 -140 59.5t-58 141.5zM471 1319q0 -25 18 -43q18 -20 46 -21q25 0 43 19q16 20 16 45q0 16 -8 31q-8 12 -21 20q-15 8 -33 8q-23 0 -43 -16q-18 -18 -18 -43z" />
<glyph unicode="&#x170;" horiz-adv-x="1357" d="M121 535v872q0 27 26 27h275q27 0 27 -27v-883q0 -274 225 -274h16q223 0 223 274v883q0 27 27 27h274q27 0 27 -27v-872q0 -262 -144.5 -412t-400.5 -150h-30q-260 0 -402.5 153t-142.5 409zM438 1583l156 313q12 25 39 25h190q8 0 13 -6l-207 -330q-12 -18 -35 -18 h-145zM766 1583l156 313q8 25 36 25h193l-197 -336q-12 -18 -32 -18h-146z" />
<glyph unicode="&#x171;" d="M76 305v692q0 27 26 27h250q29 0 29 -27v-626q0 -74 26.5 -114t96.5 -40h8q80 0 172 62v718q0 27 29 27h250q27 0 26 -27v-970q0 -27 -26 -27h-222q-23 0 -24 20l-17 86q-156 -133 -297 -133h-22q-147 0 -226 90.5t-79 241.5zM289 1174l155 313q12 25 37 24h193 l-197 -335q-12 -18 -33 -19h-145zM614 1174l156 313q12 25 39 24h190q8 0 13 -6l-207 -329q-12 -18 -35 -19h-145z" />
<glyph unicode="&#x172;" horiz-adv-x="1357" d="M121 535v872q0 27 26 27h275q27 0 27 -27v-883q0 -274 225 -274h16q223 0 223 274v883q0 27 27 27h274q27 0 27 -27v-872q0 -207 -94 -351.5t-287 -191.5q-12 -12 -24 -23q-6 -4 -11.5 -9t-9.5 -10t-6 -7t-10 -11.5t-15 -15.5q-18 -18 -24 -29q-35 -47 -35 -90 q0 -41 25 -59q10 -10 26 -17q20 -4 35 -4q8 0 41 4h6q10 0 10 -10v-94q0 -29 -26 -37q-41 -20 -105 -20q-86 0 -139 46t-53 132q0 119 123 235h-2q-260 0 -402.5 153t-142.5 409z" />
<glyph unicode="&#x173;" d="M76 305v692q0 27 26 27h250q29 0 29 -27v-626q0 -74 26.5 -114t96.5 -40h8q80 0 172 62v718q0 27 29 27h250q27 0 26 -27v-970q0 -27 -26 -27q-2 -2 -14.5 -13.5t-22.5 -21.5q-20 -18 -39 -41q-68 -68 -68 -127q0 -41 25 -59q10 -10 26 -17q20 -4 35 -4q8 0 41 4h6 q10 0 11 -10v-94q0 -29 -27 -37q-41 -20 -105 -20q-86 0 -140 47t-54 131q0 131 156 262h-52q-23 0 -24 20l-17 86q-156 -133 -297 -133h-22q-147 0 -226 90.5t-79 241.5z" />
<glyph unicode="&#x174;" horiz-adv-x="2093" d="M49 1399q-4 14 6 24t23 11h268q23 0 29 -21l164 -670l75 -460h15l73 460l164 670q6 20 29 21h303q20 0 27 -21l164 -670l75 -460h15l75 460l164 670q7 21 27 21h270q12 0 23 -11q8 -8 4 -24l-340 -1379q-6 -20 -29 -20h-377q-23 0 -28 20l-121 488l-92 516h-19l-92 -516 l-119 -488q-8 -20 -28 -20h-379q-20 0 -27 20zM729 1573l211 328q12 20 35 20h145q21 0 33 -20l211 -316q-2 -18 -12 -18h-191q-27 0 -39 22l-75 150l-76 -150q-12 -23 -39 -22h-191q-8 0 -12 6z" />
<glyph unicode="&#x175;" horiz-adv-x="1679" d="M31 985q-6 16 2 29q10 10 24 10h258q18 0 27 -20l109 -410l51 -324h10l53 324l109 410q6 20 24 20h283q18 0 25 -20l108 -410l53 -324h11l51 324l108 410q7 20 27 20h256q16 0 27 -10q8 -12 2 -29l-285 -965q-6 -20 -27 -20h-293q-20 0 -26 20l-84 285l-86 408h-19 l-84 -408l-83 -285q-8 -20 -27 -20h-295q-18 0 -25 20zM532 1157l201 334q12 20 33 20h145q23 0 35 -20l209 -315q0 -18 -10 -19h-191q-27 0 -39 23l-75 149l-78 -149q-10 -23 -37 -23h-193z" />
<glyph unicode="&#x176;" horiz-adv-x="1288" d="M51 1391q-6 16 2 30q8 12 27 13h266q27 0 39 -25l193 -399l63 -246h6l64 246l192 399q12 25 39 25h266q20 0 29 -13q8 -16 0 -30l-432 -920v-444q0 -27 -27 -27h-266q-29 0 -29 27v444zM326 1573l211 328q12 20 34 20h146q21 0 33 -20l211 -316l-203 -18q-27 0 -37 22 l-78 150l-76 -150q-12 -23 -39 -22h-190q-10 0 -12 6z" />
<glyph unicode="&#x177;" horiz-adv-x="1075" d="M31 985q-6 16 2 29q10 10 24 10h254q18 0 25 -20l125 -379l76 -371h4l75 371l123 379q7 20 27 20h252q14 0 24 -10q8 -10 5 -29l-340 -1028q-51 -156 -136.5 -241t-234.5 -85h-17q-61 0 -139 14.5t-78 49.5v184q0 12 9 19q8 4 12 4t8 -2q94 -31 152 -31h4q82 0 110 88 l17 43h-41q-18 0 -25 20zM231 1157l201 334q12 20 33 20h145q23 0 35 -20l209 -315l-203 -19q-25 0 -37 23l-75 149l-78 -149q-10 -23 -37 -23h-193z" />
<glyph unicode="&#x178;" horiz-adv-x="1288" d="M51 1391q-6 16 2 30q8 12 27 13h266q27 0 39 -25l193 -399l63 -246h6l64 246l192 399q12 25 39 25h266q20 0 29 -13q8 -16 0 -30l-432 -920v-444q0 -27 -27 -27h-266q-29 0 -29 27v444zM322 1599v254q-1 27 26 27h213q29 0 29 -27v-254q0 -29 -29 -28h-213q-27 0 -26 28z M698 1599v254q0 27 27 27h213q29 0 29 -27v-254q0 -29 -29 -28h-213q-27 0 -27 28z" />
<glyph unicode="&#x179;" horiz-adv-x="1126" d="M72 27v196q0 20 10 37l567 897h-528q-27 0 -27 27v223q0 27 27 27h895q27 0 26 -27v-197q0 -20 -10 -36l-567 -898h563q27 0 27 -26v-223q0 -27 -27 -27h-930q-27 0 -26 27zM473 1583l156 313q10 25 37 25h219l-197 -336q-12 -18 -33 -18h-174z" />
<glyph unicode="&#x17a;" horiz-adv-x="890" d="M49 27v161q0 16 12 39l402 553h-365q-27 0 -26 27v190q0 27 26 27h707q27 0 26 -27v-161q0 -16 -12 -39l-401 -553h397q27 0 27 -27v-190q0 -27 -27 -27h-739q-27 0 -27 27zM344 1174l156 313q12 25 39 24h217l-195 -335q-12 -18 -35 -19h-172z" />
<glyph unicode="&#x17b;" horiz-adv-x="1126" d="M72 27v196q0 20 10 37l567 897h-528q-27 0 -27 27v223q0 27 27 27h895q27 0 26 -27v-197q0 -20 -10 -36l-567 -898h563q27 0 27 -26v-223q0 -27 -27 -27h-930q-27 0 -26 27zM408 1599v254q-1 27 26 27h258q27 0 27 -27v-254q0 -29 -27 -28h-258q-27 0 -26 28z" />
<glyph unicode="&#x17c;" horiz-adv-x="890" d="M49 27v161q0 16 12 39l402 553h-365q-27 0 -26 27v190q0 27 26 27h707q27 0 26 -27v-161q0 -16 -12 -39l-401 -553h397q27 0 27 -27v-190q0 -27 -27 -27h-739q-27 0 -27 27zM289 1190v254q-1 26 28 26h256q29 0 29 -26v-254q0 -29 -29 -29h-256q-29 0 -28 29z" />
<glyph unicode="&#x17d;" horiz-adv-x="1126" d="M72 27v196q0 20 10 37l567 897h-528q-27 0 -27 27v223q0 27 27 27h895q27 0 26 -27v-197q0 -20 -10 -36l-567 -898h563q27 0 27 -26v-223q0 -27 -27 -27h-930q-27 0 -26 27zM246 1901l203 20q27 0 36 -25l78 -149l76 149q12 25 39 25h190q8 0 13 -6q4 -10 -2 -14 l-209 -316q-12 -18 -35 -18h-146q-20 0 -32 18z" />
<glyph unicode="&#x17e;" horiz-adv-x="890" d="M49 27v161q0 16 12 39l402 553h-365q-27 0 -26 27v190q0 27 26 27h707q27 0 26 -27v-161q0 -16 -12 -39l-401 -553h397q27 0 27 -27v-190q0 -27 -27 -27h-739q-27 0 -27 27zM129 1491l203 20q29 0 37 -24l77 -150l76 150q10 24 37 24h193l-199 -335q-12 -18 -35 -19h-145 q-20 0 -33 19z" />
<glyph unicode="&#x1cd;" horiz-adv-x="1341" d="M49 27l381 1378q6 29 29 29h424q18 0 28 -29l381 -1378q2 -12 -6 -19q-8 -8 -20 -8h-271q-23 0 -28 29l-84 307h-424l-84 -307q-6 -29 -29 -29h-270q-12 0 -21 8q-10 6 -6 19zM352 1915q4 6 13 6h190q27 0 39 -25l76 -149l78 149q9 25 36 25h193l-201 -336 q-12 -18 -33 -18h-145q-23 0 -35 18l-209 316q-6 4 -2 14zM526 612h287l-41 154l-94 412h-14l-95 -412z" />
<glyph unicode="&#x1ce;" horiz-adv-x="1007" d="M49 264v23q0 303 434 331l144 11v20q0 92 -37 129q-41 35 -129 35h-4q-25 0 -37 -2l-43 -6q-57 -8 -86 -19l-41 -10q-45 -8 -94 -26q-4 -2 -9 -2q-6 0 -10 4q-8 6 -8 16v182q0 33 23 39q200 62 370 62h10q397 0 400 -389v-635q0 -27 -27 -27h-221q-18 0 -25 20l-16 89 q-137 -135 -293 -136h-10q-131 0 -211 80t-80 211zM188 1491l203 20q27 0 37 -24l76 -150l78 150q7 24 36 24h193l-199 -335q-14 -18 -34 -19h-146q-23 0 -35 19zM354 317q0 -51 33 -81.5t84 -30.5h10q70 -1 146 67v179l-103 -2q-170 -4 -170 -123v-9z" />
<glyph unicode="&#x1cf;" horiz-adv-x="561" d="M-35 1901l203 20q29 0 37 -25l78 -149l75 149q10 25 37 25h193l-199 -336q-12 -18 -35 -18h-145q-20 0 -33 18zM121 27v1380q-1 27 26 27h267q27 0 26 -27v-1380q0 -27 -26 -27h-267q-27 0 -26 27z" />
<glyph unicode="&#x1d0;" horiz-adv-x="468" d="M-80 1491q2 20 12 20h191q27 0 39 -24l76 -150l75 150q12 24 39 24h191q10 0 12 -6l-211 -329q-12 -18 -35 -19h-145q-20 0 -33 19zM84 27v970q0 27 27 27h249q29 0 29 -27v-970q0 -27 -29 -27h-249q-27 0 -27 27z" />
<glyph unicode="&#x1d1;" horiz-adv-x="1392" d="M104 582v270q0 266 158 437t418 171h31q266 0 421.5 -171t155.5 -437v-270q0 -266 -158.5 -437.5t-418.5 -171.5h-31q-264 0 -420 173t-156 436zM381 1901l203 20q27 0 37 -25l75 -149l78 149q8 25 37 25h193l-199 -336q-14 -18 -35 -18h-145q-23 0 -35 18zM432 553 q0 -133 63.5 -218t192.5 -85h17q129 0 192.5 85t63.5 218v328q0 133 -63.5 218t-192.5 85h-17q-131 0 -193.5 -85t-62.5 -218v-328z" />
<glyph unicode="&#x1d2;" horiz-adv-x="1112" d="M68 436v152q0 209 134 336t343 127h22q211 0 344 -127t133 -336v-152q0 -209 -134 -336t-343 -127h-22q-209 0 -343 128t-134 335zM240 1505q2 6 12 6h190q27 0 39 -24l76 -150l78 150q8 24 37 24h192l-200 -335q-12 -18 -33 -19h-146q-23 0 -34 19l-209 315q-4 4 -2 14z M379 422q0 -90 43 -147.5t129 -57.5h12q86 0 128 57.5t42 147.5v180q0 90 -42 147.5t-128 57.5h-12q-86 0 -129 -57.5t-43 -147.5v-180z" />
<glyph unicode="&#x1d3;" horiz-adv-x="1357" d="M121 535v872q0 27 26 27h275q27 0 27 -27v-883q0 -274 225 -274h16q223 0 223 274v883q0 27 27 27h274q27 0 27 -27v-872q0 -262 -144.5 -412t-400.5 -150h-30q-260 0 -402.5 153t-142.5 409zM362 1901l203 20q29 0 37 -25l78 -149l76 149q12 25 39 25h190l-199 -336 q-12 -18 -34 -18h-146q-20 0 -33 18z" />
<glyph unicode="&#x1d4;" d="M76 305v692q0 27 26 27h250q29 0 29 -27v-626q0 -74 26.5 -114t96.5 -40h8q80 0 172 62v718q0 27 29 27h250q27 0 26 -27v-970q0 -27 -26 -27h-222q-23 0 -24 20l-17 86q-156 -133 -297 -133h-22q-147 0 -226 90.5t-79 241.5zM215 1505q2 6 12 6h191q27 0 39 -24l75 -150 l78 150q8 24 37 24h193l-201 -335q-12 -18 -33 -19h-145q-23 0 -35 19l-209 315q-4 4 -2 14z" />
<glyph unicode="&#x1d5;" horiz-adv-x="1357" d="M121 535v872q0 27 26 27h275q27 0 27 -27v-883q0 -274 225 -274h16q223 0 223 274v883q0 27 27 27h274q27 0 27 -27v-872q0 -262 -144.5 -412t-400.5 -150h-30q-260 0 -402.5 153t-142.5 409zM356 1599v254q0 27 29 27h213q27 0 27 -27v-254q0 -29 -27 -28h-213 q-29 0 -29 28zM414 1993v161q-1 27 26 27h478q27 0 26 -27v-161q0 -27 -26 -27h-478q-27 0 -26 27zM733 1599v254q0 27 29 27h213q27 0 26 -27v-254q0 -29 -26 -28h-213q-29 0 -29 28z" />
<glyph unicode="&#x1d6;" d="M76 305v692q0 27 26 27h250q29 0 29 -27v-626q0 -74 26.5 -114t96.5 -40h8q80 0 172 62v718q0 27 29 27h250q27 0 26 -27v-970q0 -27 -26 -27h-222q-23 0 -24 20l-17 86q-156 -133 -297 -133h-22q-147 0 -226 90.5t-79 241.5zM211 1190v254q0 26 27 26h213q29 0 28 -26 v-254q0 -29 -28 -29h-213q-27 0 -27 29zM268 1585v162q0 27 27 27h475q29 0 29 -27v-162q0 -27 -29 -26h-475q-27 0 -27 26zM588 1190v254q-1 26 26 26h213q27 0 27 -26v-254q0 -29 -27 -29h-213q-27 0 -26 29z" />
<glyph unicode="&#x1d7;" horiz-adv-x="1357" d="M121 535v872q0 27 26 27h275q27 0 27 -27v-883q0 -274 225 -274h16q223 0 223 274v883q0 27 27 27h274q27 0 27 -27v-872q0 -262 -144.5 -412t-400.5 -150h-30q-260 0 -402.5 153t-142.5 409zM356 1599v254q0 27 29 27h213q27 0 27 -27v-254q0 -29 -27 -28h-213 q-29 0 -29 28zM580 1978l155 314q12 23 37 22h219l-194 -334q-12 -20 -35 -20h-172zM733 1599v254q0 27 29 27h213q27 0 26 -27v-254q0 -29 -26 -28h-213q-29 0 -29 28z" />
<glyph unicode="&#x1d8;" d="M76 305v692q0 27 26 27h250q29 0 29 -27v-626q0 -74 26.5 -114t96.5 -40h8q80 0 172 62v718q0 27 29 27h250q27 0 26 -27v-970q0 -27 -26 -27h-222q-23 0 -24 20l-17 86q-156 -133 -297 -133h-22q-147 0 -226 90.5t-79 241.5zM211 1190v254q0 26 27 26h213q29 0 28 -26 v-254q0 -29 -28 -29h-213q-27 0 -27 29zM438 1571l156 315q10 23 37 23h219q14 -10 10 -21l-207 -315q-12 -18 -32 -19h-172zM588 1190v254q-1 26 26 26h213q29 0 29 -26v-254q0 -29 -29 -29h-213q-27 0 -26 29z" />
<glyph unicode="&#x1d9;" horiz-adv-x="1357" d="M121 535v872q0 27 26 27h275q27 0 27 -27v-883q0 -274 225 -274h16q223 0 223 274v883q0 27 27 27h274q27 0 27 -27v-872q0 -262 -144.5 -412t-400.5 -150h-30q-260 0 -402.5 153t-142.5 409zM356 1599v254q0 27 29 27h213q27 0 27 -27v-254q0 -29 -27 -28h-213 q-29 0 -29 28zM362 2296l203 18q27 0 37 -22l78 -150l76 150q12 22 39 22h190l-199 -334q-12 -20 -34 -20h-146q-20 0 -33 20zM733 1599v254q0 27 29 27h213q27 0 26 -27v-254q0 -29 -26 -28h-213q-29 0 -29 28z" />
<glyph unicode="&#x1da;" d="M76 305v692q0 27 26 27h250q29 0 29 -27v-626q0 -74 26.5 -114t96.5 -40h8q80 0 172 62v718q0 27 29 27h250q27 0 26 -27v-970q0 -27 -26 -27h-222q-23 0 -24 20l-17 86q-156 -133 -297 -133h-22q-147 0 -226 90.5t-79 241.5zM211 1190v254q0 26 27 26h213q29 0 28 -26 v-254q0 -29 -28 -29h-213q-27 0 -27 29zM215 1903q2 6 12 6h191q27 0 39 -23l75 -151l78 151q10 23 37 23h193q14 -10 10 -21l-211 -315q-12 -18 -33 -19h-145q-23 0 -35 19l-209 315q-6 8 -2 15zM588 1190v254q-1 26 26 26h213q29 0 29 -26v-254q0 -29 -29 -29h-213 q-27 0 -26 29z" />
<glyph unicode="&#x1db;" horiz-adv-x="1357" d="M121 535v872q0 27 26 27h275q27 0 27 -27v-883q0 -274 225 -274h16q223 0 223 274v883q0 27 27 27h274q27 0 27 -27v-872q0 -262 -144.5 -412t-400.5 -150h-30q-260 0 -402.5 153t-142.5 409zM350 2296q0 18 10 18h218q26 1 38 -22l156 -314l-182 -18q-23 0 -35 20z M356 1599v254q0 27 29 27h213q27 0 27 -27v-254q0 -29 -27 -28h-213q-29 0 -29 28zM733 1599v254q0 27 29 27h213q27 0 26 -27v-254q0 -29 -26 -28h-213q-29 0 -29 28z" />
<glyph unicode="&#x1dc;" d="M76 305v692q0 27 26 27h250q29 0 29 -27v-626q0 -74 26.5 -114t96.5 -40h8q80 0 172 62v718q0 27 29 27h250q27 0 26 -27v-970q0 -27 -26 -27h-222q-23 0 -24 20l-17 86q-156 -133 -297 -133h-22q-147 0 -226 90.5t-79 241.5zM205 1888q-2 8 0 15q4 6 12 6h217 q27 0 39 -23l156 -315l-183 -17q-23 0 -34 19zM211 1190v254q0 26 27 26h213q29 0 28 -26v-254q0 -29 -28 -29h-213q-27 0 -27 29zM588 1190v254q-1 26 26 26h213q29 0 29 -26v-254q0 -29 -29 -29h-213q-27 0 -26 29z" />
<glyph unicode="&#x218;" horiz-adv-x="1120" d="M72 1012v22q0 199 141 312.5t344 113.5h14q225 0 351 -59q27 -8 26 -41v-227q0 -12 -10 -17q-8 -4 -12 -4q-6 0 -11 2q-207 72 -325 72h-10q-72 0 -129 -37q-53 -37 -54 -105v-8q0 -55 39 -82q39 -31 133 -63l78 -27q197 -66 299.5 -164t102.5 -280v-17 q0 -207 -146.5 -318.5t-359.5 -111.5h-17q-88 0 -207.5 22.5t-191.5 55.5q-27 12 -27 43v225q0 12 11 19q4 4 10 4q4 0 12 -4q168 -57 227 -72q68 -18 148 -18h10q84 0 143.5 33.5t59.5 111.5v6q0 63 -43 95q-46 32 -148 65l-73 27q-385 125 -385 426zM395 -571l121 219h-86 q-29 0 -29 26v197q0 27 29 27h262q27 0 27 -27v-168q0 -37 -10 -53l-119 -221q-16 -25 -37 -25h-141q-12 0 -15 8q-4 8 -2 17z" />
<glyph unicode="&#x219;" horiz-adv-x="888" d="M59 717v12q0 154 113.5 238t271.5 84h21q172 0 278 -50q23 -10 23 -36v-179q0 -14 -8 -16q-4 -4 -10.5 -4t-8.5 2q-160 68 -245 68h-5q-129 0 -129 -82v-6q0 -10 2 -15l44 -49q2 -2 14 -6t14 -6t16.5 -6t16.5 -7l70 -22q150 -49 222 -118.5t72 -211.5v-14 q0 -158 -123.5 -239t-289.5 -81h-15q-63 0 -160.5 15.5t-142.5 36.5q-23 10 -22 38v177q0 12 8 18q8 4 10 4q6 0 8 -2q178 -72 273 -72h12q137 0 137 88v7q0 37 -22 55q-29 18 -82 35l-70 22q-10 4 -24.5 9.5t-25.5 9.5t-19 8q-39 18 -66 33q-39 18 -63 43q-66 51 -82 127 q-12 43 -13 92zM285 -569l121 217h-87q-29 0 -28 26v197q-1 27 28 27h263q27 0 26 -27v-168q0 -37 -10 -53l-119 -221q-16 -25 -37 -25h-141q-14 0 -16 8q-2 10 0 19z" />
<glyph unicode="&#x21a;" horiz-adv-x="1212" d="M49 1184v223q0 27 27 27h1063q27 0 26 -27v-223q0 -27 -26 -27h-373v-1130q0 -27 -27 -27h-266q-27 0 -27 27v1130h-370q-27 0 -27 27zM442 -569l121 217h-86q-27 0 -26 26v197q-1 27 26 27h262q29 0 29 -27v-168q0 -37 -10 -53l-121 -221q-14 -25 -37 -25h-141 q-12 0 -15 8q-6 8 -2 19z" />
<glyph unicode="&#x21b;" horiz-adv-x="749" d="M29 815v154q0 18 26 26l109 29v180q0 37 31 43l237 53q35 -18 35 -28v-248h227q29 0 29 -27v-182q0 -27 -29 -27h-227v-466q0 -104 86 -105h10q27 0 131 31q4 2 8.5 2t12.5 -4q8 -6 8 -19v-170q0 -23 -21 -30q-117 -53 -208 -54h-21q-141 0 -225 76t-84 215v524h-109 q-27 0 -26 27zM319 -569l121 217h-86q-29 0 -28 26v197q-1 27 28 27h262q27 0 27 -27v-168q0 -37 -10 -53l-119 -221q-14 -25 -37 -25h-141q-14 0 -17 8q-4 10 0 19z" />
<glyph unicode="&#x243;" horiz-adv-x="1302" d="M49 408v73q0 27 27 27h110v899q0 27 27 27h518q477 0 477 -383v-17q0 -191 -174 -291q207 -96 207 -331v-21q0 -205 -131 -298t-346 -93h-551q-27 0 -27 27v352h-110q-27 0 -27 29zM506 276h235q57 0 97 21q75 37 75 137v8q0 76 -43 121q-47 43 -135 43h-229v-98h209 q27 0 26 -27v-73q0 -29 -26 -29h-209v-103zM506 840h201q182 0 182 155v6q0 156 -178 156h-205v-317z" />
<glyph unicode="&#x2c6;" horiz-adv-x="735" d="M61 1567l199 334q12 20 35 20h145q21 0 33 -20l211 -316l-203 -18q-27 0 -37 22l-77 150l-76 -150q-12 -23 -37 -22h-193z" />
<glyph unicode="&#x2c7;" horiz-adv-x="735" d="M51 1901l203 20q25 0 37 -25l76 -149l77 149q10 25 37 25h193l-201 -336q-12 -18 -33 -18h-145q-23 0 -35 18z" />
<glyph unicode="&#x2d8;" horiz-adv-x="673" d="M49 1659v149q0 14 10 21l2 2h6.5t14.5 -4q10 -4 22.5 -9.5t16.5 -7.5q6 -2 19.5 -7t19.5 -7q20 -8 41 -12q18 -8 39 -10q39 -10 96 -11q104 0 176 33q29 11 80 31q8 4 12 4q2 0 5 -1t5 -1q10 -6 11 -21v-149q0 -16 -17 -33q-43 -35 -124 -55.5t-148 -20.5 q-66 0 -146.5 20.5t-123.5 55.5q-16 16 -17 33z" />
<glyph unicode="&#x2d9;" horiz-adv-x="407" d="M49 1599v254q0 27 27 27h256q29 0 28 -27v-254q0 -29 -28 -28h-256q-27 0 -27 28z" />
<glyph unicode="&#x2da;" horiz-adv-x="495" d="M49 1728.5q0 81.5 58.5 139t140.5 57.5q84 0 141 -57.5t57 -138.5q0 -84 -57 -142.5t-141 -58.5q-82 0 -140.5 59.5t-58.5 141zM186.5 1729q-0.5 -25 18.5 -43q18 -20 45 -21q25 0 41 18.5t16 45.5q0 23 -16 43q-17 16 -41.5 16t-44.5 -16q-18 -18 -18.5 -43z" />
<glyph unicode="&#x2db;" horiz-adv-x="421" d="M49 -262q0 133 154 262h170l-31 -31q-37 -31 -61 -63q-33 -37 -43 -70q-8 -18 -9 -39q0 -25 13 -43q10 -20 30 -28q16 -8 43 -9q8 0 41 4h6q10 0 11 -10v-94q0 -29 -27 -37q-41 -20 -104 -20q-86 0 -139.5 46t-53.5 132z" />
<glyph unicode="&#x2dc;" horiz-adv-x="718" d="M49 1587q16 49 32.5 85t43.5 79t64.5 66.5t82.5 23.5h9q51 0 102 -39q53 -41 80 -41q37 0 69 45q13 15 31 15h94q20 0 13 -21q-16 -51 -31.5 -85t-42.5 -78t-64.5 -67.5t-85.5 -23.5h-8q-49 0 -96 41q-47 39 -84 39q-16 0 -33 -6q-16 -8 -20 -14q-25 -39 -49 -39h-93 q-20 0 -14 20z" />
<glyph unicode="&#x2dd;" horiz-adv-x="823" d="M51 1583l156 313q10 25 37 25h192l-196 -336q-12 -18 -33 -18h-146zM377 1583l155 313q12 25 37 25h193l-197 -336q-12 -18 -33 -18h-145z" />
<glyph unicode="&#x326;" horiz-adv-x="0" d="M51 -569l119 217h-84q-29 0 -29 26v197q0 27 29 27h262q27 0 27 -27v-168q0 -37 -10 -53l-121 -221q-14 -25 -37 -25h-141q-12 0 -15 8q-6 10 0 19z" />
<glyph unicode="&#x401;" horiz-adv-x="1103" d="M121 27v1380q-1 27 26 27h871q27 0 26 -27v-223q0 -27 -26 -27h-578v-289h521q27 0 26 -26v-224q0 -27 -26 -26h-521v-316h578q27 0 26 -26v-223q0 -27 -26 -27h-871q-27 0 -26 27zM250 1599v254q0 27 29 27h213q27 0 26 -27v-254q0 -29 -26 -28h-213q-29 0 -29 28z M627 1599v254q-1 27 28 27h213q27 0 27 -27v-254q0 -29 -27 -28h-213q-29 0 -28 28z" />
<glyph unicode="&#x404;" horiz-adv-x="1157" d="M104 625v184q0 281 171 466t446 185h31q197 0 319 -65q25 -12 25 -43v-217q0 -12 -11 -19q-8 -4 -12 -4q-6 0 -8 2q-162 70 -281 70h-10q-145 0 -234 -86t-104 -232h461q27 0 27 -26v-224q0 -29 -27 -28h-463q10 -152 101.5 -245t238.5 -93h10q127 0 281 69q2 2 8 3 q4 0 12 -5q10 -6 11 -18v-219q0 -27 -25 -43q-51 -29 -148.5 -46.5t-170.5 -17.5h-31q-276 0 -446.5 187.5t-170.5 464.5z" />
<glyph unicode="&#x406;" horiz-adv-x="561" d="M121 27v1380q-1 27 26 27h267q27 0 26 -27v-1380q0 -27 -26 -27h-267q-27 0 -26 27z" />
<glyph unicode="&#x407;" horiz-adv-x="561" d="M-41 1599v254q0 27 27 27h213q29 0 28 -27v-254q0 -29 -28 -28h-213q-27 0 -27 28zM121 27v1380q-1 27 26 27h267q27 0 26 -27v-1380q0 -27 -26 -27h-267q-27 0 -26 27zM336 1599v254q-1 27 26 27h213q29 0 29 -27v-254q0 -29 -29 -28h-213q-27 0 -26 28z" />
<glyph unicode="&#x40e;" horiz-adv-x="1347" d="M51 1391q-8 14 2 30q8 12 29 13h266q27 0 39 -25l217 -475l66 -262h8l65 262l218 475q11 25 38 25h267q25 0 32 -23q2 -6 -2 -20l-465 -1018q-43 -88 -77.5 -145.5t-90 -123t-126 -97.5t-156.5 -32h-10q-84 0 -148 25q-16 4 -16 25v225q0 23 16 22q2 0 15 -4 q41 -14 71 -14h10q41 0 70 12q53 18 111 127l4 6zM385 1659v149q0 14 10 21q2 0 5 1t5.5 1t14.5 -4q45 -20 78 -31q76 -33 176 -33q57 0 98 11q18 2 41 10q18 4 41 12q8 4 21.5 9t15.5 5q41 21 51 21q2 0 5 -1t5 -1q10 -6 11 -21v-149q0 -16 -19 -33q-45 -35 -124 -55.5 t-146.5 -20.5t-178 31t-110.5 78z" />
<glyph unicode="&#x410;" horiz-adv-x="1341" d="M49 27l381 1378q6 29 29 29h424q18 0 28 -29l381 -1378q2 -12 -6 -19q-8 -8 -20 -8h-271q-23 0 -28 29l-84 307h-424l-84 -307q-6 -29 -29 -29h-270q-12 0 -21 8q-10 6 -6 19zM526 612h287l-41 154l-94 412h-14l-95 -412z" />
<glyph unicode="&#x411;" horiz-adv-x="1208" d="M121 27v1380q0 27 26 27h859q27 0 26 -27v-223q0 -27 -26 -27h-566v-264h189q520 0 520 -442v-21q0 -215 -141.5 -322.5t-364.5 -107.5h-496q-27 0 -26 27zM440 276h160q221 0 221 170v21q0 166 -223 166h-158v-357z" />
<glyph unicode="&#x412;" horiz-adv-x="1236" d="M121 27v1380q0 27 26 27h519q477 0 477 -383v-17q0 -191 -174 -291q207 -96 207 -331v-21q0 -205 -131.5 -298t-346.5 -93h-551q-27 0 -26 27zM440 276h236q57 0 96 21q76 37 76 137v8q0 119 -98 154q-37 10 -80 10h-230v-330zM440 840h201q82 0 132 37.5t50 117.5v6 q0 156 -178 156h-205v-317z" />
<glyph unicode="&#x413;" horiz-adv-x="1034" d="M121 27v1380q-1 27 26 27h814q27 0 26 -27v-223q0 -27 -26 -27h-521v-1130q0 -27 -26 -27h-267q-27 0 -26 27z" />
<glyph unicode="&#x414;" horiz-adv-x="1570" d="M51 -236v486q0 27 29 26h178q47 41 53 148l74 985q4 25 27 25h884q27 0 27 -27v-1131h172q29 0 29 -26v-486q0 -27 -29 -26h-264q-27 0 -27 26v236h-833v-236q0 -27 -27 -26h-264q-29 0 -29 26zM600 276h406v881h-320l-55 -719q-6 -94 -31 -162z" />
<glyph unicode="&#x415;" horiz-adv-x="1103" d="M121 27v1380q0 27 26 27h871q27 0 26 -27v-223q0 -27 -26 -27h-578v-289h521q27 0 26 -26v-224q0 -27 -26 -26h-521v-316h578q27 0 26 -26v-223q0 -27 -26 -27h-871q-27 0 -26 27z" />
<glyph unicode="&#x416;" horiz-adv-x="2017" d="M51 33l410 696l-383 672q-6 12 0 22q4 10 18 11h293q23 0 35 -21l319 -557h105v551q0 27 29 27h264q27 0 26 -27v-551h107l319 557q12 20 35 21h293q14 0 21 -11q3 -10 -3 -22l-383 -672l410 -696q6 -12 0 -22.5t-20 -10.5h-299q-27 0 -35 20l-332 560h-113v-553 q0 -27 -26 -27h-264q-29 0 -29 27v553h-111l-331 -560q-8 -20 -35 -20h-299q-14 0 -20.5 10t-0.5 23z" />
<glyph unicode="&#x417;" horiz-adv-x="1069" d="M90 1130v230q0 33 25 41q57 27 160.5 43t181.5 16h14q219 0 361.5 -97t142.5 -302v-17q0 -188 -180 -299q102 -43 158.5 -131t56.5 -200v-21q0 -145 -83 -243.5t-200 -137.5t-256 -39h-14q-207 0 -338 60q-27 8 -27 41v229q0 10 10 16q8 4 13 5q6 0 10 -2 q104 -35 121 -39q88 -33 192 -33h13q92 0 161.5 46t69.5 134v8q0 82 -58.5 125t-144.5 43h-188q-27 0 -27 29v176q0 29 27 29h160q84 0 144 41t60 120v19q0 80 -60 122t-144 42h-11q-121 0 -319 -72q-4 -2 -10.5 -2t-10.5 4q-10 6 -10 16z" />
<glyph unicode="&#x418;" horiz-adv-x="1386" d="M117 27v1380q0 27 26 27h265q27 0 26 -27v-578l-28 -340h22l166 340l313 582q12 23 37 23h299q29 0 29 -27v-1380q0 -27 -29 -27h-264q-27 0 -27 27v589l29 328h-23l-157 -328l-322 -593q-12 -23 -37 -23h-299q-27 0 -26 27z" />
<glyph unicode="&#x419;" horiz-adv-x="1386" d="M117 27v1380q0 27 26 27h265q27 0 26 -27v-578l-28 -340h22l166 340l313 582q12 23 37 23h299q29 0 29 -27v-1380q0 -27 -29 -27h-264q-27 0 -27 27v589l29 328h-23l-157 -328l-322 -593q-12 -23 -37 -23h-299q-27 0 -26 27zM408 1659v149q0 14 10 21q2 0 5 1t5 1 q4 0 12 -4q51 -20 80 -31q76 -33 176.5 -33t175.5 33q17 6 78 31q12 4 14.5 4t5.5 -1t5 -1q8 -6 8 -21v-149q0 -16 -16 -33q-45 -35 -124 -55.5t-147 -20.5q-66 0 -145.5 20.5t-126.5 55.5q-16 16 -16 33z" />
<glyph unicode="&#x41a;" horiz-adv-x="1304" d="M121 27v1380q0 27 26 27h267q27 0 26 -27v-551h121l320 557q8 20 34 21h293q12 0 18.5 -10.5t-1.5 -22.5l-383 -672l409 -696q8 -12 2 -23q-10 -10 -20 -10h-301q-23 0 -35 20l-332 560h-125v-553q0 -27 -26 -27h-267q-27 0 -26 27z" />
<glyph unicode="&#x41b;" horiz-adv-x="1413" d="M49 23v223q0 25 17 24q2 0 14 -4q37 -14 70 -14h8q115 0 127 172l73 985q2 25 27 25h885q27 0 26 -27v-1380q0 -27 -26 -27h-264q-29 0 -29 27v1130h-318l-55 -719q-37 -465 -401 -465h-10q-41 0 -92.5 11.5t-51.5 38.5z" />
<glyph unicode="&#x41c;" horiz-adv-x="1667" d="M117 27v1380q0 27 26 27h342q27 0 37 -23l301 -633h15l301 633q10 23 37 23h342q29 0 28 -27v-1380q0 -27 -28 -27h-273q-27 0 -26 27l8 667l33 303h-25l-135 -303l-158 -301q-10 -23 -35 -22h-153q-25 0 -35 22l-158 301l-135 303h-25l33 -303l10 -667q0 -27 -28 -27 h-273q-27 0 -26 27z" />
<glyph unicode="&#x41d;" horiz-adv-x="1384" d="M121 27v1380q0 27 26 27h267q27 0 26 -27v-539h504v539q0 27 27 27h264q29 0 29 -27v-1380q0 -27 -29 -27h-264q-27 0 -27 27v565h-504v-565q0 -27 -26 -27h-267q-27 0 -26 27z" />
<glyph unicode="&#x41e;" horiz-adv-x="1392" d="M104 582v270q0 266 158 437t418 171h31q266 0 421.5 -171t155.5 -437v-270q0 -266 -158.5 -437.5t-418.5 -171.5h-31q-264 0 -420 173t-156 436zM432 553q0 -133 63.5 -218t192.5 -85h17q129 0 192.5 85t63.5 218v328q0 133 -63.5 218t-192.5 85h-17q-131 0 -193.5 -85 t-62.5 -218v-328z" />
<glyph unicode="&#x41f;" horiz-adv-x="1378" d="M121 27v1380q-1 27 26 27h1084q27 0 26 -27v-1380q0 -27 -26 -27h-266q-27 0 -27 27v1130h-498v-1130q0 -27 -26 -27h-267q-27 0 -26 27z" />
<glyph unicode="&#x420;" horiz-adv-x="1267" d="M121 27v1380q-1 27 26 27h510q231 0 367.5 -114t136.5 -341v-23q0 -231 -143.5 -354t-378.5 -123h-199v-452q0 -27 -26 -27h-267q-27 0 -26 27zM440 743h162q232 0 232 199v21q0 195 -228 194h-166v-414z" />
<glyph unicode="&#x421;" horiz-adv-x="1157" d="M104 625v184q0 281 171.5 466t445.5 185h31q197 0 319 -65q25 -12 25 -43v-217q0 -12 -11 -19q-8 -4 -12 -4q-6 0 -8 2q-162 70 -281 70h-10q-162 0 -252 -104.5t-90 -270.5v-184q0 -166 90 -270.5t252 -104.5h10q127 0 281 69q2 0 5 1.5t5 1.5h6q14 -14 15 -23v-219 q0 -27 -25 -43q-113 -63 -319 -64h-31q-276 0 -446.5 187.5t-170.5 464.5z" />
<glyph unicode="&#x422;" horiz-adv-x="1212" d="M49 1184v223q0 27 27 27h1063q27 0 26 -27v-223q0 -27 -26 -27h-373v-1130q0 -27 -27 -27h-266q-27 0 -27 27v1130h-370q-27 0 -27 27z" />
<glyph unicode="&#x423;" horiz-adv-x="1347" d="M49 1411q6 23 33 23h266q27 0 39 -25l217 -475l66 -262h8l65 262l218 475q11 25 38 25h267q20 0 28 -13q8 -14 2 -30l-465 -1018q-43 -88 -77.5 -145.5t-90 -123t-126 -97.5t-156.5 -32h-10q-80 0 -148 25q-16 4 -16 25v225q0 23 16 22q2 0 15 -4q41 -14 71 -14h10 q72 0 109 32.5t72 106.5l4 6l-453 992q-4 14 -2 20z" />
<glyph unicode="&#x424;" horiz-adv-x="1863" d="M104 725v20q0 252 163 408t413 156h92v98q0 27 27 27h266q27 0 27 -27v-98h90q252 0 413.5 -158t161.5 -406v-20q0 -250 -163.5 -407.5t-411.5 -157.5h-90v-133q0 -27 -27 -27h-266q-27 0 -27 27v133h-92q-250 0 -413 158.5t-163 406.5zM432 713q0 -125 67.5 -201 t188.5 -76h84v596h-84q-123 0 -189.5 -76.5t-66.5 -199.5v-43zM1092 436h84q125 0 189.5 77t64.5 200v43q0 125 -66 200.5t-188 75.5h-84v-596z" />
<glyph unicode="&#x425;" horiz-adv-x="1329" d="M51 33l385 696l-368 672q-6 12 0 22q4 10 18 11h293q25 0 35 -23l174 -305l69 -193h17l67 193l174 305q12 23 35 23h293q14 0 20.5 -10.5t-1.5 -22.5l-369 -672l385 -696q6 -12 0 -22.5t-21 -10.5h-294q-25 0 -35 23l-187 327l-67 191h-17l-69 -191l-185 -327 q-12 -23 -34 -23h-297q-14 0 -20.5 10t-0.5 23z" />
<glyph unicode="&#x426;" horiz-adv-x="1486" d="M121 27v1380q0 27 26 27h267q27 0 26 -27v-1131h480v1131q0 27 26 27h266q27 0 27 -27v-1131h172q27 0 27 -26v-486q0 -27 -27 -26h-266q-27 0 -27 26v236h-971q-27 0 -26 27z" />
<glyph unicode="&#x427;" horiz-adv-x="1294" d="M104 895v512q0 27 29 27h273q27 0 26 -27v-498q0 -211 189 -211h12q117 0 221 52v657q0 27 27 27h264q29 0 29 -27v-1380q0 -27 -29 -27h-264q-27 0 -27 27v458q-135 -63 -279 -63h-28q-207 0 -325 132t-118 341z" />
<glyph unicode="&#x428;" horiz-adv-x="1943" d="M121 27v1380q0 27 26 27h267q27 0 26 -27v-1131h373v1131q0 27 27 27h264q29 0 29 -27v-1131h370v1131q0 27 27 27h266q27 0 27 -27v-1380q0 -27 -27 -27h-1649q-27 0 -26 27z" />
<glyph unicode="&#x429;" horiz-adv-x="2070" d="M121 27v1380q0 27 26 27h267q27 0 26 -27v-1131h373v1131q0 27 27 27h264q29 0 29 -27v-1131h370v1131q0 27 27 27h266q27 0 27 -27v-1131h172q27 0 26 -26v-486q0 -27 -26 -26h-264q-29 0 -29 26v236h-1555q-27 0 -26 27z" />
<glyph unicode="&#x42a;" horiz-adv-x="1402" d="M49 1184v223q0 27 27 27h487q27 0 27 -27v-514h188q520 0 520 -442v-21q0 -215 -141 -322.5t-364 -107.5h-494q-29 0 -29 27v1130h-194q-27 0 -27 27zM590 276h162q219 0 219 170v21q0 166 -221 166h-160v-357z" />
<glyph unicode="&#x42b;" horiz-adv-x="1716" d="M121 27v1380q0 27 26 27h267q26 0 26 -27v-514h189q520 0 520 -442v-21q0 -215 -141.5 -322.5t-364.5 -107.5h-496q-27 0 -26 27zM440 276h160q221 0 221 170v21q0 166 -223 166h-158v-357zM1276 27v1380q0 27 29 27h264q27 0 26 -27v-1380q0 -27 -26 -27h-264 q-29 0 -29 27z" />
<glyph unicode="&#x42c;" horiz-adv-x="1253" d="M121 27v1380q0 27 26 27h267q26 0 26 -27v-514h189q520 0 520 -442v-21q0 -215 -141.5 -322.5t-364.5 -107.5h-496q-27 0 -26 27zM440 276h160q221 0 221 170v21q0 166 -223 166h-158v-357z" />
<glyph unicode="&#x42d;" horiz-adv-x="1167" d="M61 80v219q0 12 11 18q4 4 10 4.5t10 -2.5q152 -70 281 -69h10q152 0 246 92t104 246h-475q-27 0 -27 28v224q0 27 27 26h473q-16 147 -108.5 232.5t-239.5 85.5h-10q-121 0 -281 -70q-4 -2 -10 -2t-10 4q-10 6 -11 19v217q0 31 25 43q123 65 320 65h28q283 0 455 -185 t172 -466v-184q0 -285 -174 -468.5t-453 -183.5h-28q-47 0 -118 7.5t-149 34t-78 65.5z" />
<glyph unicode="&#x42e;" horiz-adv-x="1890" d="M121 27v1380q0 27 26 27h267q27 0 26 -27v-543h164q6 264 162 430t414 166h30q266 0 421 -172t155 -436v-270q0 -268 -158 -438.5t-418 -170.5h-30q-264 0 -420 173t-156 436v6h-164v-561q0 -27 -26 -27h-267q-27 0 -26 27zM932 553q0 -133 62.5 -218t191.5 -85h18 q129 0 191.5 84t62.5 219v328q0 133 -63.5 218t-190.5 85h-18q-127 0 -190.5 -85t-63.5 -218v-328z" />
<glyph unicode="&#x42f;" horiz-adv-x="1302" d="M51 33l201 344l141 205q-260 106 -260 409v21q0 217 132.5 319.5t357.5 102.5h532q27 0 27 -27v-1380q0 -27 -27 -27h-266q-27 0 -27 27v503h-164l-292 -507q-10 -23 -35 -23h-299q-14 0 -20.5 10t-0.5 23zM461 967q0 -182 215 -183h186v373h-188q-213 0 -213 -178v-12z " />
<glyph unicode="&#x430;" horiz-adv-x="1007" d="M49 264v23q0 303 434 331l144 11v20q0 92 -37 129q-41 35 -129 35h-4q-25 0 -37 -2l-43 -6q-57 -8 -86 -19l-41 -10q-45 -8 -94 -26q-4 -2 -9 -2q-6 0 -10 4q-8 6 -8 16v182q0 33 23 39q200 62 370 62h10q397 0 400 -389v-635q0 -27 -27 -27h-221q-18 0 -25 20l-16 89 q-137 -135 -293 -136h-10q-131 0 -211 80t-80 211zM354 317q0 -49 34 -80.5t83 -31.5h10q70 -1 146 67v179l-103 -2q-170 -4 -170 -123v-9z" />
<glyph unicode="&#x431;" horiz-adv-x="1093" d="M68 436v467q0 281 135 418t415 137h11q178 0 323 74q8 4 11 4q4 0 8 -4q8 -6 8 -19v-192q0 -43 -93 -71.5t-165 -32.5q-31 -2 -115 -3h-10q-217 0 -217 -215v-86q109 103 254 103h20q182 0 277.5 -126t95.5 -315v-139q0 -207 -133 -335t-340 -128h-23q-207 0 -334.5 128 t-127.5 335zM379 422q0 -205 158 -205h10q86 0 127 58.5t41 146.5v145q0 43 -10 88q-10 37 -31 66q-20 23 -49 39q-31 12 -68 12h-8q-82 0 -170 -65v-285z" />
<glyph unicode="&#x432;" horiz-adv-x="1026" d="M80 27v970q-1 27 26 27h447q76 0 140.5 -13.5t122.5 -44t91 -88t33 -137.5v-14q0 -129 -125 -203q76 -33 115 -84q39 -57 39 -131v-14q0 -154 -112 -224.5t-277 -70.5h-474q-27 0 -26 27zM385 217h152q121 0 120 98v17q1 102 -120 102h-152v-217zM385 600h131q63 0 92 27 q29 29 29 69v17q0 94 -121 94h-131v-207z" />
<glyph unicode="&#x433;" horiz-adv-x="823" d="M80 27v970q-1 27 26 27h664q27 0 27 -27v-182q0 -27 -27 -27h-385v-761q0 -27 -29 -27h-250q-27 0 -26 27z" />
<glyph unicode="&#x434;" horiz-adv-x="1329" d="M29 209q0 27 26 27h131q43 18 54 102l51 659q2 27 28 27h768q27 0 27 -27v-761h160q27 0 26 -27v-445q0 -27 -26 -26h-250q-29 0 -29 26v236h-663v-236q0 -27 -27 -26h-250q-27 0 -26 26v445zM504 236h305v552h-238l-26 -350q-8 -123 -41 -202z" />
<glyph unicode="&#x435;" horiz-adv-x="1052" d="M68 451v110q0 215 128 352.5t341 137.5h22q203 0 315.5 -122t112.5 -327v-108q0 -18 -12 -30.5t-31 -12.5h-563v-33q0 -98 60.5 -152.5t160.5 -54.5h10q102 0 299 74q2 2 9 2q2 0 10 -4q8 -6 8 -17v-188q0 -27 -23 -37q-141 -68 -348 -68h-20q-219 0 -349 129t-130 349z M379 625h326q6 204 -156 204h-8q-49 0 -84 -22q-35 -27 -54 -70q-20 -45 -24 -112z" />
<glyph unicode="&#x436;" horiz-adv-x="1648" d="M31 12q-6 8 0 25l299 498l-254 454q-6 12 0 25q6 10 20 10h266q27 0 35 -20l201 -363h74v356q0 27 26 27h252q27 0 27 -27v-356h74l202 363q8 20 35 20h264q14 0 21 -10q6 -13 0 -25l-254 -454l299 -498q6 -16 0 -25q-6 -12 -21 -12h-280q-23 0 -33 18l-231 390h-76v-381 q0 -27 -27 -27h-252q-27 0 -26 27v381h-74l-233 -390q-8 -18 -33 -18h-281q-14 0 -20 12z" />
<glyph unicode="&#x437;" horiz-adv-x="868" d="M59 59v189q0 10 9 16q8 4 10 4q6 0 8 -2q18 -8 43 -17t29 -11q88 -39 170 -39h14q59 0 107.5 27.5t48.5 82.5v13q0 98 -119 98h-143q-27 0 -27 26v144q0 27 27 26h120q49 0 86 25t37 72v12q0 100 -131 100h-12q-61 0 -148 -28q-6 -2 -92 -39l-26 207q0 27 22 36 q99 50 273 50h18q166 0 282.5 -68t116.5 -221v-14q0 -154 -131 -222q76 -27 117 -87t41 -140v-14q0 -166 -123 -239t-301 -73h-29q-168 0 -274 50q-23 10 -23 36z" />
<glyph unicode="&#x438;" horiz-adv-x="1110" d="M80 27v970q0 27 26 27h250q29 0 29 -27v-338l-10 -233h26l99 217l176 354q13 27 29 27h299q27 0 26 -27v-970q0 -27 -26 -27h-250q-29 0 -29 27v348l10 223h-26l-93 -207l-182 -364q-12 -27 -28 -27h-300q-27 0 -26 27z" />
<glyph unicode="&#x439;" horiz-adv-x="1110" d="M80 27v970q0 27 26 27h250q29 0 29 -27v-338l-10 -233h26l99 217l176 354q13 27 29 27h299q27 0 26 -27v-970q0 -27 -26 -27h-250q-29 0 -29 27v348l10 223h-26l-93 -207l-182 -364q-12 -27 -28 -27h-300q-27 0 -26 27zM272 1249v150q0 14 11 20l4 2h4t14 -4 q51 -20 80 -31q76 -33 176 -32q102 0 174 32q27 11 80 31q12 4 14 4t5.5 -1t5.5 -1q8 -6 8 -20v-150q0 -16 -17 -32q-43 -35 -123.5 -55.5t-146.5 -20.5q-68 0 -148.5 20.5t-123.5 55.5q-16 16 -17 32z" />
<glyph unicode="&#x43a;" horiz-adv-x="1079" d="M84 27v970q0 27 27 27h249q29 0 29 -27v-356h94l201 363q8 20 35 20h264q16 0 23 -10q6 -13 -2 -25l-254 -454l299 -498q6 -16 0 -25q-6 -12 -21 -12h-280q-23 0 -33 18l-232 390h-94v-381q0 -27 -29 -27h-249q-27 0 -27 27z" />
<glyph unicode="&#x43b;" horiz-adv-x="1159" d="M29 37v172q0 10 8 16q4 4 10 4q4 0 8 -2q37 -10 56 -10h10q72 0 82 109l53 671q2 27 27 27h768q29 0 28 -27v-970q0 -27 -28 -27h-250q-27 0 -27 27v761h-237l-39 -499q-25 -315 -295 -316h-13q-86 0 -143 33q-18 10 -18 31z" />
<glyph unicode="&#x43c;" horiz-adv-x="1284" d="M80 27v970q0 27 26 27h318q16 0 31 -27l184 -385h6l186 385q13 27 29 27h318q27 0 26 -27v-970q0 -27 -26 -27h-250q-27 0 -27 27v333l47 318h-37l-182 -369q-8 -27 -39 -26h-96q-27 0 -39 26l-182 369h-35l47 -318v-333q0 -27 -29 -27h-250q-27 0 -26 27z" />
<glyph unicode="&#x43d;" horiz-adv-x="1101" d="M80 27v970q0 27 26 27h250q29 0 29 -27v-360h334v360q-1 27 26 27h250q27 0 27 -27v-970q0 -27 -27 -27h-250q-27 0 -26 27v374h-334v-374q0 -27 -29 -27h-250q-27 0 -26 27z" />
<glyph unicode="&#x43e;" horiz-adv-x="1112" d="M68 436v152q0 209 134 336t343 127h22q211 0 344 -127t133 -336v-152q0 -209 -134 -336t-343 -127h-22q-209 0 -343 128t-134 335zM379 422q0 -90 43 -147.5t129 -57.5h12q86 0 128 57.5t42 147.5v180q0 90 -42 147.5t-128 57.5h-12q-51 0 -78 -16q-18 -10 -33 -21 q-14 -16 -24 -31q-37 -47 -37 -137v-180z" />
<glyph unicode="&#x43f;" horiz-adv-x="1099" d="M80 27v970q-1 27 26 27h885q27 0 27 -27v-970q0 -27 -27 -27h-250q-27 0 -26 27v761h-330v-761q0 -27 -29 -27h-250q-27 0 -26 27z" />
<glyph unicode="&#x440;" horiz-adv-x="1101" d="M84 -315v1312q0 27 27 27h221q23 0 24 -20l13 -74q110 121 274 121h21q182 0 276 -126t94 -315v-174q0 -201 -104.5 -332t-298.5 -131h-21q-131 0 -221 80v-368q0 -27 -29 -27h-249q-27 0 -27 27zM389 285q90 -68 168 -68h10q156 0 156 205v180q0 205 -156 205h-10 q-84 0 -168 -64v-458z" />
<glyph unicode="&#x441;" horiz-adv-x="931" d="M68 459v106q0 221 129 353.5t348 132.5h22q41 0 103 -11q106 -25 176 -57q20 -8 20 -37v-188q0 -10 -8 -17q-8 -4 -10 -4q-6 0 -8 2q-154 68 -228 68h-12q-109 0 -165 -68.5t-56 -179.5v-94q0 -111 56.5 -179.5t164.5 -68.5h12q74 0 228 68q2 2 8 2q2 0 10 -4q8 -6 8 -17 v-188q0 -29 -20 -37q-131 -68 -279 -68h-22q-219 0 -348 134.5t-129 351.5z" />
<glyph unicode="&#x442;" horiz-adv-x="960" d="M29 815v182q-1 27 26 27h850q27 0 27 -27v-182q0 -27 -27 -27h-272v-761q0 -27 -29 -27h-250q-27 0 -26 27v761h-273q-27 0 -26 27z" />
<glyph unicode="&#x443;" horiz-adv-x="1075" d="M31 985q-6 16 2 29q10 10 24 10h254q18 0 25 -20l125 -379l76 -371h4l75 371l123 379q7 20 27 20h252q14 0 24 -10q8 -10 5 -29l-340 -1028q-51 -156 -136.5 -241t-234.5 -85h-17q-61 0 -139 14.5t-78 49.5v184q0 12 9 19q8 4 12 4t8 -2q94 -31 152 -31h4q82 0 110 88 l17 43h-41q-18 0 -25 20z" />
<glyph unicode="&#x444;" horiz-adv-x="1589" d="M68 436v152q0 211 142 337t353 126h80v432q0 27 27 26h250q26 1 26 -26v-432h82q213 0 353.5 -128t140.5 -335v-152q0 -209 -142.5 -336t-351.5 -127h-82v-288q0 -27 -26 -27h-250q-27 0 -27 27v288h-80q-211 0 -353 129t-142 334zM379 422q0 -98 55 -150q53 -55 133 -55 h76v590h-76q-86 0 -137 -58.5t-51 -146.5v-180zM946 217h76q88 0 138 58.5t50 146.5v180q0 90 -49 147.5t-139 57.5h-76v-590z" />
<glyph unicode="&#x445;" horiz-adv-x="1060" d="M31 12.5q-6 12.5 0 24.5l291 483l-279 469q-6 12 0 25q4 10 20 10h263q23 0 34 -20l123 -211l41 -125h11l43 125l122 211q8 20 35 20h262q14 0 21 -10q6 -12 -2 -25l-277 -469l289 -483q8 -12 2 -24.5t-22 -12.5h-269q-20 0 -32 18l-129 220l-43 127h-11l-41 -127 l-129 -220q-12 -18 -35 -18h-268q-14 0 -20 12.5z" />
<glyph unicode="&#x446;" horiz-adv-x="1222" d="M80 27v970q0 27 26 27h250q29 0 29 -27v-761h320v761q0 27 26 27h250q29 0 29 -27v-761h159q27 0 27 -27v-445q0 -27 -27 -26h-251q-27 0 -27 26v236h-785q-27 0 -26 27z" />
<glyph unicode="&#x447;" horiz-adv-x="1062" d="M76 625v372q0 27 26 27h250q29 0 29 -27v-333q0 -158 133 -158h8q74 0 160 41v450q0 27 27 27h249q29 0 29 -27v-970q0 -27 -29 -27h-249q-27 0 -27 27v292q-117 -57 -240 -57h-22q-164 0 -254 99.5t-90 263.5z" />
<glyph unicode="&#x448;" horiz-adv-x="1591" d="M80 27v970q0 27 26 27h250q29 0 29 -27v-761h258v761q0 27 29 27h250q27 0 26 -27v-761h260v761q0 27 27 27h250q27 0 26 -27v-970q0 -27 -26 -27h-1379q-27 0 -26 27z" />
<glyph unicode="&#x449;" horiz-adv-x="1726" d="M80 27v970q0 27 26 27h250q29 0 29 -27v-761h258v761q0 27 29 27h250q27 0 26 -27v-761h260v761q0 27 27 27h250q26 0 26 -27v-761h160q29 0 29 -27v-445q0 -27 -29 -26h-250q-27 0 -26 26v236h-1289q-27 0 -26 27z" />
<glyph unicode="&#x44a;" horiz-adv-x="1167" d="M29 815v182q0 27 26 27h445q26 0 26 -27v-301h201q174 0 277.5 -79.5t103.5 -247.5v-23q0 -170 -104.5 -258t-276.5 -88h-477q-27 0 -27 27v761h-168q-27 0 -26 27zM526 236h136q59 0 97 27.5t38 84.5v17q0 70 -60 98q-35 12 -75 12h-136v-239z" />
<glyph unicode="&#x44b;" horiz-adv-x="1466" d="M80 27v970q0 27 26 27h250q29 0 29 -27v-301h201q174 0 276.5 -79.5t102.5 -247.5v-23q0 -170 -102.5 -258t-276.5 -88h-480q-27 0 -26 27zM385 236h133q137 -1 137 112v17q0 51 -34 81q-39 29 -103 29h-133v-239zM1081 27v970q0 27 27 27h250q27 0 26 -27v-970 q0 -27 -26 -27h-250q-27 0 -27 27z" />
<glyph unicode="&#x44c;" horiz-adv-x="1026" d="M80 27v970q0 27 26 27h250q29 0 29 -27v-301h203q174 0 276.5 -79.5t102.5 -247.5v-23q0 -168 -104.5 -257t-274.5 -89h-482q-27 0 -26 27zM385 236h135q59 0 97 27.5t38 84.5v17q0 111 -135 110h-135v-239z" />
<glyph unicode="&#x44d;" horiz-adv-x="933" d="M63 78v188q43 -8 108 -22.5t95.5 -20.5t52.5 -6h11q94 0 153.5 54.5t69.5 150.5h-311q-27 0 -27 29v133q0 27 27 26h311q-33 197 -223 197h-11q-74 0 -229 -68q-2 -2 -8 -2q-2 0 -10 4q-8 6 -9 17v188q0 27 23 37q124 68 276 68h23q221 0 351 -132.5t130 -353.5v-106 q0 -221 -130 -353.5t-351 -132.5h-23q-152 0 -276 68q-23 10 -23 37z" />
<glyph unicode="&#x44e;" horiz-adv-x="1591" d="M80 27v970q0 27 26 27h250q29 0 29 -27v-360h164q14 190 148 302t327 112h23q211 0 344 -127t133 -336v-152q0 -209 -134.5 -336t-342.5 -127h-23q-197 0 -331 117t-146 311h-162v-374q0 -27 -29 -27h-250q-27 0 -26 27zM856 422q0 -90 43 -147.5t129 -57.5h12 q88 0 130 56.5t42 148.5v180q0 92 -42 148.5t-130 56.5h-12q-86 0 -129 -57.5t-43 -147.5v-180z" />
<glyph unicode="&#x44f;" horiz-adv-x="1071" d="M61 31l148 266l84 100q-88 33 -138.5 105.5t-50.5 165.5v14q0 168 103.5 255t275.5 87h480q29 0 28 -27v-970q0 -27 -28 -27h-250q-27 0 -27 27v321h-113l-180 -323q-12 -25 -39 -25h-274q-12 0 -18.5 10t-0.5 21zM416 664q0 -55 38 -83t97 -28h135v235h-135 q-135 0 -135 -108v-16z" />
<glyph unicode="&#x451;" horiz-adv-x="1052" d="M68 451v110q0 215 128 352.5t341 137.5h22q203 0 315.5 -122t112.5 -327v-108q0 -18 -12 -30.5t-31 -12.5h-563v-33q0 -98 60.5 -152.5t160.5 -54.5h10q102 0 299 74q2 2 9 2q2 0 10 -4q8 -6 8 -17v-188q0 -27 -23 -37q-141 -68 -348 -68h-20q-221 0 -350 130t-129 348z M215 1190v254q0 26 27 26h213q29 0 28 -26v-254q0 -29 -28 -29h-213q-27 0 -27 29zM379 625h326q6 204 -156 204h-8q-49 0 -84 -22q-35 -27 -54 -70q-20 -45 -24 -112zM592 1190v254q-1 26 26 26h213q29 0 29 -26v-254q0 -29 -29 -29h-213q-27 0 -26 29z" />
<glyph unicode="&#x454;" horiz-adv-x="931" d="M68 459v106q0 221 129 353.5t348 132.5h22q147 0 279 -68q20 -8 20 -37v-188q0 -10 -8 -17q-8 -4 -10 -4q-6 0 -8 2q-154 68 -228 68h-12q-90 0 -147.5 -52.5t-69.5 -144.5h307q27 0 27 -26v-133q0 -29 -27 -29h-309q8 -92 67.5 -148.5t151.5 -56.5h12q74 0 228 68 q2 2 8 2q2 0 10 -4q8 -6 8 -17v-188q0 -29 -20 -37q-55 -25 -96 -37q-8 -2 -29 -7t-31 -9q-72 -14 -123 -15h-22q-217 0 -347 133.5t-130 352.5z" />
<glyph unicode="&#x456;" horiz-adv-x="473" d="M84 1190v229q0 29 27 29h256q27 0 26 -29v-229q0 -29 -26 -29h-256q-27 0 -27 29zM86 27v970q0 27 29 27h250q27 0 26 -27v-970q0 -27 -26 -27h-250q-29 0 -29 27z" />
<glyph unicode="&#x457;" horiz-adv-x="468" d="M-86 1190v254q0 26 27 26h215q27 0 26 -26v-254q0 -29 -26 -29h-215q-27 0 -27 29zM84 27v970q0 27 27 27h249q29 0 29 -27v-970q0 -27 -29 -27h-249q-27 0 -27 27zM291 1190v254q-1 26 26 26h213q29 0 29 -26v-254q0 -29 -29 -29h-213q-27 0 -26 29z" />
<glyph unicode="&#x45e;" horiz-adv-x="1075" d="M31 985q-6 16 2 29q10 10 24 10h254q18 0 25 -20l125 -379l76 -371h4l75 371l123 379q7 20 27 20h252q6 0 18 -4q6 -4 10.5 -14.5t0.5 -20.5l-340 -1028q-51 -156 -136.5 -241t-234.5 -85h-17q-61 0 -139 14.5t-78 49.5v184q0 12 9 19q8 4 12 4t8 -2q94 -31 152 -31h4 q84 0 110 88l17 43h-41q-18 0 -25 20zM250 1249v150q0 14 10 20q2 0 5 1t5 1q4 0 13 -4q53 -20 79 -31q76 -33 177 -32q102 0 174 32q29 11 80 31q12 4 14 4t5 -1t5 -1q8 -6 8 -20v-150q0 -16 -16 -32q-45 -35 -124 -55.5t-146.5 -20.5t-148.5 20.5t-124 55.5q-16 16 -16 32 z" />
<glyph unicode="&#x490;" horiz-adv-x="1034" d="M121 27v1380q0 27 26 27h582v118q0 27 27 27h205q27 0 26 -27v-368q0 -27 -26 -27h-521v-1130q0 -27 -26 -27h-267q-27 0 -26 27z" />
<glyph unicode="&#x491;" horiz-adv-x="823" d="M80 27v970q0 27 26 27h463v119q0 26 29 26h172q27 0 27 -26v-328q0 -27 -27 -27h-385v-761q0 -27 -29 -27h-250q-27 0 -26 27z" />
<glyph unicode="&#x1e80;" horiz-adv-x="2093" d="M49 1399q-4 14 6 24t23 11h268q23 0 29 -21l164 -670l75 -460h15l73 460l164 670q6 20 29 21h303q20 0 27 -21l164 -670l75 -460h15l75 460l164 670q7 21 27 21h270q4 0 17 -4q10 -6 12 -15q2 -6 -2 -16l-340 -1379q-6 -20 -29 -20h-377q-23 0 -28 20l-121 488l-92 516 h-19l-92 -516l-119 -488q-8 -20 -28 -20h-379q-20 0 -27 20zM717 1901l227 20q27 0 39 -25l156 -313l-183 -16q-23 0 -34 18z" />
<glyph unicode="&#x1e81;" horiz-adv-x="1679" d="M31 985q-6 16 2 29q10 10 24 10h258q18 0 27 -20l109 -410l51 -324h10l53 324l109 410q6 20 24 20h283q18 0 25 -20l108 -410l53 -324h11l51 324l108 410q7 20 27 20h256q16 0 27 -10q8 -12 2 -29l-285 -965q-6 -20 -27 -20h-293q-20 0 -26 20l-84 285l-86 408h-17 l-86 -408l-83 -285q-8 -20 -27 -20h-295q-18 0 -25 20zM500 1491q2 20 12 20h217q27 1 39 -24l156 -313l-183 -17q-23 0 -34 19z" />
<glyph unicode="&#x1e82;" horiz-adv-x="2093" d="M49 1399q-4 14 6 24t23 11h268q23 0 29 -21l164 -670l75 -460h15l73 460l164 670q6 20 29 21h303q20 0 27 -21l164 -670l75 -460h15l75 460l164 670q7 21 27 21h270q4 0 17 -4q10 -6 12 -15q2 -6 -2 -16l-340 -1379q-6 -20 -29 -20h-377q-23 0 -28 20l-121 488l-92 516 h-19l-92 -516l-119 -488q-8 -20 -28 -20h-379q-20 0 -27 20zM948 1583l156 313q12 25 39 25h217l-195 -336q-12 -18 -35 -18h-172z" />
<glyph unicode="&#x1e83;" horiz-adv-x="1679" d="M31 985q-6 16 2 29q10 10 24 10h258q18 0 27 -20l109 -410l51 -324h10l53 324l109 410q6 20 24 20h283q18 0 25 -20l108 -410l53 -324h11l51 324l108 410q7 20 27 20h256q16 0 27 -10q8 -12 2 -29l-285 -965q-6 -20 -27 -20h-293q-20 0 -26 20l-84 285l-86 408h-17 l-86 -408l-83 -285q-8 -20 -27 -20h-295q-18 0 -25 20zM741 1174l156 313q12 25 39 24h217l-195 -335q-12 -18 -34 -19h-172z" />
<glyph unicode="&#x1e84;" horiz-adv-x="2093" d="M49 1399q-4 14 6 24t23 11h268q23 0 29 -21l164 -670l75 -460h15l73 460l164 670q6 20 29 21h303q20 0 27 -21l164 -670l75 -460h15l75 460l164 670q7 21 27 21h270q12 0 23 -11q8 -8 4 -24l-340 -1379q-6 -20 -29 -20h-377q-23 0 -28 20l-121 488l-92 516h-19l-92 -516 l-119 -488q-8 -20 -28 -20h-379q-20 0 -27 20zM725 1599v254q0 27 27 27h213q29 0 28 -27v-254q0 -29 -28 -28h-213q-27 0 -27 28zM1102 1599v254q-1 27 26 27h213q27 0 27 -27v-254q0 -29 -27 -28h-213q-27 0 -26 28z" />
<glyph unicode="&#x1e85;" horiz-adv-x="1679" d="M31 985q-6 16 2 29q10 10 24 10h258q18 0 27 -20l109 -410l51 -324h10l53 324l109 410q6 20 24 20h283q18 0 25 -20l108 -410l53 -324h11l51 324l108 410q7 20 27 20h256q8 0 20 -4q8 -8 11 -14q2 -8 -2 -21l-285 -965q-6 -20 -27 -20h-293q-20 0 -26 20l-84 285l-86 408 h-17l-86 -408l-83 -285q-8 -20 -27 -20h-295q-18 0 -25 20zM516 1190v254q0 26 29 26h213q27 0 26 -26v-254q0 -29 -26 -29h-213q-29 0 -29 29zM893 1190v254q0 26 29 26h213q27 0 26 -26v-254q0 -29 -26 -29h-213q-29 0 -29 29z" />
<glyph unicode="&#x1ef2;" horiz-adv-x="1288" d="M51 1391q-6 16 2 30q8 12 27 13h266q27 0 39 -25l193 -399l63 -246h6l64 246l192 399q12 25 39 25h266q25 0 31 -23q2 -6 -2 -20l-432 -920v-444q0 -27 -27 -27h-266q-29 0 -29 27v444zM319 1901l230 20q29 0 37 -25l155 -313l-182 -16q-20 0 -33 18z" />
<glyph unicode="&#x1ef3;" horiz-adv-x="1075" d="M31 985q-6 16 2 29q10 10 24 10h254q18 0 25 -20l125 -379l76 -371h4l75 371l123 379q7 20 27 20h252q14 0 24 -10q8 -10 5 -29l-340 -1028q-51 -156 -136.5 -241t-234.5 -85h-17q-61 0 -139 14.5t-78 49.5v184q0 12 9 19q8 4 12 4t8 -2q94 -31 152 -31h4q82 0 110 88 l17 43h-41q-18 0 -25 20zM211 1491q2 20 12 20h217q27 1 39 -24l156 -313l-182 -17q-23 0 -35 19z" />
<glyph unicode="&#x2000;" horiz-adv-x="1157" />
<glyph unicode="&#x2001;" horiz-adv-x="2314" />
<glyph unicode="&#x2002;" horiz-adv-x="1157" />
<glyph unicode="&#x2003;" horiz-adv-x="2314" />
<glyph unicode="&#x2004;" horiz-adv-x="771" />
<glyph unicode="&#x2005;" horiz-adv-x="578" />
<glyph unicode="&#x2006;" horiz-adv-x="385" />
<glyph unicode="&#x2007;" horiz-adv-x="385" />
<glyph unicode="&#x2008;" horiz-adv-x="289" />
<glyph unicode="&#x2009;" horiz-adv-x="391" />
<glyph unicode="&#x200a;" horiz-adv-x="128" />
<glyph unicode="&#x2010;" horiz-adv-x="735" d="M49 541v182q0 27 27 27h583q29 0 29 -27v-182q0 -27 -29 -27h-583q-27 0 -27 27z" />
<glyph unicode="&#x2011;" horiz-adv-x="735" d="M49 541v182q0 27 27 27h583q29 0 29 -27v-182q0 -27 -29 -27h-583q-27 0 -27 27z" />
<glyph unicode="&#x2012;" horiz-adv-x="735" d="M49 541v182q0 27 27 27h583q29 0 29 -27v-182q0 -27 -29 -27h-583q-27 0 -27 27z" />
<glyph unicode="&#x2013;" horiz-adv-x="1046" d="M49 541v182q0 27 27 27h895q29 0 28 -27v-182q0 -27 -28 -27h-895q-27 0 -27 27z" />
<glyph unicode="&#x2014;" horiz-adv-x="1198" d="M49 541v182q0 27 27 27h1046q29 0 29 -27v-182q0 -27 -29 -27h-1046q-27 0 -27 27z" />
<glyph unicode="&#x2018;" horiz-adv-x="421" d="M49 811v225q0 27 10 54l119 319q10 25 37 25h141q10 0 17 -7q4 -10 0 -18l-119 -317h84q29 0 29 -27v-254q0 -29 -29 -29h-262q-27 0 -27 29z" />
<glyph unicode="&#x2019;" horiz-adv-x="421" d="M49 807l121 317h-86q-27 0 -27 29v254q0 27 27 27h262q29 0 29 -27v-225q0 -29 -10 -56l-121 -319q-10 -25 -37 -25h-141q-12 0 -15 9q-4 12 -2 16z" />
<glyph unicode="&#x201a;" horiz-adv-x="421" d="M49 -317l121 317h-86q-27 0 -27 27v254q0 28 27 28h262q29 0 29 -28v-226q0 -27 -10 -53l-121 -319q-10 -25 -37 -25h-141q-12 0 -15 6q-4 12 -2 19z" />
<glyph unicode="&#x201c;" horiz-adv-x="864" d="M49 811v225q0 27 10 54l119 319q10 25 37 25h141q10 0 17 -7q4 -10 0 -18l-119 -317h84q29 0 29 -27v-254q0 -29 -29 -29h-262q-27 0 -27 29zM489 811v225q0 27 11 54l121 319q10 25 36 25h142q12 0 14 -7q2 -10 0 -18l-119 -317h86q27 0 27 -27v-254q0 -29 -27 -29h-264 q-27 0 -27 29z" />
<glyph unicode="&#x201d;" horiz-adv-x="864" d="M49 807l121 317h-86q-27 0 -27 29v254q0 27 27 27h262q29 0 29 -27v-225q0 -29 -10 -56l-121 -319q-10 -25 -37 -25h-141q-12 0 -15 9q-4 12 -2 16zM491.5 790.5q-2.5 8.5 0.5 16.5l118 317h-84q-29 0 -28 29v254q-1 27 28 27h262q27 0 27 -27v-225q0 -29 -10 -56 l-121 -319q-8 -25 -37 -25h-141q-12 0 -14.5 8.5z" />
<glyph unicode="&#x201e;" horiz-adv-x="864" d="M49 -317l121 317h-86q-27 0 -27 27v254q0 28 27 28h262q29 0 29 -28v-226q0 -27 -10 -53l-121 -319q-10 -25 -37 -25h-141q-12 0 -15 6q-4 12 -2 19zM492 -317l118 317h-84q-29 0 -28 27v254q-1 28 28 28h262q27 0 27 -28v-226q0 -27 -10 -53l-121 -319q-8 -25 -37 -25 h-141q-10 0 -14 6q-4 8 0 19z" />
<glyph unicode="&#x2020;" horiz-adv-x="968" d="M49 774v223q0 27 27 27h250v383q0 27 26 27h264q29 0 29 -27v-383h248q29 0 29 -27v-223q0 -27 -29 -26h-248v-873q0 -27 -29 -27h-264q-27 0 -26 27v873h-250q-27 0 -27 26z" />
<glyph unicode="&#x2021;" horiz-adv-x="968" d="M49 293v223q0 27 27 27h250v205h-250q-27 0 -27 26v223q0 27 27 27h250v383q0 27 26 27h264q29 0 29 -27v-383h248q29 0 29 -27v-223q0 -27 -29 -26h-248v-205h248q29 0 29 -27v-223q0 -27 -29 -27h-248v-391q0 -27 -29 -27h-264q-27 0 -26 27v391h-250q-27 0 -27 27z " />
<glyph unicode="&#x2022;" horiz-adv-x="706" d="M49 586q0 127 89 216t216 89q129 0 216 -88t87 -217q0 -127 -88 -216t-215 -89q-125 0 -215 89t-90 216z" />
<glyph unicode="&#x2026;" horiz-adv-x="1509" d="M49 27v254q0 28 27 28h256q29 0 28 -28v-254q0 -27 -28 -27h-256q-27 0 -27 27zM598 27v254q0 28 29 28h256q29 0 28 -28v-254q0 -27 -28 -27h-256q-29 0 -29 27zM1149 27v254q0 28 27 28h258q27 0 26 -28v-254q0 -27 -26 -27h-258q-27 0 -27 27z" />
<glyph unicode="&#x202f;" horiz-adv-x="462" />
<glyph unicode="&#x2030;" horiz-adv-x="2887" d="M49 995v103q0 158 98.5 260t255.5 102h37q160 0 259.5 -101.5t99.5 -260.5v-103q0 -160 -99.5 -260t-259.5 -100h-37q-158 0 -256 101.5t-98 258.5zM293 1001q0 -68 29.5 -111.5t95.5 -43.5h12q66 0 95.5 44t29.5 111v93q0 156 -125 155h-12q-37 0 -66 -16 q-59 -41 -59 -139v-93zM571 33l650 1368q14 33 53 33h153q12 0 19 -11q6 -8 2 -22l-649 -1368q-15 -33 -54 -33h-153q-12 0 -19 10q-6 8 -2 23zM1221 336v102q0 160 99 260.5t259 100.5h37q160 0 257 -100.5t97 -260.5v-102q0 -160 -98 -261.5t-256 -101.5h-37 q-160 0 -259 101.5t-99 261.5zM1464 340q0 -66 32 -111t93 -45h13q41 0 67 19q57 33 57 137v92q1 156 -124 156h-13q-37 0 -65 -17q-59 -41 -60 -139v-92zM2089 336v102q0 160 99 260.5t259 100.5h37q158 0 257.5 -101.5t99.5 -259.5v-102q0 -158 -99.5 -260.5 t-257.5 -102.5h-37q-160 0 -259 101.5t-99 261.5zM2335 340q0 -68 29.5 -112t95.5 -44h10q66 0 95.5 44t29.5 112v92q0 156 -125 156h-10q-125 0 -125 -156v-92z" />
<glyph unicode="&#x2039;" horiz-adv-x="526" d="M49 516v68q0 20 14 41l183 229q10 16 30 16h191l-170 -319l180 -303l-201 -17q-23 0 -30 15l-183 229q-14 20 -14 41z" />
<glyph unicode="&#x203a;" horiz-adv-x="526" d="M51 852l201 18q18 0 31 -16l182 -229q14 -20 14 -41v-68q0 -20 -14 -41l-182 -229q-12 -14 -31 -15h-193l172 320z" />
<glyph unicode="&#x2044;" horiz-adv-x="471" d="M-203 10q-6 10 0 23l649 1368q15 33 54 33h151q14 0 21 -11q6 -8 2 -22l-649 -1368q-14 -33 -54 -33h-153q-10 0 -21 10z" />
<glyph unicode="&#x205f;" horiz-adv-x="578" />
<glyph unicode="&#x20ac;" horiz-adv-x="1320" d="M49 508v125q0 27 27 26h194v117h-194q-27 0 -27 29v125q0 27 27 26h207q45 227 208.5 365.5t395.5 138.5h28q197 0 320 -65q27 -12 27 -43v-217q0 -12 -11 -19q-8 -4 -12 -4q-6 0 -10 2q-160 70 -281 70h-8q-115 0 -200 -59.5t-119 -168.5h360q27 0 27 -26v-125 q0 -29 -27 -29h-383v-117h383q27 0 27 -26v-125q0 -29 -27 -29h-363q35 -111 120 -170t202 -59h8q129 0 281 69q4 2 10 3q4 0 12 -5q10 -6 11 -18v-219q0 -29 -27 -43q-51 -31 -146.5 -47.5t-173.5 -16.5h-28q-231 0 -397 139.5t-207 366.5h-207q-27 0 -27 29z" />
<glyph unicode="&#x2116;" horiz-adv-x="2179" d="M117 27v1380q0 27 26 27h299q25 0 37 -23l309 -575l170 -347h23l-29 347v571q0 27 27 27h264q29 0 29 -27v-1380q0 -27 -29 -27h-299q-25 0 -37 23l-325 600l-154 321h-22l28 -321v-596q0 -27 -26 -27h-265q-27 0 -26 27zM1380 997v103q0 158 101.5 259t257.5 101h37 q158 0 257 -101.5t99 -258.5v-103q0 -158 -99.5 -260t-256.5 -102h-37q-160 0 -259.5 101.5t-99.5 260.5zM1401 305v223q0 27 29 27h653q29 0 28 -27v-223q0 -27 -28 -26h-653q-29 0 -29 26zM1626 1001q0 -104 57 -137q29 -18 68 -18h10q66 0 95.5 44t29.5 111v93 q0 155 -125 155h-10q-125 0 -125 -155v-93z" />
<glyph unicode="&#x2122;" horiz-adv-x="1591" d="M49 1372v129q0 15 14 15h596q14 0 15 -15v-129q0 -14 -15 -14h-208v-627q0 -14 -15 -14h-151q-16 0 -17 14v627h-205q-14 0 -14 14zM748 731v770q0 14 14 15h201q14 0 20 -13l158 -338h8l160 338q2 13 18 13h201q14 0 14 -15v-770q0 -14 -14 -14h-156q-14 0 -14 14l2 379 l26 164h-20l-70 -164l-86 -166q-6 -12 -22 -12h-86q-14 0 -21 12l-86 166l-69 164h-21l25 -164l4 -379q0 -14 -16 -14h-156q-14 0 -14 14z" />
<glyph unicode="&#x212e;" horiz-adv-x="1505" d="M49 670q0 303 201 499.5t502 196.5q305 0 504.5 -197.5t199.5 -498.5h-1151v-430q174 -180 447 -181q322 0 518 209q4 6 10 6h6q10 -4 10 -16v-55q0 -25 -20 -43q-199 -186 -524 -187q-303 0 -503 199t-200 498zM305 745h893v357q-174 178 -446.5 178t-446.5 -178v-357z " />
<glyph unicode="&#x215b;" horiz-adv-x="1880" d="M49 688v156q0 29 27 28h147v316l-147 -45q-4 -2 -8 -2q-6 0 -11 4q-8 6 -8 16v148q0 29 27 37l233 79q25 8 56 9h63q27 0 27 -27v-535h131q27 0 26 -28v-156q0 -27 -26 -26h-510q-27 0 -27 26zM459 10q-6 10 0 23l649 1368q14 33 51 33h154q14 0 20 -10.5t0 -22.5 l-649 -1368q-14 -33 -51 -33h-154q-14 0 -20 10zM1180 203v10q0 63 37.5 113.5t97.5 74.5q-111 57 -111 162v10q0 111 88 168.5t205 57.5h19q117 0 204.5 -57.5t87.5 -168.5v-10q1 -105 -110 -162q135 -57 135 -188v-10q0 -115 -96.5 -172.5t-220.5 -57.5h-19 q-125 0 -221 57.5t-96 172.5zM1407 225q0 -37 25.5 -56t64.5 -19h19q45 0 67 20q23 22 23 55v4q0 74 -86 74h-27q-29 0 -49 -10q-37 -14 -37 -64v-4zM1417 545q0 -31 23.5 -50.5t56.5 -19.5h16q33 0 57.5 18.5t24.5 51.5v4q0 33 -22 55q-25 18 -62 19h-12q-35 0 -58.5 -19.5 t-23.5 -54.5v-4z" />
<glyph unicode="&#x215c;" horiz-adv-x="1886" d="M49 707v141q0 10 8 16q6 4 19 4q4 0 10 -3t18.5 -6t22.5 -7q47 -16 51 -16l15 -5q14 -2 24 -4q33 -4 43 -4h8q43 0 76 18.5t33 57.5v8q0 27 -21 47q-23 18 -65 19h-90q-27 0 -27 26v103q0 27 27 26h78q43 0 63 21q23 18 23 49v6q0 33 -25 53q-29 18 -68 19h-6 q-12 0 -41 -4q-33 -10 -37 -10t-21 -5.5t-30 -9.5q-45 -14 -51 -16h-6q-8 0 -12 4q-8 2 -9 14v140q0 29 25 34q123 37 207 37h6q125 0 214 -57t89 -176v-10q0 -100 -102 -162q119 -51 118 -174v-11q0 -121 -97 -178t-226 -57h-6q-90 0 -215 37q-23 6 -23 35zM463 10 q-6 10 0 23l649 1368q14 33 51 33h154q14 0 20 -10.5t0 -22.5l-649 -1368q-14 -33 -51 -33h-154q-14 0 -20 10zM1184 203v10q0 129 135 188q-111 57 -111 162v10q0 111 89 168.5t204 57.5h19q117 0 204.5 -57.5t87.5 -168.5v-10q1 -105 -110 -162q135 -57 135 -188v-10 q0 -117 -96 -173.5t-221 -56.5h-19q-125 0 -221 57.5t-96 172.5zM1411 225q0 -33 25 -55q20 -20 65 -20h19q45 0 67 20q23 22 23 55v4q0 74 -86 74h-27q-86 0 -86 -74v-4zM1421 545q0 -31 23.5 -50.5t56.5 -19.5h17q35 0 58 18.5t23 51.5v4q0 33 -22 55q-25 18 -61 19h-13 q-35 0 -58.5 -19.5t-23.5 -54.5v-4z" />
<glyph unicode="&#x215d;" horiz-adv-x="1886" d="M49 707v133q0 10 8 16q6 4 19 4q72 -27 117 -35q37 -10 69 -10h8q43 0 75 22.5t32 65.5v8q0 49 -49 76q-27 10 -59.5 10t-118.5 -16q-2 0 -7 -2h-4q-12 0 -24 8l-27 21q-20 14 -20 39v360q-1 27 26 27h441q27 0 26 -27v-137q0 -29 -26 -29h-259v-111q59 12 101 13 q109 0 175 -62.5t66 -171.5v-10q0 -129 -94 -196.5t-229 -67.5h-8q-90 0 -215 37q-23 6 -23 35zM465 10q-6 10 0 23l647 1368q14 33 53 33h154l-629 -1401q-14 -33 -51 -33h-154q-14 0 -20 10zM1186 203v10q0 129 135 188q-111 57 -111 162v10q0 111 89.5 168.5t203.5 57.5 h17q117 0 204.5 -57.5t87.5 -168.5v-10q1 -103 -108 -162q135 -57 135 -188v-10q0 -115 -96 -172.5t-221 -57.5h-21q-123 0 -219 57.5t-96 172.5zM1413 225q0 -33 25 -55q20 -20 65 -20h17q47 0 69 20q23 22 23 55v4q0 74 -86 74h-27q-86 0 -86 -74v-4zM1423 545 q0 -31 23.5 -50.5t56.5 -19.5h15q33 0 58.5 18.5t25.5 51.5v4q0 33 -23 55q-25 18 -61 19h-13q-35 0 -58.5 -19.5t-23.5 -54.5v-4z" />
<glyph unicode="&#x215e;" horiz-adv-x="1785" d="M49 1251v156q0 27 27 27h526q27 0 27 -27v-115q0 -23 -13 -43l-204 -301q-10 -16 -11 -30v-230q0 -27 -26 -26h-180q-29 0 -29 26v252q0 16 10 33l189 250h-289q-27 0 -27 28zM362 33l650 1368q14 33 51 33h154q14 0 20 -10.5t0 -22.5l-649 -1368q-14 -33 -51 -33h-154 q-14 0 -20.5 10t-0.5 23zM1083 203v10q0 129 136 188q-111 57 -111 162v10q0 111 88 168.5t205 57.5h18q117 0 205 -57.5t88 -168.5v-10q1 -105 -110 -162q135 -57 135 -188v-10q0 -115 -96.5 -172.5t-221.5 -57.5h-18q-125 0 -221.5 57.5t-96.5 172.5zM1311 225 q0 -37 25.5 -56t64.5 -19h18q45 0 68 20q22 22 22 55v4q0 74 -86 74h-26q-86 0 -86 -74v-4zM1321 545q0 -31 23.5 -50.5t56.5 -19.5h16q35 0 58.5 18.5t23.5 51.5v4q0 33 -22 55q-25 18 -62 19h-12q-35 0 -58.5 -19.5t-23.5 -54.5v-4z" />
<glyph unicode="&#x2190;" horiz-adv-x="1212" d="M49 621v30q0 25 25 43l428 277q18 0 18 -10v-39q0 -14 -8 -23l-127 -145h752q27 0 26 -27v-182q0 -27 -26 -27h-752l127 -145q8 -8 8 -23v-39q0 -8 -6 -12l-440 279q-25 18 -25 43z" />
<glyph unicode="&#x2191;" horiz-adv-x="774" d="M51 664l279 426q14 26 43 26h28q29 0 43 -26l279 -426q4 -10 2 -15l-51 -6q-16 0 -25 8l-145 127v-751q0 -27 -27 -27h-180q-27 0 -27 27v751l-145 -127q-8 -8 -25 -8h-39q-14 10 -10 21z" />
<glyph unicode="&#x2192;" horiz-adv-x="1212" d="M49 545v182q0 27 27 27h749l-125 143q-8 8 -8 25v39q0 10 6 12l13 -2l428 -279q25 -16 24 -43v-28q0 -27 -24 -43l-428 -279q-18 2 -19 12v39q0 14 8 23l125 145h-749q-27 0 -27 27z" />
<glyph unicode="&#x2193;" horiz-adv-x="774" d="M51 426q-2 8 0 14l49 6q14 0 25 -10l145 -125v750q0 29 27 29h180q27 0 27 -29v-750l145 125q10 10 25 10h39q14 -10 10 -20l-279 -428q-14 -25 -43 -25h-28q-29 0 -43 25z" />
<glyph unicode="&#x2194;" horiz-adv-x="1648" d="M49 621v30q0 25 25 43l428 277q18 0 18 -10v-39q0 -14 -8 -23l-127 -145h879l-127 145q-8 8 -9 23v39q1 10 7 12l12 -2l428 -277q27 -18 27 -43v-30q0 -25 -27 -43l-428 -279q-18 2 -19 12v39q0 14 9 23l127 145h-879l127 -145q8 -8 8 -23v-39q0 -8 -6 -12l-440 279 q-25 18 -25 43z" />
<glyph unicode="&#x2195;" horiz-adv-x="774" d="M51 426l49 18q16 0 25 -8l143 -127v879l-143 -127q-8 -8 -25 -8h-39l269 446q14 27 43 27h28q29 0 43 -27l279 -428l-49 -18q-16 0 -25 8l-145 127v-879l145 127q8 8 25 8h39l-269 -446q-14 -25 -43 -25h-28q-29 0 -43 25z" />
<glyph unicode="&#x2196;" horiz-adv-x="983" d="M49 795q-4 29 14 47l21 20q14 15 47 15l500 -107q8 -2 10 -8q2 -8 -4 -14l-27 -27q-10 -10 -24 -10l-191 -15l531 -530q18 -18 0 -39l-127 -127q-10 -10 -21 -10q-8 0 -18 10l-531 530l-14 -190q0 -14 -10 -25l-27 -26q-6 -6 -12 -4q-8 2 -10 10z" />
<glyph unicode="&#x2197;" horiz-adv-x="983" d="M57 127q-18 20 0 39l531 530l-191 15q-14 0 -24 10l-27 29q-2 18 6 20l500 104q6 2 16 3q18 0 31 -15l21 -20q18 -18 12 -47l-105 -500q-2 -8 -8 -10q-8 -2 -14 4l-27 26q-10 10 -10 25l-14 190l-531 -530q-10 -10 -18 -10q-10 0 -21 10z" />
<glyph unicode="&#x2198;" horiz-adv-x="983" d="M57 684q-20 18 0 39l127 127q10 10 21 10q8 0 18 -10l531 -531l14 191q0 14 10 25l27 26q6 6 14 4q6 -2 8 -10l105 -500q6 -29 -12 -47l-21 -20q-12 -14 -33 -15q-10 0 -14 2l-500 105q-8 2 -10 10q-2 6 4 12l27 27q10 10 24 10l191 15z" />
<glyph unicode="&#x2199;" horiz-adv-x="983" d="M51 55l105 500q2 8 10 10l39 -30q10 -10 10 -25l14 -191l531 531q10 10 18 10q11 0 21 -10l127 -127q18 -20 0 -39l-531 -530l191 -15q14 0 24 -10l27 -27q6 -6 4 -12q-2 -8 -10 -10l-500 -105q-4 -2 -14 -2q-18 0 -33 15l-21 20q-23 18 -12 47z" />
<glyph unicode="&#x2202;" horiz-adv-x="1116" d="M51 436l12 139q14 186 122 313.5t288 127.5h21q147 0 245 -103l17 183q10 113 -41 159q-53 47 -172 48h-8q-43 0 -101 -11q-25 -6 -86 -22q-8 -2 -43 -14.5t-59 -22.5q-4 -2 -8 -2q-6 0 -11 4q-8 6 -8 18l19 187q4 31 24 37q207 59 365 59h8q135 0 248.5 -60.5 t158.5 -177.5q35 -90 25 -202l-59 -660q-16 -209 -153.5 -336t-348.5 -127h-23q-199 0 -323 125q-127 127 -109 338zM362 422q-8 -70 11 -117q35 -88 137 -88h12q156 0 174 205l27 285q-84 66 -166 65h-8q-82 0 -126 -60.5t-48 -144.5z" />
<glyph unicode="&#x2205;" horiz-adv-x="1189" d="M51 512q2 231 154.5 384t384.5 155q180 0 317 -95l88 91q14 10 21 10q10 0 20 -10l92 -97q23 -19 0 -37l-90 -90q92 -139 92 -311q0 -231 -154.5 -385t-385.5 -154q-170 2 -309 93l-86 -89q-10 -10 -21 -10q-8 0 -18 10l-95 97q-18 18 0 37l86 86q-96 139 -96 315z M305 512q0 -72 25 -133l397 397q-59 31 -135 31q-129 0 -208 -82t-79 -213zM461 246q61 -29 131 -29q129 0 209 82t80 213q0 70 -25 129z" />
<glyph unicode="&#x220f;" horiz-adv-x="1353" d="M49 1184v223q0 27 27 27h1202q29 0 29 -27v-223q0 -27 -29 -27h-123v-1130q0 -27 -27 -27h-266q-27 0 -26 27v1130h-318v-1130q0 -27 -26 -27h-267q-27 0 -26 27v1130h-123q-27 0 -27 27z" />
<glyph unicode="&#x2211;" horiz-adv-x="1036" d="M49 27v196q0 25 14 39l414 455l-414 454q-14 14 -14 39v197q0 27 27 27h885q26 0 26 -27v-223q0 -27 -26 -27h-486l320 -348q14 -16 14 -39v-106q0 -23 -14 -39l-320 -349h486q27 0 26 -26v-223q0 -27 -26 -27h-885q-27 0 -27 27z" />
<glyph unicode="&#x2212;" horiz-adv-x="1046" d="M49 541v182q0 27 27 27h895q29 0 28 -27v-182q0 -27 -28 -27h-895q-27 0 -27 27z" />
<glyph unicode="&#x221a;" horiz-adv-x="1443" d="M49 815v182q0 27 27 27h448q20 0 27 -20l115 -355l84 -395h4l84 395l247 764q9 21 27 21h254q14 0 25 -11q8 -12 2 -28l-451 -1375q-6 -20 -27 -20h-329q-18 0 -25 20l-256 768h-229q-27 0 -27 27z" />
<glyph unicode="&#x221e;" horiz-adv-x="1417" d="M49 631v22q0 174 89 286t257 112h13q162 0 329 -201q134 201 316 201h10q137 0 221 -105.5t84 -247.5v-22q0 -176 -88 -288t-260 -112h-10q-98 0 -173 55.5t-153 153.5q-139 -209 -319 -209h-11q-139 0 -222 105.5t-83 249.5zM272 594q0 -45 15 -76q12 -33 39 -51 q25 -18 57 -18h8q39 0 80 34q35 31 102 129q-70 78 -102 105q-41 31 -78 31h-6q-74 0 -100 -70q-14 -31 -15 -78v-6zM850 725q59 -76 98 -113q35 -33 76 -32h6q55 0 85 44t30 103v8q0 59 -29 101.5t-84 42.5h-6q-35 0 -73 -31t-56 -55.5t-47 -67.5z" />
<glyph unicode="&#x222b;" horiz-adv-x="909" d="M49 -258q0 12 8 18q8 4 11 4q6 0 8 -2q104 -31 131 -30h10q86 0 86 104v1409q0 139 84 215t225 76h21q92 0 209 -53q20 -8 20 -31v-170q0 -12 -8 -18q-8 -4 -12 -4q-6 0 -8 2q-104 31 -132 30h-10q-86 0 -86 -104v-1409q0 -141 -83 -216t-226 -75h-21q-90 0 -208 53 q-18 8 -19 31v170z" />
<glyph unicode="&#x2248;" horiz-adv-x="878" d="M49 352v109q0 35 21 43l22 12q20 10 23 12l22 13q20 10 27 12q2 0 11 3l15 5q20 8 29 10q31 7 64 7q70 0 163 -50q90 -51 154 -51q76 0 197 66q8 4 14 4q2 0 10 -4q10 -6 10 -21v-108q0 -33 -28 -49q-115 -68 -207 -68q-68 0 -162 51q-94 49 -153 49q-74 0 -199 -65 q-4 -4 -14 -4q-6 0 -9 2q-10 6 -10 22zM49 649v109q0 35 21 43q37 20 41 22q41 23 43 23q12 4 22 8q16 6 49 14q29 6 58 6q70 0 163 -49q90 -51 154 -51q76 0 197 66q8 4 14 4q2 0 10 -4q10 -6 10 -21v-110q0 -47 -89 -81t-146 -34q-68 0 -162 51q-94 49 -153 49 q-74 0 -199 -65q-4 -4 -14 -4q-6 0 -9 2q-10 6 -10 22z" />
<glyph unicode="&#x2260;" horiz-adv-x="1046" d="M49 403v127q0 27 27 27h323l68 117h-391q-27 0 -27 26v125q0 29 27 29h495l109 186q10 16 20 17q4 0 15 -6l90 -52q23 -16 10 -36l-63 -109h221q27 0 26 -29v-125q1 -26 -26 -26h-326l-67 -117h393q27 0 26 -27v-127q0 -27 -26 -26h-496l-108 -189q-8 -14 -21 -14 q-4 0 -16 4l-90 51q-25 16 -9 39l62 109h-219q-27 0 -27 26z" />
<glyph unicode="&#x2264;" horiz-adv-x="1046" d="M49 123v125q0 26 27 26h895q29 0 28 -26v-125q0 -27 -28 -27h-895q-27 0 -27 27zM49 621v124q0 31 29 41l880 224q2 0 5.5 1t5.5 1q10 0 18 -6q12 -10 12 -25v-111q0 -39 -41 -49l-585 -137l585 -139q41 -10 41 -49v-111q0 -16 -12 -27q-8 -6 -18 -6q-2 0 -5 1t-6 1 l-880 226q-29 10 -29 41z" />
<glyph unicode="&#x2265;" horiz-adv-x="1046" d="M49 123v125q0 26 27 26h895q29 0 28 -26v-125q0 -27 -28 -27h-895q-27 0 -27 27zM49 385v111q0 41 39 49l588 139l-588 137q-39 8 -39 49v111q0 10 6 20q4 6 15 11h6q8 0 12 -2l881 -224q31 -8 30 -41v-124q0 -31 -30 -41l-881 -226q-2 0 -5 -1t-5 -1q-10 0 -17 6 q-12 10 -12 27z" />
<glyph unicode="&#x25ca;" horiz-adv-x="909" d="M49 991v72q0 29 19 47l303 303q20 21 49 21h72q27 0 47 -21l303 -303q20 -18 20 -47v-72q0 -29 -20 -47l-303 -303q-20 -20 -47 -20h-72q-29 0 -49 20l-303 303q-18 18 -19 47zM260 1028l195 -197l196 197l-196 195z" />
<glyph unicode="&#x25fc;" horiz-adv-x="1024" d="M0 0v1024h1024v-1024h-1024z" />
<glyph unicode="&#xfe6b;" horiz-adv-x="1312" d="M104 324v376q0 158 92 254.5t250 96.5h420q158 0 249 -96.5t91 -254.5v-286q0 -154 -106 -195q-43 -20 -109 -20h-67q-121 0 -164 84q-84 -84 -172 -84h-2q-104 0 -158.5 72.5t-54.5 181.5v100q0 125 68.5 195.5t189.5 70.5h12q152 0 262 -69q10 -6 10 -19v-340 q0 -53 43 -53h17q45 0 45 53v324q0 84 -39 131t-119 47h-411q-158 0 -158 -178v-404q0 -180 158 -180h460q16 0 17 -14v-129q0 -14 -17 -15h-465q-156 0 -249 96.5t-93 254.5zM551 459q0 -119 88 -119h4q49 0 98 37v276q-53 29 -96 29h-6q-90 0 -88 -119v-104z" />
<glyph horiz-adv-x="468" d="M80 1190v254q0 26 29 26h256q27 0 26 -26v-254q0 -29 -26 -29h-256q-29 0 -29 29zM84 27v970q0 27 27 27h249q29 0 29 -27v-970q0 -27 -29 -27h-249q-27 0 -27 27z" />
<glyph horiz-adv-x="1091" d="M68 414v174q0 215 117.5 339t330.5 124h21q255 0 456 -121q18 -12 19 -35v-868q0 -27 -27 -27h-221q-18 0 -25 20l-16 86q-133 -133 -283 -133h-8q-180 0 -272 126t-92 315zM379 422q0 -205 149 -205h11q86 1 168 64v481q-90 51 -166 51h-11q-72 0 -112 -53 q-41 -55 -39 -154v-184z" />
<glyph horiz-adv-x="1091" d="M68 414v174q0 215 117.5 339t330.5 124h21q113 0 237.5 -33t218.5 -88q18 -12 19 -35v-868q0 -27 -27 -27h-221q-23 0 -25 20l-16 86q-133 -133 -283 -133h-8q-180 0 -272 126t-92 315zM379 422q0 -205 149 -205h11q86 1 168 64v481q-90 51 -166 51h-11q-72 0 -112 -53 q-41 -55 -39 -154v-184zM420 1174l155 313q10 25 37 24h219l-196 -335q-12 -18 -33 -19h-172z" />
<glyph horiz-adv-x="1091" d="M68 414v174q0 215 117.5 339t330.5 124h21q113 0 237.5 -33t218.5 -88q18 -12 19 -35v-868q0 -27 -27 -27h-221q-23 0 -25 20l-16 86q-133 -133 -283 -133h-8q-180 0 -272 126t-92 315zM258 1249v150q0 14 10 20q2 0 5 1t6 1q4 0 12 -4q53 -20 80 -31q76 -33 176 -32.5 t176 32.5q33 11 78 31q12 4 14 4t5 -1t5 -1q10 -6 11 -20v-150q0 -16 -19 -32q-106 -76 -270 -76t-271 76q-18 16 -18 32zM379 422q0 -205 149 -205h11q86 1 168 64v481q-90 51 -166 51h-11q-72 0 -112 -53q-41 -55 -39 -154v-184z" />
<glyph horiz-adv-x="1091" d="M68 414v174q0 215 117.5 339t330.5 124h21q255 0 456 -121q18 -12 19 -35v-868q0 -27 -27 -27h-221q-18 0 -25 20l-16 86q-133 -133 -283 -133h-8q-180 0 -272 126t-92 315zM229 1491q2 20 13 20h190q27 0 39 -24l76 -150l76 150q12 24 39 24h190q8 0 12 -6l-211 -329 q-12 -18 -35 -19h-145q-20 0 -33 19zM379 422q0 -205 149 -205h11q86 1 168 64v481q-90 51 -166 51h-11q-72 0 -112 -53q-41 -55 -39 -154v-184z" />
<glyph horiz-adv-x="1091" d="M68 414v174q0 215 117.5 339t330.5 124h21q255 0 456 -121q18 -12 19 -35v-868q0 -27 -27 -27h-221q-23 0 -25 20l-16 86q-133 -133 -283 -133h-8q-180 0 -272 126t-92 315zM229 1163l211 328q12 20 33 20h145q23 0 35 -20l209 -315q0 -18 -10 -19h-190q-27 0 -39 23 l-76 149l-78 -149q-10 -23 -37 -23h-190q-8 0 -13 6zM379 422q0 -205 149 -205h11q86 1 168 64v481q-90 51 -166 51h-11q-72 0 -112 -53q-41 -55 -39 -154v-184z" />
<glyph horiz-adv-x="1091" d="M68 414v174q0 215 117.5 339t330.5 124h21q113 0 237.5 -33t218.5 -88q18 -12 19 -35v-868q0 -27 -27 -27h-221q-23 0 -25 20l-16 86q-133 -133 -283 -133h-8q-180 0 -272 126t-92 315zM227 1190v254q0 26 27 26h213q29 0 29 -26v-254q0 -29 -29 -29h-213q-27 0 -27 29z M379 422q0 -205 149 -205h11q86 1 168 64v481q-90 51 -166 51h-11q-72 0 -112 -53q-41 -55 -39 -154v-184zM604 1190v254q0 26 27 26h213q29 0 28 -26v-254q0 -29 -28 -29h-213q-27 0 -27 29z" />
<glyph horiz-adv-x="1091" d="M68 414v174q0 215 117.5 339t330.5 124h21q113 0 237.5 -33t218.5 -88q18 -12 19 -35v-868q0 -27 -27 -27h-221q-23 0 -25 20l-16 86q-133 -133 -283 -133h-8q-180 0 -272 126t-92 315zM193 1491l229 20q29 1 37 -24l155 -313l-182 -17q-20 0 -33 19zM379 422 q0 -205 149 -205h11q86 1 168 64v481q-90 51 -166 51h-11q-72 0 -112 -53q-41 -55 -39 -154v-184z" />
<glyph horiz-adv-x="1091" d="M68 414v174q0 215 117.5 339t330.5 124h21q113 0 237.5 -33t218.5 -88q18 -12 19 -35v-868q0 -27 -27 -27h-221q-23 0 -25 20l-16 86q-133 -133 -283 -133h-8q-180 0 -272 126t-92 315zM315 1188v162q0 26 27 26h475q29 0 29 -26v-162q0 -27 -29 -27h-475q-27 0 -27 27z M379 422q0 -205 149 -205h11q86 1 168 64v481q-90 51 -166 51h-11q-47 0 -81 -22q-37 -27 -52 -70q-18 -45 -18 -115v-184z" />
<glyph horiz-adv-x="1091" d="M68 414v174q0 215 117.5 339t330.5 124h21q255 0 456 -121q18 -12 19 -35v-868q0 -27 -27 -27q-2 -2 -14.5 -13.5t-22.5 -21.5q-20 -18 -39 -41q-68 -68 -67 -127q0 -25 12 -43q16 -37 74 -37q8 0 41 4h6q10 0 10 -10v-94q0 -29 -27 -37q-41 -20 -104 -20 q-86 0 -140.5 47t-54.5 131q0 131 156 262h-51q-18 0 -25 20l-16 86q-133 -133 -283 -133h-8q-180 0 -272 126t-92 315zM379 422q0 -205 149 -205h11q86 1 168 64v481q-90 51 -166 51h-11q-72 0 -112 -53q-41 -55 -39 -154v-184z" />
<glyph horiz-adv-x="1091" d="M68 414v174q0 215 117.5 339t330.5 124h21q113 0 237.5 -33t218.5 -88q18 -12 19 -35v-868q0 -27 -27 -27h-221q-23 0 -25 20l-16 86q-133 -133 -283 -133h-8q-180 0 -272 126t-92 315zM352 1319q0 82 58.5 139.5t140.5 57.5q84 0 141.5 -57.5t57.5 -139.5 q0 -84 -57.5 -142.5t-141.5 -58.5q-82 0 -140.5 59.5t-58.5 141.5zM379 422q0 -205 149 -205h11q86 1 168 64v481q-90 51 -166 51h-11q-72 0 -112 -53q-41 -55 -39 -154v-184zM489.5 1319q-0.5 -25 18.5 -43q18 -20 45 -21q25 0 41 18.5t16 45.5q0 23 -16 43q-16 16 -41 16 t-45 -16q-18 -18 -18.5 -43z" />
<glyph horiz-adv-x="1091" d="M68 414v174q0 215 117.5 339t330.5 124h21q113 0 237.5 -33t218.5 -88q18 -12 19 -35v-868q0 -27 -27 -27h-221q-23 0 -25 20l-16 86q-133 -133 -283 -133h-8q-180 0 -272 126t-92 315zM262 1178q14 43 24.5 67.5t32 65.5t42 63.5t53 40t71.5 17.5h9q51 0 102 -39 q53 -41 80 -41q39 0 72 45q12 14 28 14h94q20 0 13 -20q-61 -201 -156 -240q-29 -14 -68 -14h-8q-49 0 -96 41q-47 39 -84 39q-31 0 -49 -19l-8 -8l-2 -4l-4 -6l-9 -9q-12 -14 -30 -14h-93q-20 0 -14 21zM379 422q0 -205 149 -205h11q86 1 168 64v481q-90 51 -166 51h-11 q-47 0 -81 -22q-37 -27 -52 -70q-18 -45 -18 -115v-184z" />
<glyph horiz-adv-x="1691" d="M68 414v174q0 215 117.5 339t330.5 124h21q168 0 282 -76q18 -12 19 -33v-33q129 142 338 142h22q203 0 316.5 -122t113.5 -327v-108q0 -18 -12 -31q-14 -12 -33 -12h-563v-33q0 -98 60.5 -152.5t160.5 -54.5h10q102 0 299 74q2 0 5.5 1t5.5 1h4l14 -209q0 -27 -23 -37 q-145 -68 -350 -68h-20q-190 0 -314 105v-51q0 -27 -26 -27h-82q-23 0 -25 20l-16 86q-133 -133 -283 -133h-8q-180 0 -272 126t-92 315zM379 422q0 -205 149 -205h11q86 0 168 64v481q-90 51 -166 51h-11q-72 0 -112 -53q-41 -55 -39 -154v-184zM1020 625h323 q7 204 -155 204h-8q-80 0 -118 -59t-42 -145z" />
<glyph d="M76 362v635q0 27 26 27h250q29 0 29 -27v-569q0 -74 26.5 -114t96.5 -40h8q80 0 172 62v661q0 27 29 27h250q27 0 26 -27v-927q0 -205 -133 -322t-338 -117h-8q-127 0 -260 29q-29 8 -98 31q-23 6 -23 37v186q0 12 8 18l10 5q6 0 9 -3q176 -70 282 -69h11q115 0 175 47 t60 160v78q-143 -119 -281 -119h-22q-150 0 -227.5 90t-77.5 241z" />
<glyph d="M76 362v635q0 27 26 27h250q29 0 29 -27v-569q0 -74 26.5 -114t96.5 -40h8q80 0 172 62v661q0 27 29 27h250q27 0 26 -27v-927q0 -205 -133 -322t-338 -117h-8q-129 0 -260 29q-29 8 -98 31q-23 6 -23 37v186q0 12 8 18l10 5q6 0 9 -3q176 -70 282 -69h11q115 0 175 47 t60 160v78q-143 -119 -281 -119h-22q-150 0 -227.5 90t-77.5 241zM440 1174l156 313q10 25 37 24h219l-197 -335q-12 -18 -32 -19h-174z" />
<glyph d="M76 362v635q0 27 26 27h250q29 0 29 -27v-569q0 -74 26.5 -114t96.5 -40h8q80 0 172 62v661q0 27 29 27h250q27 0 26 -27v-927q0 -205 -133 -322t-338 -117h-8q-127 0 -260 29q-29 8 -98 31q-23 6 -23 37v186q0 12 8 18l10 5q6 0 9 -3q176 -70 282 -69h11q115 0 175 47 t60 160v78q-143 -119 -281 -119h-22q-150 0 -227.5 90t-77.5 241zM215 1163l211 328q12 20 35 20h145q21 0 33 -20l211 -315q-2 -18 -12 -19h-191q-27 0 -39 23l-76 149l-75 -149q-12 -23 -39 -23h-191q-10 0 -12 6z" />
<glyph d="M76 362v635q0 27 26 27h250q29 0 29 -27v-569q0 -74 26.5 -114t96.5 -40h8q80 0 172 62v661q0 27 29 27h250q27 0 26 -27v-927q0 -205 -133 -322t-338 -117h-8q-127 0 -260 29q-29 8 -98 31q-23 6 -23 37v186q0 12 8 18l10 5q6 0 9 -3q176 -70 282 -69h11q115 0 175 47 t60 160v78q-143 -119 -281 -119h-22q-150 0 -227.5 90t-77.5 241zM211 1190v254q0 26 27 26h213q29 0 28 -26v-254q0 -29 -28 -29h-213q-27 0 -27 29zM588 1190v254q-1 26 26 26h213q27 0 27 -26v-254q0 -29 -27 -29h-213q-27 0 -26 29z" />
<glyph d="M76 362v635q0 27 26 27h250q29 0 29 -27v-569q0 -74 26.5 -114t96.5 -40h8q80 0 172 62v661q0 27 29 27h250q27 0 26 -27v-927q0 -205 -133 -322t-338 -117h-8q-129 0 -260 29q-29 8 -98 31q-23 6 -23 37v186q0 12 8 18l10 5q6 0 9 -3q176 -70 282 -69h11q115 0 175 47 t60 160v78q-143 -119 -281 -119h-22q-150 0 -227.5 90t-77.5 241zM201 1491q2 20 12 20h217q27 1 39 -24l156 -313l-183 -17q-23 0 -34 19z" />
<glyph horiz-adv-x="1007" d="M49 264v23q0 303 434 331l144 11v159h-471q-27 0 -27 27v182q0 27 27 27h749q27 0 27 -27v-970q0 -27 -27 -27h-221q-18 0 -25 20l-16 89q-137 -135 -293 -136h-10q-131 0 -211 80t-80 211zM354 317q0 -49 34 -80.5t83 -31.5h10q70 -1 146 67v179l-103 -2 q-170 -4 -170 -123v-9z" />
<glyph horiz-adv-x="1007" d="M49 264v23q0 303 434 331l144 11v159h-471q-27 0 -27 27v182q0 27 27 27h749q27 0 27 -27v-970q0 -27 -27 -27h-221q-18 0 -25 20l-16 89q-137 -135 -293 -136h-10q-131 0 -211 80t-80 211zM354 317q0 -49 34 -80.5t83 -31.5h10q70 -1 146 67v179l-103 -2 q-170 -4 -170 -123v-9zM408 1174l155 313q12 25 39 24h217l-194 -335q-12 -18 -35 -19h-172z" />
<glyph horiz-adv-x="1007" d="M49 264v23q0 303 434 331l144 11v159h-471q-27 0 -27 27v182q0 27 27 27h749q27 0 27 -27v-970q0 -27 -27 -27h-221q-18 0 -25 20l-16 89q-137 -135 -293 -136h-10q-131 0 -211 80t-80 211zM242 1249v150q0 14 10 20q2 0 5 1t5 1q4 0 12 -4q41 -16 62 -24q57 -25 123 -33 q35 -6 71 -6q102 0 175 32q28 11 79 31q12 4 14.5 4t5.5 -1t5 -1q8 -6 8 -20v-150q0 -16 -16 -32q-45 -35 -124 -55.5t-146.5 -20.5t-148.5 20.5t-124 55.5q-16 16 -16 32zM354 317q0 -49 34 -80.5t83 -31.5h10q70 -1 146 67v179l-103 -2q-170 -4 -170 -123v-9z" />
<glyph horiz-adv-x="1007" d="M49 264v23q0 303 434 331l144 11v159h-471q-27 0 -27 27v182q0 27 27 27h749q27 0 27 -27v-970q0 -27 -27 -27h-221q-18 0 -25 20l-16 89q-137 -135 -293 -136h-10q-131 0 -211 80t-80 211zM207 1491l203 20q25 0 36 -24l76 -150l78 150q10 24 37 24h192l-200 -335 q-12 -18 -33 -19h-145q-23 0 -35 19zM354 317q0 -49 34 -80.5t83 -31.5h10q70 -1 146 67v179l-103 -2q-170 -4 -170 -123v-9z" />
<glyph horiz-adv-x="1007" d="M49 264v23q0 303 434 331l144 11v159h-471q-27 0 -27 27v182q0 27 27 27h749q27 0 27 -27v-970q0 -27 -27 -27h-221q-18 0 -25 20l-16 89q-137 -135 -293 -136h-10q-131 0 -211 80t-80 211zM213 1157l199 334q12 20 34 20h146q21 0 33 -20l211 -315l-203 -19 q-27 0 -37 23l-78 149l-76 -149q-12 -23 -36 -23h-193zM354 317q0 -49 34 -80.5t83 -31.5h10q70 -1 146 67v179l-103 -2q-170 -4 -170 -123v-9z" />
<glyph horiz-adv-x="1007" d="M49 264v23q0 303 434 331l144 11v159h-471q-27 0 -27 27v182q0 27 27 27h749q27 0 27 -27v-970q0 -27 -27 -27h-221q-18 0 -25 20l-16 89q-137 -135 -293 -136h-10q-131 0 -211 80t-80 211zM182 1190v254q0 26 27 26h215q27 0 27 -26v-254q0 -29 -27 -29h-215 q-27 0 -27 29zM354 317q0 -49 34 -80.5t83 -31.5h10q70 -1 146 67v179l-103 -2q-170 -4 -170 -123v-9zM559 1190v254q0 26 27 26h213q29 0 28 -26v-254q0 -29 -28 -29h-213q-27 0 -27 29z" />
<glyph horiz-adv-x="1007" d="M49 264v23q0 303 434 331l144 11v159h-471q-27 0 -27 27v182q0 27 27 27h749q27 0 27 -27v-970q0 -27 -27 -27h-221q-18 0 -25 20l-16 89q-137 -135 -293 -136h-10q-131 0 -211 80t-80 211zM184 1491l230 20q29 1 37 -24l155 -313l-182 -17q-20 0 -33 19zM354 317 q0 -49 34 -80.5t83 -31.5h10q70 -1 146 67v179l-103 -2q-170 -4 -170 -123v-9z" />
<glyph horiz-adv-x="1007" d="M49 264v23q0 303 434 331l144 11v159h-471q-27 0 -27 27v182q0 27 27 27h749q27 0 27 -27v-970q0 -27 -27 -27h-221q-18 0 -25 20l-16 89q-137 -135 -293 -136h-10q-131 0 -211 80t-80 211zM272 1188v162q0 26 27 26h477q27 0 27 -26v-162q0 -27 -27 -27h-477 q-27 0 -27 27zM354 317q0 -49 34 -80.5t83 -31.5h10q70 -1 146 67v179l-103 -2q-170 -4 -170 -123v-9z" />
<glyph horiz-adv-x="1007" d="M49 264v23q0 303 434 331l144 11v159h-471q-27 0 -27 27v182q0 27 27 27h749q27 0 27 -27v-970q0 -27 -27 -27l-31 -31q-37 -31 -61 -63q-33 -37 -43 -70q-8 -18 -8 -39q0 -25 12 -43q16 -37 74 -37q8 0 41 4h6q10 0 10 -10v-94q0 -29 -26 -37q-41 -20 -105 -20 q-86 0 -139 46t-53 132q0 131 153 262h-51q-18 0 -25 20l-16 89q-137 -135 -293 -136h-10q-131 0 -211 80t-80 211zM354 317q0 -49 34 -80.5t83 -31.5h10q70 -1 146 67v179l-103 -2q-170 -4 -170 -123v-9z" />
<glyph horiz-adv-x="1007" d="M49 264v23q0 303 434 331l144 11v159h-471q-27 0 -27 27v182q0 27 27 27h749q27 0 27 -27v-970q0 -27 -27 -27h-221q-18 0 -25 20l-16 89q-137 -135 -293 -136h-10q-131 0 -211 80t-80 211zM334 1319q0 82 58 139.5t140 57.5q84 0 141.5 -57.5t57.5 -139.5 q0 -84 -57.5 -142.5t-141.5 -58.5q-82 0 -140 59.5t-58 141.5zM354 317q0 -49 34 -80.5t83 -31.5h10q70 -1 146 67v179l-103 -2q-170 -4 -170 -123v-9zM471 1319q0 -25 18 -43q18 -20 46 -21q25 0 43 19q16 20 16 45q0 23 -16 43q-20 16 -43 16q-25 0 -46 -16 q-18 -18 -18 -43z" />
<glyph horiz-adv-x="1007" d="M49 264v23q0 303 434 331l144 11v159h-471q-27 0 -27 27v182q0 27 27 27h749q27 0 27 -27v-970q0 -27 -27 -27h-221q-18 0 -25 20l-16 89q-137 -135 -293 -136h-10q-131 0 -211 80t-80 211zM231 1178q16 51 32 85.5t42.5 78.5t64.5 67t85 23h8q51 0 102 -39 q51 -41 78 -41q39 0 72 45q12 14 30 14h93q20 0 14 -20q-68 -182 -135 -228q-39 -27 -88 -26h-8q-47 0 -99 41q-47 39 -84 39q-16 0 -30 -7q-14 -10 -21 -14q-25 -39 -49 -39h-92q-23 0 -15 21zM354 317q0 -49 34 -80.5t83 -31.5h10q70 -1 146 67v179l-103 -2 q-170 -4 -170 -123v-9z" />
<glyph horiz-adv-x="1611" d="M49 264v23q0 303 434 331l144 11v159h-471q-27 0 -27 27v182q0 27 27 27h618q27 0 27 -27v-55q121 109 295 109h22q203 0 316.5 -122t113.5 -327v-108q0 -18 -12 -31q-16 -12 -33 -12h-563v-33q0 -98 60.5 -152.5t160.5 -54.5h10q102 0 299 74q4 2 8.5 2t12.5 -4 q8 -6 8 -17v-188q0 -27 -22 -37q-145 -68 -351 -68h-20q-186 0 -305 101v-47q0 -27 -27 -27h-90q-18 0 -25 20l-16 89q-137 -135 -293 -136h-10q-131 0 -211 80t-80 211zM354 317q0 -49 34 -80.5t83 -31.5h10q70 -1 146 67v179l-103 -2q-170 -4 -170 -123v-9zM940 625h324 q6 205 -156 204h-8q-80 0 -118 -59t-42 -145z" />
<glyph horiz-adv-x="804" d="M29 815v182q0 27 26 27h121v459q0 26 29 26h545q27 0 26 -26v-183q0 -27 -26 -26h-269v-250h199q27 0 27 -27v-182q0 -27 -27 -27h-199v-761q0 -27 -26 -27h-250q-29 0 -29 27v761h-121q-27 0 -26 27z" />
<glyph horiz-adv-x="1089" d="M68 471v117q0 213 116.5 338t329.5 125h21q111 0 238.5 -33t217.5 -88q18 -12 19 -35v-1210q0 -27 -27 -27h-801q-27 0 -26 27v182q0 27 26 27h525v239q-121 -102 -256 -102h-19q-180 0 -272 126t-92 314zM379 477q0 -203 147 -203h11q86 0 170 64v424q-94 51 -168 51 h-11q-150 0 -149 -203v-133z" />
<glyph horiz-adv-x="1089" d="M68 471v117q0 213 116.5 338t329.5 125h21q111 0 238.5 -33t217.5 -88q18 -12 19 -35v-1210q0 -27 -27 -27h-801q-27 0 -26 27v182q0 27 26 27h525v239q-121 -102 -256 -102h-19q-180 0 -272 126t-92 314zM256 1249v150q0 14 10 20q2 0 5 1t5.5 1t14.5 -4q45 -20 78 -31 q72 -33 178 -32q102 0 174 32q29 11 80 31q8 4 12 4q2 0 5 -1t5 -1q10 -6 11 -20v-150q0 -16 -19 -32q-45 -35 -124 -55.5t-146 -20.5q-164 0 -271 76q-18 16 -18 32zM379 477q0 -203 147 -203h11q86 0 170 64v424q-94 51 -168 51h-11q-150 0 -149 -203v-133z" />
<glyph horiz-adv-x="1089" d="M68 471v117q0 213 116.5 338t329.5 125h21q111 0 238.5 -33t217.5 -88q18 -12 19 -35v-1210q0 -27 -27 -27h-801q-27 0 -26 27v182q0 27 26 27h525v239q-121 -102 -256 -102h-19q-180 0 -272 126t-92 314zM379 477q0 -203 147 -203h11q86 0 170 64v424q-94 51 -168 51 h-11q-150 0 -149 -203v-133zM385 1184v168q0 33 10 53l121 219q16 25 37 25h141q10 0 17 -7q2 -8 0 -18l-121 -217h86q27 0 26 -27v-196q1 -27 -26 -27h-262q-29 0 -29 27z" />
<glyph horiz-adv-x="1089" d="M68 471v117q0 213 116.5 338t329.5 125h21q111 0 238.5 -33t217.5 -88q18 -12 19 -35v-1210q0 -27 -27 -27h-801q-27 0 -26 27v182q0 27 26 27h525v239q-121 -102 -256 -102h-19q-180 0 -272 126t-92 314zM379 477q0 -203 147 -203h11q86 0 170 64v424q-94 51 -168 51 h-11q-150 0 -149 -203v-133zM424 1190v254q0 26 29 26h256q27 0 26 -26v-254q0 -29 -26 -29h-256q-29 0 -29 29z" />
<glyph horiz-adv-x="751" d="M80 27v970q-1 27 26 27h590q27 0 27 -27v-182q0 -27 -27 -27h-311v-761q0 -27 -29 -27h-250q-27 0 -26 27z" />
<glyph horiz-adv-x="751" d="M80 27v970q-1 27 26 27h590q27 0 27 -27v-182q0 -27 -27 -27h-311v-761q0 -27 -29 -27h-250q-27 0 -26 27zM295 1174l156 313q12 25 38 24h218l-195 -335q-12 -18 -35 -19h-172z" />
<glyph horiz-adv-x="751" d="M59 1491q2 20 13 20h190q29 0 37 -24l78 -150l76 150q12 24 39 24h190q10 0 12 -6l-211 -329q-12 -18 -34 -19h-146q-20 0 -33 19zM80 27v970q-1 27 26 27h590q27 0 27 -27v-182q0 -27 -27 -27h-311v-761q0 -27 -29 -27h-250q-27 0 -26 27z" />
<glyph horiz-adv-x="751" d="M74 -569l119 217h-87q-27 0 -26 26v197q-1 27 26 27h265q27 0 26 -27v-168q0 -37 -10 -53l-121 -221q-16 -25 -37 -25h-141q-12 0 -14 8q-6 10 0 19zM80 27v970q-1 27 26 27h590q27 0 27 -27v-182q0 -27 -27 -27h-311v-761q0 -27 -29 -27h-250q-27 0 -26 27z" />
<glyph horiz-adv-x="749" d="M29 815v182q0 27 26 27h109v180q0 37 31 43l237 53q35 -18 35 -28v-248h227q29 0 29 -27v-182q0 -27 -29 -27h-227v-552h227q29 0 29 -27v-182q0 -27 -29 -27h-504q-27 0 -26 27v761h-109q-27 0 -26 27z" />
<glyph horiz-adv-x="749" d="M29 467v160q0 27 26 26h109v135h-109q-27 0 -26 27v182q0 27 26 27h109v180q0 37 31 43l237 53q35 -18 35 -28v-248h227q29 0 29 -27v-182q0 -27 -29 -27h-227v-135h227q29 0 29 -26v-162q0 -27 -29 -27h-227v-202h227q29 0 29 -27v-182q0 -27 -29 -27h-504q-27 0 -26 27 v413h-109q-27 0 -26 27z" />
<glyph horiz-adv-x="1153" d="M29 815v182q0 27 26 27h109v180q0 37 31 43l237 53q35 -18 35 -28v-248h227q29 0 29 -27v-182q0 -27 -29 -27h-227v-552h227q29 0 29 -27v-182q0 -27 -29 -27h-504q-27 0 -26 27v761h-109q-27 0 -26 27zM801 1040l121 220h-86q-27 0 -27 26v197q0 26 27 26h262 q29 0 28 -26v-168q0 -37 -12 -53l-119 -222q-16 -25 -37 -24h-141q-12 0 -14 8q-4 8 -2 16z" />
<glyph horiz-adv-x="749" d="M29 815v182q0 27 26 27h109v180q0 37 31 43l237 53q35 -18 35 -28v-248h227q29 0 29 -27v-182q0 -27 -29 -27h-227v-552h227q29 0 29 -27v-182q0 -27 -29 -27h-221l-18 -98q12 4 26 4q74 0 119 -44t45 -118q0 -92 -65.5 -138t-161.5 -46q-90 0 -148 30q-27 12 -26 39v58 q0 10 10 10t31 -8q29 -8 47 -13q37 -4 51 -4q84 0 84 56q0 53 -68 53q-31 0 -71 -14q-4 -2 -10.5 -2.5t-8.5 2.5l-10 4q-16 8 -12 24l41 205h-138q-27 0 -26 27v761h-109q-27 0 -26 27z" />
<glyph horiz-adv-x="749" d="M29 815v182q0 27 26 27h109v180q0 37 31 43l237 53q35 -18 35 -28v-248h227q29 0 29 -27v-182q0 -27 -29 -27h-227v-552h227q29 0 29 -27v-182q0 -27 -29 -27h-504q-27 0 -26 27v761h-109q-27 0 -26 27zM279 -569l118 217h-86q-27 0 -26 26v197q-1 27 26 27h264 q27 0 27 -27v-168q0 -37 -10 -53l-121 -221q-16 -25 -37 -25h-141q-12 0 -14 8q-6 10 0 19z" />
<glyph d="M76 362v635q0 27 26 27h250q29 0 29 -27v-569q0 -74 26.5 -114t96.5 -40h8q80 0 172 62v661q0 27 29 27h250q27 0 26 -27v-1312q0 -27 -26 -27h-801q-27 0 -27 27v182q0 27 27 27h522v256q-143 -119 -281 -119h-22q-150 0 -227.5 90t-77.5 241z" />
<glyph d="M76 362v635q0 27 26 27h250q29 0 29 -27v-569q0 -74 26.5 -114t96.5 -40h8q80 0 172 62v661q0 27 29 27h250q27 0 26 -27v-1312q0 -27 -26 -27h-801q-27 0 -27 27v182q0 27 27 27h522v256q-143 -119 -281 -119h-22q-150 0 -227.5 90t-77.5 241zM438 1174l156 313 q12 25 37 24h219l-195 -335q-12 -18 -34 -19h-172z" />
<glyph d="M76 362v635q0 27 26 27h250q29 0 29 -27v-569q0 -74 26.5 -114t96.5 -40h8q80 0 172 62v661q0 27 29 27h250q27 0 26 -27v-1312q0 -27 -26 -27h-801q-27 0 -27 27v182q0 27 27 27h522v256q-143 -119 -281 -119h-22q-150 0 -227.5 90t-77.5 241zM215 1163l211 328 q12 20 35 20h145q21 0 33 -20l211 -315q-2 -18 -12 -19h-191q-27 0 -39 23l-76 149l-75 -149q-12 -23 -39 -23h-191q-10 0 -12 6z" />
<glyph d="M76 362v635q0 27 26 27h250q29 0 29 -27v-569q0 -74 26.5 -114t96.5 -40h8q80 0 172 62v661q0 27 29 27h250q27 0 26 -27v-1312q0 -27 -26 -27h-801q-27 0 -27 27v182q0 27 27 27h522v256q-143 -119 -281 -119h-22q-150 0 -227.5 90t-77.5 241zM211 1190v254q0 26 27 26 h213q29 0 28 -26v-254q0 -29 -28 -29h-213q-27 0 -27 29zM588 1190v254q-1 26 26 26h213q27 0 27 -26v-254q0 -29 -27 -29h-213q-27 0 -26 29z" />
<glyph d="M76 362v635q0 27 26 27h250q29 0 29 -27v-569q0 -74 26.5 -114t96.5 -40h8q80 0 172 62v661q0 27 29 27h250q27 0 26 -27v-1312q0 -27 -26 -27h-801q-27 0 -27 27v182q0 27 27 27h522v256q-143 -119 -281 -119h-22q-150 0 -227.5 90t-77.5 241zM201 1491l229 20 q29 1 37 -24l156 -313l-183 -17q-20 0 -32 19z" />
<glyph horiz-adv-x="1091" d="M68 414v174q0 215 117.5 339t330.5 124h21q255 0 456 -121q18 -12 19 -35v-868q0 -27 -27 -27h-221q-18 0 -25 20l-16 86q-133 -133 -283 -133h-8q-180 0 -272 126t-92 315zM379 422q0 -205 149 -205h11q86 1 168 64v481q-90 51 -166 51h-11q-72 0 -112 -53 q-41 -55 -39 -154v-184z" />
<glyph d="M76 362v635q0 27 26 27h250q29 0 29 -27v-569q0 -74 26.5 -114t96.5 -40h8q80 0 172 62v661q0 27 29 27h250q27 0 26 -27v-927q0 -205 -133 -322t-338 -117h-8q-127 0 -260 29q-29 8 -98 31q-23 6 -23 37v186q0 12 8 18l10 5q6 0 9 -3q176 -70 282 -69h11q115 0 175 47 t60 160v78q-143 -119 -281 -119h-22q-150 0 -227.5 90t-77.5 241z" />
<glyph d="M76 362v635q0 27 26 27h250q29 0 29 -27v-569q0 -74 26.5 -114t96.5 -40h8q80 0 172 62v661q0 27 29 27h250q27 0 26 -27v-927q0 -205 -133 -322t-338 -117h-8q-127 0 -260 29q-29 8 -98 31q-23 6 -23 37v186q0 12 8 18l10 5q6 0 9 -3q176 -70 282 -69h11q115 0 175 47 t60 160v78q-143 -119 -281 -119h-22q-150 0 -227.5 90t-77.5 241zM242 1249v150q0 14 10 20l2 2h6t14 -4q53 -20 80 -31q76 -33 176 -32q39 0 72 6q66 8 123 33q39 16 59 24q12 4 14.5 4t5.5 -1t5 -1q8 -6 8 -20v-150q0 -16 -16 -32q-43 -35 -124 -55.5t-147 -20.5 q-68 0 -148.5 20.5t-123.5 55.5q-16 16 -16 32z" />
<glyph horiz-adv-x="1007" d="M49 264v23q0 303 434 331l144 11v159h-471q-27 0 -27 27v182q0 27 27 27h749q27 0 27 -27v-970q0 -27 -27 -27h-221q-18 0 -25 20l-16 89q-137 -135 -293 -136h-10q-131 0 -211 80t-80 211zM354 317q0 -49 34 -80.5t83 -31.5h10q70 -1 146 67v179l-103 -2 q-170 -4 -170 -123v-9z" />
<glyph horiz-adv-x="1093" d="M68 436v1047q0 27 26 26h807q27 0 27 -26v-183q0 -27 -27 -26h-522v-361q109 103 254 103h20q182 0 277.5 -126t95.5 -315v-139q0 -207 -133 -335t-340 -128h-23q-207 0 -334.5 128t-127.5 335zM379 422q0 -205 158 -205h10q86 0 127 58.5t41 146.5v145q0 205 -158 205 h-8q-82 0 -170 -65v-285z" />
<glyph horiz-adv-x="1591" d="M80 27v970q0 27 26 27h1379q27 0 26 -27v-970q1 -27 -26 -27h-250q-27 0 -27 27v761h-260v-761q0 -27 -26 -27h-250q-29 0 -29 27v761h-258v-761q0 -27 -29 -27h-250q-27 0 -26 27z" />
<glyph d="M76 362v635q0 27 26 27h250q29 0 29 -27v-569q0 -74 26.5 -114t96.5 -40h8q80 0 172 62v661q0 27 29 27h250q27 0 26 -27v-1312q0 -27 -26 -27h-801q-27 0 -27 27v182q0 27 27 27h522v256q-143 -119 -281 -119h-22q-150 0 -227.5 90t-77.5 241z" />
<glyph d="M76 362v635q0 27 26 27h250q29 0 29 -27v-569q0 -74 26.5 -114t96.5 -40h8q80 0 172 62v661q0 27 29 27h250q27 0 26 -27v-1312q0 -27 -26 -27h-801q-27 0 -27 27v182q0 27 27 27h522v256q-143 -119 -281 -119h-22q-150 0 -227.5 90t-77.5 241zM242 1249v150q0 14 10 20 l2 2h6t14 -4q53 -20 80 -31q76 -33 176 -32q39 0 72 6q66 8 123 33q39 16 59 24q12 4 14.5 4t5.5 -1t5 -1q8 -6 8 -20v-150q0 -16 -16 -32q-43 -35 -124 -55.5t-147 -20.5q-68 0 -148.5 20.5t-123.5 55.5q-16 16 -16 32z" />
<glyph horiz-adv-x="1224" d="M104 442v140q0 215 139.5 342t356.5 127h23q217 0 356 -127t139 -342v-140q0 -215 -139 -342t-356 -127h-23q-217 0 -356.5 127t-139.5 342zM424 455q0 -92 46 -148.5t136 -56.5h12q90 0 135.5 56t45.5 149v114q-1 205 -181 205h-12q-92 0 -137 -56t-45 -149v-114z" />
<glyph horiz-adv-x="901" d="M49 27v223q0 27 27 26h225v404l-225 -76l-27 266q0 29 27 37l315 109q25 8 55 8h148q27 0 27 -27v-721h206q27 0 27 -26v-223q0 -27 -27 -27h-751q-27 0 -27 27z" />
<glyph horiz-adv-x="1118" d="M90 27v94q0 23 25 39l276 186q143 94 198.5 155.5t55.5 127.5v6q0 37 -12 63q-16 29 -37 47q-53 39 -125 39h-10q-33 0 -84 -10q-23 -4 -82 -20l-121 -41q-4 -2 -10 -2t-10 4q-10 4 -11 16v219q0 31 25 41q55 25 153.5 42.5t165.5 17.5h15q215 0 342 -90 q127 -100 127 -259v-14q0 -211 -281 -375l-59 -37h370q27 0 27 -26v-223q0 -27 -27 -27h-884q-27 0 -27 27z" />
<glyph horiz-adv-x="1058" d="M90 721v229q0 31 25 41q57 27 160.5 43.5t181.5 16.5h14q215 0 354.5 -98.5t139.5 -301.5v-16q-1 -188 -181 -299q215 -94 215 -332v-20q0 -143 -79.5 -241.5t-194.5 -138.5t-254 -40h-14q-207 0 -338 59q-27 8 -27 41v230q0 10 10 16q8 4 13 4q6 0 10 -2 q31 -10 72 -24.5t49 -16.5q119 -31 192 -31h13q94 0 159 49q61 53 62 131v9q0 84 -58.5 126t-144.5 42h-186q-27 0 -27 28v176q0 29 27 29h157q84 0 144.5 41t60.5 121v18q0 78 -57.5 121t-136.5 43h-11q-121 0 -319 -72q-4 -2 -10.5 -2t-10.5 5q-10 6 -10 16z" />
<glyph horiz-adv-x="1277" d="M49 -41v170q0 51 29 104l479 760q16 31 53 31h361q27 0 26 -27v-788h205q27 0 27 -27v-223q0 -27 -27 -27h-205v-315q0 -27 -26 -27h-266q-27 0 -27 27v315h-602q-27 0 -27 27zM375 209h303v483z" />
<glyph horiz-adv-x="1075" d="M90 -106q0 10 10 16q4 4 10.5 4t10.5 -2q31 -10 71.5 -24.5t49.5 -16.5q123 -31 196 -31h11q104 0 171.5 51.5t67.5 151.5v8q0 104 -69.5 152.5t-180.5 48.5q-74 0 -235 -37q-2 0 -5 -1t-5 -1q-6 0 -23 8l-16 10q-25 14 -25 43v723q0 27 27 27h743q29 0 29 -27v-223 q0 -27 -29 -26h-455v-283q85 18 146 18q203 0 314.5 -117.5t111.5 -322.5v-18q0 -223 -158 -342t-389 -119h-14q-78 0 -180.5 16.5t-159.5 42.5q-25 8 -25 41v230z" />
<glyph horiz-adv-x="1206" d="M104 623v24q0 154 31 291t95.5 258t183 192.5t278.5 71.5h15q186 0 305 -59q27 -8 26 -41v-230q0 -10 -10 -16q-8 -4 -12 -4q-6 0 -10 2q-82 35 -158 59q-47 12 -115 13h-6q-258 0 -289 -361q138 76 283 76q205 0 314.5 -116.5t109.5 -323.5v-19q0 -211 -143.5 -339 t-356.5 -128h-12q-141 0 -246.5 53.5t-165 146.5t-88.5 204.5t-29 245.5zM432 510q0 -106 45 -183t146 -77h10q92 0 138 60.5t46 154.5v8q0 195 -184 195q-88 0 -201 -58v-100z" />
<glyph horiz-adv-x="1060" d="M49 774v223q0 27 27 27h909q27 0 27 -27v-192q0 -23 -13 -43l-376 -567q-14 -20 -15 -43v-535q0 -27 -26 -27h-265q-29 0 -28 27v580q0 63 30 106l312 445h-555q-27 0 -27 26z" />
<glyph horiz-adv-x="1204" d="M61 389v21q0 238 226 331q-84 49 -135.5 125t-51.5 168v19q0 199 140.5 303t347.5 104h26q207 0 348.5 -104.5t141.5 -302.5v-19q0 -92 -51.5 -169t-132.5 -122q223 -96 223 -333v-21q0 -109 -45 -190.5t-122 -130t-168 -72t-192 -23.5h-28q-137 0 -253 42t-195 138.5 t-79 235.5zM389 426q0 -84 53.5 -130t139.5 -46h41q86 0 139 46t53 130v8q0 49 -18 88q-45 84 -170 84h-49q-86 0 -137.5 -44t-51.5 -128v-8zM418 1008q0 -47 14 -70q14 -39 41 -55q37 -37 111 -37h32q76 0 123 43t47 119v16q0 76 -47 119t-123 43h-28q-74 0 -122 -44 t-48 -118v-16z" />
<glyph horiz-adv-x="1206" d="M61 565v19q0 211 143.5 339t356.5 128h12q143 0 249 -53.5t164 -146.5t86 -204.5t28 -245.5v-24q0 -156 -30 -292t-94.5 -258t-182 -192.5t-279.5 -70.5h-14q-184 0 -305 59q-27 8 -27 41v230q0 10 10 16q8 4 12 4q6 0 11 -2q82 -35 157 -59q47 -12 113 -13h8 q258 0 289 361q-137 -76 -285 -76q-203 0 -312.5 117.5t-109.5 322.5zM389 551q0 -92 47 -143.5t137.5 -51.5t198.5 58v100q0 111 -43 185.5t-145 74.5h-11q-94 0 -139 -60.5t-45 -154.5v-8z" />
<glyph horiz-adv-x="1341" d="M104 582v270q0 262 148.5 435t402.5 173h31q260 0 405.5 -174t145.5 -434v-270q0 -264 -147.5 -436.5t-403.5 -172.5h-31q-258 0 -404.5 175.5t-146.5 433.5zM432 553q0 -45 6 -86l334 698q-39 18 -92 19h-16q-123 0 -177.5 -86t-54.5 -217v-328zM571 266q43 -16 93 -16 h16q123 0 176 87t53 216v328q0 45 -6 86z" />
<glyph horiz-adv-x="1224" d="M104 442v140q0 215 139.5 342t356.5 127h23q217 0 356 -127t139 -342v-140q0 -215 -139 -342t-356 -127h-23q-217 0 -356.5 127t-139.5 342zM424 455q0 -80 31 -129l211 442q-23 6 -48 6h-12q-92 0 -137 -55.5t-45 -149.5v-114zM559 254q29 -4 47 -4h12q90 0 135.5 56.5 t45.5 148.5v114q0 76 -29 129z" />
<glyph horiz-adv-x="845" d="M49 336v102q0 158 99.5 259.5t257.5 101.5h36q158 0 257.5 -102.5t99.5 -258.5v-102q0 -158 -99.5 -260.5t-257.5 -102.5h-36q-158 0 -257.5 102.5t-99.5 260.5zM293 340q0 -68 29.5 -112t95.5 -44h12q66 0 95.5 44t29.5 112v92q0 156 -125 156h-12q-125 0 -125 -156v-92 z" />
<glyph horiz-adv-x="661" d="M49 27v155q0 29 27 29h147v315l-147 -45q-4 -2 -8 -2q-6 0 -11 4q-8 6 -8 17v147q0 29 27 37l233 80q25 8 56 8h63q27 0 27 -27v-534h131q27 0 26 -29v-155q0 -27 -26 -27h-510q-27 0 -27 27z" />
<glyph horiz-adv-x="690" d="M49 27v123q0 23 17 38l192 148q90 74 119 131q6 18 6 39v6q0 41 -27 66q-29 23 -71 22h-9q-14 0 -43 -4q-8 -2 -21 -5t-15 -3l-22.5 -7.5t-27.5 -7.5q-45 -16 -51 -18l-26 172q0 29 24 35q123 37 215 37h8q131 0 219.5 -65.5t88.5 -190.5v-13q0 -109 -127 -219 q-27 -25 -72 -59q-16 -12 -18 -14l-35 -27h241q27 0 27 -29v-155q0 -27 -27 -27h-538q-27 0 -27 27z" />
<glyph horiz-adv-x="665" d="M49 45v141q0 10 8 17q6 4 19 4q72 -27 117 -35q29 -10 67 -10h8q109 0 109 76v8q-4 66 -86 65h-90q-27 0 -27 27v102q0 27 27 27h78q43 0 63 20q23 18 23 50v6q0 31 -25 53q-29 18 -68 18h-6q-12 0 -41 -4q-33 -10 -37 -10t-21 -5t-30 -9q-47 -16 -51 -17h-6q-8 0 -12 4 q-8 2 -9 15v139q0 29 25 35q123 37 207 37h6q125 0 214 -57.5t89 -176.5v-10q0 -100 -102 -162q119 -51 118 -174v-10q0 -121 -97 -178.5t-226 -57.5h-6q-90 0 -215 37q-23 6 -23 35z" />
<glyph horiz-adv-x="833" d="M49 197v122q0 20 10 37l248 392q16 25 45 24h248q27 0 27 -27v-385h131q27 0 26 -26v-137q0 -27 -26 -27h-131v-143q0 -27 -27 -27h-176q-27 0 -27 27v143h-321q-27 0 -27 27zM250 360h147v232z" />
<glyph horiz-adv-x="665" d="M49 45v133q0 10 8 17q6 4 19 4q14 -2 43 -13q6 -2 20.5 -7t20.5 -7q2 0 8 -2l12 -4t13 -2q37 -10 69 -10h8q43 0 75 23.5t32 64.5v8q0 86 -109 86q-33 0 -118 -17h-7l-4 -2q-12 0 -24 9l-27 20q-20 14 -20 39v360q-1 27 26 27h441q27 0 26 -27v-137q0 -29 -26 -28h-259 v-111q59 12 101 12q109 0 175 -62.5t66 -170.5v-10q0 -129 -95 -197t-228 -68h-8q-90 0 -215 37q-23 6 -23 35z" />
<glyph horiz-adv-x="729" d="M49 352v10q0 182 95.5 309.5t271.5 127.5h8q55 0 124.5 -14.5t69.5 -51.5v-145q0 -12 -8 -19q-8 -4 -10 -4q-6 0 -8 2q-92 39 -152 39h-8q-137 0 -151 -155q78 31 149 30q115 0 183.5 -58t68.5 -171v-10q0 -123 -88 -196t-213 -73h-8q-59 0 -115 17q-209 74 -209 362z M279 256q0 -41 19 -71.5t58 -30.5h6q78 0 78 92v10q1 82 -75 82q-47 0 -86 -27v-55z" />
<glyph horiz-adv-x="565" d="M49 590v155q0 27 27 27h526q27 0 27 -27v-114q0 -20 -13 -43l-204 -301q-10 -16 -11 -31v-229q0 -27 -26 -27h-180q-29 0 -29 27v252q0 16 10 32l189 250h-289q-27 0 -27 29z" />
<glyph horiz-adv-x="749" d="M49 203v10q0 135 135 188q-111 57 -110 162v10q0 111 88 168.5t205 57.5h16q117 0 205 -57.5t88 -168.5v-10q0 -103 -109 -162q63 -31 95 -67q39 -51 38 -121v-10q0 -115 -96 -172.5t-219 -57.5h-20q-123 0 -219.5 57.5t-96.5 172.5zM276 225q0 -76 91 -75h16q47 0 70 20 q22 22 22 55v4q0 8 -4 29q-14 27 -43 39q-18 6 -41 6h-25q-86 0 -86 -74v-4zM285 545q0 -33 24.5 -51.5t57.5 -18.5h14q33 0 58.5 18.5t25.5 51.5v4q0 33 -25 55q-25 18 -61 19h-10q-37 0 -60.5 -19.5t-23.5 -54.5v-4z" />
<glyph horiz-adv-x="729" d="M49 520v10q0 125 88 197t213 72h6q59 0 115 -17q211 -76 211 -362v-10q0 -184 -95.5 -310.5t-273.5 -126.5h-6q-55 0 -125.5 15.5t-70.5 50.5v145q0 12 10 19q4 4 10 4t8 -2q92 -39 152 -39h6q133 0 152 156q-76 -31 -150 -31q-111 0 -180.5 60.5t-69.5 168.5zM289 516 q0 -82 76 -82q47 0 86 29v53q0 102 -78 102h-6q-27 0 -41 -12q-37 -25 -37 -80v-10z" />
<glyph horiz-adv-x="845" d="M49 997v103q0 160 100.5 260t256.5 100h36q160 0 258.5 -101.5t98.5 -258.5v-103q0 -158 -99.5 -260t-257.5 -102h-36q-158 0 -257.5 102.5t-99.5 259.5zM293 1001q0 -68 29.5 -111.5t95.5 -43.5h12q66 0 95.5 44t29.5 111v93q0 70 -35 118q-31 37 -90 37h-12 q-125 0 -125 -155v-93z" />
<glyph horiz-adv-x="661" d="M49 688v156q0 29 27 28h147v316l-147 -45q-4 -2 -8 -2q-6 0 -11 4q-8 6 -8 16v148q0 29 27 37l233 79q25 8 56 9h63q27 0 27 -27v-535h131q27 0 26 -28v-156q0 -27 -26 -26h-510q-27 0 -27 26z" />
<glyph horiz-adv-x="690" d="M49 688v123q0 23 17 39l192 147q72 63 96 95q29 39 29 75v7q0 41 -27 65q-29 23 -71 23h-9q-23 0 -33 -2.5t-34 -6.5l-31 -10q-12 -2 -39 -12l-43 -14l-26 172q0 29 24 34q123 37 215 37h8q131 0 219.5 -65.5t88.5 -190.5v-12q0 -109 -127 -219q-27 -25 -72 -60 q-16 -12 -18 -14l-35 -27h241q27 0 27 -28v-156q0 -27 -27 -26h-538q-27 0 -27 26z" />
<glyph horiz-adv-x="665" d="M49 707v141q0 10 8 16q6 4 19 4q4 0 10 -3t18.5 -6t22.5 -7q47 -16 51 -16l15 -5q14 -2 24 -4q33 -4 43 -4h8q43 0 76 18.5t33 57.5v8q0 27 -21 47q-23 18 -65 19h-90q-27 0 -27 26v103q0 27 27 26h78q43 0 63 21q23 18 23 49v6q0 33 -25 53q-29 18 -68 19h-6 q-12 0 -41 -4q-33 -10 -37 -10t-21 -5.5t-30 -9.5q-45 -14 -51 -16h-6q-8 0 -12 4q-8 2 -9 14v140q0 29 25 34q123 37 207 37h6q125 0 214 -57t89 -176v-10q0 -100 -102 -162q119 -51 118 -174v-11q0 -121 -97 -178t-226 -57h-6q-90 0 -215 37q-23 6 -23 35z" />
<glyph horiz-adv-x="833" d="M49 858v123q0 20 10 37l248 391q16 25 45 25h248q27 0 27 -27v-385h131q27 0 26 -27v-137q0 -27 -26 -27h-131v-143q0 -27 -27 -26h-176q-27 0 -27 26v143h-321q-27 0 -27 27zM250 1022h147v231z" />
<glyph horiz-adv-x="665" d="M49 707v133q0 10 8 16q6 4 19 4q72 -27 117 -35q37 -10 69 -10h8q43 0 75 22.5t32 65.5v8q0 49 -49 76q-27 10 -59.5 10t-118.5 -16q-2 0 -7 -2h-4q-12 0 -24 8l-27 21q-20 14 -20 39v360q-1 27 26 27h441q27 0 26 -27v-137q0 -29 -26 -29h-259v-111q59 12 101 13 q109 0 175 -62.5t66 -171.5v-10q0 -129 -94 -196.5t-229 -67.5h-8q-90 0 -215 37q-23 6 -23 35z" />
<glyph horiz-adv-x="729" d="M49 1014v10q0 182 95.5 309t271.5 127h8q55 0 124.5 -14t69.5 -51v-146q0 -12 -8 -18q-8 -4 -10 -4q-6 0 -8 2q-92 39 -152 39h-8q-133 0 -151 -156q74 31 149 31q115 0 183.5 -58.5t68.5 -171.5v-10q0 -123 -88 -195.5t-213 -72.5h-8q-61 0 -115 18q-209 59 -209 361z M279 918q0 -41 19 -72t58 -31h6q37 0 58 27q20 23 20 65v11q1 81 -75 81q-47 0 -86 -26v-55z" />
<glyph horiz-adv-x="565" d="M49 1251v156q0 27 27 27h526q27 0 27 -27v-115q0 -23 -13 -43l-204 -301q-10 -16 -11 -30v-230q0 -27 -26 -26h-180q-29 0 -29 26v252q0 16 10 33l189 250h-289q-27 0 -27 28z" />
<glyph horiz-adv-x="749" d="M49 864v10q0 131 133 189q-109 59 -108 162v10q0 111 88 168t205 57h16q117 0 205 -57t88 -168v-10q0 -103 -109 -162q133 -57 133 -189v-10q0 -115 -96 -172t-219 -57h-20q-123 0 -219.5 57.5t-96.5 171.5zM276 887q0 -76 91 -76h16q47 0 70 20q22 23 22 56v4 q0 74 -88 74h-25q-86 0 -86 -74v-4zM285 1206q0 -33 24.5 -51t57.5 -18h14q33 0 58.5 18.5t25.5 50.5v4q0 35 -25 56q-25 18 -61 18h-10q-37 0 -60.5 -19.5t-23.5 -54.5v-4z" />
<glyph horiz-adv-x="729" d="M49 1182v10q0 125 88 196.5t213 71.5h6q59 0 115 -16q211 -76 211 -363v-10q0 -184 -95.5 -310t-273.5 -126h-6q-55 0 -125.5 15.5t-70.5 49.5v146q0 12 10 18q4 4 10 4t8 -2q92 -39 152 -39h6q133 0 152 156q-76 -31 -150 -31q-111 0 -180.5 60.5t-69.5 169.5zM289 1178 q0 -82 76 -82q47 0 86 28v54q0 102 -78 102h-6q-35 0 -58 -25q-20 -27 -20 -67v-10z" />
<glyph horiz-adv-x="845" d="M49 336v102q0 158 99.5 259.5t257.5 101.5h36q158 0 257.5 -102.5t99.5 -258.5v-102q0 -158 -99.5 -260.5t-257.5 -102.5h-36q-158 0 -257.5 102.5t-99.5 260.5zM293 340q0 -53 14 -88l158 332q-20 4 -35 4h-12q-125 0 -125 -156v-92zM381 188q20 -4 37 -4h12 q66 0 95.5 44t29.5 112v92q0 51 -16 90z" />
<glyph horiz-adv-x="845" d="M49 997v103q0 160 100.5 260t256.5 100h36q160 0 258.5 -101.5t98.5 -258.5v-103q0 -158 -99.5 -260t-257.5 -102h-36q-158 0 -257.5 102.5t-99.5 259.5zM293 1001q0 -53 14 -88l158 332q-20 4 -35 4h-12q-125 1 -125 -155v-93zM381 850q20 -4 37 -4h12q66 0 95.5 43.5 t29.5 111.5v93q0 51 -16 90z" />
<glyph horiz-adv-x="1236" d="M121 27v1380q0 27 26 27h127v260q0 27 29 26h168q27 0 27 -26v-260h133v260q0 27 26 26h168q29 0 29 -26v-279q289 -63 289 -364v-17q0 -191 -174 -291q207 -96 207 -331v-21q0 -315 -322 -377v-274q0 -27 -29 -27h-168q-27 0 -26 27v260h-133v-260q0 -27 -27 -27h-168 q-29 0 -29 27v260h-127q-27 0 -26 27zM440 276h236q57 0 96 21q76 37 76 137v8q0 76 -43 121q-47 43 -135 43h-230v-330zM440 840h201q82 0 132 37.5t50 117.5v6q0 156 -178 156h-205v-317z" />
</font>
</defs>
</svg>
